<svg width="78" height="86" viewBox="0 0 78 86" fill="none" xmlns="http://www.w3.org/2000/svg">
<path d="M7.64859 84.1249L5.55542 85.3314L0.521605 76.5983L6.98133 72.8749L7.9801 74.6077L3.61355 77.1246L4.73217 79.0652L8.04521 77.1556L9.03599 78.8745L5.72296 80.7841L7.64859 84.1249ZM17.0645 73.9448L18.4709 75.3668L12.9418 80.8345L5.85404 73.6672L11.2807 68.3008L12.687 69.7229L8.95546 73.413L10.3505 74.8237L13.2516 71.9549L14.6354 73.3542L11.7343 76.2231L13.2306 77.7361L17.0645 73.9448ZM12.6993 68.4151L15.5622 70.5253L16.2507 67.9601L12.7159 68.3533L12.6993 68.4151ZM20.5204 67.4826L18.1989 67.7375L17.1413 71.6781L19.0232 73.0611L18.3927 75.41L9.70243 68.903L10.4034 66.2914L21.1923 64.9792L20.5204 67.4826ZM22.5012 60.102L21.875 62.4354L14.0711 60.341L13.1629 63.7252L11.2312 63.2068L13.6865 54.0585L15.6181 54.577L14.6974 58.0076L22.5012 60.102ZM25.0534 51.3335C24.7299 52.5388 24.1471 53.4758 23.2896 54.1402C22.432 54.8046 21.2847 54.944 19.8785 54.5666L13.9754 52.9823L14.6016 50.6488L20.1647 52.1419C21.7101 52.5567 22.6938 52.2243 23.0754 50.8026C23.457 49.3809 22.7914 48.5894 21.2461 48.1746L15.6675 46.6774L16.2938 44.344L22.1969 45.9283C23.6031 46.3057 24.5265 47.0008 24.9361 48.0053C25.3457 49.0098 25.381 50.1127 25.0534 51.3335ZM21.8547 41.7713L22.3981 39.7469C22.7257 38.5261 22.5166 37.8239 21.5739 37.5709C20.7086 37.3386 20.0678 37.8127 19.7401 39.0335L19.1968 41.0579L21.8547 41.7713ZM28.735 36.8754L28.0963 39.2552C27.7797 39.3855 27.1129 39.3391 26.0568 39.1385C24.9389 38.9213 24.4508 39.3204 24.1895 40.294L23.6628 42.2565L27.047 43.1648L26.429 45.4673L16.6936 42.8544L17.9544 38.1567C18.6304 35.6378 20.1521 34.7209 22.0065 35.2186C23.4282 35.6002 24.1065 36.7762 23.9304 37.988C24.4091 37.0065 25.1849 36.5852 26.342 36.7798C27.0736 36.8933 27.6001 36.9684 27.9216 37.005C28.2431 37.0416 28.5194 36.9997 28.735 36.8754ZM29.1214 27.7201L31.053 28.2385L29.0374 35.7488L19.3019 33.1359L21.2802 25.7647L23.2119 26.2832L21.8515 31.3518L23.7677 31.8661L24.8253 27.9255L26.726 28.4357L25.6684 32.3762L27.7237 32.9278L29.1214 27.7201ZM31.3905 26.9809L21.6551 24.368L22.6671 20.5975C23.0942 19.0058 23.8629 17.8702 24.9771 17.1753C26.0955 16.4649 27.4098 16.3207 28.9242 16.7271C30.4386 17.1336 31.504 17.9165 32.1164 19.0914C32.733 20.2509 32.8297 21.6187 32.4025 23.2104L31.3905 26.9809ZM30.1666 24.1344L30.5067 22.8672C31.0002 21.0283 30.1738 19.6634 28.2576 19.1491C26.3877 18.6473 24.9735 19.4108 24.48 21.2497L24.1399 22.5169L30.1666 24.1344ZM38.962 2.65554L42.9294 8.42416L42.9897 8.4026L42.3064 1.45887L44.5209 0.666479L45.4312 11.0466L42.9756 11.9253L39.0341 6.18138L38.9738 6.20294L39.571 13.1435L37.1456 14.0114L31.2791 5.40466L33.5538 4.5907L37.4459 10.3863L37.5061 10.3647L36.8982 3.39403L38.962 2.65554ZM55.861 9.3877C55.4599 10.887 54.6583 11.9644 53.4323 12.6468C52.2218 13.3333 50.9076 13.4786 49.501 13.1023C48.0945 12.726 47.0284 11.944 46.3223 10.7448C45.6162 9.54557 45.4596 8.21178 45.8606 6.7125C46.2617 5.21322 47.0634 4.13579 48.2739 3.4493C49.4844 2.76281 50.7986 2.61749 52.2052 2.99376C53.6117 3.37002 54.6778 4.1521 55.3839 5.3513C56.1054 6.55464 56.2621 7.88842 55.861 9.3877ZM53.4498 8.74268C53.9294 6.94972 53.2473 5.47536 51.6552 5.04947C50.0941 4.63186 48.7515 5.56457 48.2719 7.35753C47.7922 9.15048 48.4898 10.629 50.0509 11.0466C51.643 11.4725 52.9701 10.5356 53.4498 8.74268ZM59.4002 9.98667L61.425 10.5283C62.646 10.855 63.3481 10.6453 63.6003 9.70242C63.8318 8.83686 63.3572 8.19645 62.1362 7.8698L60.1114 7.32815L59.4002 9.98667ZM64.3017 16.8629L61.9214 16.2262C61.7907 15.9096 61.8366 15.2428 62.0364 14.1866C62.2526 13.0685 61.8531 12.5807 60.8794 12.3202L58.9164 11.7951L58.0109 15.1801L55.7079 14.564L58.3128 4.82637L63.0116 6.08335C65.531 6.75731 66.4491 8.27825 65.9529 10.133C65.5725 11.555 64.3971 12.2343 63.1852 12.0592C64.167 12.5372 64.5889 13.3125 64.3953 14.4698C64.2824 15.2015 64.2078 15.7281 64.1714 16.0496C64.1351 16.3712 64.1771 16.6474 64.3017 16.8629ZM74.4861 19.5873L71.673 18.8348L69.7691 14.0026L68.5966 14.7325L67.778 17.7928L65.4286 17.1644L68.0335 7.42676L70.3829 8.05525L69.2789 12.1821L74.1388 9.06L76.8437 9.78359L71.8786 12.9273L74.4861 19.5873Z" fill="black"/>
</svg>
