<svg width="171" height="63" viewBox="0 0 171 63" fill="none" xmlns="http://www.w3.org/2000/svg">
<g clip-path="url(#clip0_785_102)">
<circle cx="71.2422" cy="10.894" r="8.5" transform="rotate(7.29676 71.2422 10.894)" fill="#5D9871"/>
<circle cx="130.629" cy="19.5063" r="8.5" transform="rotate(7.29676 130.629 19.5063)" fill="#5D9871"/>
<mask id="path-3-outside-1_785_102" maskUnits="userSpaceOnUse" x="-9.64463" y="-59.2733" width="190.159" height="190" fill="black">
<rect fill="white" x="-9.64463" y="-59.2733" width="190.159" height="190"/>
<path d="M30.3809 43.1484L30.4685 43.1092L28.2739 19.5111L33.647 17.1031L33.9218 17.7164C31.1476 18.9596 31.068 19.4862 31.8663 21.2675L39.8231 39.0221C40.6214 40.8034 41.0674 41.0944 43.8416 39.8512L44.1164 40.4644L36.232 43.9979L35.9572 43.3846C38.7605 42.1283 38.8401 41.6017 38.0418 39.8204L29.5877 20.9561L29.5001 20.9954L31.9483 46.7241L31.0723 47.1167L13.8621 28.3543L13.7745 28.3936L22.1561 46.9396C22.9544 48.7209 23.3713 49.025 26.1615 47.7395L26.4494 48.3819L19.3826 51.549L19.1078 50.9357C21.9112 49.6794 21.9616 49.1659 21.1633 47.3846L13.2065 29.63C12.4082 27.8487 11.9914 27.5445 9.18802 28.8009L8.91319 28.1876L14.3447 25.7535L30.3809 43.1484ZM55.1562 35.3903L55.8049 35.2149C55.8043 36.8062 55.7427 38.0494 54.3218 38.4337C52.839 38.8347 52.1284 37.8003 51.719 36.2867L51.5603 35.6998L51.4985 35.7165C51.224 36.7852 50.5531 39.4528 48.051 40.1295C45.8887 40.7142 44.4207 39.4537 43.8109 37.1987C42.7584 33.3065 45.5583 31.1571 48.1846 28.8557L49.4218 27.7918L49.0041 26.2473C48.4361 24.1468 47.7604 22.5063 45.3818 23.1495C44.0226 23.517 43.1169 24.4581 43.3842 25.4466C43.5764 26.1571 44.2886 26.4617 44.4807 27.1722C44.6311 27.7282 44.2989 28.2159 43.6193 28.3997C42.847 28.6085 42.1999 28.0542 41.8574 26.7877C41.2977 24.718 42.761 22.8969 45.294 22.2119C47.827 21.5269 49.8318 22.4433 50.759 25.8722L53.474 35.9115C53.7496 36.9309 53.9451 37.4085 54.5011 37.2581C54.9645 37.1328 55.0554 36.611 55.1562 35.3903ZM48.3129 38.4012C49.703 38.0253 50.4042 36.9406 51.293 34.7113L49.6891 28.7803L48.4828 29.8358C46.2923 31.7873 44.8173 33.8105 45.5023 36.3435C45.9701 38.0734 46.9846 38.7604 48.3129 38.4012ZM62.7154 34.1964C66.6018 33.5733 69.4294 34.0275 69.9055 36.9975C70.402 40.094 67.2621 43.3521 62.7754 44.0714C59.7738 44.5527 56.7844 43.8976 56.3386 41.1171C56.0448 39.2845 56.996 37.7385 58.6272 35.9862C57.5136 35.711 56.9333 35.1234 56.7712 34.1123C56.5888 32.9749 57.2584 31.8953 58.1705 30.7119C56.7976 29.8302 55.7923 28.2089 55.458 26.1235C54.8805 22.5215 56.6289 19.6809 59.5358 19.2149C60.5784 19.0477 61.577 19.2117 62.4631 19.6854C63.5461 18.9608 64.7176 18.3841 65.9498 18.1865C66.645 18.0751 66.9383 18.2873 67.0142 18.7613C67.1054 19.33 66.7149 19.5223 66.0514 19.6286C64.9771 19.8009 64.2024 20.0223 63.4796 20.3651L63.2647 20.2375C64.3848 21.1598 65.2384 22.6434 65.5373 24.5076C66.1147 28.1096 64.3348 30.9552 61.4911 31.4111C60.5432 31.5631 59.6129 31.4206 58.7786 31.0682C58.1368 31.9165 57.7224 32.5663 57.8339 33.2614C58.0061 34.3357 59.0818 34.779 62.7154 34.1964ZM59.2656 20.3601C57.2056 20.8524 56.5983 22.9267 57.3678 26.109C58.1688 29.2862 59.7694 30.7797 61.7296 30.271C63.7581 29.7837 64.4235 27.6677 63.6325 24.5537C62.805 21.4131 61.289 19.8412 59.2656 20.3601ZM63.1123 42.3322C66.9039 41.7243 69.2821 39.9819 68.8819 37.4857C68.5425 35.3688 66.1385 35.3329 62.8841 35.8546C61.4306 36.0877 60.278 36.1752 59.3578 36.0959C57.8315 37.8962 57.3933 39.0035 57.5807 40.1726C57.8644 41.942 59.8263 42.859 63.1123 42.3322ZM71.1141 11.7319C70.2847 11.7978 69.596 11.2105 69.5301 10.3811C69.4668 9.58364 70.0515 8.86306 70.8809 8.79715C71.6784 8.73379 72.4015 9.35045 72.4649 10.1479C72.5308 10.9773 71.9116 11.6685 71.1141 11.7319ZM73.8644 31.8011C74.0216 33.7789 74.2778 34.1758 76.128 34.0288L76.1812 34.6987L70.2479 35.1702L70.1947 34.5003C72.0449 34.3533 72.2352 33.9208 72.078 31.9431L71.2391 21.3843C71.0819 19.4066 71.1178 19.0506 69.488 19.9505L69.1527 19.3673L72.3486 17.5725L72.7618 17.9248L73.8644 31.8011ZM84.2259 21.3033C84.1809 19.7356 83.7217 18.3954 82.3457 18.4068C79.8498 18.4276 78.6269 21.4459 78.6667 26.2138C78.705 30.8216 80.2981 33.8164 82.922 33.7946C84.6819 33.7799 85.8536 32.2981 86.6506 28.0993L87.3226 28.0937C86.8504 32.8658 85.1107 35.3124 82.3268 35.3356C78.7109 35.3657 76.7286 31.7341 76.6867 26.7103C76.6395 21.0465 78.9128 17.3474 82.4647 17.3178C85.2486 17.2946 86.6451 19.7471 86.6587 21.379C86.6661 22.275 86.3187 22.8219 85.5187 22.8285C84.7187 22.8352 84.2665 22.327 84.2259 21.3033ZM107.664 34.596L107.759 34.6144L119.551 14.0563L125.33 15.181L125.202 15.8407C122.218 15.26 121.85 15.6447 121.477 17.5608L117.76 36.6585C117.387 38.5746 117.585 39.0693 120.569 39.65L120.44 40.3097L111.959 38.6593L112.088 37.9996C115.103 38.5864 115.471 38.2017 115.844 36.2856L119.793 15.9943L119.699 15.9759L106.887 38.422L105.945 38.2387L102.676 12.9893L102.582 12.9709L98.7567 32.9604C98.3839 34.8765 98.5496 35.3651 101.571 35.9205L101.437 36.6115L93.8352 35.1323L93.9636 34.4727C96.979 35.0595 97.3159 34.6686 97.6888 32.7526L101.405 13.6548C101.778 11.7388 101.612 11.2501 98.5969 10.6633L98.7253 10.0037L104.568 11.1406L107.664 34.596ZM130.994 19.3407C130.206 19.074 129.805 18.2626 130.071 17.4745C130.328 16.7167 131.149 16.2853 131.938 16.5521C132.695 16.8085 133.116 17.6605 132.86 18.4183C132.593 19.2064 131.752 19.5972 130.994 19.3407ZM125.601 38.8666C124.965 40.7458 125.044 41.2117 126.802 41.8067L126.587 42.4432L120.949 40.5351L121.164 39.8986C122.922 40.4936 123.268 40.1713 123.904 38.2921L127.3 28.2591C127.936 26.3798 128.109 26.0669 126.256 26.2507L126.179 25.5824L129.823 25.1944L130.064 25.6813L125.601 38.8666ZM137.119 28.5261L136.096 30.9078L136.184 30.9457C137.912 29.8417 139.711 29.221 141.299 29.9027C143.416 30.8117 143.499 32.7278 142.489 35.0801L138.537 44.2837C137.754 46.1068 137.796 46.5775 139.531 47.3223L139.266 47.9398L133.826 45.6043L134.091 44.9868C135.767 45.7064 136.137 45.4125 136.92 43.5894L140.871 34.3858C141.616 32.6509 141.436 31.5289 140.231 31.0113C138.966 30.4685 137.252 31.0556 135.667 31.9076L131.627 41.317C130.844 43.1401 130.886 43.6107 132.533 44.3177L132.268 44.9352L126.857 42.6123L127.122 41.9948C128.828 42.727 129.198 42.4331 129.98 40.61L134.159 30.8772C134.942 29.0541 135.14 28.7559 133.278 28.7925L133.253 28.1202L136.917 28.0217L137.119 28.5261ZM151.428 53.3097L151.375 53.9805L147.74 53.6316L147.61 53.1512L148.961 50.7909L148.85 50.7273C146.797 51.8009 145.241 52.2003 143.741 51.3415C140.853 49.6876 141.028 45.8417 143.461 41.5931C145.974 37.2057 149.779 34.0381 153.25 36.026C154.611 36.8053 155.157 38.2982 155.283 39.624L155.339 39.6558L158.949 33.3524C159.951 31.603 160.181 31.3294 158.328 31.1529L158.38 30.4822L162.015 30.831L162.146 31.3114L150.807 51.1102C149.805 52.8596 149.574 53.1333 151.428 53.3097ZM149.629 49.6247L152.889 43.9321C154.718 40.7388 154.681 38.0993 152.904 37.0815C150.238 35.5547 147.425 38.6638 145.549 41.9404C143.354 45.7725 142.751 49.0782 144.917 50.3186C146.583 51.2728 148.136 50.4289 149.629 49.6247Z"/>
</mask>
<path d="M30.3809 43.1484L30.4685 43.1092L28.2739 19.5111L33.647 17.1031L33.9218 17.7164C31.1476 18.9596 31.068 19.4862 31.8663 21.2675L39.8231 39.0221C40.6214 40.8034 41.0674 41.0944 43.8416 39.8512L44.1164 40.4644L36.232 43.9979L35.9572 43.3846C38.7605 42.1283 38.8401 41.6017 38.0418 39.8204L29.5877 20.9561L29.5001 20.9954L31.9483 46.7241L31.0723 47.1167L13.8621 28.3543L13.7745 28.3936L22.1561 46.9396C22.9544 48.7209 23.3713 49.025 26.1615 47.7395L26.4494 48.3819L19.3826 51.549L19.1078 50.9357C21.9112 49.6794 21.9616 49.1659 21.1633 47.3846L13.2065 29.63C12.4082 27.8487 11.9914 27.5445 9.18802 28.8009L8.91319 28.1876L14.3447 25.7535L30.3809 43.1484ZM55.1562 35.3903L55.8049 35.2149C55.8043 36.8062 55.7427 38.0494 54.3218 38.4337C52.839 38.8347 52.1284 37.8003 51.719 36.2867L51.5603 35.6998L51.4985 35.7165C51.224 36.7852 50.5531 39.4528 48.051 40.1295C45.8887 40.7142 44.4207 39.4537 43.8109 37.1987C42.7584 33.3065 45.5583 31.1571 48.1846 28.8557L49.4218 27.7918L49.0041 26.2473C48.4361 24.1468 47.7604 22.5063 45.3818 23.1495C44.0226 23.517 43.1169 24.4581 43.3842 25.4466C43.5764 26.1571 44.2886 26.4617 44.4807 27.1722C44.6311 27.7282 44.2989 28.2159 43.6193 28.3997C42.847 28.6085 42.1999 28.0542 41.8574 26.7877C41.2977 24.718 42.761 22.8969 45.294 22.2119C47.827 21.5269 49.8318 22.4433 50.759 25.8722L53.474 35.9115C53.7496 36.9309 53.9451 37.4085 54.5011 37.2581C54.9645 37.1328 55.0554 36.611 55.1562 35.3903ZM48.3129 38.4012C49.703 38.0253 50.4042 36.9406 51.293 34.7113L49.6891 28.7803L48.4828 29.8358C46.2923 31.7873 44.8173 33.8105 45.5023 36.3435C45.9701 38.0734 46.9846 38.7604 48.3129 38.4012ZM62.7154 34.1964C66.6018 33.5733 69.4294 34.0275 69.9055 36.9975C70.402 40.094 67.2621 43.3521 62.7754 44.0714C59.7738 44.5527 56.7844 43.8976 56.3386 41.1171C56.0448 39.2845 56.996 37.7385 58.6272 35.9862C57.5136 35.711 56.9333 35.1234 56.7712 34.1123C56.5888 32.9749 57.2584 31.8953 58.1705 30.7119C56.7976 29.8302 55.7923 28.2089 55.458 26.1235C54.8805 22.5215 56.6289 19.6809 59.5358 19.2149C60.5784 19.0477 61.577 19.2117 62.4631 19.6854C63.5461 18.9608 64.7176 18.3841 65.9498 18.1865C66.645 18.0751 66.9383 18.2873 67.0142 18.7613C67.1054 19.33 66.7149 19.5223 66.0514 19.6286C64.9771 19.8009 64.2024 20.0223 63.4796 20.3651L63.2647 20.2375C64.3848 21.1598 65.2384 22.6434 65.5373 24.5076C66.1147 28.1096 64.3348 30.9552 61.4911 31.4111C60.5432 31.5631 59.6129 31.4206 58.7786 31.0682C58.1368 31.9165 57.7224 32.5663 57.8339 33.2614C58.0061 34.3357 59.0818 34.779 62.7154 34.1964ZM59.2656 20.3601C57.2056 20.8524 56.5983 22.9267 57.3678 26.109C58.1688 29.2862 59.7694 30.7797 61.7296 30.271C63.7581 29.7837 64.4235 27.6677 63.6325 24.5537C62.805 21.4131 61.289 19.8412 59.2656 20.3601ZM63.1123 42.3322C66.9039 41.7243 69.2821 39.9819 68.8819 37.4857C68.5425 35.3688 66.1385 35.3329 62.8841 35.8546C61.4306 36.0877 60.278 36.1752 59.3578 36.0959C57.8315 37.8962 57.3933 39.0035 57.5807 40.1726C57.8644 41.942 59.8263 42.859 63.1123 42.3322ZM71.1141 11.7319C70.2847 11.7978 69.596 11.2105 69.5301 10.3811C69.4668 9.58364 70.0515 8.86306 70.8809 8.79715C71.6784 8.73379 72.4015 9.35045 72.4649 10.1479C72.5308 10.9773 71.9116 11.6685 71.1141 11.7319ZM73.8644 31.8011C74.0216 33.7789 74.2778 34.1758 76.128 34.0288L76.1812 34.6987L70.2479 35.1702L70.1947 34.5003C72.0449 34.3533 72.2352 33.9208 72.078 31.9431L71.2391 21.3843C71.0819 19.4066 71.1178 19.0506 69.488 19.9505L69.1527 19.3673L72.3486 17.5725L72.7618 17.9248L73.8644 31.8011ZM84.2259 21.3033C84.1809 19.7356 83.7217 18.3954 82.3457 18.4068C79.8498 18.4276 78.6269 21.4459 78.6667 26.2138C78.705 30.8216 80.2981 33.8164 82.922 33.7946C84.6819 33.7799 85.8536 32.2981 86.6506 28.0993L87.3226 28.0937C86.8504 32.8658 85.1107 35.3124 82.3268 35.3356C78.7109 35.3657 76.7286 31.7341 76.6867 26.7103C76.6395 21.0465 78.9128 17.3474 82.4647 17.3178C85.2486 17.2946 86.6451 19.7471 86.6587 21.379C86.6661 22.275 86.3187 22.8219 85.5187 22.8285C84.7187 22.8352 84.2665 22.327 84.2259 21.3033ZM107.664 34.596L107.759 34.6144L119.551 14.0563L125.33 15.181L125.202 15.8407C122.218 15.26 121.85 15.6447 121.477 17.5608L117.76 36.6585C117.387 38.5746 117.585 39.0693 120.569 39.65L120.44 40.3097L111.959 38.6593L112.088 37.9996C115.103 38.5864 115.471 38.2017 115.844 36.2856L119.793 15.9943L119.699 15.9759L106.887 38.422L105.945 38.2387L102.676 12.9893L102.582 12.9709L98.7567 32.9604C98.3839 34.8765 98.5496 35.3651 101.571 35.9205L101.437 36.6115L93.8352 35.1323L93.9636 34.4727C96.979 35.0595 97.3159 34.6686 97.6888 32.7526L101.405 13.6548C101.778 11.7388 101.612 11.2501 98.5969 10.6633L98.7253 10.0037L104.568 11.1406L107.664 34.596ZM130.994 19.3407C130.206 19.074 129.805 18.2626 130.071 17.4745C130.328 16.7167 131.149 16.2853 131.938 16.5521C132.695 16.8085 133.116 17.6605 132.86 18.4183C132.593 19.2064 131.752 19.5972 130.994 19.3407ZM125.601 38.8666C124.965 40.7458 125.044 41.2117 126.802 41.8067L126.587 42.4432L120.949 40.5351L121.164 39.8986C122.922 40.4936 123.268 40.1713 123.904 38.2921L127.3 28.2591C127.936 26.3798 128.109 26.0669 126.256 26.2507L126.179 25.5824L129.823 25.1944L130.064 25.6813L125.601 38.8666ZM137.119 28.5261L136.096 30.9078L136.184 30.9457C137.912 29.8417 139.711 29.221 141.299 29.9027C143.416 30.8117 143.499 32.7278 142.489 35.0801L138.537 44.2837C137.754 46.1068 137.796 46.5775 139.531 47.3223L139.266 47.9398L133.826 45.6043L134.091 44.9868C135.767 45.7064 136.137 45.4125 136.92 43.5894L140.871 34.3858C141.616 32.6509 141.436 31.5289 140.231 31.0113C138.966 30.4685 137.252 31.0556 135.667 31.9076L131.627 41.317C130.844 43.1401 130.886 43.6107 132.533 44.3177L132.268 44.9352L126.857 42.6123L127.122 41.9948C128.828 42.727 129.198 42.4331 129.98 40.61L134.159 30.8772C134.942 29.0541 135.14 28.7559 133.278 28.7925L133.253 28.1202L136.917 28.0217L137.119 28.5261ZM151.428 53.3097L151.375 53.9805L147.74 53.6316L147.61 53.1512L148.961 50.7909L148.85 50.7273C146.797 51.8009 145.241 52.2003 143.741 51.3415C140.853 49.6876 141.028 45.8417 143.461 41.5931C145.974 37.2057 149.779 34.0381 153.25 36.026C154.611 36.8053 155.157 38.2982 155.283 39.624L155.339 39.6558L158.949 33.3524C159.951 31.603 160.181 31.3294 158.328 31.1529L158.38 30.4822L162.015 30.831L162.146 31.3114L150.807 51.1102C149.805 52.8596 149.574 53.1333 151.428 53.3097ZM149.629 49.6247L152.889 43.9321C154.718 40.7388 154.681 38.0993 152.904 37.0815C150.238 35.5547 147.425 38.6638 145.549 41.9404C143.354 45.7725 142.751 49.0782 144.917 50.3186C146.583 51.2728 148.136 50.4289 149.629 49.6247Z" fill="#FFFEFC"/>
<path d="M30.3809 43.1484L24.499 48.5709C26.8296 51.099 30.5149 51.855 33.6526 50.4489L30.3809 43.1484ZM30.4685 43.1092L33.7402 50.4096C36.8642 49.0096 38.7512 45.777 38.4342 42.3684L30.4685 43.1092ZM28.2739 19.5111L25.0022 12.2107C21.8782 13.6107 19.9912 16.8433 20.3083 20.2519L28.2739 19.5111ZM33.647 17.1031L40.9474 13.8314C39.1405 9.79952 34.4072 7.9958 30.3753 9.80271L33.647 17.1031ZM33.9218 17.7164L37.1935 25.0168C39.1297 24.1491 40.6419 22.5477 41.3974 20.5651C42.1529 18.5824 42.0899 16.3808 41.2222 14.4447L33.9218 17.7164ZM39.8231 39.0221L32.5227 42.2938L39.8231 39.0221ZM43.8416 39.8512L51.142 36.5795C50.2743 34.6433 48.673 33.1311 46.6903 32.3756C44.7077 31.6201 42.5061 31.6831 40.5699 32.5508L43.8416 39.8512ZM44.1164 40.4644L47.3881 47.7648C51.42 45.9579 53.2237 41.2246 51.4168 37.1927L44.1164 40.4644ZM36.232 43.9979L28.9316 47.2696C29.7993 49.2058 31.4006 50.718 33.3833 51.4735C35.3659 52.229 37.5675 52.166 39.5037 51.2983L36.232 43.9979ZM35.9572 43.3846L32.6855 36.0842C28.6536 37.8911 26.8498 42.6244 28.6567 46.6563L35.9572 43.3846ZM38.0418 39.8204L30.7414 43.0921L38.0418 39.8204ZM29.5877 20.9561L36.8882 17.6844C35.0812 13.6525 30.3479 11.8488 26.316 13.6557L29.5877 20.9561ZM29.5001 20.9954L26.2284 13.695C23.0987 15.0976 21.2112 18.339 21.5361 21.7532L29.5001 20.9954ZM31.9483 46.7241L35.22 54.0245C38.3497 52.622 40.2372 49.3805 39.9123 45.9663L31.9483 46.7241ZM31.0723 47.1167L25.1768 52.5245C27.506 55.0638 31.1995 55.8263 34.344 54.4171L31.0723 47.1167ZM13.8621 28.3543L19.7576 22.9466C17.4284 20.4073 13.7349 19.6447 10.5904 21.0539L13.8621 28.3543ZM13.7745 28.3936L10.5028 21.0931C8.56265 21.9626 7.0484 23.5687 6.29444 25.5566C5.54048 27.5445 5.60884 29.7508 6.48443 31.6882L13.7745 28.3936ZM22.1561 46.9396L29.4565 43.6679C29.4531 43.6603 29.4497 43.6526 29.4462 43.645L22.1561 46.9396ZM26.1615 47.7395L33.4619 44.4678C32.5883 42.5184 30.9714 40.9994 28.9713 40.2492C26.9712 39.4989 24.7541 39.5797 22.814 40.4736L26.1615 47.7395ZM26.4494 48.3819L29.7211 55.6824C33.753 53.8754 35.5568 49.1422 33.7498 45.1103L26.4494 48.3819ZM19.3826 51.549L12.0822 54.8207C12.9499 56.7568 14.5513 58.269 16.5339 59.0246C18.5166 59.7801 20.7182 59.7171 22.6543 58.8494L19.3826 51.549ZM19.1078 50.9357L15.8361 43.6353C11.8042 45.4422 10.0005 50.1755 11.8074 54.2074L19.1078 50.9357ZM9.18802 28.8009L1.88761 32.0726C3.69451 36.1045 8.42781 37.9082 12.4597 36.1013L9.18802 28.8009ZM8.91319 28.1876L5.64149 20.8872C3.7053 21.7549 2.19311 23.3563 1.43758 25.3389C0.682057 27.3216 0.745076 29.5232 1.61279 31.4593L8.91319 28.1876ZM14.3447 25.7535L20.2266 20.331C17.896 17.803 14.2107 17.0469 11.073 18.4531L14.3447 25.7535ZM30.3809 43.1484L33.6526 50.4489L33.7402 50.4096L30.4685 43.1092L27.1968 35.8088L27.1092 35.848L30.3809 43.1484ZM30.4685 43.1092L38.4342 42.3684L36.2395 18.7703L28.2739 19.5111L20.3083 20.2519L22.5029 43.85L30.4685 43.1092ZM28.2739 19.5111L31.5456 26.8115L36.9187 24.4035L33.647 17.1031L30.3753 9.80271L25.0022 12.2107L28.2739 19.5111ZM33.647 17.1031L26.3466 20.3748L26.6214 20.9881L33.9218 17.7164L41.2222 14.4447L40.9474 13.8314L33.647 17.1031ZM33.9218 17.7164L30.6501 10.4159C29.859 10.7705 28.8663 11.2433 27.9372 11.8513C27.0441 12.4358 25.5106 13.5865 24.4671 15.5793C23.2824 17.8421 23.2987 20.0576 23.6048 21.6479C23.8581 22.9641 24.3578 24.0749 24.5659 24.5392L31.8663 21.2675L39.1668 17.9958C38.9757 17.5695 39.186 17.9465 39.3164 18.624C39.4996 19.5758 39.5596 21.248 38.6417 23.001C37.8651 24.4841 36.8218 25.1587 36.6989 25.2391C36.54 25.3431 36.5975 25.2839 37.1935 25.0168L33.9218 17.7164ZM31.8663 21.2675L24.5659 24.5392L32.5227 42.2938L39.8231 39.0221L47.1235 35.7504L39.1668 17.9958L31.8663 21.2675ZM39.8231 39.0221L32.5227 42.2938C32.7308 42.7582 33.2273 43.8704 34.0411 44.9353C35.0245 46.2222 36.6672 47.7088 39.1446 48.3304C41.3265 48.8778 43.2058 48.4989 44.2365 48.2213C45.3087 47.9325 46.3222 47.5061 47.1133 47.1516L43.8416 39.8512L40.5699 32.5508C39.9739 32.8179 39.8914 32.8214 40.0748 32.772C40.2166 32.7338 41.4144 32.4039 43.0383 32.8114C44.9576 33.2929 46.1657 34.4504 46.7542 35.2206C47.1732 35.7688 47.3146 36.1767 47.1235 35.7504L39.8231 39.0221ZM43.8416 39.8512L36.5412 43.1229L36.816 43.7361L44.1164 40.4644L51.4168 37.1927L51.142 36.5795L43.8416 39.8512ZM44.1164 40.4644L40.8447 33.164L32.9603 36.6975L36.232 43.9979L39.5037 51.2983L47.3881 47.7648L44.1164 40.4644ZM36.232 43.9979L43.5324 40.7262L43.2576 40.1129L35.9572 43.3846L28.6567 46.6563L28.9316 47.2696L36.232 43.9979ZM35.9572 43.3846L39.2289 50.685C40.026 50.3278 41.0198 49.8545 41.9484 49.2488C42.8383 48.6683 44.3721 47.524 45.4215 45.5405C46.6177 43.2794 46.6117 41.0574 46.3052 39.4519C46.0524 38.1279 45.5495 37.0113 45.3422 36.5487L38.0418 39.8204L30.7414 43.0921C30.9333 43.5202 30.7198 43.1373 30.589 42.4523C30.4045 41.4859 30.353 39.808 31.2787 38.0583C32.0576 36.5861 33.0957 35.9204 33.2072 35.8476C33.3574 35.7496 33.29 35.8133 32.6855 36.0842L35.9572 43.3846ZM38.0418 39.8204L45.3422 36.5487L36.8882 17.6844L29.5877 20.9561L22.2873 24.2278L30.7414 43.0921L38.0418 39.8204ZM29.5877 20.9561L26.316 13.6557L26.2284 13.695L29.5001 20.9954L32.7718 28.2958L32.8594 28.2565L29.5877 20.9561ZM29.5001 20.9954L21.5361 21.7532L23.9843 47.4819L31.9483 46.7241L39.9123 45.9663L37.4642 20.2376L29.5001 20.9954ZM31.9483 46.7241L28.6766 39.4237L27.8006 39.8163L31.0723 47.1167L34.344 54.4171L35.22 54.0245L31.9483 46.7241ZM31.0723 47.1167L36.9677 41.709L19.7576 22.9466L13.8621 28.3543L7.96665 33.762L25.1768 52.5245L31.0723 47.1167ZM13.8621 28.3543L10.5904 21.0539L10.5028 21.0931L13.7745 28.3936L17.0462 35.694L17.1338 35.6547L13.8621 28.3543ZM13.7745 28.3936L6.48443 31.6882L14.866 50.2343L22.1561 46.9396L29.4462 43.645L21.0646 25.0989L13.7745 28.3936ZM22.1561 46.9396L14.8557 50.2113C15.0519 50.6491 15.5415 51.7544 16.3352 52.8086C17.2982 54.0877 18.9454 55.6201 21.4741 56.2514C23.6967 56.8063 25.6049 56.3978 26.63 56.1105C27.7025 55.8099 28.717 55.3704 29.5091 55.0054L26.1615 47.7395L22.814 40.4736C22.2109 40.7514 22.127 40.756 22.3116 40.7042C22.4488 40.6658 23.6797 40.311 25.3496 40.7279C27.3255 41.2211 28.5445 42.4239 29.1175 43.1851C29.5214 43.7215 29.6595 44.1208 29.4565 43.6679L22.1561 46.9396ZM26.1615 47.7395L18.8611 51.0112L19.149 51.6536L26.4494 48.3819L33.7498 45.1103L33.4619 44.4678L26.1615 47.7395ZM26.4494 48.3819L23.1777 41.0815L16.1109 44.2485L19.3826 51.549L22.6543 58.8494L29.7211 55.6824L26.4494 48.3819ZM19.3826 51.549L26.683 48.2773L26.4082 47.664L19.1078 50.9357L11.8074 54.2074L12.0822 54.8207L19.3826 51.549ZM19.1078 50.9357L22.3795 58.2361C23.1748 57.8797 24.1711 57.4056 25.1013 56.7975C25.9925 56.2149 27.5438 55.0555 28.5894 53.0371C29.7779 50.7432 29.7314 48.5117 29.4174 46.9434C29.1586 45.651 28.6604 44.5517 28.4637 44.1129L21.1633 47.3846L13.8629 50.6563C14.0653 51.108 13.8602 50.741 13.7288 50.0851C13.5423 49.1534 13.4576 47.4628 14.3829 45.6769C15.1653 44.1666 16.2283 43.4825 16.3465 43.4052C16.5038 43.3024 16.4425 43.3636 15.8361 43.6353L19.1078 50.9357ZM21.1633 47.3846L28.4637 44.1129L20.5069 26.3583L13.2065 29.63L5.90609 32.9017L13.8629 50.6563L21.1633 47.3846ZM13.2065 29.63L20.5069 26.3583C20.3102 25.9194 19.8213 24.816 19.0289 23.7627C18.0673 22.4846 16.4327 20.9649 13.9295 20.3253C11.7272 19.7626 9.82938 20.1489 8.80149 20.4263C7.72855 20.716 6.71161 21.1441 5.91632 21.5005L9.18802 28.8009L12.4597 36.1013C13.0661 35.8295 13.1525 35.8245 12.9711 35.8735C12.8348 35.9103 11.6167 36.2484 9.96877 35.8273C8.02002 35.3294 6.81451 34.1412 6.24324 33.3818C5.84108 32.8473 5.70362 32.4499 5.90609 32.9017L13.2065 29.63ZM9.18802 28.8009L16.4884 25.5292L16.2136 24.9159L8.91319 28.1876L1.61279 31.4593L1.88761 32.0726L9.18802 28.8009ZM8.91319 28.1876L12.1849 35.4881L17.6164 33.0539L14.3447 25.7535L11.073 18.4531L5.64149 20.8872L8.91319 28.1876ZM14.3447 25.7535L8.46279 31.176L24.499 48.5709L30.3809 43.1484L36.2628 37.726L20.2266 20.331L14.3447 25.7535ZM55.1562 35.3903L53.0678 27.6677C49.8141 28.5476 47.4609 31.3725 47.1834 34.7316L55.1562 35.3903ZM55.8049 35.2149L63.8049 35.2179C63.8059 32.727 62.6465 30.3778 60.6689 28.8634C58.6913 27.3489 56.121 26.842 53.7165 27.4923L55.8049 35.2149ZM51.719 36.2867L43.9964 38.3751L51.719 36.2867ZM51.5603 35.6998L59.2829 33.6114C58.1295 29.3463 53.737 26.8238 49.4719 27.9772L51.5603 35.6998ZM51.4985 35.7165L49.4101 27.9939C46.6289 28.746 44.4669 30.9355 43.7501 33.7261L51.4985 35.7165ZM48.051 40.1295L45.9626 32.4069L48.051 40.1295ZM48.1846 28.8557L42.9686 22.7899C42.9497 22.8062 42.9309 22.8225 42.9122 22.8389L48.1846 28.8557ZM49.4218 27.7918L54.6378 33.8576C56.9737 31.8489 57.9486 28.6774 57.1444 25.7034L49.4218 27.7918ZM49.0041 26.2473L41.2815 28.3357L49.0041 26.2473ZM43.3842 25.4466L35.6616 27.535L43.3842 25.4466ZM44.4807 27.1722L52.2033 25.0838L44.4807 27.1722ZM54.5011 37.2581L52.4127 29.5355L54.5011 37.2581ZM51.293 34.7113L58.7241 37.6741C59.3652 36.0662 59.4675 34.2938 59.0156 32.6229L51.293 34.7113ZM49.6891 28.7803L57.4117 26.6919C56.6912 24.0277 54.6484 21.923 52.0068 21.1234C49.3653 20.3238 46.4981 20.9423 44.4211 22.7597L49.6891 28.7803ZM48.4828 29.8358L43.2148 23.8152C43.1969 23.8309 43.179 23.8466 43.1612 23.8625L48.4828 29.8358ZM55.1562 35.3903L57.2446 43.1129L57.8933 42.9375L55.8049 35.2149L53.7165 27.4923L53.0678 27.6677L55.1562 35.3903ZM55.8049 35.2149L47.8049 35.2119C47.8048 35.6068 47.7983 35.696 47.7989 35.689C47.7992 35.6851 47.8271 35.2638 48.0362 34.6597C48.2681 33.9898 48.7387 33.052 49.6411 32.1942C50.5492 31.3309 51.5215 30.9036 52.2334 30.7111L54.3218 38.4337L56.4102 46.1563C57.8325 45.7716 59.3454 45.0448 60.6647 43.7906C61.9783 42.542 62.7308 41.1218 63.1558 39.8942C63.866 37.8425 63.8047 35.7367 63.8049 35.2179L55.8049 35.2149ZM54.3218 38.4337L52.2334 30.7111C52.8584 30.5421 53.8864 30.3977 55.1267 30.6807C56.4087 30.9732 57.4352 31.6129 58.1586 32.3075C59.3557 33.4569 59.5424 34.5707 59.4416 34.1983L51.719 36.2867L43.9964 38.3751C44.305 39.5162 45.0518 41.9041 47.0772 43.8488C49.7418 46.4072 53.276 47.0038 56.4102 46.1563L54.3218 38.4337ZM51.719 36.2867L59.4416 34.1983L59.2829 33.6114L51.5603 35.6998L43.8377 37.7882L43.9964 38.3751L51.719 36.2867ZM51.5603 35.6998L49.4719 27.9772L49.4101 27.9939L51.4985 35.7165L53.587 43.4391L53.6487 43.4224L51.5603 35.6998ZM51.4985 35.7165L43.7501 33.7261C43.6778 34.0075 43.6535 34.0937 43.6266 34.1721C43.6014 34.246 43.6141 34.1866 43.6948 34.0478C43.7772 33.9061 43.9832 33.591 44.3774 33.2505C44.8019 32.8838 45.3491 32.5728 45.9626 32.4069L48.051 40.1295L50.1394 47.8521C54.0271 46.8007 56.3138 44.1753 57.5254 42.0922C58.6628 40.1368 59.1202 38.2004 59.247 37.7068L51.4985 35.7165ZM48.051 40.1295L45.9626 32.4069C46.3463 32.3031 46.9929 32.2044 47.8085 32.333C48.6476 32.4654 49.4336 32.8033 50.0836 33.2806C50.7078 33.739 51.0782 34.2289 51.2761 34.5568C51.47 34.8781 51.5281 35.0903 51.5335 35.1103L43.8109 37.1987L36.0883 39.2871C36.6819 41.4821 37.9565 44.2261 40.614 46.1774C43.5505 48.3336 47.0398 48.6903 50.1394 47.8521L48.051 40.1295ZM43.8109 37.1987L51.5335 35.1103C51.5643 35.2243 51.6319 35.6094 51.5284 36.1318C51.4306 36.6253 51.2449 36.9126 51.2223 36.9458C51.2157 36.9554 51.2452 36.911 51.3373 36.8079C51.4301 36.704 51.5649 36.5641 51.762 36.3764C51.9604 36.1875 52.1925 35.9778 52.4833 35.7221C52.6279 35.5949 52.7771 35.4649 52.9417 35.3217C53.1015 35.1827 53.2794 35.0281 53.4571 34.8724L48.1846 28.8557L42.9122 22.8389C42.0033 23.6353 39.6307 25.5511 38.0142 27.9155C35.9868 30.8808 34.8684 34.7762 36.0883 39.2871L43.8109 37.1987ZM48.1846 28.8557L53.4006 34.9214L54.6378 33.8576L49.4218 27.7918L44.2058 21.7261L42.9686 22.7899L48.1846 28.8557ZM49.4218 27.7918L57.1444 25.7034L56.7267 24.1589L49.0041 26.2473L41.2815 28.3357L41.6992 29.8802L49.4218 27.7918ZM49.0041 26.2473L56.7267 24.1589C56.5011 23.3247 55.812 20.5157 53.7974 18.2947C52.5734 16.9453 50.8728 15.7923 48.7122 15.2814C46.6625 14.7968 44.7754 15.0261 43.2934 15.4269L45.3818 23.1495L47.4702 30.8721C47.1775 30.9512 46.2669 31.1444 45.0306 30.8521C43.6834 30.5336 42.6331 29.8014 41.9464 29.0443C41.3579 28.3955 41.1425 27.8497 41.133 27.8265C41.1172 27.7879 41.1616 27.8924 41.2815 28.3357L49.0041 26.2473ZM45.3818 23.1495L43.2934 15.4269C41.4934 15.9137 39.4419 16.912 37.8166 18.7247C36.0932 20.6469 34.6616 23.837 35.6616 27.535L43.3842 25.4466L51.1068 23.3582C51.8396 26.0677 50.7271 28.2931 49.7295 29.4057C48.8301 30.4088 47.911 30.7529 47.4702 30.8721L45.3818 23.1495ZM43.3842 25.4466L35.6616 27.535C36.0068 28.8113 36.5621 29.7921 37.0357 30.475C37.2648 30.8054 37.4788 31.0715 37.633 31.2556C37.7784 31.4291 37.9162 31.5828 37.9591 31.631C38.0292 31.7096 38.0045 31.6829 37.9681 31.6394C37.9228 31.5854 37.8138 31.4525 37.6814 31.2617C37.4015 30.858 37.0072 30.1817 36.7581 29.2606L44.4807 27.1722L52.2033 25.0838C51.8582 23.8075 51.3028 22.8267 50.8292 22.1438C50.6001 21.8134 50.3862 21.5474 50.2319 21.3632C50.0865 21.1897 49.9488 21.0361 49.9058 20.9878C49.8357 20.9092 49.8604 20.936 49.8968 20.9794C49.9421 21.0335 50.0512 21.1663 50.1835 21.3571C50.4635 21.7609 50.8577 22.4372 51.1068 23.3582L43.3842 25.4466ZM44.4807 27.1722L36.7581 29.2606C36.2497 27.3806 36.5229 25.1833 37.795 23.3555C38.9684 21.6695 40.5208 20.9502 41.5309 20.6771L43.6193 28.3997L45.7077 36.1223C47.3973 35.6653 49.4556 34.6103 50.9274 32.4955C52.498 30.239 52.8621 27.5198 52.2033 25.0838L44.4807 27.1722ZM43.6193 28.3997L41.5309 20.6771C42.5009 20.4147 43.6887 20.3328 44.9534 20.6397C46.2134 20.9456 47.211 21.555 47.9263 22.1983C49.2273 23.3682 49.5458 24.5728 49.58 24.6993L41.8574 26.7877L34.1348 28.8761C34.5115 30.2691 35.3247 32.3841 37.228 34.0956C39.5109 36.1484 42.6554 36.9477 45.7077 36.1223L43.6193 28.3997ZM41.8574 26.7877L49.58 24.6993C49.7541 25.343 49.8028 26.1138 49.6351 26.9216C49.4696 27.7193 49.1319 28.3687 48.7669 28.8453C48.0699 29.7551 47.385 29.9338 47.3824 29.9345L45.294 22.2119L43.2056 14.4893C40.67 15.175 37.9869 16.6067 36.065 19.1158C34.0097 21.7991 33.1743 25.3243 34.1348 28.8761L41.8574 26.7877ZM45.294 22.2119L47.3824 29.9345C47.3167 29.9523 45.9924 30.2663 44.4492 29.3208C43.0023 28.4342 42.8718 27.3519 43.0364 27.9606L50.759 25.8722L58.4816 23.7838C57.719 20.9636 56.1225 17.7086 52.8082 15.6779C49.3975 13.5882 45.8044 13.7865 43.2056 14.4893L45.294 22.2119ZM50.759 25.8722L43.0364 27.9606L45.7514 38L53.474 35.9115L61.1966 33.8231L58.4816 23.7838L50.759 25.8722ZM53.474 35.9115L45.7514 38C45.8069 38.2053 46.2139 39.951 47.237 41.4775C47.8939 42.4576 49.1376 43.8837 51.2232 44.7019C53.3482 45.5356 55.2997 45.3295 56.5895 44.9807L54.5011 37.2581L52.4127 29.5355C53.4245 29.2619 55.1431 29.0525 57.0664 29.8071C58.9504 30.5461 60.0238 31.8174 60.5278 32.5695C60.9939 33.2648 61.1895 33.8344 61.2138 33.903C61.2545 34.018 61.2553 34.0402 61.1966 33.8231L53.474 35.9115ZM54.5011 37.2581L56.5895 44.9807C58.1164 44.5678 59.6087 43.7144 60.7933 42.3668C61.8649 41.1478 62.3602 39.8906 62.6011 39.1191C63.0074 37.8177 63.0959 36.45 63.1291 36.049L55.1562 35.3903L47.1834 34.7316C47.1726 34.8618 47.1643 34.9552 47.1573 35.0253C47.1502 35.0963 47.1469 35.1203 47.148 35.1126C47.1488 35.1065 47.1582 35.0361 47.1809 34.9222C47.2031 34.8107 47.2474 34.6093 47.3281 34.3508C47.4757 33.8781 47.8551 32.8511 48.7762 31.8033C49.8103 30.6269 51.1175 29.8858 52.4127 29.5355L54.5011 37.2581ZM48.3129 38.4012L50.4013 46.1238C55.9555 44.6218 57.8732 39.8084 58.7241 37.6741L51.293 34.7113L43.8619 31.7484C43.6832 32.1966 43.5703 32.4433 43.5055 32.5717C43.4403 32.7011 43.4838 32.5891 43.6554 32.3665C43.8453 32.1202 44.1852 31.7469 44.7037 31.39C45.234 31.025 45.7703 30.8014 46.2245 30.6786L48.3129 38.4012ZM51.293 34.7113L59.0156 32.6229L57.4117 26.6919L49.6891 28.7803L41.9665 30.8687L43.5704 36.7997L51.293 34.7113ZM49.6891 28.7803L44.4211 22.7597L43.2148 23.8152L48.4828 29.8358L53.7509 35.8564L54.9572 34.8009L49.6891 28.7803ZM48.4828 29.8358L43.1612 23.8625C40.7713 25.9916 35.7767 31.0252 37.7797 38.4319L45.5023 36.3435L53.2249 34.2551C53.3213 34.6116 53.3687 35.076 53.302 35.5808C53.2377 36.0675 53.0917 36.4099 53.0054 36.5751C52.9285 36.7224 52.906 36.7166 53.0476 36.5529C53.1885 36.3901 53.4244 36.1477 53.8044 35.8092L48.4828 29.8358ZM45.5023 36.3435L37.7797 38.4319C38.2858 40.3033 39.404 42.8496 41.9211 44.6557C44.7071 46.6546 47.8746 46.8071 50.4013 46.1238L48.3129 38.4012L46.2245 30.6786C47.423 30.3545 49.4191 30.343 51.2488 31.6559C52.8096 32.7758 53.1867 34.1136 53.2249 34.2551L45.5023 36.3435ZM58.6272 35.9862L64.4828 41.437C66.4144 39.362 67.1036 36.4196 66.2944 33.7027C65.4852 30.9857 63.2985 28.8999 60.5464 28.2198L58.6272 35.9862ZM58.1705 30.7119L64.5065 35.5961C65.8746 33.8213 66.4357 31.5541 66.0531 29.3461C65.6705 27.1381 64.3794 25.1918 62.4939 23.9808L58.1705 30.7119ZM59.5358 19.2149L58.2693 11.3157L59.5358 19.2149ZM62.4631 19.6854L58.6918 26.7406C61.2967 28.1331 64.4569 27.9769 66.9118 26.3344L62.4631 19.6854ZM65.9498 18.1865L64.6834 10.2874L65.9498 18.1865ZM67.0142 18.7613L59.1151 20.0277L67.0142 18.7613ZM66.0514 19.6286L64.785 11.7295L66.0514 19.6286ZM63.4796 20.3651L59.3955 27.2441C61.6852 28.6034 64.5011 28.7344 66.9071 27.5936L63.4796 20.3651ZM63.2647 20.2375L67.3487 13.3585C63.7535 11.224 59.1211 12.218 56.7181 15.6394C54.315 19.0608 54.9518 23.7557 58.1795 26.4133L63.2647 20.2375ZM58.7786 31.0682L61.8912 23.6985C58.518 22.2738 54.6081 23.3212 52.3988 26.2413L58.7786 31.0682ZM59.2656 20.3601L61.1251 28.141C61.1678 28.1308 61.2103 28.1202 61.2527 28.1093L59.2656 20.3601ZM57.3678 26.109L49.5918 27.9892C49.5979 28.0144 49.6042 28.0396 49.6105 28.0648L57.3678 26.109ZM61.7296 30.271L59.8611 22.4922C59.814 22.5036 59.7669 22.5153 59.72 22.5275L61.7296 30.271ZM63.6325 24.5536L71.3864 22.5843C71.3805 22.5612 71.3745 22.5381 71.3685 22.5151L63.6325 24.5536ZM68.8819 37.4857L60.9828 38.7521L68.8819 37.4857ZM59.3578 36.0959L60.045 28.1255C57.4624 27.9028 54.9319 28.9453 53.2556 30.9226L59.3578 36.0959ZM62.7154 34.1964L63.9819 42.0955C64.6797 41.9837 65.1363 41.9531 65.3982 41.9536C65.682 41.954 65.5273 41.9913 65.117 41.8579C64.6487 41.7058 63.8341 41.3211 63.0977 40.4765C62.3509 39.62 62.0841 38.7486 62.0064 38.2639L69.9055 36.9975L77.8047 35.7311C77.4889 33.7614 76.69 31.7195 75.1578 29.962C73.6358 28.2163 71.7821 27.2002 70.0617 26.6412C66.9369 25.6258 63.6924 25.9376 61.449 26.2973L62.7154 34.1964ZM69.9055 36.9975L62.0064 38.2639C61.8806 37.4794 62.0146 36.8199 62.183 36.3899C62.3422 35.9836 62.5185 35.803 62.5353 35.7861C62.5481 35.7732 62.2321 36.0564 61.509 36.1723L62.7754 44.0714L64.0418 51.9706C67.8055 51.3672 71.3027 49.6616 73.883 47.0657C76.4183 44.5151 78.5674 40.489 77.8047 35.7311L69.9055 36.9975ZM62.7754 44.0714L61.509 36.1723C61.2273 36.2175 61.048 36.2181 60.9848 36.2148C60.9073 36.2108 61.0961 36.2073 61.4592 36.3464C61.8427 36.4932 62.5032 36.835 63.1272 37.5471C63.7864 38.2995 64.1252 39.1486 64.2377 39.8507L56.3386 41.1171L48.4395 42.3836C49.185 47.0339 52.3384 49.9868 55.7379 51.2885C58.706 52.425 61.7602 52.3364 64.0418 51.9706L62.7754 44.0714ZM56.3386 41.1171L64.2377 39.8507C64.3028 40.2568 64.3032 40.6988 64.229 41.1338C64.1571 41.5552 64.0349 41.8564 63.9585 42.0139C63.888 42.1593 63.8577 42.1797 63.9477 42.0594C64.0381 41.9384 64.2016 41.7391 64.4828 41.437L58.6272 35.9862L52.7716 30.5353C50.9229 32.5213 47.5096 36.5836 48.4395 42.3836L56.3386 41.1171ZM58.6272 35.9862L60.5464 28.2198C60.9292 28.3144 61.993 28.6516 63.028 29.6973C64.1297 30.8103 64.5442 32.0594 64.6703 32.8459L56.7712 34.1123L48.8721 35.3787C49.1602 37.1763 49.9459 39.2248 51.6567 40.9531C53.3009 42.6141 55.2117 43.3828 56.708 43.7525L58.6272 35.9862ZM56.7712 34.1123L64.6703 32.8459C64.904 34.3038 64.5059 35.388 64.3233 35.7834C64.2379 35.9684 64.1817 36.0447 64.22 35.9866C64.2578 35.9294 64.3403 35.8118 64.5065 35.5961L58.1705 30.7119L51.8346 25.8278C51.1483 26.718 48.0761 30.4139 48.8721 35.3787L56.7712 34.1123ZM58.1705 30.7119L62.4939 23.9808C63.411 24.5698 63.4083 25.1764 63.3571 24.8571L55.458 26.1235L47.5589 27.3899C48.1763 31.2413 50.1843 35.0905 53.8472 37.4431L58.1705 30.7119ZM55.458 26.1235L63.3571 24.8571C63.3155 24.5973 63.445 24.9486 63.0574 25.597C62.8627 25.9229 62.5582 26.2773 62.1281 26.5735C61.6928 26.8732 61.2257 27.0461 60.8022 27.114L59.5358 19.2149L58.2693 11.3157C49.7515 12.6813 46.5005 20.7884 47.5589 27.3899L55.458 26.1235ZM59.5358 19.2149L60.8022 27.114C60.1827 27.2133 59.4039 27.1213 58.6918 26.7406L62.4631 19.6854L66.2345 12.6301C63.75 11.302 60.9742 10.8821 58.2693 11.3157L59.5358 19.2149ZM62.4631 19.6854L66.9118 26.3344C67.17 26.1616 67.3324 26.0788 67.4065 26.0458C67.4777 26.014 67.408 26.0549 67.2163 26.0857L65.9498 18.1865L64.6834 10.2874C61.8789 10.737 59.6071 11.9708 58.0145 13.0364L62.4631 19.6854ZM65.9498 18.1865L67.2163 26.0857C66.8963 26.137 64.9065 26.4533 62.7023 25.1757C60.0628 23.6457 59.3002 21.182 59.1151 20.0277L67.0142 18.7613L74.9134 17.4949C74.6523 15.8666 73.7051 13.0599 70.7262 11.3331C68.1826 9.85868 65.6985 10.1247 64.6834 10.2874L65.9498 18.1865ZM67.0142 18.7613L59.1151 20.0277C58.9885 19.2381 58.9319 17.9749 59.4276 16.5283C59.9511 15.0008 60.8931 13.8452 61.884 13.0694C62.7807 12.3673 63.6125 12.0533 64.0161 11.9218C64.4374 11.7846 64.7387 11.7369 64.785 11.7295L66.0514 19.6286L67.3178 27.5278C67.7413 27.4599 69.8318 27.1674 71.7477 25.6673C72.9077 24.7591 73.9718 23.4421 74.5635 21.7153C75.1276 20.0693 75.0856 18.5688 74.9134 17.4949L67.0142 18.7613ZM66.0514 19.6286L64.785 11.7295C63.2156 11.9811 61.6584 12.3748 60.0521 13.1365L63.4796 20.3651L66.9071 27.5936C66.8869 27.6032 66.8646 27.6126 66.8443 27.6203C66.8245 27.6277 66.8194 27.6286 66.835 27.6241C66.8707 27.6139 67.0078 27.5775 67.3178 27.5278L66.0514 19.6286ZM63.4796 20.3651L67.5636 13.486L67.3487 13.3585L63.2647 20.2375L59.1806 27.1165L59.3955 27.2441L63.4796 20.3651ZM63.2647 20.2375L58.1795 26.4133C57.6007 25.9367 57.6056 25.5707 57.6381 25.774L65.5373 24.5075L73.4364 23.2411C72.8712 19.716 71.1689 16.3828 68.3498 14.0616L63.2647 20.2375ZM65.5373 24.5075L57.6381 25.774C57.6752 26.005 57.5554 25.662 57.9299 25.0353C58.3467 24.3379 59.181 23.6793 60.2247 23.512L61.4911 31.4111L62.7575 39.3102C71.2121 37.9548 74.4948 29.8427 73.4364 23.2411L65.5373 24.5075ZM61.4911 31.4111L60.2247 23.512C60.8876 23.4057 61.4712 23.5211 61.8912 23.6985L58.7786 31.0682L55.666 38.4378C57.7546 39.32 60.1988 39.7205 62.7575 39.3102L61.4911 31.4111ZM58.7786 31.0682L52.3988 26.2413C52.0728 26.6722 51.3597 27.6138 50.8061 28.7718C50.1803 30.081 49.5444 32.0932 49.9347 34.5278L57.8339 33.2614L65.733 31.995C66.0119 33.7345 65.5275 35.0742 65.2414 35.6726C65.0276 36.1199 64.8426 36.3125 65.1584 35.895L58.7786 31.0682ZM57.8339 33.2614L49.9347 34.5278C50.1789 36.0504 50.8628 37.9458 52.4755 39.5734C54.0239 41.1361 55.8154 41.8301 57.1733 42.1443C59.55 42.6942 62.0668 42.4026 63.9819 42.0955L62.7154 34.1964L61.449 26.2973C60.7327 26.4121 60.3242 26.4459 60.1373 26.453C59.9097 26.4618 60.2048 26.423 60.78 26.5561C61.3932 26.698 62.6564 27.1162 63.8411 28.3119C65.0901 29.5724 65.575 31.0095 65.733 31.995L57.8339 33.2614ZM59.2656 20.3601L57.4061 12.5792C53.5952 13.4899 50.7846 16.2013 49.6367 19.786C48.68 22.7738 49.053 25.7606 49.5918 27.9892L57.3678 26.109L65.1437 24.2288C64.9131 23.275 65.205 23.6336 64.8745 24.6655C64.6756 25.2869 64.2548 26.1134 63.4608 26.8572C62.6615 27.6059 61.7923 27.9815 61.1251 28.141L59.2656 20.3601ZM57.3678 26.109L49.6105 28.0648C50.2009 30.4063 51.3275 33.2129 53.6086 35.3765C56.2605 37.8919 59.9616 38.9948 63.7392 38.0145L61.7296 30.271L59.72 22.5275C60.4443 22.3395 61.3926 22.282 62.4158 22.5578C63.4258 22.83 64.1605 23.3326 64.6195 23.7679C65.4099 24.5177 65.3357 24.9889 65.125 24.1532L57.3678 26.109ZM61.7296 30.271L63.5981 38.0497C67.4317 37.1289 70.1938 34.3862 71.3402 30.8898C72.3222 27.8947 71.9725 24.8919 71.3864 22.5843L63.6325 24.5536L55.8787 26.523C56.0836 27.3295 55.7966 26.9417 56.1365 25.9049C56.3347 25.3006 56.7455 24.5049 57.511 23.7844C58.2865 23.0545 59.1489 22.6633 59.8611 22.4922L61.7296 30.271ZM63.6325 24.5536L71.3685 22.5151C70.7861 20.3052 69.7059 17.5357 67.4971 15.371C64.8661 12.7925 61.138 11.6211 57.2785 12.6108L59.2656 20.3601L61.2527 28.1093C60.5452 28.2908 59.5794 28.3537 58.5219 28.0567C57.4803 27.7642 56.7415 27.2329 56.298 26.7982C55.5599 26.0748 55.6514 25.6615 55.8966 26.5922L63.6325 24.5536ZM63.1123 42.3322L64.3788 50.2313C67.0195 49.8079 70.085 48.871 72.5994 46.8376C75.4367 44.5432 77.5123 40.7807 76.781 36.2193L68.8819 37.4857L60.9828 38.7521C60.8529 37.9421 60.9343 36.9749 61.3364 36.0426C61.7169 35.1603 62.2406 34.6375 62.5386 34.3965C62.8222 34.1672 62.9608 34.1402 62.8029 34.2008C62.6576 34.2565 62.348 34.3526 61.8459 34.433L63.1123 42.3322ZM68.8819 37.4857L76.781 36.2193C76.446 34.1298 75.469 31.9981 73.6246 30.3304C71.8969 28.7682 69.9649 28.1177 68.533 27.8336C65.9409 27.3193 63.2566 27.6928 61.6177 27.9555L62.8841 35.8546L64.1505 43.7538C64.8246 43.6457 65.2789 43.5961 65.5751 43.5802C65.9049 43.5625 65.7923 43.6017 65.4192 43.5277C65.0376 43.452 63.9736 43.1748 62.8938 42.1984C61.6973 41.1166 61.1481 39.7832 60.9828 38.7521L68.8819 37.4857ZM62.8841 35.8546L61.6177 27.9555C61.0521 28.0462 60.6452 28.092 60.3601 28.1121C60.0702 28.1325 59.9847 28.1203 60.045 28.1255L59.3578 36.0959L58.6706 44.0663C60.5537 44.2287 62.4574 44.0252 64.1505 43.7538L62.8841 35.8546ZM59.3578 36.0959L53.2556 30.9226C51.3593 33.1593 48.9154 36.6597 49.6816 41.439L57.5807 40.1726L65.4799 38.9062C65.5451 39.3134 65.5663 39.8014 65.4978 40.3282C65.4304 40.846 65.2958 41.2508 65.1831 41.5146C65.0781 41.7603 65.0012 41.8624 65.0448 41.7976C65.0888 41.7323 65.2096 41.5646 65.46 41.2692L59.3578 36.0959ZM57.5807 40.1726L49.6816 41.439C50.3213 45.4292 53.0171 48.2145 56.1823 49.514C58.9859 50.6651 61.9374 50.6227 64.3788 50.2313L63.1123 42.3322L61.8459 34.433C61.0013 34.5685 61.3288 34.331 62.2591 34.7129C62.7891 34.9305 63.5396 35.3678 64.2204 36.1757C64.9226 37.0091 65.3314 37.98 65.4799 38.9062L57.5807 40.1726ZM71.1141 11.7319L70.4804 3.75704L71.1141 11.7319ZM69.5301 10.3811L61.5553 11.0148L69.5301 10.3811ZM70.8809 8.79715L70.2472 0.82229L70.8809 8.79715ZM72.4649 10.1479L64.49 10.7816L72.4649 10.1479ZM76.128 34.0288L84.1028 33.3951C83.7529 28.9908 79.8987 25.704 75.4943 26.054L76.128 34.0288ZM76.1812 34.6987L76.8149 42.6736C78.9299 42.5055 80.8916 41.5041 82.2684 39.8897C83.6451 38.2753 84.3241 36.1801 84.1561 34.065L76.1812 34.6987ZM70.2479 35.1702L62.273 35.8038C62.623 40.2082 66.4772 43.495 70.8816 43.145L70.2479 35.1702ZM70.1947 34.5003L69.561 26.5254C67.4459 26.6935 65.4843 27.6949 64.1075 29.3093C62.7308 30.9237 62.0518 33.0189 62.2198 35.1339L70.1947 34.5003ZM71.2391 21.3843L63.2642 22.018L71.2391 21.3843ZM69.488 19.9505L62.5521 23.9371C64.7271 27.7213 69.534 29.0636 73.3549 26.9539L69.488 19.9505ZM69.1527 19.3673L65.2355 12.3919C63.3734 13.4376 62.0068 15.1844 61.4398 17.2433C60.8729 19.3022 61.1526 21.5024 62.2168 23.3539L69.1527 19.3673ZM72.3486 17.5725L77.5396 11.4853C74.9894 9.31049 71.3537 8.95598 68.4313 10.5972L72.3486 17.5725ZM72.7618 17.9248L80.7367 17.2912C80.5686 15.1761 79.5672 13.2144 77.9528 11.8377L72.7618 17.9248ZM71.1141 11.7319L70.4804 3.75704C74.0554 3.47297 77.2209 6.17244 77.505 9.74745L69.5301 10.3811L61.5553 11.0148C61.9711 16.2486 66.514 20.1226 71.7478 19.7068L71.1141 11.7319ZM69.5301 10.3811L77.505 9.74745C77.7826 13.2409 75.2022 16.479 71.5146 16.772L70.8809 8.79715L70.2472 0.82229C64.9008 1.24711 61.151 5.9264 61.5553 11.0148L69.5301 10.3811ZM70.8809 8.79715L71.5146 16.772C67.9077 17.0586 64.7766 14.3885 64.49 10.7816L72.4649 10.1479L80.4398 9.51426C80.0264 4.31238 75.4491 0.408955 70.2472 0.82229L70.8809 8.79715ZM72.4649 10.1479L64.49 10.7816C64.197 7.09396 66.987 4.03462 70.4804 3.75704L71.1141 11.7319L71.7478 19.7068C76.8362 19.3025 80.8646 14.8607 80.4398 9.51426L72.4649 10.1479ZM73.8644 31.8011L65.8896 32.4348C65.932 32.969 66.0128 33.9018 66.2446 34.8689C66.4791 35.8476 67.0403 37.6376 68.5904 39.2522C70.2718 41.0036 72.2563 41.673 73.7096 41.9135C74.9835 42.1244 76.1337 42.0536 76.7617 42.0037L76.128 34.0288L75.4943 26.054C75.1972 26.0776 75.6215 26.0123 76.3221 26.1282C77.2021 26.2739 78.7658 26.748 80.1323 28.1713C81.3674 29.4578 81.7194 30.787 81.8039 31.1396C81.8856 31.4806 81.8754 31.6221 81.8393 31.1674L73.8644 31.8011ZM76.128 34.0288L68.1531 34.6625L68.2063 35.3324L76.1812 34.6987L84.1561 34.065L84.1028 33.3951L76.128 34.0288ZM76.1812 34.6987L75.5475 26.7238L69.6142 27.1953L70.2479 35.1702L70.8816 43.145L76.8149 42.6736L76.1812 34.6987ZM70.2479 35.1702L78.2228 34.5365L78.1695 33.8666L70.1947 34.5003L62.2198 35.1339L62.273 35.8038L70.2479 35.1702ZM70.1947 34.5003L70.8284 42.4751C71.4563 42.4252 72.6032 42.3135 73.8279 41.9041C75.2249 41.4371 77.0788 40.4627 78.4626 38.4677C79.7382 36.6286 80.0097 34.7724 80.0868 33.769C80.1629 32.7775 80.0954 31.8436 80.0529 31.3094L72.078 31.9431L64.1032 32.5767C64.1393 33.0314 64.1069 32.8932 64.1337 32.5436C64.1615 32.1821 64.2992 30.814 65.3156 29.3486C66.4402 27.7274 67.9094 27.0123 68.7553 26.7295C69.4288 26.5044 69.8582 26.5018 69.561 26.5254L70.1947 34.5003ZM72.078 31.9431L80.0529 31.3094L79.2139 20.7507L71.2391 21.3843L63.2642 22.018L64.1032 32.5767L72.078 31.9431ZM71.2391 21.3843L79.2139 20.7507C79.1909 20.461 79.1377 19.6714 79.0415 19.0235C78.9878 18.662 78.8771 18.0128 78.6273 17.271C78.3855 16.5531 77.8579 15.27 76.6918 14.0531C73.5939 10.8205 69.7198 11.4174 68.3216 11.7988C67.0612 12.1427 65.9969 12.7397 65.6211 12.9472L69.488 19.9505L73.3549 26.9539C73.794 26.7114 73.3364 27.0154 72.5326 27.2347C72.0675 27.3616 70.9764 27.6093 69.5644 27.4038C67.9315 27.1661 66.3539 26.3903 65.1398 25.1235C64.0809 24.0185 63.6374 22.8922 63.4641 22.3775C63.2827 21.8389 63.2248 21.4393 63.2152 21.3753C63.2074 21.3223 63.2086 21.3188 63.2642 22.018L71.2391 21.3843ZM69.488 19.9505L76.4239 15.9639L76.0887 15.3807L69.1527 19.3673L62.2168 23.3539L62.5521 23.9371L69.488 19.9505ZM69.1527 19.3673L73.07 26.3426L76.2659 24.5478L72.3486 17.5725L68.4313 10.5972L65.2355 12.3919L69.1527 19.3673ZM72.3486 17.5725L67.1576 23.6596L67.5708 24.012L72.7618 17.9248L77.9528 11.8377L77.5396 11.4853L72.3486 17.5725ZM72.7618 17.9248L64.787 18.5585L65.8896 32.4348L73.8644 31.8011L81.8393 31.1674L80.7367 17.2912L72.7618 17.9248ZM84.2259 21.3033L76.2292 21.5331C76.2301 21.562 76.2311 21.5909 76.2322 21.6197L84.2259 21.3033ZM86.6506 28.0993L86.584 20.0996C82.7663 20.1314 79.503 22.8564 78.791 26.6073L86.6506 28.0993ZM87.3226 28.0937L95.2837 28.8815C95.5073 26.6222 94.7604 24.3742 93.2291 22.698C91.6977 21.0217 89.5263 20.0751 87.256 20.094L87.3226 28.0937ZM82.3268 35.3356L82.2601 27.3359L82.3268 35.3356ZM86.6587 21.379L94.6584 21.3123L86.6587 21.379ZM84.2259 21.3033L92.2226 21.0734C92.1865 19.8167 91.9933 17.5783 90.7882 15.3958C89.2632 12.6341 86.2711 10.3738 82.2791 10.4071L82.3457 18.4068L82.4124 26.4065C81.3929 26.415 80.1527 26.1563 78.9685 25.4149C77.8263 24.6998 77.1491 23.7954 76.7816 23.1299C76.1614 22.0066 76.2203 21.2222 76.2292 21.5331L84.2259 21.3033ZM82.3457 18.4068L82.2791 10.4071C76.94 10.4516 73.7091 14.0471 72.2677 17.2301C70.9614 20.1149 70.643 23.4035 70.6669 26.2804L78.6667 26.2138L86.6664 26.1471C86.6592 25.288 86.7112 24.6496 86.7791 24.2126C86.8503 23.7541 86.9152 23.6706 86.843 23.8302C86.7728 23.9852 86.4477 24.6413 85.6129 25.2883C84.6768 26.0137 83.5185 26.3973 82.4124 26.4065L82.3457 18.4068ZM78.6667 26.2138L70.6669 26.2804C70.6923 29.3257 71.213 32.6988 72.8239 35.6118C74.5683 38.7662 77.9873 41.836 82.9886 41.7943L82.922 33.7946L82.8553 25.7948C83.8182 25.7868 84.808 26.0817 85.6261 26.633C86.3783 27.1399 86.7217 27.6809 86.8256 27.8688C86.9277 28.0534 86.8782 28.0342 86.8067 27.6948C86.7382 27.3703 86.6723 26.8589 86.6664 26.1471L78.6667 26.2138ZM82.922 33.7946L82.9886 41.7943C86.718 41.7632 89.7988 39.891 91.7542 37.027C93.3201 34.7337 94.0561 31.9839 94.5103 29.5913L86.6506 28.0993L78.791 26.6073C78.6385 27.4106 78.5012 27.9022 78.4094 28.1706C78.3123 28.4546 78.3207 28.3269 78.5405 28.0049C78.7845 27.6476 79.3143 27.0183 80.2333 26.5049C81.1826 25.9745 82.1302 25.8009 82.8553 25.7948L82.922 33.7946ZM86.6506 28.0993L86.7173 36.099L87.3893 36.0934L87.3226 28.0937L87.256 20.094L86.584 20.0996L86.6506 28.0993ZM87.3226 28.0937L79.3615 27.3059C79.2825 28.1041 79.1673 28.6209 79.0782 28.9149C78.9869 29.216 78.9593 29.1643 79.123 28.9289C79.3056 28.6662 79.702 28.2153 80.3782 27.8457C81.0694 27.4678 81.752 27.3401 82.2601 27.3359L82.3268 35.3356L82.3934 43.3353C86.5525 43.3006 90.0368 41.2602 92.2602 38.062C94.2088 35.2591 94.9842 31.9078 95.2837 28.8815L87.3226 28.0937ZM82.3268 35.3356L82.2601 27.3359C82.761 27.3317 83.41 27.47 84.0255 27.8373C84.6039 28.1824 84.8804 28.5655 84.96 28.6934C85.0296 28.8053 84.9532 28.7231 84.8612 28.3352C84.7717 27.958 84.6927 27.3954 84.6864 26.6436L76.6867 26.7103L68.687 26.7769C68.7152 30.1636 69.3798 33.9379 71.373 37.1429C73.5655 40.6685 77.3829 43.377 82.3934 43.3353L82.3268 35.3356ZM76.6867 26.7103L84.6864 26.6436C84.6791 25.7581 84.7647 25.0953 84.8682 24.6436C84.9737 24.1831 85.0757 24.0349 85.0405 24.092C84.9985 24.1604 84.7746 24.4906 84.2591 24.8088C83.7087 25.1485 83.0831 25.3129 82.5313 25.3175L82.4647 17.3178L82.398 9.31808C77.4064 9.35966 73.6023 12.1482 71.4116 15.7104C69.3705 19.0292 68.6555 22.9983 68.687 26.7769L76.6867 26.7103ZM82.4647 17.3178L82.5313 25.3175C81.3034 25.3278 80.186 24.7025 79.5299 23.938C79.2454 23.6065 79.0518 23.2615 78.9211 22.9213C78.7982 22.6013 78.6645 22.1124 78.6589 21.4456L86.6587 21.379L94.6584 21.3123C94.6351 18.5187 93.5406 15.6956 91.6712 13.5175C89.6175 11.1246 86.4099 9.28465 82.398 9.31808L82.4647 17.3178ZM86.6587 21.379L78.6589 21.4456C78.6557 21.0545 78.684 19.3921 79.9762 17.6577C81.5653 15.5248 83.8561 14.8421 85.452 14.8288L85.5187 22.8285L85.5853 30.8283C87.9813 30.8083 90.8458 29.8488 92.8067 27.2168C94.4708 24.9833 94.6691 22.5994 94.6584 21.3123L86.6587 21.379ZM85.5187 22.8285L85.452 14.8288C86.8751 14.817 89.0251 15.3388 90.6587 17.2426C92.0647 18.8811 92.2019 20.5381 92.2197 20.9868L84.2259 21.3033L76.2322 21.6197C76.2905 23.0921 76.6741 25.5151 78.5164 27.662C80.5862 30.0741 83.3623 30.8468 85.5853 30.8283L85.5187 22.8285ZM107.664 34.596L99.7331 35.6431C100.183 39.0519 102.761 41.7919 106.136 42.4487L107.664 34.596ZM107.759 34.6144L106.23 42.4671C109.591 43.121 112.995 41.5643 114.698 38.5948L107.759 34.6144ZM119.551 14.0563L121.079 6.20363C117.718 5.54971 114.315 7.10635 112.611 10.0759L119.551 14.0563ZM125.33 15.181L133.183 16.7092C133.588 14.6265 133.15 12.4682 131.963 10.7089C130.777 8.94965 128.941 7.73363 126.858 7.32834L125.33 15.181ZM125.202 15.8407L123.674 23.6934C125.756 24.0986 127.915 23.66 129.674 22.4739C131.433 21.2878 132.649 19.4515 133.055 17.3688L125.202 15.8407ZM120.569 39.65L128.421 41.1782C129.265 36.8412 126.434 32.6413 122.097 31.7973L120.569 39.65ZM120.44 40.3097L118.912 48.1623C120.995 48.5676 123.153 48.129 124.912 46.9429C126.672 45.7568 127.888 43.9205 128.293 41.8378L120.44 40.3097ZM111.959 38.6593L104.107 37.1311C103.263 41.468 106.094 45.668 110.431 46.512L111.959 38.6593ZM112.088 37.9996L113.616 30.1469C111.533 29.7416 109.375 30.1803 107.615 31.3664C105.856 32.5525 104.64 34.3888 104.235 36.4715L112.088 37.9996ZM119.793 15.9943L127.646 17.5224C128.49 13.1855 125.658 8.98556 121.321 8.14159L119.793 15.9943ZM119.699 15.9759L121.227 8.12325C117.86 7.46814 114.451 9.03171 112.751 12.0103L119.699 15.9759ZM106.887 38.422L105.359 46.2747C108.726 46.9298 112.135 45.3663 113.835 42.3877L106.887 38.422ZM105.945 38.2387L98.0111 39.2659C98.4535 42.6831 101.034 45.4331 104.417 46.0913L105.945 38.2387ZM102.676 12.9893L110.61 11.9621C110.167 8.5448 107.586 5.79478 104.204 5.13657L102.676 12.9893ZM102.582 12.9709L104.11 5.11824C102.023 4.71212 99.8599 5.15343 98.099 6.34472C96.338 7.53601 95.1236 9.37928 94.7241 11.4675L102.582 12.9709ZM98.7567 32.9604L106.609 34.4885C106.611 34.4803 106.613 34.4721 106.614 34.4638L98.7567 32.9604ZM101.571 35.9205L109.424 37.4487C109.832 35.3518 109.384 33.1789 108.181 31.4139C106.978 29.6489 105.118 28.4385 103.017 28.0523L101.571 35.9205ZM101.437 36.6115L99.9085 44.4642C101.991 44.8695 104.15 44.4309 105.909 43.2448C107.668 42.0587 108.884 40.2224 109.289 38.1397L101.437 36.6115ZM93.8352 35.1323L85.9826 33.6042C85.5773 35.6868 86.0159 37.8452 87.202 39.6044C88.3881 41.3637 90.2244 42.5797 92.3071 42.985L93.8352 35.1323ZM93.9636 34.4727L95.4918 26.62C91.1548 25.776 86.9549 28.6076 86.1109 32.9445L93.9636 34.4727ZM98.5969 10.6633L90.7442 9.13517C89.9003 13.4721 92.7319 17.672 97.0688 18.516L98.5969 10.6633ZM98.7253 10.0037L100.253 2.151C98.1708 1.74571 96.0124 2.18435 94.2532 3.37044C92.4939 4.55652 91.2779 6.39288 90.8726 8.47555L98.7253 10.0037ZM104.568 11.1406L112.499 10.0935C112.049 6.68471 109.471 3.94473 106.096 3.28793L104.568 11.1406ZM107.664 34.596L106.136 42.4487L106.23 42.4671L107.759 34.6144L109.287 26.7617L109.192 26.7433L107.664 34.596ZM107.759 34.6144L114.698 38.5948L126.49 18.0368L119.551 14.0563L112.611 10.0759L100.819 30.6339L107.759 34.6144ZM119.551 14.0563L118.023 21.909L123.802 23.0337L125.33 15.181L126.858 7.32834L121.079 6.20363L119.551 14.0563ZM125.33 15.181L117.478 13.6529L117.349 14.3125L125.202 15.8407L133.055 17.3688L133.183 16.7092L125.33 15.181ZM125.202 15.8407L126.73 7.98797C125.879 7.82237 124.795 7.63739 123.685 7.59963C122.619 7.56333 120.702 7.62119 118.702 8.64987C116.43 9.81785 115.168 11.6387 114.503 13.1153C113.952 14.3372 113.721 15.5331 113.624 16.0326L121.477 17.5608L129.329 19.0889C129.419 18.6304 129.374 19.0597 129.09 19.6887C128.692 20.5724 127.778 21.9741 126.018 22.879C124.53 23.6446 123.288 23.5954 123.141 23.5904C122.951 23.5839 123.033 23.5686 123.674 23.6934L125.202 15.8407ZM121.477 17.5608L113.624 16.0326L109.908 35.1304L117.76 36.6585L125.613 38.1867L129.329 19.0889L121.477 17.5608ZM117.76 36.6585L109.908 35.1304C109.81 35.6299 109.576 36.8251 109.628 38.1644C109.691 39.7827 110.179 41.944 111.846 43.8785C113.315 45.5824 115.07 46.3546 116.072 46.721C117.115 47.1022 118.189 47.3371 119.04 47.5027L120.569 39.65L122.097 31.7973C121.456 31.6726 121.386 31.6279 121.564 31.6931C121.702 31.7436 122.872 32.1635 123.965 33.4315C125.257 34.9303 125.578 36.5723 125.616 37.5409C125.643 38.2303 125.524 38.6452 125.613 38.1867L117.76 36.6585ZM120.569 39.65L112.716 38.1219L112.587 38.7815L120.44 40.3097L128.293 41.8378L128.421 41.1782L120.569 39.65ZM120.44 40.3097L121.968 32.457L113.487 30.8066L111.959 38.6593L110.431 46.512L118.912 48.1623L120.44 40.3097ZM111.959 38.6593L119.812 40.1874L119.94 39.5278L112.088 37.9996L104.235 36.4715L104.107 37.1311L111.959 38.6593ZM112.088 37.9996L110.559 45.8523C111.417 46.0192 112.502 46.2044 113.61 46.2438C114.672 46.2815 116.585 46.229 118.585 45.2114C120.865 44.0513 122.139 42.2311 122.813 40.742C123.368 39.5139 123.6 38.3114 123.697 37.8138L115.844 36.2856L107.992 34.7575C107.902 35.218 107.948 34.782 108.235 34.1467C108.641 33.2502 109.565 31.8487 111.329 30.9511C112.813 30.1958 114.046 30.2491 114.179 30.2539C114.358 30.2603 114.266 30.2735 113.616 30.1469L112.088 37.9996ZM115.844 36.2856L123.697 37.8138L127.646 17.5224L119.793 15.9943L111.94 14.4661L107.992 34.7575L115.844 36.2856ZM119.793 15.9943L121.321 8.14159L121.227 8.12325L119.699 15.9759L118.171 23.8286L118.265 23.847L119.793 15.9943ZM119.699 15.9759L112.751 12.0103L99.9393 34.4564L106.887 38.422L113.835 42.3877L126.647 19.9416L119.699 15.9759ZM106.887 38.422L108.415 30.5693L107.473 30.386L105.945 38.2387L104.417 46.0913L105.359 46.2747L106.887 38.422ZM105.945 38.2387L113.879 37.2114L110.61 11.9621L102.676 12.9893L94.742 14.0165L98.0111 39.2659L105.945 38.2387ZM102.676 12.9893L104.204 5.13657L104.11 5.11824L102.582 12.9709L101.053 20.8236L101.148 20.842L102.676 12.9893ZM102.582 12.9709L94.7241 11.4675L90.8993 31.457L98.7567 32.9604L106.614 34.4638L110.439 14.4744L102.582 12.9709ZM98.7567 32.9604L90.904 31.4323C90.8124 31.9031 90.5763 33.0887 90.6183 34.4077C90.6693 36.0079 91.1338 38.2093 92.8379 40.1813C94.3357 41.9147 96.1311 42.6793 97.1346 43.0346C98.1846 43.4063 99.2671 43.631 100.125 43.7887L101.571 35.9205L103.017 28.0523C102.364 27.9323 102.293 27.8877 102.474 27.9517C102.608 27.9992 103.819 28.4178 104.944 29.7201C106.276 31.2611 106.58 32.9463 106.61 33.8986C106.632 34.5697 106.515 34.9757 106.609 34.4885L98.7567 32.9604ZM101.571 35.9205L93.7184 34.3924L93.584 35.0834L101.437 36.6115L109.289 38.1397L109.424 37.4487L101.571 35.9205ZM101.437 36.6115L102.965 28.7589L95.3634 27.2796L93.8352 35.1323L92.3071 42.985L99.9085 44.4642L101.437 36.6115ZM93.8352 35.1323L101.688 36.6604L101.816 36.0008L93.9636 34.4727L86.1109 32.9445L85.9826 33.6042L93.8352 35.1323ZM93.9636 34.4727L92.4355 42.3254C93.2909 42.4918 94.3785 42.6778 95.4892 42.7161C96.5532 42.7529 98.4892 42.6981 100.506 41.6499C102.799 40.4585 104.045 38.6072 104.692 37.1442C105.224 35.9384 105.45 34.7528 105.541 34.2807L97.6888 32.7526L89.8361 31.2244C89.7415 31.7104 89.7851 31.2922 90.0554 30.6802C90.4392 29.811 91.3434 28.38 93.1281 27.4525C94.6374 26.6682 95.9004 26.7208 96.0415 26.7257C96.2293 26.7322 96.144 26.7469 95.4918 26.62L93.9636 34.4727ZM97.6888 32.7526L105.541 34.2807L109.258 15.183L101.405 13.6548L93.5525 12.1267L89.8361 31.2244L97.6888 32.7526ZM101.405 13.6548L109.258 15.183C109.35 14.7109 109.585 13.5272 109.544 12.2098C109.493 10.6112 109.032 8.42746 107.354 6.46336C105.877 4.73527 104.103 3.95846 103.103 3.59351C102.058 3.21257 100.981 2.97709 100.125 2.81062L98.5969 10.6633L97.0688 18.516C97.7211 18.6429 97.7946 18.6886 97.6181 18.6242C97.4854 18.5758 96.2949 18.1509 95.1899 16.8578C93.8832 15.3288 93.5816 13.6631 93.5517 12.7134C93.5307 12.0448 93.6471 11.6407 93.5525 12.1267L101.405 13.6548ZM98.5969 10.6633L106.45 12.1915L106.578 11.5318L98.7253 10.0037L90.8726 8.47555L90.7442 9.13517L98.5969 10.6633ZM98.7253 10.0037L97.1972 17.8564L103.04 18.9933L104.568 11.1406L106.096 3.28793L100.253 2.151L98.7253 10.0037ZM104.568 11.1406L96.6365 12.1877L99.7331 35.6431L107.664 34.596L115.596 33.5489L112.499 10.0935L104.568 11.1406ZM130.994 19.3407L128.429 26.9184L130.994 19.3407ZM130.071 17.4745L137.649 20.0392L130.071 17.4745ZM131.938 16.5521L129.373 24.1298L131.938 16.5521ZM126.802 41.8067L134.38 44.3714C135.06 42.3617 134.914 40.164 133.974 38.2619C133.034 36.3599 131.377 34.9092 129.367 34.229L126.802 41.8067ZM126.587 42.4432L124.022 50.021C128.207 51.4374 132.748 49.193 134.164 45.0079L126.587 42.4432ZM120.949 40.5351L113.371 37.9704C112.691 39.9801 112.837 42.1778 113.777 44.0799C114.717 45.9819 116.374 47.4326 118.384 48.1128L120.949 40.5351ZM121.164 39.8986L123.729 32.3208C119.544 30.9044 115.003 33.1488 113.587 37.3339L121.164 39.8986ZM126.256 26.2507L118.31 27.1768C118.816 31.5122 122.703 34.6424 127.046 34.2116L126.256 26.2507ZM126.179 25.5824L125.332 17.6274C123.208 17.8535 121.263 18.9192 119.93 20.5873C118.596 22.2554 117.985 24.3874 118.232 26.5086L126.179 25.5824ZM129.823 25.1944L136.995 21.6497C135.51 18.645 132.309 16.8846 128.976 17.2394L129.823 25.1944ZM130.064 25.6813L137.642 28.246C138.322 26.2362 138.176 24.0386 137.236 22.1365L130.064 25.6813ZM130.994 19.3407L133.558 11.7629C136.955 12.9127 138.799 16.6422 137.649 20.0392L130.071 17.4745L122.494 14.9098C120.81 19.8829 123.456 25.2353 128.429 26.9184L130.994 19.3407ZM130.071 17.4745L137.649 20.0392C136.526 23.3586 132.877 25.3158 129.373 24.1298L131.938 16.5521L134.502 8.97433C129.422 7.25493 124.13 10.0748 122.494 14.9098L130.071 17.4745ZM131.938 16.5521L129.373 24.1298C125.946 22.9699 124.122 19.2809 125.282 15.8536L132.86 18.4183L140.438 20.983C142.111 16.0401 139.445 10.6472 134.502 8.97433L131.938 16.5521ZM132.86 18.4183L125.282 15.8536C126.468 12.3496 130.239 10.6395 133.558 11.7629L130.994 19.3407L128.429 26.9184C133.264 28.5549 138.718 26.0632 140.438 20.983L132.86 18.4183ZM125.601 38.8666L118.024 36.3019C117.852 36.8095 117.558 37.6985 117.389 38.6785C117.219 39.6703 117.028 41.5366 117.815 43.6318C118.669 45.9046 120.228 47.3028 121.469 48.0972C122.556 48.7937 123.641 49.1825 124.237 49.3845L126.802 41.8067L129.367 34.229C129.085 34.1334 129.5 34.2409 130.098 34.6239C130.849 35.1049 132.099 36.1576 132.793 38.0047C133.42 39.6742 133.219 41.0344 133.158 41.3917C133.098 41.7372 133.033 41.8633 133.179 41.4313L125.601 38.8666ZM126.802 41.8067L119.224 39.242L119.009 39.8785L126.587 42.4432L134.164 45.0079L134.38 44.3714L126.802 41.8067ZM126.587 42.4432L129.151 34.8655L123.514 32.9574L120.949 40.5351L118.384 48.1128L124.022 50.021L126.587 42.4432ZM120.949 40.5351L128.527 43.0998L128.742 42.4633L121.164 39.8986L113.587 37.3339L113.371 37.9704L120.949 40.5351ZM121.164 39.8986L118.6 47.4763C119.196 47.6783 120.294 48.0282 121.581 48.1353C123.049 48.2575 125.137 48.0937 127.196 46.8067C129.094 45.6202 130.075 44.0217 130.542 43.1302C131.003 42.2491 131.31 41.3644 131.482 40.8568L123.904 38.2921L116.326 35.7274C116.18 36.1594 116.205 36.0196 116.367 35.709C116.536 35.3878 117.202 34.1851 118.714 33.2397C120.387 32.1937 122.019 32.1164 122.908 32.1904C123.616 32.2493 124.011 32.4164 123.729 32.3208L121.164 39.8986ZM123.904 38.2921L131.482 40.8568L134.877 30.8238L127.3 28.2591L119.722 25.6944L116.326 35.7274L123.904 38.2921ZM127.3 28.2591L134.877 30.8238C134.971 30.5486 135.233 29.8021 135.4 29.1688C135.494 28.8155 135.648 28.1753 135.711 27.3951C135.773 26.64 135.794 25.2528 135.203 23.6745C133.632 19.4817 129.837 18.5015 128.401 18.3002C127.108 18.1188 125.894 18.2474 125.467 18.2897L126.256 26.2507L127.046 34.2116C127.545 34.1621 127.005 34.2609 126.18 34.1452C125.702 34.0783 124.602 33.8753 123.386 33.1293C121.979 32.2665 120.835 30.9311 120.22 29.288C119.683 27.8548 119.72 26.6449 119.764 26.1036C119.81 25.5371 119.914 25.1471 119.931 25.0845C119.944 25.0327 119.947 25.03 119.722 25.6944L127.3 28.2591ZM126.256 26.2507L134.203 25.3246L134.125 24.6563L126.179 25.5824L118.232 26.5086L118.31 27.1768L126.256 26.2507ZM126.179 25.5824L127.025 33.5375L130.67 33.1495L129.823 25.1944L128.976 17.2394L125.332 17.6274L126.179 25.5824ZM129.823 25.1944L122.652 28.7392L122.892 29.226L130.064 25.6813L137.236 22.1365L136.995 21.6497L129.823 25.1944ZM130.064 25.6813L122.486 23.1166L118.024 36.3019L125.601 38.8666L133.179 41.4313L137.642 28.246L130.064 25.6813ZM137.119 28.526L144.47 31.6822C145.307 29.7325 145.335 27.5302 144.548 25.5597L137.119 28.526ZM136.096 30.9078L128.745 27.7517C127.908 29.7013 127.88 31.9037 128.666 33.8741C129.453 35.8446 130.99 37.4219 132.94 38.2589L136.096 30.9078ZM136.184 30.9457L133.028 38.2968C135.464 39.3424 138.259 39.114 140.492 37.6869L136.184 30.9457ZM141.299 29.9027L144.455 22.5516L141.299 29.9027ZM142.489 35.0801L135.137 31.924L142.489 35.0801ZM139.531 47.3223L146.882 50.4784C148.625 46.4185 146.747 41.7142 142.687 39.9712L139.531 47.3223ZM139.266 47.9398L136.11 55.2909C138.059 56.128 140.262 56.1562 142.232 55.3695C144.203 54.5828 145.78 53.0455 146.617 51.0959L139.266 47.9398ZM133.826 45.6043L126.475 42.4482C124.732 46.5081 126.61 51.2123 130.67 52.9554L133.826 45.6043ZM134.091 44.9868L137.247 37.6357C133.187 35.8926 128.483 37.7708 126.74 41.8307L134.091 44.9868ZM140.231 31.0113L137.075 38.3625L140.231 31.0113ZM135.667 31.9076L131.879 24.8614C130.285 25.7179 129.029 27.0892 128.316 28.7515L135.667 31.9076ZM132.533 44.3177L139.884 47.4738C141.627 43.4139 139.749 38.7096 135.689 36.9666L132.533 44.3177ZM132.268 44.9352L129.112 52.2863C131.061 53.1233 133.263 53.1516 135.234 52.3649C137.204 51.5782 138.782 50.0409 139.619 48.0913L132.268 44.9352ZM126.857 42.6123L119.506 39.4562C117.763 43.5161 119.641 48.2203 123.701 49.9634L126.857 42.6123ZM127.122 41.9948L130.278 34.6437C126.219 32.9006 121.514 34.7788 119.771 38.8387L127.122 41.9948ZM133.278 28.7925L125.284 29.0871C125.444 33.4489 129.072 36.8768 133.435 36.7909L133.278 28.7925ZM133.253 28.1202L133.038 20.1231C130.904 20.1804 128.88 21.089 127.419 22.6464C125.958 24.2037 125.18 26.2807 125.259 28.4148L133.253 28.1202ZM136.917 28.0217L144.347 25.0554C143.104 21.9426 140.053 19.9345 136.702 20.0246L136.917 28.0217ZM137.119 28.526L129.768 25.3699L128.745 27.7517L136.096 30.9078L143.447 34.0639L144.47 31.6822L137.119 28.526ZM136.096 30.9078L132.94 38.2589L133.028 38.2968L136.184 30.9457L139.34 23.5946L139.252 23.5567L136.096 30.9078ZM136.184 30.9457L140.492 37.6869C140.933 37.4051 140.975 37.4581 140.666 37.5325C140.266 37.6287 139.286 37.7448 138.143 37.2539L141.299 29.9027L144.455 22.5516C138.973 20.1982 134.042 22.8208 131.877 24.2044L136.184 30.9457ZM141.299 29.9027L138.143 37.2539C137.749 37.0849 137.056 36.696 136.399 35.9158C135.718 35.106 135.34 34.1874 135.192 33.363C134.943 31.9772 135.403 31.3047 135.137 31.924L142.489 35.0801L149.84 38.2362C150.584 36.5032 151.507 33.6964 150.941 30.5373C150.248 26.6764 147.662 23.9284 144.455 22.5516L141.299 29.9027ZM142.489 35.0801L135.137 31.924L131.186 41.1276L138.537 44.2837L145.888 47.4398L149.84 38.2362L142.489 35.0801ZM138.537 44.2837L131.186 41.1276C130.975 41.6182 130.609 42.4872 130.363 43.4588C130.113 44.4472 129.779 46.3082 130.417 48.4717C131.105 50.804 132.562 52.3074 133.723 53.1816C134.747 53.952 135.792 54.4233 136.375 54.6734L139.531 47.3223L142.687 39.9712C142.402 39.8489 142.792 39.982 143.344 40.3977C144.035 40.9172 145.204 42.0493 145.763 43.943C146.272 45.6679 145.966 47.0229 145.873 47.387C145.785 47.7343 145.708 47.8608 145.888 47.4398L138.537 44.2837ZM139.531 47.3223L132.18 44.1662L131.915 44.7837L139.266 47.9398L146.617 51.0959L146.882 50.4784L139.531 47.3223ZM139.266 47.9398L142.422 40.5887L136.982 38.2531L133.826 45.6043L130.67 52.9554L136.11 55.2909L139.266 47.9398ZM133.826 45.6043L141.177 48.7604L141.442 48.1429L134.091 44.9868L126.74 41.8307L126.475 42.4482L133.826 45.6043ZM134.091 44.9868L130.935 52.3379C131.51 52.5848 132.582 53.0228 133.868 53.2282C135.342 53.4637 137.438 53.4466 139.58 52.3139C141.543 51.276 142.634 49.7688 143.162 48.9273C143.686 48.0913 144.059 47.2399 144.271 46.7455L136.92 43.5894L129.569 40.4333C129.39 40.8505 129.423 40.7194 129.605 40.4288C129.791 40.1326 130.538 38.9957 132.101 38.1693C133.844 37.248 135.484 37.2834 136.392 37.4286C137.113 37.5437 137.51 37.7485 137.247 37.6357L134.091 44.9868ZM136.92 43.5894L144.271 46.7455L148.222 37.5419L140.871 34.3858L133.52 31.2297L129.569 40.4333L136.92 43.5894ZM140.871 34.3858L148.222 37.5419C148.827 36.1339 149.674 33.663 149.152 30.8057C148.499 27.2276 146.076 24.8147 143.387 23.6602L140.231 31.0113L137.075 38.3625C136.479 38.1069 135.629 37.6101 134.855 36.7019C134.052 35.7592 133.596 34.6823 133.412 33.6784C133.096 31.9452 133.661 30.9028 133.52 31.2297L140.871 34.3858ZM140.231 31.0113L143.387 23.6602C140.576 22.4536 137.906 22.7547 136.229 23.1508C134.499 23.5596 132.986 24.2662 131.879 24.8614L135.667 31.9076L139.455 38.9538C139.933 38.697 140.069 38.6841 139.908 38.722C139.802 38.7472 138.621 39.0263 137.075 38.3625L140.231 31.0113ZM135.667 31.9076L128.316 28.7515L124.276 38.1609L131.627 41.317L138.978 44.4731L143.018 35.0637L135.667 31.9076ZM131.627 41.317L124.276 38.1609C124.063 38.6572 123.706 39.508 123.461 40.4558C123.216 41.405 122.871 43.2179 123.451 45.3422C124.699 49.9154 128.901 51.4644 129.377 51.6688L132.533 44.3177L135.689 36.9666C135.437 36.8585 135.876 37.0128 136.47 37.4701C137.222 38.0496 138.368 39.2308 138.887 41.1296C139.348 42.8199 139.037 44.1292 138.953 44.4553C138.869 44.78 138.8 44.8884 138.978 44.4731L131.627 41.317ZM132.533 44.3177L125.182 41.1616L124.917 41.7791L132.268 44.9352L139.619 48.0913L139.884 47.4738L132.533 44.3177ZM132.268 44.9352L135.424 37.584L130.013 35.2612L126.857 42.6123L123.701 49.9634L129.112 52.2863L132.268 44.9352ZM126.857 42.6123L134.208 45.7684L134.473 45.1509L127.122 41.9948L119.771 38.8387L119.506 39.4562L126.857 42.6123ZM127.122 41.9948L123.966 49.3459C124.545 49.5944 125.612 50.0301 126.886 50.2387C128.34 50.4766 130.434 50.4785 132.588 49.3583C134.574 48.3257 135.679 46.8099 136.215 45.9581C136.745 45.1163 137.12 44.2586 137.332 43.7661L129.98 40.61L122.629 37.4539C122.449 37.873 122.485 37.7357 122.672 37.4389C122.865 37.132 123.624 35.9857 125.207 35.163C126.957 34.2526 128.59 34.3047 129.47 34.4487C130.171 34.5634 130.552 34.7613 130.278 34.6437L127.122 41.9948ZM129.98 40.61L137.332 43.7661L141.51 34.0333L134.159 30.8771L126.808 27.721L122.629 37.4539L129.98 40.61ZM134.159 30.8771L141.51 34.0333C141.625 33.7662 141.946 33.0428 142.163 32.4248C142.284 32.0799 142.488 31.454 142.613 30.6812C142.734 29.9334 142.865 28.5522 142.4 26.9321C141.166 22.6282 137.46 21.3508 136.045 21.0366C134.77 20.7534 133.55 20.7856 133.121 20.794L133.278 28.7925L133.435 36.7909C133.937 36.7811 133.39 36.8368 132.577 36.6562C132.106 36.5517 131.026 36.2623 129.872 35.4224C128.538 34.4511 127.504 33.0294 127.02 31.3428C126.598 29.8716 126.731 28.6684 126.817 28.1322C126.908 27.5712 127.043 27.1906 127.064 27.1296C127.082 27.079 127.085 27.0765 126.808 27.721L134.159 30.8771ZM133.278 28.7925L141.273 28.4979L141.248 27.8256L133.253 28.1202L125.259 28.4148L125.284 29.0871L133.278 28.7925ZM133.253 28.1202L133.468 36.1173L137.132 36.0188L136.917 28.0217L136.702 20.0246L133.038 20.1231L133.253 28.1202ZM136.917 28.0217L129.488 30.988L129.689 31.4924L137.119 28.526L144.548 25.5597L144.347 25.0554L136.917 28.0217ZM151.428 53.3097L159.403 53.9311C159.742 49.5795 156.531 45.7594 152.186 45.3457L151.428 53.3097ZM151.375 53.9805L150.611 61.9439C152.748 62.1489 154.878 61.4867 156.521 60.1059C158.165 58.7252 159.185 56.7419 159.351 54.6018L151.375 53.9805ZM147.74 53.6316L140.02 55.729C140.892 58.941 143.663 61.2771 146.976 61.595L147.74 53.6316ZM147.61 53.1512L140.667 49.1754C139.613 51.0165 139.333 53.2011 139.889 55.2487L147.61 53.1512ZM148.961 50.7909L155.903 54.7668C156.958 52.9256 157.238 50.741 156.681 48.6935C156.125 46.646 154.778 44.9033 152.937 43.8488L148.961 50.7909ZM148.85 50.7273L152.826 43.7852C150.458 42.4289 147.561 42.3734 145.143 43.6381L148.85 50.7273ZM153.25 36.026L157.226 29.0839L153.25 36.026ZM155.283 39.624L147.319 40.3792C147.564 42.967 149.052 45.2742 151.307 46.5661L155.283 39.624ZM155.339 39.6558L151.363 46.5979C153.204 47.6524 155.389 47.9322 157.436 47.376C159.484 46.8197 161.226 45.4728 162.281 43.6317L155.339 39.6558ZM158.328 31.1529L150.352 30.5316C150.013 34.8831 153.224 38.7033 157.569 39.1169L158.328 31.1529ZM158.38 30.4822L159.144 22.5188C157.007 22.3137 154.878 22.976 153.234 24.3567C151.591 25.7374 150.571 27.7207 150.404 29.8608L158.38 30.4822ZM162.015 30.831L169.735 28.7336C168.863 25.5216 166.093 23.1855 162.779 22.8676L162.015 30.831ZM162.146 31.3114L169.088 35.2873C170.142 33.4461 170.422 31.2615 169.866 29.214L162.146 31.3114ZM149.629 49.6247L153.423 56.6679C154.738 55.9595 155.829 54.8969 156.571 53.6005L149.629 49.6247ZM152.904 37.0815L148.928 44.0236L152.904 37.0815ZM151.428 53.3097L143.452 52.6884L143.4 53.3591L151.375 53.9805L159.351 54.6018L159.403 53.9311L151.428 53.3097ZM151.375 53.9805L152.14 46.017L148.504 45.6682L147.74 53.6316L146.976 61.595L150.611 61.9439L151.375 53.9805ZM147.74 53.6316L155.46 51.5342L155.33 51.0538L147.61 53.1512L139.889 55.2487L140.02 55.729L147.74 53.6316ZM147.61 53.1512L154.552 57.1271L155.903 54.7668L148.961 50.7909L142.019 46.8151L140.667 49.1754L147.61 53.1512ZM148.961 50.7909L152.937 43.8488L152.826 43.7852L148.85 50.7273L144.874 57.6694L144.985 57.733L148.961 50.7909ZM148.85 50.7273L145.143 43.6381C144.802 43.8163 144.616 43.8953 144.541 43.9238C144.468 43.952 144.598 43.8936 144.885 43.85C145.194 43.8031 145.665 43.7762 146.233 43.8735C146.813 43.9727 147.319 44.1712 147.717 44.3994L143.741 51.3415L139.766 58.2836C145.141 61.3624 150.194 59.0526 152.557 57.8165L148.85 50.7273ZM143.741 51.3415L147.717 44.3994C148.243 44.7005 148.808 45.2266 149.196 45.9534C149.559 46.6349 149.604 47.1846 149.606 47.378C149.607 47.5524 149.577 47.4737 149.695 47.1042C149.809 46.747 150.026 46.2281 150.403 45.569L143.461 41.5931L136.519 37.6172C134.913 40.4215 133.578 43.8664 133.606 47.5026C133.638 51.548 135.447 55.8104 139.766 58.2836L143.741 51.3415ZM143.461 41.5931L150.403 45.569C150.812 44.8545 151.231 44.2684 151.611 43.829C152.003 43.3763 152.26 43.1883 152.321 43.1493C152.381 43.1103 152.058 43.3371 151.384 43.4027C150.61 43.4779 149.84 43.2918 149.275 42.9681L153.25 36.026L157.226 29.0839C152.174 26.1902 147.089 27.4931 143.672 29.6883C140.504 31.7237 138.137 34.7917 136.519 37.6172L143.461 41.5931ZM153.25 36.026L149.275 42.9681C148.373 42.452 147.849 41.741 147.593 41.2353C147.364 40.7822 147.327 40.4677 147.319 40.3792L155.283 39.624L163.247 38.8688C163.005 36.3174 161.814 31.7113 157.226 29.0839L153.25 36.026ZM155.283 39.624L151.307 46.5661L151.363 46.5979L155.339 39.6558L159.314 32.7137L159.259 32.6819L155.283 39.624ZM155.339 39.6558L162.281 43.6317L165.891 37.3283L158.949 33.3524L152.007 29.3765L148.397 35.68L155.339 39.6558ZM158.949 33.3524L165.891 37.3283C166.041 37.0666 166.442 36.3844 166.728 35.7961C166.888 35.4684 167.161 34.8753 167.374 34.1302C167.579 33.4114 167.872 32.0668 167.611 30.415C166.912 25.9864 163.385 24.2601 161.979 23.7701C160.735 23.3369 159.509 23.2292 159.086 23.1889L158.328 31.1529L157.569 39.1169C158.073 39.1648 157.513 39.1576 156.716 38.8799C156.253 38.7187 155.201 38.2993 154.145 37.3147C152.925 36.1762 152.079 34.6319 151.807 32.9106C151.57 31.4134 151.843 30.2479 151.988 29.7382C152.141 29.2022 152.316 28.8482 152.341 28.7949C152.361 28.7555 152.358 28.7635 152.007 29.3765L158.949 33.3524ZM158.328 31.1529L166.303 31.7743L166.356 31.1035L158.38 30.4822L150.404 29.8608L150.352 30.5316L158.328 31.1529ZM158.38 30.4822L157.616 38.4456L161.251 38.7945L162.015 30.831L162.779 22.8676L159.144 22.5188L158.38 30.4822ZM162.015 30.831L154.295 32.9284L154.426 33.4088L162.146 31.3114L169.866 29.214L169.735 28.7336L162.015 30.831ZM162.146 31.3114L155.204 27.3356L143.865 47.1344L150.807 51.1102L157.749 55.0861L169.088 35.2873L162.146 31.3114ZM150.807 51.1102L143.865 47.1344C143.715 47.3961 143.313 48.0783 143.027 48.6666C142.867 48.9942 142.594 49.5873 142.381 50.3325C142.176 51.0513 141.883 52.3958 142.144 54.0477C142.844 58.4763 146.37 60.2026 147.776 60.6925C149.02 61.1258 150.246 61.2334 150.669 61.2737L151.428 53.3097L152.186 45.3457C151.682 45.2978 152.242 45.3051 153.039 45.5828C153.502 45.744 154.554 46.1633 155.61 47.148C156.83 48.2864 157.677 49.8308 157.948 51.552C158.185 53.0493 157.912 54.2147 157.767 54.7244C157.614 55.2605 157.44 55.6144 157.414 55.6677C157.395 55.7072 157.398 55.6991 157.749 55.0861L150.807 51.1102ZM149.629 49.6247L156.571 53.6005L159.832 47.908L152.889 43.9321L145.947 39.9563L142.687 45.6488L149.629 49.6247ZM152.889 43.9321L159.832 47.908C161.154 45.599 162.256 42.7439 162.249 39.672C162.241 36.3285 160.807 32.3887 156.88 30.1394L152.904 37.0815L148.928 44.0236C148.023 43.5053 147.265 42.7123 146.783 41.7691C146.329 40.8801 146.25 40.117 146.249 39.71C146.247 39.0106 146.454 39.0719 145.947 39.9563L152.889 43.9321ZM152.904 37.0815L156.88 30.1394C151.533 27.0771 146.545 29.4155 143.996 31.4126C141.541 33.3364 139.755 35.9588 138.606 37.9646L145.549 41.9405L152.491 45.9163C152.811 45.3577 153.13 44.8794 153.418 44.5105C153.722 44.1217 153.886 43.9901 153.865 44.0067C153.843 44.0235 153.723 44.1159 153.499 44.2287C153.273 44.3426 152.902 44.4966 152.399 44.5929C151.882 44.692 151.271 44.7206 150.613 44.6134C149.953 44.5058 149.382 44.2835 148.928 44.0236L152.904 37.0815ZM145.549 41.9405L138.606 37.9646C137.273 40.2934 135.965 43.2038 135.642 46.2612C135.296 49.5372 136.103 54.4897 140.941 57.2607L144.917 50.3186L148.893 43.3766C149.947 43.9802 150.794 44.9657 151.24 46.0999C151.629 47.0905 151.567 47.8131 151.553 47.9415C151.538 48.0869 151.532 47.968 151.694 47.5438C151.847 47.1411 152.102 46.5942 152.491 45.9163L145.549 41.9405ZM144.917 50.3186L140.941 57.2607C147.054 60.7614 152.812 56.9968 153.423 56.6679L149.629 49.6247L145.835 42.5814C145.418 42.8062 145.255 42.8919 145.126 42.9516C145.016 43.0028 145.143 42.9324 145.431 42.8617C145.744 42.785 146.29 42.6967 146.985 42.7699C147.71 42.8463 148.366 43.0746 148.893 43.3766L144.917 50.3186Z" fill="#5D9871" mask="url(#path-3-outside-1_785_102)"/>
</g>
<defs>
<clipPath id="clip0_785_102">
<rect width="171" height="63" fill="white"/>
</clipPath>
</defs>
</svg>
