<svg width="152" height="92" viewBox="0 0 152 92" fill="none" xmlns="http://www.w3.org/2000/svg">
<g clip-path="url(#clip0_785_106)">
<circle cx="43.9259" cy="25.7087" r="9" transform="rotate(4.84326 43.9259 25.7087)" fill="#629EBC"/>
<circle cx="102.36" cy="46.717" r="9" transform="rotate(4.84326 102.36 46.717)" fill="#629EBC"/>
<mask id="path-3-outside-1_785_106" maskUnits="userSpaceOnUse" x="-0.798693" y="-33.8764" width="153.191" height="156.707" fill="black">
<rect fill="white" x="-0.798693" y="-33.8764" width="153.191" height="156.707"/>
<path d="M37.1882 18.4864L36.7616 19.0057C34.3879 17.0556 33.9057 17.2393 32.6666 18.7476L20.2757 33.8306C19.2601 35.0669 19.2795 35.497 20.3427 36.3704L24.8429 40.0674C26.3512 41.3065 27.1822 41.2023 31.4779 37.9394L31.8955 38.4896L26.7724 42.3565L26.3282 42.6956L14.2618 32.7829L14.6883 32.2636C17.0621 34.2137 17.5443 34.03 18.7833 32.5217L31.1336 17.4882C32.3727 15.9799 32.4593 15.4712 30.0855 13.5212L30.5121 13.0019L37.1882 18.4864ZM43.6038 26.463C42.9218 25.9864 42.7638 25.0952 43.2404 24.4132C43.6987 23.7575 44.6082 23.5733 45.2902 24.0499C45.9459 24.5081 46.1118 25.4439 45.6535 26.0996C45.177 26.7816 44.2595 26.9213 43.6038 26.463ZM32.9633 43.7001C31.8268 45.3263 31.7721 45.7956 33.2935 46.8588L32.9085 47.4096L28.0298 44.0002L28.4147 43.4494C29.9361 44.5125 30.358 44.2999 31.4944 42.6736L37.5618 33.9916C38.6982 32.3653 38.9523 32.1134 37.1222 31.7714L37.2344 31.1081L40.8422 31.7554L40.937 32.2902L32.9633 43.7001ZM43.9911 45.9782L44.562 46.3326C41.9019 50.5569 39.9948 52.5368 37.6839 51.1022C35.8351 49.9545 35.6122 48.0081 37.8401 44.4195L43.3929 35.4749L41.1364 34.0741L41.7103 33.1497C44.0652 34.574 45.3694 33.99 47.2231 31.186L47.8756 31.5911L45.4621 35.4789L48.7517 37.5211L48.1779 38.4455L44.8882 36.4032L39.9598 44.3418C38.1877 47.1965 37.1825 49.0583 38.8137 50.071C40.1187 50.8811 41.4828 49.9578 43.9911 45.9782ZM51.3459 49.9282L51.9368 50.2483C49.5311 54.6225 47.7444 56.7117 45.3527 55.4163C43.4393 54.3799 43.1017 52.4502 45.1134 48.736L50.1276 39.4788L47.7922 38.2138L48.3104 37.2571C50.7455 38.5397 52.0128 37.8796 53.6975 34.9709L54.3728 35.3366L52.1934 39.3603L55.598 41.2044L55.0798 42.1611L51.6752 40.317L47.2249 48.5332C45.6246 51.4876 44.7313 53.4056 46.4196 54.3201C47.7702 55.0516 49.0774 54.0492 51.3459 49.9282ZM53.6881 55.3968C52.8467 57.1935 52.8731 57.6653 54.5539 58.4524L54.2689 59.061L48.8787 56.5367L49.1637 55.9281C50.8446 56.7153 51.2238 56.4335 52.0653 54.6368L60.3169 37.0173C61.1719 35.1916 61.3791 34.8999 59.5039 34.9051L59.5145 34.2034L63.1663 34.2528L63.3647 34.7345L53.6881 55.3968ZM66.5494 56.5073L67.1755 56.7513C64.8744 61.2466 62.0533 62.7574 59.7276 61.8512C56.5969 60.6313 56.2219 56.5699 58.1505 51.6204C59.9398 47.0287 63.2871 43.9028 66.5371 45.1692C69.31 46.2497 69.7765 49.9001 68.0453 54.3428L60.2931 51.322L60.0375 51.9779C58.5387 55.8242 58.5312 59.6335 60.7376 60.4932C62.1986 61.0625 64.2239 60.2719 66.5494 56.5073ZM66.0526 46.1481C64.1444 45.4045 62.1779 47.4544 60.7478 50.3315L66.6812 52.6435C67.7385 49.9302 68.0801 46.9381 66.0526 46.1481ZM72.7328 65.5256L74.6833 56.6166L75.3398 56.7603C74.2281 61.9875 76.4303 65.8437 79.5876 66.5349C82.3697 67.144 84.4615 65.6693 85.0637 62.9184C85.7276 59.8863 83.1637 56.9336 80.5462 53.4779C77.8204 49.7691 76.5409 47.9821 77.1911 45.0124C77.9028 41.7614 80.7273 40.3816 83.9783 41.0933C87.3856 41.8393 88.0846 44.4819 88.741 44.6256C89.0224 44.6872 89.1885 44.5271 89.5375 42.9328L90.2252 43.0834L88.6375 50.3356L87.9498 50.185C88.7808 46.2395 87.0591 42.8816 83.8394 42.1767C80.9948 41.5539 79.4344 43.145 79.0443 44.9268C78.4352 47.7089 80.8311 50.2317 82.6682 52.7631C85.9937 57.3239 87.704 59.2379 86.8622 63.0829C86.0341 66.8653 82.6059 68.3095 79.6362 67.6594C75.8851 66.8381 75.356 64.1672 74.4495 63.9687C73.9494 63.8592 73.6904 64.2939 73.3893 65.6693L72.7328 65.5256ZM99.3598 67.6994L100.029 67.764C99.467 69.2529 98.971 70.3946 97.5058 70.2531C95.977 70.1055 95.6766 68.887 95.8273 67.3263L95.8857 66.7211L95.822 66.715C95.1883 67.6182 93.6199 69.878 91.0399 69.6289C88.8103 69.4137 87.881 67.7166 88.1055 65.3914C88.4929 61.378 91.871 60.3539 95.14 59.1263L96.6729 58.567L96.8266 56.9744C97.0357 54.8085 96.9819 53.0351 94.5293 52.7983C93.1278 52.663 91.9484 53.2243 91.85 54.2436C91.7793 54.9762 92.3383 55.5124 92.2676 56.245C92.2123 56.8183 91.7294 57.1575 91.0287 57.0898C90.2324 57.013 89.8223 56.2661 89.9483 54.9602C90.1543 52.8261 92.1658 51.6379 94.7777 51.89C97.3895 52.1421 98.9424 53.7066 98.6011 57.2422L97.6018 67.594C97.5003 68.6451 97.5148 69.1609 98.0882 69.2163C98.5659 69.2624 98.835 68.8061 99.3598 67.6994ZM91.8944 68.104C93.3277 68.2423 94.3663 67.4746 95.9841 65.7018L96.5745 59.5863L95.0735 60.1486C92.3356 61.2024 90.2419 62.5756 89.9898 65.1875C89.8176 66.9712 90.5248 67.9718 91.8944 68.104ZM102.567 46.4766C101.736 46.463 101.106 45.8126 101.12 44.9807C101.133 44.1809 101.784 43.5194 102.615 43.533C103.415 43.546 104.076 44.2289 104.063 45.0288C104.05 45.8607 103.367 46.4896 102.567 46.4766ZM103.389 66.7167C103.357 68.7004 103.574 69.12 105.43 69.1503L105.419 69.8222L99.4677 69.7251L99.4786 69.0532C101.334 69.0835 101.565 68.6712 101.598 66.6874L101.77 56.0968C101.803 54.1131 101.872 53.7622 100.164 54.5024L99.8861 53.8898L103.239 52.4083L103.616 52.7985L103.389 66.7167ZM108.318 52.5084L108.512 55.0932L108.608 55.086C109.63 53.3085 110.938 51.9266 112.661 51.7972C114.959 51.6247 115.918 53.2855 116.109 55.8384L116.859 65.8262C117.008 67.8047 117.263 68.2027 119.145 68.0613L119.196 68.7315L113.292 69.1748L113.242 68.5046C115.061 68.3681 115.253 67.9365 115.104 65.958L114.354 55.9701C114.213 54.0874 113.535 53.1757 112.226 53.2739C110.854 53.377 109.605 54.6902 108.594 56.1781L109.361 66.3894C109.509 68.3678 109.764 68.7658 111.551 68.6317L111.601 69.3018L105.729 69.7427L105.679 69.0726C107.53 68.9336 107.722 68.502 107.574 66.5235L106.78 55.9613C106.632 53.9829 106.669 53.6271 105.036 54.5199L104.703 53.9352L107.906 52.1543L108.318 52.5084ZM125.404 60.2423L126.064 60.118C126.956 65.0298 126.887 67.7779 124.214 68.281C122.075 68.6835 120.596 67.3989 119.815 63.2478L117.868 52.9014L115.258 53.3927L115.056 52.3234C117.755 51.783 118.322 50.4715 117.795 47.1517L118.55 47.0096L119.396 51.5067L123.201 50.7905L123.403 51.8597L119.597 52.5759L121.326 61.7587C121.947 65.0607 122.464 67.1126 124.35 66.7575C125.86 66.4734 126.242 64.871 125.404 60.2423ZM128.41 66.9867L126.6 60.9818L127.243 60.7878C128.513 63.7806 130.578 65.5309 132.754 64.875C134.194 64.4409 134.511 63.2757 134.067 61.8051C133.43 59.6911 131.492 58.8049 129.066 57.6313C126.759 56.5219 124.953 55.6294 124.324 53.546C123.724 51.5546 124.711 49.6192 126.733 49.0095C128.694 48.4183 129.676 49.459 130.167 49.3112C130.504 49.2096 130.411 48.9033 130.227 48.2905L130.87 48.0965L132.348 52.9986L131.705 53.1925C130.644 51.0056 128.978 49.4692 127.139 50.0235C125.669 50.4669 125.569 51.8003 125.81 52.5969C126.318 54.2819 128.054 55.1623 130.182 56.1248C133.51 57.6282 134.878 58.6194 135.59 60.9785C136.365 63.5521 135.059 65.3163 133.16 65.889C131.015 66.5356 129.818 65.5595 129.236 65.7351C128.868 65.8459 128.869 66.18 129.054 66.7928L128.41 66.9867Z"/>
</mask>
<path d="M37.1882 18.4864L36.7616 19.0057C34.3879 17.0556 33.9057 17.2393 32.6666 18.7476L20.2757 33.8306C19.2601 35.0669 19.2795 35.497 20.3427 36.3704L24.8429 40.0674C26.3512 41.3065 27.1822 41.2023 31.4779 37.9394L31.8955 38.4896L26.7724 42.3565L26.3282 42.6956L14.2618 32.7829L14.6883 32.2636C17.0621 34.2137 17.5443 34.03 18.7833 32.5217L31.1336 17.4882C32.3727 15.9799 32.4593 15.4712 30.0855 13.5212L30.5121 13.0019L37.1882 18.4864ZM43.6038 26.463C42.9218 25.9864 42.7638 25.0952 43.2404 24.4132C43.6987 23.7575 44.6082 23.5733 45.2902 24.0499C45.9459 24.5081 46.1118 25.4439 45.6535 26.0996C45.177 26.7816 44.2595 26.9213 43.6038 26.463ZM32.9633 43.7001C31.8268 45.3263 31.7721 45.7956 33.2935 46.8588L32.9085 47.4096L28.0298 44.0002L28.4147 43.4494C29.9361 44.5125 30.358 44.2999 31.4944 42.6736L37.5618 33.9916C38.6982 32.3653 38.9523 32.1134 37.1222 31.7714L37.2344 31.1081L40.8422 31.7554L40.937 32.2902L32.9633 43.7001ZM43.9911 45.9782L44.562 46.3326C41.9019 50.5569 39.9948 52.5368 37.6839 51.1022C35.8351 49.9545 35.6122 48.0081 37.8401 44.4195L43.3929 35.4749L41.1364 34.0741L41.7103 33.1497C44.0652 34.574 45.3694 33.99 47.2231 31.186L47.8756 31.5911L45.4621 35.4789L48.7517 37.5211L48.1779 38.4455L44.8882 36.4032L39.9598 44.3418C38.1877 47.1965 37.1825 49.0583 38.8137 50.071C40.1187 50.8811 41.4828 49.9578 43.9911 45.9782ZM51.3459 49.9282L51.9368 50.2483C49.5311 54.6225 47.7444 56.7117 45.3527 55.4163C43.4393 54.3799 43.1017 52.4502 45.1134 48.736L50.1276 39.4788L47.7922 38.2138L48.3104 37.2571C50.7455 38.5397 52.0128 37.8796 53.6975 34.9709L54.3728 35.3366L52.1934 39.3603L55.598 41.2044L55.0798 42.1611L51.6752 40.317L47.2249 48.5332C45.6246 51.4876 44.7313 53.4056 46.4196 54.3201C47.7702 55.0516 49.0774 54.0492 51.3459 49.9282ZM53.6881 55.3968C52.8467 57.1935 52.8731 57.6653 54.5539 58.4524L54.2689 59.061L48.8787 56.5367L49.1637 55.9281C50.8446 56.7153 51.2238 56.4335 52.0653 54.6368L60.3169 37.0173C61.1719 35.1916 61.3791 34.8999 59.5039 34.9051L59.5145 34.2034L63.1663 34.2528L63.3647 34.7345L53.6881 55.3968ZM66.5494 56.5073L67.1755 56.7513C64.8744 61.2466 62.0533 62.7574 59.7276 61.8512C56.5969 60.6313 56.2219 56.5699 58.1505 51.6204C59.9398 47.0287 63.2871 43.9028 66.5371 45.1692C69.31 46.2497 69.7765 49.9001 68.0453 54.3428L60.2931 51.322L60.0375 51.9779C58.5387 55.8242 58.5312 59.6335 60.7376 60.4932C62.1986 61.0625 64.2239 60.2719 66.5494 56.5073ZM66.0526 46.1481C64.1444 45.4045 62.1779 47.4544 60.7478 50.3315L66.6812 52.6435C67.7385 49.9302 68.0801 46.9381 66.0526 46.1481ZM72.7328 65.5256L74.6833 56.6166L75.3398 56.7603C74.2281 61.9875 76.4303 65.8437 79.5876 66.5349C82.3697 67.144 84.4615 65.6693 85.0637 62.9184C85.7276 59.8863 83.1637 56.9336 80.5462 53.4779C77.8204 49.7691 76.5409 47.9821 77.1911 45.0124C77.9028 41.7614 80.7273 40.3816 83.9783 41.0933C87.3856 41.8393 88.0846 44.4819 88.741 44.6256C89.0224 44.6872 89.1885 44.5271 89.5375 42.9328L90.2252 43.0834L88.6375 50.3356L87.9498 50.185C88.7808 46.2395 87.0591 42.8816 83.8394 42.1767C80.9948 41.5539 79.4344 43.145 79.0443 44.9268C78.4352 47.7089 80.8311 50.2317 82.6682 52.7631C85.9937 57.3239 87.704 59.2379 86.8622 63.0829C86.0341 66.8653 82.6059 68.3095 79.6362 67.6594C75.8851 66.8381 75.356 64.1672 74.4495 63.9687C73.9494 63.8592 73.6904 64.2939 73.3893 65.6693L72.7328 65.5256ZM99.3598 67.6994L100.029 67.764C99.467 69.2529 98.971 70.3946 97.5058 70.2531C95.977 70.1055 95.6766 68.887 95.8273 67.3263L95.8857 66.7211L95.822 66.715C95.1883 67.6182 93.6199 69.878 91.0399 69.6289C88.8103 69.4137 87.881 67.7166 88.1055 65.3914C88.4929 61.378 91.871 60.3539 95.14 59.1263L96.6729 58.567L96.8266 56.9744C97.0357 54.8085 96.9819 53.0351 94.5293 52.7983C93.1278 52.663 91.9484 53.2243 91.85 54.2436C91.7793 54.9762 92.3383 55.5124 92.2676 56.245C92.2123 56.8183 91.7294 57.1575 91.0287 57.0898C90.2324 57.013 89.8223 56.2661 89.9483 54.9602C90.1543 52.8261 92.1658 51.6379 94.7777 51.89C97.3895 52.1421 98.9424 53.7066 98.6011 57.2422L97.6018 67.594C97.5003 68.6451 97.5148 69.1609 98.0882 69.2163C98.5659 69.2624 98.835 68.8061 99.3598 67.6994ZM91.8944 68.104C93.3277 68.2423 94.3663 67.4746 95.9841 65.7018L96.5745 59.5863L95.0735 60.1486C92.3356 61.2024 90.2419 62.5756 89.9898 65.1875C89.8176 66.9712 90.5248 67.9718 91.8944 68.104ZM102.567 46.4766C101.736 46.463 101.106 45.8126 101.12 44.9807C101.133 44.1809 101.784 43.5194 102.615 43.533C103.415 43.546 104.076 44.2289 104.063 45.0288C104.05 45.8607 103.367 46.4896 102.567 46.4766ZM103.389 66.7167C103.357 68.7004 103.574 69.12 105.43 69.1503L105.419 69.8222L99.4677 69.7251L99.4786 69.0532C101.334 69.0835 101.565 68.6712 101.598 66.6874L101.77 56.0968C101.803 54.1131 101.872 53.7622 100.164 54.5024L99.8861 53.8898L103.239 52.4083L103.616 52.7985L103.389 66.7167ZM108.318 52.5084L108.512 55.0932L108.608 55.086C109.63 53.3085 110.938 51.9266 112.661 51.7972C114.959 51.6247 115.918 53.2855 116.109 55.8384L116.859 65.8262C117.008 67.8047 117.263 68.2027 119.145 68.0613L119.196 68.7315L113.292 69.1748L113.242 68.5046C115.061 68.3681 115.253 67.9365 115.104 65.958L114.354 55.9701C114.213 54.0874 113.535 53.1757 112.226 53.2739C110.854 53.377 109.605 54.6902 108.594 56.1781L109.361 66.3894C109.509 68.3678 109.764 68.7658 111.551 68.6317L111.601 69.3018L105.729 69.7427L105.679 69.0726C107.53 68.9336 107.722 68.502 107.574 66.5235L106.78 55.9613C106.632 53.9829 106.669 53.6271 105.036 54.5199L104.703 53.9352L107.906 52.1543L108.318 52.5084ZM125.404 60.2423L126.064 60.118C126.956 65.0298 126.887 67.7779 124.214 68.281C122.075 68.6835 120.596 67.3989 119.815 63.2478L117.868 52.9014L115.258 53.3927L115.056 52.3234C117.755 51.783 118.322 50.4715 117.795 47.1517L118.55 47.0096L119.396 51.5067L123.201 50.7905L123.403 51.8597L119.597 52.5759L121.326 61.7587C121.947 65.0607 122.464 67.1126 124.35 66.7575C125.86 66.4734 126.242 64.871 125.404 60.2423ZM128.41 66.9867L126.6 60.9818L127.243 60.7878C128.513 63.7806 130.578 65.5309 132.754 64.875C134.194 64.4409 134.511 63.2757 134.067 61.8051C133.43 59.6911 131.492 58.8049 129.066 57.6313C126.759 56.5219 124.953 55.6294 124.324 53.546C123.724 51.5546 124.711 49.6192 126.733 49.0095C128.694 48.4183 129.676 49.459 130.167 49.3112C130.504 49.2096 130.411 48.9033 130.227 48.2905L130.87 48.0965L132.348 52.9986L131.705 53.1925C130.644 51.0056 128.978 49.4692 127.139 50.0235C125.669 50.4669 125.569 51.8003 125.81 52.5969C126.318 54.2819 128.054 55.1623 130.182 56.1248C133.51 57.6282 134.878 58.6194 135.59 60.9785C136.365 63.5521 135.059 65.3163 133.16 65.889C131.015 66.5356 129.818 65.5595 129.236 65.7351C128.868 65.8459 128.869 66.18 129.054 66.7928L128.41 66.9867Z" fill="#FFFEFC"/>
<path d="M37.1882 18.4864L43.3697 23.5646C46.1744 20.1507 45.6804 15.1095 42.2664 12.3049L37.1882 18.4864ZM36.7616 19.0057L31.6834 25.1872C33.3228 26.534 35.4302 27.1744 37.5418 26.9675C39.6534 26.7606 41.5963 25.7233 42.9432 24.0839L36.7616 19.0057ZM31.4779 37.9394L37.8498 33.1022C36.5666 31.4119 34.6645 30.3008 32.562 30.0132C30.4594 29.7256 28.3288 30.2852 26.6389 31.5688L31.4779 37.9394ZM31.8956 38.4896L36.7151 44.8749C38.4117 43.5944 39.5288 41.6913 39.8201 39.5858C40.1113 37.4802 39.5527 35.3454 38.2674 33.6524L31.8956 38.4896ZM26.7724 42.3565L21.9528 35.9712C21.9413 35.9799 21.9298 35.9887 21.9183 35.9974L26.7724 42.3565ZM26.3282 42.6956L21.2499 48.8772C24.1185 51.2337 28.2314 51.3072 31.1823 49.0547L26.3282 42.6956ZM14.2618 32.7829L8.08022 27.7047C5.27559 31.1186 5.76956 36.1598 9.18354 38.9645L14.2618 32.7829ZM14.6884 32.2637L19.7666 26.0821C18.1271 24.7353 16.0198 24.0949 13.9082 24.3018C11.7966 24.5087 9.85363 25.546 8.5068 27.1854L14.6884 32.2637ZM30.0855 13.5212L23.904 8.44294C22.5572 10.0824 21.9168 12.1897 22.1237 14.3013C22.3306 16.413 23.3679 18.3559 25.0073 19.7027L30.0855 13.5212ZM30.5121 13.0019L35.5903 6.82037C32.1764 4.01575 27.1352 4.50972 24.3305 7.9237L30.5121 13.0019ZM37.1882 18.4864L31.0066 13.4082L30.5801 13.9274L36.7616 19.0057L42.9432 24.0839L43.3697 23.5646L37.1882 18.4864ZM36.7616 19.0057L41.8398 12.8241C41.1664 12.2709 40.2981 11.5902 39.3392 11.0283C38.4207 10.49 36.6915 9.61775 34.4187 9.58081C31.8354 9.53881 29.8584 10.5746 28.5943 11.5545C27.5525 12.362 26.7904 13.2977 26.4851 13.6694L32.6666 18.7476L38.8482 23.8258C39.1624 23.4433 38.9252 23.7905 38.3965 24.2003C37.6455 24.7824 36.1697 25.6114 34.1586 25.5787C32.4579 25.551 31.3718 24.9042 31.25 24.8328C31.0879 24.7378 31.1699 24.7654 31.6834 25.1872L36.7616 19.0057ZM32.6666 18.7476L26.4851 13.6694L14.0942 28.7523L20.2757 33.8306L26.4573 38.9088L38.8482 23.8258L32.6666 18.7476ZM20.2757 33.8306L14.0942 28.7523C13.7478 29.174 13.1767 29.8948 12.6867 30.7924C12.1808 31.7189 11.4714 33.3514 11.533 35.4692C11.6605 39.8508 14.9205 42.2694 15.2645 42.552L20.3427 36.3704L25.421 30.1889C25.3023 30.0914 25.7078 30.3954 26.1642 31.0102C26.7176 31.7556 27.4717 33.1283 27.5263 35.004C27.5771 36.7505 26.9868 37.9891 26.7298 38.46C26.4885 38.9019 26.2959 39.1053 26.4573 38.9088L20.2757 33.8306ZM20.3427 36.3704L15.2645 42.552L19.7647 46.2489L24.8429 40.0674L29.9211 33.8858L25.421 30.1889L20.3427 36.3704ZM24.8429 40.0674L19.7647 46.2489C20.3492 46.7291 21.6416 47.7536 23.4888 48.3407C25.6186 49.0175 27.6615 48.8782 29.4067 48.3564C30.9205 47.9038 32.2035 47.1657 33.1378 46.5708C34.1281 45.9403 35.1957 45.1615 36.3168 44.31L31.4779 37.9394L26.6389 31.5688C25.6122 32.3487 24.9651 32.8066 24.5442 33.0745C24.0674 33.3781 24.243 33.2004 24.8236 33.0269C25.1679 32.9239 25.6926 32.8097 26.3529 32.7998C27.036 32.7896 27.7097 32.8936 28.3349 33.0922C29.4678 33.4523 30.0908 34.0252 29.9211 33.8858L24.8429 40.0674ZM31.4779 37.9394L25.106 42.7766L25.5236 43.3268L31.8956 38.4896L38.2674 33.6524L37.8498 33.1022L31.4779 37.9394ZM31.8956 38.4896L27.076 32.1043L21.9528 35.9712L26.7724 42.3565L31.5919 48.7418L36.7151 44.8749L31.8956 38.4896ZM26.7724 42.3565L21.9183 35.9974L21.4741 36.3365L26.3282 42.6956L31.1823 49.0547L31.6265 48.7156L26.7724 42.3565ZM26.3282 42.6956L31.4064 36.514L19.34 26.6013L14.2618 32.7829L9.18354 38.9645L21.2499 48.8772L26.3282 42.6956ZM14.2618 32.7829L20.4433 37.8611L20.8699 37.3419L14.6884 32.2637L8.5068 27.1854L8.08022 27.7047L14.2618 32.7829ZM14.6884 32.2637L9.61012 38.4452C10.2835 38.9984 11.1519 39.6791 12.1107 40.241C13.0293 40.7793 14.7585 41.6516 17.0313 41.6885C19.6145 41.7305 21.5916 40.6947 22.8557 39.7149C23.8975 38.9073 24.6596 37.9716 24.9649 37.5999L18.7833 32.5217L12.6018 27.4435C12.2875 27.826 12.5247 27.4788 13.0535 27.069C13.8045 26.4869 15.2803 25.6579 17.2914 25.6906C18.992 25.7183 20.0781 26.3651 20.2 26.4365C20.3621 26.5315 20.28 26.5039 19.7666 26.0821L14.6884 32.2637ZM18.7833 32.5217L24.9649 37.5999L37.3151 22.5664L31.1336 17.4882L24.952 12.41L12.6018 27.4435L18.7833 32.5217ZM31.1336 17.4882L37.3151 22.5664C37.6204 22.1948 38.3904 21.2655 38.9804 20.0868C39.6962 18.6565 40.3286 16.516 39.7859 13.9901C39.3085 11.7677 38.1172 10.2407 37.4108 9.4441C36.6735 8.61255 35.8372 7.89283 35.1638 7.33962L30.0855 13.5212L25.0073 19.7027C25.5208 20.1245 25.5638 20.1997 25.4391 20.0591C25.3454 19.9534 24.5001 19.0136 24.1428 17.3506C23.7204 15.3841 24.2471 13.7755 24.6724 12.9257C24.9718 12.3275 25.2663 12.0274 24.952 12.41L31.1336 17.4882ZM30.0855 13.5212L36.2671 18.5994L36.6937 18.0802L30.5121 13.0019L24.3305 7.9237L23.904 8.44294L30.0855 13.5212ZM30.5121 13.0019L25.4339 19.1835L32.11 24.668L37.1882 18.4864L42.2664 12.3049L35.5903 6.82037L30.5121 13.0019ZM43.6038 26.463L39.0212 33.0204L43.6038 26.463ZM45.2902 24.0499L40.7076 30.6073L45.2902 24.0499ZM33.2935 46.8588L39.8509 51.4414C42.3818 47.8198 41.4976 42.8322 37.876 40.3014L33.2935 46.8588ZM32.9085 47.4096L28.326 53.9671C30.0651 55.1824 32.2158 55.6572 34.305 55.2868C36.3941 54.9164 38.2506 53.7313 39.466 51.9922L32.9085 47.4096ZM28.0298 44.0002L21.4724 39.4176C18.9415 43.0392 19.8257 48.0268 23.4472 50.5576L28.0298 44.0002ZM28.4147 43.4494L32.9973 36.8919C29.3757 34.361 24.3882 35.2452 21.8573 38.8668L28.4147 43.4494ZM37.5618 33.9916L31.0043 29.409L37.5618 33.9916ZM37.1222 31.7714L29.2343 30.4372C28.5063 34.7408 31.3623 38.8336 35.6527 39.6353L37.1222 31.7714ZM37.2344 31.1081L38.6473 23.2339C36.5453 22.8567 34.3798 23.3356 32.6329 24.564C30.8859 25.7924 29.7027 27.6682 29.3465 29.7738L37.2344 31.1081ZM40.8422 31.7554L48.7194 30.359C48.1343 27.0588 45.554 24.4731 42.255 23.8812L40.8422 31.7554ZM40.937 32.2902L47.4944 36.8727C48.7098 35.1336 49.1845 32.9829 48.8142 30.8937L40.937 32.2902ZM43.6038 26.463L48.1863 19.9056C51.1259 21.9598 51.8521 26.0562 49.7978 28.9958L43.2404 24.4132L36.6829 19.8307C33.6755 24.1342 34.7177 30.013 39.0212 33.0204L43.6038 26.463ZM43.2404 24.4132L49.7978 28.9958C47.7904 31.8683 43.7398 32.7263 40.7076 30.6073L45.2902 24.0499L49.8727 17.4924C45.4766 14.4202 39.6069 15.6467 36.6829 19.8307L43.2404 24.4132ZM45.2902 24.0499L40.7076 30.6073C37.7418 28.5347 37.0235 24.4829 39.0961 21.517L45.6535 26.0996L52.211 30.6822C55.2001 26.4049 54.1501 20.4816 49.8727 17.4924L45.2902 24.0499ZM45.6535 26.0996L39.0961 21.517C41.2151 18.4848 45.3138 17.8981 48.1863 19.9056L43.6038 26.463L39.0212 33.0204C43.2052 35.9444 49.1388 35.0784 52.211 30.6822L45.6535 26.0996ZM32.9633 43.7001L26.4059 39.1175C26.0989 39.5568 25.568 40.3281 25.1319 41.2218C24.6905 42.1262 23.9852 43.8645 24.1547 46.0963C24.3385 48.5173 25.4443 50.2959 26.4129 51.4057C27.2619 52.3786 28.1946 53.0554 28.7109 53.4163L33.2935 46.8588L37.876 40.3014C37.6317 40.1306 38.0007 40.3501 38.4676 40.8851C39.0541 41.5571 39.9594 42.9174 40.1088 44.8849C40.2438 46.6632 39.6701 47.9128 39.5112 48.2386C39.3574 48.5538 39.2595 48.6565 39.5207 48.2827L32.9633 43.7001ZM33.2935 46.8588L26.736 42.2762L26.3511 42.8271L32.9085 47.4096L39.466 51.9922L39.8509 51.4414L33.2935 46.8588ZM32.9085 47.4096L37.4911 40.8522L32.6124 37.4427L28.0298 44.0002L23.4472 50.5576L28.326 53.9671L32.9085 47.4096ZM28.0298 44.0002L34.5872 48.5828L34.9722 48.0319L28.4147 43.4494L21.8573 38.8668L21.4724 39.4176L28.0298 44.0002ZM28.4147 43.4494L23.8322 50.0068C24.3485 50.3676 25.3047 51.0108 26.5101 51.4737C27.8853 52.0017 29.9356 52.4287 32.2722 51.7691C34.4263 51.1611 35.8162 49.9012 36.5138 49.1759C37.2031 48.4591 37.7449 47.6955 38.0519 47.2562L31.4944 42.6736L24.937 38.091C24.6757 38.4649 24.7386 38.3376 24.9816 38.0849C25.233 37.8236 26.2093 36.8554 27.9256 36.3709C29.8245 35.8349 31.4131 36.2173 32.2457 36.5371C32.9087 36.7916 33.2416 37.0627 32.9973 36.8919L28.4147 43.4494ZM31.4944 42.6736L38.0519 47.2562L44.1192 38.5741L37.5618 33.9916L31.0043 29.409L24.937 38.091L31.4944 42.6736ZM37.5618 33.9916L44.1192 38.5741C44.2857 38.3359 44.7468 37.6927 45.0845 37.1315C45.2729 36.8184 45.6004 36.2471 45.8794 35.5157C46.1494 34.8079 46.5581 33.4821 46.432 31.8014C46.0971 27.3366 42.7278 25.3336 41.4061 24.7387C40.2148 24.2025 39.0137 23.9864 38.5917 23.9076L37.1222 31.7714L35.6527 39.6353C36.1458 39.7275 35.5993 39.6711 34.8395 39.3291C34.3998 39.1312 33.4003 38.6285 32.4413 37.572C31.3323 36.3501 30.6081 34.7481 30.4769 32.9984C30.3624 31.4722 30.7364 30.321 30.93 29.8135C31.1325 29.2825 31.3419 28.9373 31.3753 28.8818C31.4029 28.8359 31.4061 28.8341 31.0043 29.409L37.5618 33.9916ZM37.1222 31.7714L45.0102 33.1057L45.1224 32.4424L37.2344 31.1081L29.3465 29.7738L29.2343 30.4372L37.1222 31.7714ZM37.2344 31.1081L35.8216 38.9824L39.4293 39.6297L40.8422 31.7554L42.255 23.8812L38.6473 23.2339L37.2344 31.1081ZM40.8422 31.7554L32.965 33.1519L33.0598 33.6866L40.937 32.2902L48.8142 30.8937L48.7194 30.359L40.8422 31.7554ZM40.937 32.2902L34.3795 27.7076L26.4059 39.1175L32.9633 43.7001L39.5207 48.2827L47.4944 36.8727L40.937 32.2902ZM43.9911 45.9782L48.2106 39.1814C44.4749 36.8623 39.5677 37.9927 37.2232 41.7125L43.9911 45.9782ZM44.562 46.3326L51.3316 50.5956C52.4669 48.7927 52.8362 46.6114 52.3575 44.5352C51.8788 42.4591 50.5917 40.6596 48.7815 39.5359L44.562 46.3326ZM43.3929 35.4749L50.1897 39.6944C51.3088 37.8918 51.6659 35.7185 51.1826 33.6525C50.6993 31.5866 49.415 29.7973 47.6124 28.6782L43.3929 35.4749ZM41.1364 34.0741L34.3397 29.8546C33.2206 31.6572 32.8634 33.8305 33.3468 35.8965C33.8301 37.9624 35.1143 39.7517 36.9169 40.8708L41.1364 34.0741ZM41.7103 33.1497L45.8505 26.3044C42.1009 24.0366 37.2247 25.2073 34.9135 28.9302L41.7103 33.1497ZM47.2231 31.1861L51.4426 24.3893C47.7645 22.1059 42.9372 23.1627 40.5497 26.7742L47.2231 31.1861ZM47.8756 31.5911L54.6724 35.8106C55.7915 34.008 56.1486 31.8347 55.6653 29.7687C55.182 27.7028 53.8977 25.9134 52.0951 24.7944L47.8756 31.5911ZM45.4621 35.4789L38.6653 31.2594C36.335 35.0131 37.4888 39.9452 41.2426 42.2756L45.4621 35.4789ZM48.7517 37.5211L55.5485 41.7406C56.6675 39.938 57.0247 37.7647 56.5414 35.6987C56.058 33.6328 54.7738 31.8434 52.9712 30.7243L48.7517 37.5211ZM48.1779 38.4455L43.9583 45.2422C47.7121 47.5726 52.6442 46.4187 54.9746 42.665L48.1779 38.4455ZM44.8882 36.4032L49.1077 29.6065C47.3051 28.4874 45.1318 28.1302 43.0658 28.6136C40.9999 29.0969 39.2106 30.3811 38.0915 32.1837L44.8882 36.4032ZM43.9911 45.9782L39.7716 52.7749L40.3425 53.1294L44.562 46.3326L48.7815 39.5359L48.2106 39.1814L43.9911 45.9782ZM44.562 46.3326L37.7925 42.0696C37.1902 43.026 36.7319 43.6917 36.3753 44.1501C35.9945 44.6397 35.9119 44.654 36.1181 44.4956C36.3537 44.3146 37.2201 43.7185 38.6308 43.5895C40.1449 43.451 41.3083 43.936 41.9034 44.3054L37.6839 51.1022L33.4644 57.8989C35.2149 58.9857 37.4832 59.7612 40.088 59.523C42.5894 59.2942 44.5321 58.2081 45.8658 57.1834C48.2363 55.3623 50.044 52.6403 51.3316 50.5956L44.562 46.3326ZM37.6839 51.1022L41.9034 44.3054C42.2339 44.5107 42.8794 44.9935 43.4287 45.8863C44.0103 46.8316 44.2269 47.8196 44.233 48.6143C44.2385 49.3195 44.08 49.6961 44.1095 49.6169C44.1357 49.5469 44.2664 49.2356 44.6368 48.639L37.8401 44.4194L31.0433 40.2C29.6926 42.3757 28.2073 45.353 28.2335 48.7381C28.2667 53.0319 30.6378 56.1442 33.4644 57.8989L37.6839 51.1022ZM37.8401 44.4194L44.6368 48.639L50.1897 39.6944L43.3929 35.4749L36.5962 31.2554L31.0433 40.2L37.8401 44.4194ZM43.3929 35.4749L47.6124 28.6782L45.3559 27.2773L41.1364 34.0741L36.9169 40.8708L39.1734 42.2717L43.3929 35.4749ZM41.1364 34.0741L47.9332 38.2936L48.507 37.3692L41.7103 33.1497L34.9135 28.9302L34.3397 29.8546L41.1364 34.0741ZM41.7103 33.1497L37.5701 39.9951C39.5423 41.1879 43.1923 42.8404 47.4552 41.2473C50.9276 39.9496 52.9277 37.0635 53.8966 35.5979L47.2231 31.1861L40.5497 26.7742C40.2221 27.2697 40.1167 27.3585 40.207 27.2666C40.3088 27.1631 40.849 26.6353 41.8541 26.2597C42.9789 25.8393 44.0928 25.8284 44.9553 26.0103C45.6723 26.1615 46.0121 26.4021 45.8505 26.3044L41.7103 33.1497ZM47.2231 31.1861L43.0036 37.9828L43.6561 38.3879L47.8756 31.5911L52.0951 24.7944L51.4426 24.3893L47.2231 31.1861ZM47.8756 31.5911L41.0789 27.3716L38.6653 31.2594L45.4621 35.4789L52.2588 39.6984L54.6724 35.8106L47.8756 31.5911ZM45.4621 35.4789L41.2426 42.2756L44.5322 44.3179L48.7517 37.5211L52.9712 30.7243L49.6816 28.6821L45.4621 35.4789ZM48.7517 37.5211L41.955 33.3016L41.3811 34.226L48.1779 38.4455L54.9746 42.665L55.5485 41.7406L48.7517 37.5211ZM48.1779 38.4455L52.3974 31.6487L49.1077 29.6065L44.8882 36.4032L40.6687 43.2L43.9583 45.2422L48.1779 38.4455ZM44.8882 36.4032L38.0915 32.1837L33.1631 40.1223L39.9598 44.3418L46.7566 48.5613L51.685 40.6227L44.8882 36.4032ZM39.9598 44.3418L33.1631 40.1223C32.4414 41.2848 31.0503 43.4693 30.4136 45.7158C30.052 46.9919 29.6869 49.0738 30.3869 51.4292C31.1529 54.0065 32.8491 55.7844 34.5942 56.8677L38.8137 50.071L43.0332 43.2742C43.9626 43.8512 45.1728 45.0167 45.7238 46.8708C46.209 48.5031 45.9001 49.7513 45.8073 50.0785C45.7112 50.4177 45.6425 50.4733 45.851 50.0852C46.0405 49.7325 46.3197 49.265 46.7566 48.5613L39.9598 44.3418ZM38.8137 50.071L34.5942 56.8677C36.0956 57.7998 38.1655 58.5366 40.6111 58.2937C42.9141 58.065 44.6687 57.0513 45.8192 56.1692C47.8743 54.5933 49.4862 52.2632 50.759 50.2438L43.9911 45.9782L37.2232 41.7125C36.6825 42.5705 36.2943 43.1171 36.0325 43.4482C35.7444 43.8125 35.7643 43.7168 36.0831 43.4723C36.4159 43.2172 37.428 42.5312 39.0298 42.3721C40.7742 42.1988 42.1843 42.7472 43.0332 43.2742L38.8137 50.071ZM51.3459 49.9282L55.156 42.8939C51.2897 40.7997 46.458 42.2183 44.3376 46.0703L51.3459 49.9282ZM51.9368 50.2483L58.9466 54.1035C59.9733 52.2366 60.2129 50.0372 59.6123 47.993C59.0117 45.9488 57.6204 44.2287 55.7469 43.2139L51.9368 50.2483ZM50.1276 39.4788L57.162 43.2889C59.2663 39.4039 57.8228 34.5487 53.9378 32.4444L50.1276 39.4788ZM47.7922 38.2138L40.7578 34.4036C38.6535 38.2886 40.0971 43.1439 43.982 45.2482L47.7922 38.2138ZM48.3104 37.2571L52.0385 30.1789C48.1614 28.1368 43.363 29.5938 41.276 33.4469L48.3104 37.2571ZM53.6975 34.9709L57.5077 27.9365C53.7009 25.8746 48.9446 27.215 46.7748 30.9613L53.6975 34.9709ZM54.3728 35.3366L61.4072 39.1468C63.5115 35.2618 62.0679 30.4065 58.183 28.3023L54.3728 35.3366ZM52.1934 39.3603L45.159 35.5501C43.0547 39.4351 44.4982 44.2904 48.3832 46.3947L52.1934 39.3603ZM55.598 41.2044L62.6324 45.0146C64.7367 41.1296 63.2932 36.2743 59.4082 34.17L55.598 41.2044ZM55.0798 42.1611L51.2697 49.1955C53.1353 50.206 55.3259 50.434 57.3597 49.8294C59.3934 49.2247 61.1037 47.8369 62.1142 45.9713L55.0798 42.1611ZM51.6752 40.317L55.4854 33.2826C51.6004 31.1783 46.7451 32.6218 44.6408 36.5068L51.6752 40.317ZM51.3459 49.9282L47.5357 56.9626L48.1266 57.2827L51.9368 50.2483L55.7469 43.2139L55.156 42.8939L51.3459 49.9282ZM51.9368 50.2483L44.9269 46.3931C44.3823 47.3834 43.9641 48.075 43.6353 48.5538C43.2841 49.065 43.2025 49.0842 43.399 48.9138C43.6234 48.7192 44.4531 48.0729 45.8537 47.8607C47.357 47.6329 48.547 48.0483 49.1629 48.3819L45.3527 55.4163L41.5425 62.4507C43.3543 63.432 45.6645 64.072 48.2507 63.6801C50.7341 63.3039 52.6092 62.1047 53.88 61.003C56.1386 59.0449 57.7822 56.2208 58.9466 54.1035L51.9368 50.2483ZM45.3527 55.4163L49.1629 48.3819C49.505 48.5672 50.1779 49.0111 50.779 49.8698C51.4155 50.7791 51.6901 51.7525 51.7432 52.5454C51.7904 53.2491 51.6544 53.6344 51.6793 53.5536C51.7013 53.4822 51.8134 53.1636 52.1478 52.5462L45.1134 48.736L38.0791 44.9258C36.8594 47.1776 35.5527 50.2376 35.779 53.6152C36.0661 57.8996 38.6171 60.8661 41.5425 62.4507L45.3527 55.4163ZM45.1134 48.736L52.1478 52.5462L57.162 43.2889L50.1276 39.4788L43.0932 35.6686L38.0791 44.9258L45.1134 48.736ZM50.1276 39.4788L53.9378 32.4444L51.6024 31.1794L47.7922 38.2138L43.982 45.2482L46.3174 46.5131L50.1276 39.4788ZM47.7922 38.2138L54.8266 42.0239L55.3448 41.0673L48.3104 37.2571L41.276 33.4469L40.7578 34.4036L47.7922 38.2138ZM48.3104 37.2571L44.5823 44.3353C46.6215 45.4094 50.3629 46.8432 54.5241 45.0008C57.9137 43.5 59.7396 40.5007 60.6202 38.9804L53.6975 34.9709L46.7748 30.9613C46.4771 31.4754 46.3771 31.5703 46.4619 31.4732C46.5573 31.3639 47.0654 30.8051 48.0465 30.3706C49.1445 29.8845 50.2558 29.8077 51.1275 29.9383C51.8522 30.0468 52.2056 30.2669 52.0385 30.1789L48.3104 37.2571ZM53.6975 34.9709L49.8873 42.0053L50.5626 42.371L54.3728 35.3366L58.183 28.3023L57.5077 27.9365L53.6975 34.9709ZM54.3728 35.3366L47.3384 31.5265L45.159 35.5501L52.1934 39.3603L59.2278 43.1705L61.4072 39.1468L54.3728 35.3366ZM52.1934 39.3603L48.3832 46.3947L51.7878 48.2388L55.598 41.2044L59.4082 34.17L56.0035 32.3259L52.1934 39.3603ZM55.598 41.2044L48.5636 37.3943L48.0454 38.3509L55.0798 42.1611L62.1142 45.9713L62.6324 45.0146L55.598 41.2044ZM55.0798 42.1611L58.89 35.1267L55.4854 33.2826L51.6752 40.317L47.865 47.3514L51.2697 49.1955L55.0798 42.1611ZM51.6752 40.317L44.6408 36.5068L40.1905 44.723L47.2249 48.5332L54.2593 52.3433L58.7096 44.1272L51.6752 40.317ZM47.2249 48.5332L40.1905 44.723C39.5388 45.9261 38.2793 48.1891 37.7766 50.4693C37.4911 51.7645 37.2497 53.8644 38.0879 56.1743C39.0049 58.7017 40.8033 60.3762 42.6094 61.3545L46.4196 54.3201L50.2297 47.2857C51.1916 47.8067 52.4686 48.8986 53.1284 50.7168C53.7092 52.3176 53.4747 53.5819 53.4014 53.914C53.3255 54.2582 53.2602 54.3179 53.4454 53.9181C53.6137 53.5548 53.8648 53.0716 54.2593 52.3433L47.2249 48.5332ZM46.4196 54.3201L42.6094 61.3545C44.1633 62.1961 46.2732 62.8092 48.7001 62.4221C50.9856 62.0576 52.6772 60.9419 53.7734 59.9933C55.7318 58.2986 57.203 55.8773 58.3542 53.7862L51.3459 49.9282L44.3376 46.0703C43.8485 46.9587 43.4934 47.5273 43.2516 47.8734C42.9855 48.254 42.9998 48.1573 43.3036 47.8944C43.6206 47.6201 44.5904 46.8754 46.18 46.6218C47.9111 46.3458 49.3511 46.8098 50.2297 47.2857L46.4196 54.3201ZM53.6881 55.3968L46.4433 52.0039L53.6881 55.3968ZM54.5539 58.4524L61.7988 61.8454C62.6987 59.9239 62.7984 57.7237 62.076 55.7287C61.3536 53.7337 59.8683 52.1074 57.9469 51.2076L54.5539 58.4524ZM54.2689 59.061L50.876 66.3059C54.8772 68.1797 59.6399 66.4551 61.5138 62.4539L54.2689 59.061ZM48.8787 56.5367L41.6339 53.1438C39.76 57.145 41.4846 61.9077 45.4858 63.7816L48.8787 56.5367ZM49.1638 55.9281L52.5567 48.6832C50.6352 47.7834 48.435 47.6837 46.44 48.4061C44.445 49.1284 42.8187 50.6137 41.9189 52.5352L49.1638 55.9281ZM52.0653 54.6368L44.8204 51.2439L52.0653 54.6368ZM59.5039 34.9051L51.5048 34.7841C51.4724 36.9304 52.3038 38.9997 53.8122 40.5269C55.3206 42.0541 57.3795 42.911 59.5261 42.9051L59.5039 34.9051ZM59.5145 34.2034L59.6228 26.2041C55.2099 26.1444 51.5822 29.6696 51.5155 34.0824L59.5145 34.2034ZM63.1663 34.2528L70.5629 31.2049C69.3431 28.2447 66.4759 26.2969 63.2745 26.2535L63.1663 34.2528ZM63.3647 34.7345L70.6096 38.1274C71.5607 36.0966 71.6157 33.7599 70.7614 31.6866L63.3647 34.7345ZM53.6881 55.3968L46.4433 52.0039C46.216 52.4892 45.8249 53.34 45.5481 54.2951C45.268 55.2617 44.8706 57.0951 45.4195 59.265C46.0148 61.6188 47.4087 63.182 48.5528 64.1097C49.5558 64.9229 50.5906 65.4302 51.161 65.6973L54.5539 58.4524L57.9469 51.2076C57.6769 51.0812 58.078 51.2343 58.6296 51.6815C59.3224 52.2432 60.4471 53.4286 60.9309 55.3415C61.3683 57.0704 61.0169 58.3998 60.916 58.748C60.8184 59.0848 60.7396 59.2028 60.933 58.7897L53.6881 55.3968ZM54.5539 58.4524L47.3091 55.0595L47.0241 55.6681L54.2689 59.061L61.5138 62.4539L61.7988 61.8454L54.5539 58.4524ZM54.2689 59.061L57.6618 51.8161L52.2717 49.2918L48.8787 56.5367L45.4858 63.7816L50.876 66.3059L54.2689 59.061ZM48.8787 56.5367L56.1236 59.9296L56.4086 59.321L49.1638 55.9281L41.9189 52.5352L41.6339 53.1438L48.8787 56.5367ZM49.1638 55.9281L45.7708 63.173C46.3413 63.4401 47.3934 63.9102 48.6603 64.16C50.1055 64.4449 52.1987 64.5148 54.388 63.4651C56.4062 62.4974 57.56 61.0183 58.1233 60.1843C58.6798 59.3602 59.0829 58.5151 59.3102 58.0297L52.0653 54.6368L44.8204 51.2439C44.627 51.6569 44.6671 51.5208 44.8634 51.2302C45.0663 50.9298 45.8625 49.8088 47.4706 49.0377C49.2498 48.1847 50.8804 48.2897 51.7554 48.4622C52.4522 48.5996 52.8266 48.8097 52.5567 48.6832L49.1638 55.9281ZM52.0653 54.6368L59.3102 58.0297L67.5617 40.4102L60.3169 37.0173L53.072 33.6244L44.8204 51.2439L52.0653 54.6368ZM60.3169 37.0173L67.5617 40.4102C67.6894 40.1376 68.034 39.424 68.271 38.8141C68.4027 38.4751 68.6278 37.8581 68.7787 37.093C68.9237 36.3575 69.1076 34.9702 68.6917 33.3199C67.5747 28.8867 63.7966 27.5284 62.4003 27.195C61.1305 26.8918 59.9075 26.904 59.4818 26.9052L59.5039 34.9051L59.5261 42.9051C60.0379 42.9037 59.4922 42.9504 58.6843 42.7575C58.2186 42.6463 57.1252 42.3369 55.9706 41.4595C54.628 40.4393 53.6128 38.9602 53.1767 37.2293C52.7987 35.7293 52.9778 34.5209 53.0809 33.9976C53.19 33.4448 53.3361 33.0735 53.3575 33.0185C53.3738 32.9766 53.3718 32.9841 53.072 33.6244L60.3169 37.0173ZM59.5039 34.9051L67.503 35.0262L67.5136 34.3244L59.5145 34.2034L51.5155 34.0824L51.5048 34.7841L59.5039 34.9051ZM59.5145 34.2034L59.4063 42.2027L63.058 42.2521L63.1663 34.2528L63.2745 26.2535L59.6228 26.2041L59.5145 34.2034ZM63.1663 34.2528L55.7696 37.3007L55.9681 37.7823L63.3647 34.7345L70.7614 31.6866L70.5629 31.2049L63.1663 34.2528ZM63.3647 34.7345L56.1199 31.3415L46.4433 52.0039L53.6881 55.3968L60.933 58.7897L70.6096 38.1274L63.3647 34.7345ZM66.5494 56.5073L69.454 49.0532C65.857 47.6516 61.7721 49.0186 59.7433 52.3029L66.5494 56.5073ZM67.1755 56.7513L74.2967 60.3967C75.3278 58.3824 75.4577 56.0256 74.6541 53.9103C73.8504 51.7949 72.1885 50.1188 70.0801 49.2972L67.1755 56.7513ZM68.0453 54.3428L65.1407 61.7968C69.2575 63.401 73.8953 61.3641 75.4994 57.2473L68.0453 54.3428ZM60.2931 51.322L63.1977 43.8679C59.0809 42.2637 54.4432 44.3006 52.839 48.4174L60.2931 51.322ZM60.7376 60.4932L63.6422 53.0391L60.7376 60.4932ZM66.0526 46.1481L68.9572 38.694L66.0526 46.1481ZM60.7477 50.3315L53.584 46.7704C52.5841 48.782 52.476 51.1213 53.2861 53.2166C54.0963 55.3118 55.75 56.9699 57.8432 57.7855L60.7477 50.3315ZM66.6812 52.6435L63.7766 60.0976C67.8934 61.7018 72.5311 59.6649 74.1353 55.5481L66.6812 52.6435ZM66.5494 56.5073L63.6448 63.9614L64.2709 64.2054L67.1755 56.7513L70.0801 49.2972L69.454 49.0532L66.5494 56.5073ZM67.1755 56.7513L60.0543 53.1059C59.6927 53.8123 59.3872 54.2496 59.1879 54.492C58.9851 54.7388 58.9464 54.7186 59.1304 54.6001C59.3265 54.4739 59.7834 54.2343 60.4819 54.1403C61.2076 54.0426 61.9612 54.1356 62.6322 54.3971L59.7276 61.8512L56.823 69.3053C60.7369 70.8303 64.7008 70.0429 67.7911 68.0535C70.6659 66.2028 72.7665 63.3859 74.2967 60.3967L67.1755 56.7513ZM59.7276 61.8512L62.6322 54.3971C63.2725 54.6466 63.9379 55.1318 64.4209 55.8148C64.8645 56.4421 64.9542 56.9491 64.9682 57.0517C64.9806 57.1425 64.9452 56.9723 65.0289 56.4822C65.1101 56.0066 65.2834 55.3493 65.6046 54.525L58.1505 51.6204L50.6964 48.7159C49.4634 51.8802 48.6185 55.5791 49.1154 59.2171C49.6617 63.2168 51.9789 67.4177 56.823 69.3053L59.7276 61.8512ZM58.1505 51.6204L65.6046 54.525C65.8614 53.8661 66.1446 53.3383 66.4033 52.9526C66.5305 52.7628 66.641 52.6235 66.7258 52.5277C66.8112 52.4311 66.8576 52.3932 66.8546 52.3957C66.852 52.3978 66.7815 52.4554 66.6349 52.532C66.4864 52.6097 66.2497 52.7121 65.9281 52.7872C65.2107 52.9549 64.3786 52.9139 63.6325 52.6232L66.5371 45.1691L69.4417 37.7151C64.3419 35.7278 59.6953 37.5862 56.7375 40.0003C53.8986 42.3174 51.9279 45.5554 50.6964 48.7159L58.1505 51.6204ZM66.5371 45.1691L63.6325 52.6232C62.9069 52.3405 62.205 51.8167 61.6983 51.1144C61.2272 50.4615 61.1033 49.9066 61.0734 49.7127C61.0451 49.5289 61.0845 49.5829 61.0291 49.9312C60.9758 50.267 60.8501 50.7738 60.5913 51.4382L68.0453 54.3428L75.4994 57.2473C76.6648 54.2565 77.4217 50.7496 76.8871 47.2776C76.3053 43.4999 74.0484 39.5101 69.4417 37.7151L66.5371 45.1691ZM68.0453 54.3428L70.9499 46.8887L63.1977 43.8679L60.2931 51.322L57.3885 58.7761L65.1407 61.7968L68.0453 54.3428ZM60.2931 51.322L52.839 48.4174L52.5834 49.0734L60.0375 51.9779L67.4916 54.8825L67.7472 54.2266L60.2931 51.322ZM60.0375 51.9779L52.5834 49.0734C51.564 51.6894 50.8407 54.7784 51.0107 57.8044C51.1639 60.5306 52.3501 65.8108 57.833 67.9473L60.7376 60.4932L63.6422 53.0391C65.1168 53.6137 66.0671 54.6767 66.55 55.5848C66.7685 55.9957 66.8739 56.3358 66.9246 56.5445C66.9757 56.7544 66.9842 56.8828 66.9855 56.9067C66.9872 56.9367 66.9771 56.7498 67.0576 56.3353C67.1347 55.9383 67.2741 55.4405 67.4916 54.8825L60.0375 51.9779ZM60.7376 60.4932L57.833 67.9473C61.2519 69.2795 64.7305 68.6341 67.4828 66.9567C69.967 65.4426 71.8585 63.135 73.3555 60.7117L66.5494 56.5073L59.7433 52.3029C58.9147 53.6442 58.6309 53.6142 59.1558 53.2943C59.474 53.1003 60.0867 52.8066 60.9622 52.6993C61.8674 52.5884 62.7978 52.7101 63.6422 53.0391L60.7376 60.4932ZM66.0526 46.1481L68.9572 38.694C64.1572 36.8236 60.1043 39.0166 58.0142 40.8083C55.9638 42.566 54.5373 44.8527 53.584 46.7704L60.7477 50.3315L67.9115 53.8925C68.3883 52.9332 68.6602 52.7564 68.4276 52.9558C68.2767 53.0852 67.7308 53.5209 66.7702 53.789C65.688 54.091 64.3881 54.0853 63.148 53.6021L66.0526 46.1481ZM60.7477 50.3315L57.8432 57.7855L63.7766 60.0976L66.6812 52.6435L69.5858 45.1894L63.6523 42.8774L60.7477 50.3315ZM66.6812 52.6435L74.1353 55.5481C74.848 53.719 75.602 51.144 75.5201 48.4328C75.4357 45.6437 74.2163 40.7432 68.9572 38.694L66.0526 46.1481L63.148 53.6021C61.8325 53.0895 60.7631 52.1038 60.1306 50.9435C59.5837 49.9401 59.5339 49.1325 59.5274 48.9164C59.5171 48.5771 59.5716 48.8547 59.2271 49.7389L66.6812 52.6435ZM72.7328 65.5256L64.9179 63.8146C64.4642 65.8873 64.8523 68.0553 65.9971 69.8417C67.1418 71.6282 68.9493 72.8867 71.0219 73.3405L72.7328 65.5256ZM74.6833 56.6166L76.3942 48.8017C74.3216 48.3479 72.1536 48.7361 70.3672 49.8808C68.5807 51.0255 67.3222 52.833 66.8684 54.9056L74.6833 56.6166ZM75.3398 56.7603L83.1648 58.4244C84.0799 54.1211 81.3485 49.8863 77.0507 48.9454L75.3398 56.7603ZM80.5462 53.4779L74.1001 58.2157C74.1228 58.2467 74.1458 58.2775 74.169 58.3081L80.5462 53.4779ZM89.5375 42.9328L91.2485 35.1179C89.1758 34.6641 87.0078 35.0523 85.2214 36.197C83.4349 37.3417 82.1764 39.1492 81.7226 41.2219L89.5375 42.9328ZM90.2252 43.0834L98.0401 44.7943C98.9851 40.4783 96.2522 36.2134 91.9362 35.2685L90.2252 43.0834ZM88.6375 50.3356L86.9265 58.1505C88.9992 58.6043 91.1672 58.2161 92.9536 57.0714C94.7401 55.9267 95.9986 54.1192 96.4524 52.0465L88.6375 50.3356ZM87.9498 50.185L80.1215 48.5362C79.216 52.8353 81.947 57.0603 86.2388 58L87.9498 50.185ZM79.0443 44.9268L71.2294 43.2158L79.0443 44.9268ZM82.6682 52.7631L76.1935 57.4619C76.197 57.4668 76.2006 57.4716 76.2041 57.4765L82.6682 52.7631ZM73.3893 65.6693L71.6783 73.4842C75.9944 74.4291 80.2593 71.6963 81.2042 67.3802L73.3893 65.6693ZM72.7328 65.5256L80.5477 67.2365L82.4982 58.3275L74.6833 56.6166L66.8684 54.9056L64.9179 63.8146L72.7328 65.5256ZM74.6833 56.6166L72.9724 64.4315L73.6288 64.5752L75.3398 56.7603L77.0507 48.9454L76.3942 48.8017L74.6833 56.6166ZM75.3398 56.7603L67.5148 55.0962C65.9232 62.5802 68.6306 72.3256 77.8766 74.3498L79.5876 66.5349L81.2985 58.72C81.8623 58.8435 82.3155 59.0984 82.6295 59.3665C82.9342 59.6266 83.0599 59.8545 83.0941 59.9268C83.1608 60.0678 82.9087 59.6283 83.1648 58.4244L75.3398 56.7603ZM79.5876 66.5349L77.8766 74.3498C81.0551 75.0457 84.5766 74.6641 87.6085 72.6244C90.5884 70.6198 92.2284 67.5992 92.8786 64.6294L85.0637 62.9184L77.2488 61.2075C77.2968 60.9885 77.5898 60.0808 78.6776 59.3489C79.8176 58.582 80.9022 58.6333 81.2985 58.72L79.5876 66.5349ZM85.0637 62.9184L92.8786 64.6294C93.831 60.2794 92.2703 56.6436 90.9816 54.3881C89.7605 52.2511 87.9669 50.0253 86.9234 48.6476L80.5462 53.4779L74.169 58.3081C74.9371 59.3222 75.4425 59.9624 76.0135 60.7358C76.5397 61.4486 76.8736 61.9481 77.0894 62.3259C77.571 63.1687 76.9603 62.5253 77.2488 61.2075L85.0637 62.9184ZM80.5462 53.4779L86.9924 48.7401C86.2893 47.7834 85.8048 47.119 85.4253 46.553C85.0505 45.994 84.9243 45.7431 84.8924 45.6727C84.882 45.6496 84.9717 45.8479 85.0093 46.1872C85.0471 46.5294 85.0018 46.7424 85.006 46.7234L77.1911 45.0124L69.3762 43.3015C68.6695 46.5292 69.0506 49.471 70.3129 52.2633C71.3142 54.4783 72.9105 56.5972 74.1001 58.2157L80.5462 53.4779ZM77.1911 45.0124L85.006 46.7234C84.9705 46.8855 84.8623 47.2218 84.5796 47.6132C84.293 48.0099 83.9135 48.3419 83.4948 48.5727C82.6617 49.032 82.1242 48.8769 82.2674 48.9082L83.9783 41.0933L85.6892 33.2784C82.5815 32.598 79.0061 32.7769 75.7701 34.561C72.3921 36.4233 70.1853 39.606 69.3762 43.3015L77.1911 45.0124ZM83.9783 41.0933L82.2674 48.9082C81.9221 48.8326 81.5425 48.5478 81.3989 48.3855C81.3933 48.3792 81.4118 48.3994 81.4734 48.4805C81.5059 48.5233 81.5418 48.5715 81.5985 48.6482C81.6444 48.7103 81.7306 48.8273 81.8142 48.938C81.9364 49.1 82.3301 49.6259 82.867 50.156C83.3013 50.5848 84.7142 51.9335 87.0301 52.4405L88.741 44.6257L90.452 36.8107C92.6038 37.2819 93.8512 38.5165 94.1084 38.7704C94.4681 39.1256 94.6728 39.4156 94.584 39.2979C94.562 39.2688 94.5371 39.2351 94.4651 39.1377C94.4039 39.0548 94.315 38.9347 94.2146 38.8026C94.0104 38.5337 93.7305 38.1774 93.3836 37.7851C91.8746 36.0791 89.4418 34.1 85.6892 33.2784L83.9783 41.0933ZM88.741 44.6257L87.0301 52.4405C87.9278 52.6371 90.1654 52.9788 92.6037 51.7206C94.8 50.5872 95.8302 48.8252 96.2132 48.088C96.9017 46.7626 97.2142 45.2749 97.3524 44.6438L89.5375 42.9328L81.7226 41.2219C81.6525 41.542 81.62 41.6569 81.6216 41.6516C81.6241 41.643 81.6489 41.5573 81.699 41.421C81.7464 41.2924 81.8465 41.036 82.0146 40.7124C82.2772 40.2068 83.1913 38.5729 85.2665 37.5021C87.5837 36.3063 89.695 36.645 90.452 36.8107L88.741 44.6257ZM89.5375 42.9328L87.8266 50.7477L88.5143 50.8983L90.2252 43.0834L91.9362 35.2685L91.2485 35.1179L89.5375 42.9328ZM90.2252 43.0834L82.4103 41.3724L80.8226 48.6247L88.6375 50.3356L96.4524 52.0465L98.0401 44.7943L90.2252 43.0834ZM88.6375 50.3356L90.3484 42.5207L89.6607 42.3701L87.9498 50.185L86.2388 58L86.9265 58.1505L88.6375 50.3356ZM87.9498 50.185L95.778 51.8339C97.1906 45.1272 94.4502 36.3103 85.5503 34.3618L83.8394 42.1767L82.1285 49.9916C81.7591 49.9107 81.3556 49.7312 80.9936 49.4448C80.6394 49.1646 80.4189 48.8576 80.2959 48.6177C80.0578 48.1537 80.2215 48.0617 80.1215 48.5362L87.9498 50.185ZM83.8394 42.1767L85.5503 34.3618C82.3446 33.6599 78.9129 34.0605 76.0091 36.044C73.2428 37.9336 71.7803 40.6995 71.2294 43.2158L79.0443 44.9268L86.8592 46.6377C86.6983 47.3723 86.2111 48.4518 85.0337 49.256C83.7187 50.1542 82.4896 50.0706 82.1285 49.9916L83.8394 42.1767ZM79.0443 44.9268L71.2294 43.2158C70.3009 47.4569 71.8457 50.9342 73.022 52.9584C74.0385 54.7076 75.7542 56.8566 76.1935 57.4619L82.6682 52.7631L89.1429 48.0644C88.8608 47.6756 88.5795 47.3029 88.3346 46.98C88.0749 46.6375 87.8673 46.3655 87.6583 46.0848C87.2384 45.5208 87.0011 45.1695 86.8558 44.9194C86.5272 44.3539 87.1786 45.1788 86.8592 46.6377L79.0443 44.9268ZM82.6682 52.7631L76.2041 57.4765C77.126 58.7409 77.7319 59.5457 78.2848 60.3378C78.8121 61.0933 79.0289 61.4734 79.1231 61.6686C79.1863 61.7996 79.1154 61.6856 79.0854 61.4325C79.0561 61.1861 79.1028 61.1184 79.0473 61.3719L86.8622 63.0829L94.6771 64.7938C95.4834 61.1107 95.0437 57.845 93.5327 54.7143C92.3865 52.3391 90.4716 49.8866 89.1322 48.0498L82.6682 52.7631ZM86.8622 63.0829L79.0473 61.3719C79.0682 61.2762 79.1463 61.0308 79.3611 60.7393C79.5726 60.4522 79.8404 60.2245 80.1164 60.0685C80.6272 59.7799 81.059 59.7814 81.3471 59.8445L79.6362 67.6594L77.9253 75.4743C84.3709 76.8854 92.7301 73.687 94.6771 64.7938L86.8622 63.0829ZM79.6362 67.6594L81.3471 59.8445C81.2842 59.8307 81.4044 59.8514 81.6062 59.9773C81.6958 60.0333 81.7735 60.0926 81.8352 60.1463C81.8954 60.1986 81.9275 60.2343 81.927 60.2338C81.9222 60.2285 81.8922 60.1947 81.8027 60.0801C81.7965 60.0722 81.4971 59.6829 81.3328 59.48C81.1371 59.2383 80.6672 58.6648 80.0041 58.0928C79.3279 57.5096 78.0416 56.5656 76.1605 56.1538L74.4495 63.9687L72.7386 71.7836C71.0841 71.4214 70.0126 70.6043 69.5535 70.2084C69.3057 69.9946 69.1328 69.8131 69.043 69.715C68.9515 69.6151 68.8977 69.5482 68.8969 69.5472C68.8965 69.5467 68.9119 69.5658 68.9702 69.6412C69.0127 69.6961 69.1096 69.822 69.1972 69.9341C69.39 70.1808 69.6728 70.5349 70.0253 70.9272C70.7511 71.735 71.7584 72.6917 73.1353 73.551C74.5196 74.4149 76.1126 75.0774 77.9253 75.4743L79.6362 67.6594ZM74.4495 63.9687L76.1605 56.1538C74.7646 55.8482 72.7738 55.7823 70.7025 56.7592C68.7441 57.6829 67.62 59.1168 67.0389 60.0574C66.0682 61.6285 65.708 63.3481 65.5744 63.9584L73.3893 65.6693L81.2042 67.3802C81.2533 67.156 81.2642 67.1427 81.2306 67.2476C81.2117 67.3066 81.0529 67.8158 80.6507 68.4669C80.2344 69.1406 79.2876 70.4004 77.5279 71.2304C75.6552 72.1136 73.8844 72.0345 72.7386 71.7836L74.4495 63.9687ZM73.3893 65.6693L75.1002 57.8544L74.4438 57.7107L72.7328 65.5256L71.0219 73.3405L71.6783 73.4842L73.3893 65.6693ZM99.3598 67.6994L100.129 59.7365C96.7735 59.4126 93.5754 61.2263 92.1313 64.2719L99.3598 67.6994ZM100.029 67.764L107.514 70.5876C108.393 68.257 108.136 65.6499 106.82 63.5354C105.503 61.4209 103.277 60.0404 100.797 59.801L100.029 67.764ZM97.5058 70.2531L98.2745 62.2901L97.5058 70.2531ZM95.8857 66.7211L103.849 67.4898C104.053 65.3779 103.409 63.2715 102.06 61.634C100.711 59.9965 98.7663 58.962 96.6544 58.7581L95.8857 66.7211ZM95.822 66.715L96.5907 58.752C93.7229 58.4751 90.9278 59.7617 89.273 62.1203L95.822 66.715ZM95.14 59.1263L92.3978 51.611C92.3744 51.6195 92.3511 51.6282 92.3277 51.6369L95.14 59.1263ZM96.6729 58.567L99.4151 66.0823C102.309 65.0263 104.34 62.4022 104.636 59.3357L96.6729 58.567ZM96.8266 56.9744L88.8636 56.2057L96.8266 56.9744ZM91.85 54.2436L83.887 53.4749L91.85 54.2436ZM92.2676 56.245L100.231 57.0137L92.2676 56.245ZM91.0287 57.0898L91.7974 49.1268L91.0287 57.0898ZM97.6018 67.594L89.6388 66.8253L97.6018 67.594ZM98.0882 69.2163L98.8569 61.2533L98.0882 69.2163ZM95.9841 65.7018L101.893 71.0946C103.06 69.816 103.781 68.1935 103.947 66.4705L95.9841 65.7018ZM96.5745 59.5863L104.537 60.355C104.803 57.6078 103.633 54.918 101.443 53.2384C99.2532 51.5587 96.3521 51.1265 93.7676 52.0948L96.5745 59.5863ZM95.0735 60.1486L92.2667 52.6572C92.2444 52.6656 92.2221 52.674 92.1999 52.6826L95.0735 60.1486ZM99.3598 67.6994L98.5911 75.6624L99.26 75.727L100.029 67.764L100.797 59.801L100.129 59.7365L99.3598 67.6994ZM100.029 67.764L92.5436 64.9404C92.4042 65.3099 92.3667 65.3911 92.3697 65.3848C92.3713 65.3812 92.5459 64.9968 92.9547 64.5052C93.4079 63.9602 94.1789 63.2484 95.3258 62.7639C96.48 62.2763 97.5405 62.2193 98.2745 62.2901L97.5058 70.2531L96.7371 78.2161C98.2038 78.3577 99.8757 78.211 101.553 77.5026C103.222 76.7972 104.427 75.7336 105.257 74.7347C106.646 73.0652 107.331 71.073 107.514 70.5876L100.029 67.764ZM97.5058 70.2531L98.2745 62.2901C98.919 62.3523 99.9319 62.5797 100.993 63.2818C102.089 64.0076 102.824 64.9682 103.256 65.8732C103.971 67.3709 103.753 68.4791 103.79 68.095L95.8273 67.3263L87.8643 66.5576C87.7507 67.7343 87.6075 70.2321 88.8172 72.766C90.4085 76.0997 93.5054 77.9041 96.7371 78.2161L97.5058 70.2531ZM95.8273 67.3263L103.79 68.095L103.849 67.4898L95.8857 66.7211L87.9227 65.9524L87.8643 66.5576L95.8273 67.3263ZM95.8857 66.7211L96.6544 58.7581L96.5907 58.752L95.822 66.715L95.0533 74.6779L95.117 74.6841L95.8857 66.7211ZM95.822 66.715L89.273 62.1203C89.1062 62.3581 89.053 62.4303 89.0002 62.4941C88.9505 62.5544 88.9833 62.5033 89.1079 62.4018C89.235 62.2983 89.5388 62.076 90.0277 61.8964C90.5542 61.703 91.176 61.6049 91.8086 61.666L91.0399 69.6289L90.2712 77.5919C94.2799 77.9789 97.3455 76.3284 99.2138 74.8063C100.968 73.3775 102.078 71.7267 102.371 71.3096L95.822 66.715ZM91.0399 69.6289L91.8086 61.666C92.2042 61.7041 92.8441 61.8398 93.562 62.2477C94.3005 62.6674 94.9168 63.2608 95.3568 63.9367C95.7793 64.5856 95.9532 65.1747 96.0227 65.5513C96.0909 65.9204 96.0705 66.1394 96.0685 66.1601L88.1055 65.3914L80.1425 64.6227C79.924 66.8859 80.1492 69.9031 81.948 72.6661C83.9357 75.7193 87.0751 77.2834 90.2712 77.5919L91.0399 69.6289ZM88.1055 65.3914L96.0685 66.1601C96.0571 66.2776 95.9845 66.6618 95.7035 67.1141C95.4379 67.5415 95.1629 67.7449 95.13 67.7679C95.1205 67.7746 95.1638 67.7435 95.2863 67.6794C95.4097 67.6149 95.5853 67.5315 95.8358 67.4254C96.0881 67.3186 96.3793 67.2042 96.7415 67.0674C96.9217 66.9994 97.1072 66.9304 97.3117 66.8544C97.5102 66.7807 97.7312 66.6987 97.9524 66.6157L95.14 59.1263L92.3277 51.6369C91.1964 52.0617 88.3007 53.0179 85.9543 54.6604C83.0116 56.7204 80.5915 59.9713 80.1425 64.6227L88.1055 65.3914ZM95.14 59.1263L97.8822 66.6416L99.4151 66.0823L96.6729 58.567L93.9307 51.0517L92.3978 51.611L95.14 59.1263ZM96.6729 58.567L104.636 59.3357L104.79 57.7431L96.8266 56.9744L88.8636 56.2057L88.7099 57.7983L96.6729 58.567ZM96.8266 56.9744L104.79 57.7431C104.873 56.8829 105.218 54.0114 104.116 51.2226C103.447 49.5284 102.262 47.8498 100.42 46.6099C98.6728 45.4337 96.8261 44.9829 95.298 44.8354L94.5293 52.7983L93.7606 60.7613C93.4588 60.7322 92.5385 60.5918 91.4846 59.8824C90.3363 59.1093 89.6117 58.0538 89.236 57.1032C88.914 56.2886 88.905 55.7019 88.9042 55.6768C88.903 55.6352 88.9078 55.7486 88.8636 56.2057L96.8266 56.9744ZM94.5293 52.7983L95.298 44.8354C93.4419 44.6562 91.1701 44.8671 89.0101 45.9903C86.7197 47.1813 84.2551 49.6617 83.887 53.4749L91.85 54.2436L99.813 55.0123C99.5433 57.8062 97.7176 59.4963 96.3918 60.1857C95.1965 60.8073 94.2151 60.8052 93.7606 60.7613L94.5293 52.7983ZM91.85 54.2436L83.887 53.4749C83.76 54.7909 83.9338 55.9045 84.1362 56.7105C84.2341 57.1005 84.3405 57.4249 84.42 57.6516C84.4948 57.8652 84.5695 58.0576 84.5927 58.1179C84.6306 58.2162 84.6169 58.1824 84.5982 58.1289C84.5748 58.0624 84.5196 57.8996 84.4631 57.6744C84.3434 57.1979 84.213 56.426 84.3046 55.4763L92.2676 56.245L100.231 57.0137C100.358 55.6976 100.184 54.584 99.9814 53.778C99.8835 53.3881 99.7771 53.0636 99.6977 52.837C99.6228 52.6233 99.5481 52.431 99.5249 52.3707C99.4871 52.2724 99.5007 52.3061 99.5194 52.3596C99.5428 52.4262 99.598 52.5889 99.6545 52.8142C99.7742 53.2907 99.9047 54.0626 99.813 55.0123L91.85 54.2436ZM92.2676 56.245L84.3046 55.4763C84.4918 53.5377 85.5222 51.5779 87.3571 50.3161C89.0496 49.1521 90.7559 49.0263 91.7974 49.1268L91.0287 57.0898L90.26 65.0528C92.0022 65.221 94.3003 64.9595 96.4233 63.4995C98.6886 61.9416 99.9881 59.5256 100.231 57.0137L92.2676 56.245ZM91.0287 57.0898L91.7974 49.1268C92.7976 49.2234 93.938 49.5655 95.0133 50.2987C96.0845 51.0292 96.8032 51.9513 97.2457 52.8054C98.0507 54.3589 97.9239 55.5984 97.9113 55.7289L89.9483 54.9602L81.9854 54.1915C81.8467 55.6278 81.862 57.8938 83.0395 60.1664C84.452 62.8923 87.1127 64.749 90.26 65.0528L91.0287 57.0898ZM89.9483 54.9602L97.9113 55.7289C97.8472 56.3926 97.621 57.1311 97.1793 57.8279C96.7431 58.516 96.1982 59.0047 95.6886 59.3219C94.7156 59.9276 94.0116 59.8532 94.009 59.853L94.7777 51.89L95.5464 43.927C92.9319 43.6746 89.9163 44.0684 87.2331 45.7386C84.3636 47.5249 82.3389 50.5291 81.9854 54.1915L89.9483 54.9602ZM94.7777 51.89L94.009 59.853C93.9412 59.8464 92.5913 59.6734 91.4806 58.2444C90.4391 56.9047 90.6987 55.8459 90.6381 56.4734L98.6011 57.2422L106.564 58.0109C106.845 55.1029 106.499 51.4941 104.113 48.4252C101.658 45.2671 98.2261 44.1857 95.5464 43.927L94.7777 51.89ZM98.6011 57.2422L90.6381 56.4734L89.6388 66.8253L97.6018 67.594L105.565 68.3627L106.564 58.0109L98.6011 57.2422ZM97.6018 67.594L89.6388 66.8253C89.6184 67.0371 89.3837 68.8141 89.8028 70.6033C90.0719 71.7521 90.7329 73.5252 92.3961 75.0262C94.0907 76.5556 95.9895 77.0509 97.3195 77.1793L98.0882 69.2163L98.8569 61.2533C99.9002 61.354 101.582 61.7641 103.116 63.1483C104.618 64.5042 105.175 66.0723 105.381 66.9538C105.572 67.7688 105.554 68.3708 105.553 68.4435C105.55 68.5655 105.543 68.5865 105.565 68.3627L97.6018 67.594ZM98.0882 69.2163L97.3195 77.1793C98.8939 77.3312 100.591 77.0589 102.175 76.2155C103.608 75.4526 104.514 74.4508 105.012 73.8138C105.851 72.7393 106.416 71.4906 106.588 71.127L99.3598 67.6994L92.1313 64.2719C92.0753 64.3898 92.0346 64.4743 92.0033 64.5375C91.9717 64.6014 91.9601 64.6227 91.9638 64.6158C91.9667 64.6104 92.0003 64.5479 92.0617 64.4493C92.1218 64.3528 92.2343 64.18 92.401 63.9665C92.7058 63.5762 93.423 62.7489 94.6543 62.0932C96.0368 61.357 97.5214 61.1244 98.8569 61.2533L98.0882 69.2163ZM91.8944 68.104L91.1257 76.067C96.8528 76.6198 100.344 72.7918 101.893 71.0946L95.9841 65.7018L90.075 60.3091C89.7497 60.6655 89.5571 60.8565 89.4512 60.9539C89.3445 61.0519 89.4247 60.9624 89.6638 60.8146C89.9283 60.6511 90.3781 60.4217 90.9891 60.2705C91.614 60.1159 92.1947 60.0958 92.6631 60.141L91.8944 68.104ZM95.9841 65.7018L103.947 66.4705L104.537 60.355L96.5745 59.5863L88.6115 58.8176L88.0211 64.9331L95.9841 65.7018ZM96.5745 59.5863L93.7676 52.0948L92.2667 52.6572L95.0735 60.1486L97.8803 67.6401L99.3813 67.0777L96.5745 59.5863ZM95.0735 60.1486L92.1999 52.6826C89.2127 53.8323 82.7641 56.7814 82.0268 64.4188L89.9898 65.1875L97.9528 65.9562C97.9173 66.3238 97.7979 66.775 97.5575 67.2239C97.3257 67.6567 97.0683 67.9256 96.9293 68.0498C96.8054 68.1604 96.7864 68.1472 96.9766 68.0439C97.1659 67.9411 97.4722 67.7975 97.9471 67.6147L95.0735 60.1486ZM89.9898 65.1875L82.0268 64.4188C81.8406 66.3484 81.9892 69.1254 83.7078 71.703C85.61 74.556 88.5203 75.8154 91.1257 76.067L91.8944 68.104L92.6631 60.141C93.8988 60.2603 95.7708 60.9534 97.0201 62.8271C98.0857 64.4254 97.9669 65.8103 97.9528 65.9562L89.9898 65.1875ZM102.567 46.4766L102.437 54.4755L102.567 46.4766ZM102.615 43.533L102.485 51.5319L102.615 43.533ZM104.063 45.0288L112.062 45.1593L104.063 45.0288ZM105.43 69.1503L113.429 69.2808C113.463 67.1594 112.654 65.1111 111.178 63.5865C109.703 62.0619 107.682 61.186 105.56 61.1514L105.43 69.1503ZM105.419 69.8222L105.288 77.8211C109.706 77.8932 113.346 74.3704 113.418 69.9527L105.419 69.8222ZM99.4677 69.7251L91.4687 69.5946C91.3966 74.0123 94.9194 77.6519 99.3371 77.724L99.4677 69.7251ZM99.4786 69.0532L99.6092 61.0542C95.1915 60.9822 91.5518 64.505 91.4797 68.9227L99.4786 69.0532ZM100.164 54.5024L92.8793 57.8087C94.6832 61.7832 99.3399 63.5783 103.345 61.8429L100.164 54.5024ZM99.8861 53.8898L96.6526 46.5724C94.6992 47.4356 93.1721 49.0439 92.4112 51.0393C91.6502 53.0347 91.7187 55.2514 92.6013 57.1961L99.8861 53.8898ZM103.239 52.4083L108.987 46.8445C106.656 44.4362 103.071 43.7362 100.005 45.0909L103.239 52.4083ZM103.616 52.7985L111.615 52.9291C111.65 50.8076 110.84 48.7593 109.365 47.2347L103.616 52.7985ZM102.567 46.4766L102.698 38.4776C106.284 38.5361 109.177 41.5255 109.119 45.1113L101.12 44.9808L93.1207 44.8502C93.035 50.0998 97.1873 54.3898 102.437 54.4755L102.567 46.4766ZM101.12 44.9808L109.119 45.1113C109.061 48.6152 106.184 51.5923 102.485 51.5319L102.615 43.533L102.746 35.534C97.3834 35.4465 93.204 39.7465 93.1207 44.8502L101.12 44.9808ZM102.615 43.533L102.485 51.5319C98.8671 51.4729 96.0052 48.516 96.0643 44.8983L104.063 45.0288L112.062 45.1593C112.147 39.9417 107.964 35.6192 102.746 35.534L102.615 43.533ZM104.063 45.0288L96.0643 44.8983C96.1246 41.1995 99.1939 38.4205 102.698 38.4776L102.567 46.4766L102.437 54.4755C107.541 54.5588 111.975 50.5219 112.062 45.1593L104.063 45.0288ZM103.389 66.7167L95.3903 66.5862C95.3816 67.122 95.3729 68.0583 95.5113 69.0431C95.6514 70.0396 96.0391 71.8751 97.428 73.6302C98.9346 75.5342 100.846 76.39 102.27 76.7681C103.518 77.0996 104.669 77.139 105.299 77.1492L105.43 69.1503L105.56 61.1514C105.262 61.1465 105.691 61.122 106.377 61.3043C107.239 61.5333 108.751 62.1545 109.975 63.7018C111.082 65.1003 111.305 66.4571 111.356 66.8161C111.404 67.1633 111.381 67.3032 111.388 66.8472L103.389 66.7167ZM105.43 69.1503L97.4309 69.0198L97.4199 69.6917L105.419 69.8222L113.418 69.9527L113.429 69.2808L105.43 69.1503ZM105.419 69.8222L105.549 61.8233L99.5982 61.7262L99.4677 69.7251L99.3371 77.724L105.288 77.8211L105.419 69.8222ZM99.4677 69.7251L107.467 69.8556L107.478 69.1837L99.4786 69.0532L91.4797 68.9227L91.4687 69.5946L99.4677 69.7251ZM99.4786 69.0532L99.3481 77.0521C99.9779 77.0624 101.13 77.0607 102.388 76.7701C103.824 76.4386 105.762 75.6456 107.33 73.7918C108.775 72.0829 109.223 70.2611 109.395 69.2696C109.566 68.2899 109.588 67.3538 109.596 66.818L101.597 66.6874L93.5986 66.5569C93.5911 67.0129 93.572 66.8723 93.6322 66.5269C93.6943 66.1697 93.962 64.821 95.1136 63.4593C96.3879 61.9528 97.9186 61.3812 98.7877 61.1805C99.4796 61.0207 99.9072 61.0591 99.6092 61.0542L99.4786 69.0532ZM101.597 66.6874L109.596 66.818L109.769 56.2274L101.77 56.0968L93.7714 55.9663L93.5986 66.5569L101.597 66.6874ZM101.77 56.0968L109.769 56.2274C109.774 55.9368 109.796 55.1457 109.762 54.4916C109.744 54.1267 109.695 53.4699 109.518 52.7076C109.345 51.9699 108.943 50.6423 107.898 49.3196C105.123 45.806 101.21 46.0304 99.7812 46.2766C98.4937 46.4986 97.3773 46.9912 96.9834 47.1619L100.164 54.5024L103.345 61.8429C103.805 61.6435 103.321 61.9025 102.499 62.044C102.024 62.1259 100.915 62.2684 99.5287 61.9289C97.9259 61.5364 96.4295 60.6136 95.342 59.2366C94.3934 58.0356 94.0594 56.8721 93.936 56.3432C93.8069 55.7898 93.7874 55.3865 93.784 55.3218C93.7812 55.2683 93.7828 55.265 93.7714 55.9663L101.77 56.0968ZM100.164 54.5024L107.449 51.1962L107.171 50.5835L99.8861 53.8898L92.6013 57.1961L92.8793 57.8087L100.164 54.5024ZM99.8861 53.8898L103.12 61.2072L106.472 59.7257L103.239 52.4083L100.005 45.0909L96.6526 46.5724L99.8861 53.8898ZM103.239 52.4083L97.4903 57.9721L97.868 58.3623L103.616 52.7985L109.365 47.2347L108.987 46.8445L103.239 52.4083ZM103.616 52.7985L95.6174 52.668L95.3903 66.5862L103.389 66.7167L111.388 66.8472L111.615 52.9291L103.616 52.7985ZM108.318 52.5084L116.296 51.9094C116.137 49.7936 115.144 47.8276 113.536 46.4439L108.318 52.5084ZM108.512 55.0932L100.535 55.6922C100.694 57.808 101.686 59.774 103.295 61.1577C104.903 62.5415 106.996 63.2296 109.111 63.0707L108.512 55.0932ZM108.608 55.086L109.207 63.0635C111.85 62.8651 114.223 61.3706 115.544 59.0729L108.608 55.086ZM116.109 55.8383L108.132 56.4374L116.109 55.8383ZM119.145 68.0613L127.123 67.4623C126.792 63.0564 122.952 59.7529 118.546 60.0838L119.145 68.0613ZM119.196 68.7315L119.795 76.709C121.91 76.5501 123.876 75.5572 125.26 73.9488C126.644 72.3404 127.332 70.2482 127.173 68.1324L119.196 68.7315ZM113.292 69.1748L105.315 69.7738C105.645 74.1797 109.485 77.4832 113.891 77.1523L113.292 69.1748ZM113.242 68.5047L112.643 60.5271C110.527 60.686 108.561 61.6789 107.177 63.2873C105.794 64.8957 105.105 66.9879 105.264 69.1037L113.242 68.5047ZM112.226 53.2739L112.826 61.2515L112.226 53.2739ZM108.594 56.1781L101.978 51.6807C100.961 53.1768 100.481 54.9733 100.616 56.7772L108.594 56.1781ZM111.551 68.6317L119.528 68.0326C119.369 65.9168 118.376 63.9508 116.768 62.5671C115.16 61.1833 113.067 60.4952 110.952 60.6541L111.551 68.6317ZM111.601 69.3018L112.2 77.2793C116.606 76.9485 119.909 73.1086 119.578 68.7027L111.601 69.3018ZM105.729 69.7427L97.7519 70.3418C98.0828 74.7476 101.923 78.0511 106.329 77.7202L105.729 69.7427ZM105.679 69.0726L105.08 61.095C100.674 61.4259 97.3707 65.2658 97.7016 69.6716L105.679 69.0726ZM105.036 54.5199L98.0824 58.4764C100.241 62.27 105.042 63.6331 108.872 61.54L105.036 54.5199ZM104.703 53.9352L100.816 46.9429C98.9493 47.9805 97.5751 49.7214 96.9992 51.7778C96.4233 53.8342 96.6935 56.0356 97.7497 57.8916L104.703 53.9352ZM107.906 52.1543L113.124 46.0897C110.583 43.9038 106.949 43.5335 104.019 45.162L107.906 52.1543ZM108.318 52.5084L100.341 53.1075L100.535 55.6922L108.512 55.0932L116.49 54.4941L116.296 51.9094L108.318 52.5084ZM108.512 55.0932L109.111 63.0707L109.207 63.0635L108.608 55.086L108.009 47.1084L107.913 47.1156L108.512 55.0932ZM108.608 55.086L115.544 59.0729C115.805 58.619 115.866 58.6467 115.626 58.8556C115.316 59.1257 114.501 59.6816 113.26 59.7748L112.661 51.7972L112.062 43.8197C106.113 44.2664 102.953 48.8714 101.672 51.0991L108.608 55.086ZM112.661 51.7972L113.26 59.7748C112.833 59.8068 112.039 59.7824 111.096 59.3941C110.117 58.991 109.358 58.3509 108.845 57.6883C107.984 56.5743 108.081 55.7653 108.132 56.4374L116.109 55.8383L124.087 55.2393C123.946 53.3586 123.467 50.4427 121.505 47.9033C119.106 44.7998 115.542 43.5583 112.062 43.8197L112.661 51.7972ZM116.109 55.8383L108.132 56.4374L108.882 66.4253L116.859 65.8262L124.837 65.2272L124.087 55.2393L116.109 55.8383ZM116.859 65.8262L108.882 66.4253C108.922 66.9577 108.999 67.8975 109.23 68.8729C109.465 69.865 110.028 71.6698 111.595 73.2932C113.283 75.0433 115.269 75.7034 116.703 75.9417C117.967 76.1518 119.112 76.0864 119.744 76.0389L119.145 68.0613L118.546 60.0838C118.237 60.107 118.644 60.0449 119.326 60.1582C120.178 60.2998 121.739 60.7633 123.109 62.1843C124.358 63.4785 124.713 64.8216 124.799 65.1871C124.882 65.5358 124.871 65.684 124.837 65.2272L116.859 65.8262ZM119.145 68.0613L111.168 68.6604L111.218 69.3305L119.196 68.7315L127.173 68.1324L127.123 67.4623L119.145 68.0613ZM119.196 68.7315L118.596 60.7539L112.693 61.1972L113.292 69.1748L113.891 77.1523L119.795 76.709L119.196 68.7315ZM113.292 69.1748L121.27 68.5757L121.219 67.9056L113.242 68.5047L105.264 69.1037L105.315 69.7738L113.292 69.1748ZM113.242 68.5047L113.841 76.4822C114.465 76.4353 115.618 76.3281 116.853 75.916C118.269 75.4436 120.12 74.4598 121.496 72.4651C122.757 70.6375 123.028 68.7966 123.107 67.8064C123.185 66.8229 123.122 65.8954 123.082 65.3589L115.104 65.958L107.127 66.5571C107.161 67.0098 107.13 66.8782 107.157 66.5363C107.185 66.1878 107.322 64.8342 108.326 63.379C109.445 61.7566 110.916 61.0299 111.789 60.7386C112.481 60.5078 112.928 60.5057 112.643 60.5271L113.242 68.5047ZM115.104 65.958L123.082 65.3589L122.332 55.3711L114.354 55.9701L106.377 56.5692L107.127 66.5571L115.104 65.958ZM114.354 55.9701L122.332 55.3711C122.217 53.8431 121.826 51.2606 120.043 48.9678C117.81 46.0967 114.546 45.0772 111.627 45.2964L112.226 53.2739L112.826 61.2515C112.18 61.3 111.196 61.2524 110.09 60.8048C108.942 60.3401 108.039 59.596 107.413 58.7905C106.331 57.3998 106.35 56.2145 106.377 56.5692L114.354 55.9701ZM112.226 53.2739L111.627 45.2964C108.577 45.5254 106.348 47.0269 105.045 48.1529C103.7 49.3151 102.684 50.6413 101.978 51.6807L108.594 56.1781L115.21 60.6755C115.515 60.227 115.63 60.1526 115.505 60.2605C115.422 60.3321 114.503 61.1255 112.826 61.2515L112.226 53.2739ZM108.594 56.1781L100.616 56.7772L101.383 66.9884L109.361 66.3894L117.338 65.7903L116.571 55.579L108.594 56.1781ZM109.361 66.3894L101.383 66.9884C101.423 67.527 101.5 68.4467 101.721 69.4002C101.942 70.3552 102.475 72.122 103.971 73.7378C107.191 77.2163 111.633 76.648 112.15 76.6092L111.551 68.6317L110.952 60.6541C110.678 60.6746 111.139 60.6086 111.877 60.7398C112.811 60.9061 114.374 61.4234 115.711 62.8677C116.902 64.1534 117.231 65.4581 117.307 65.7862C117.383 66.1129 117.372 66.2409 117.338 65.7903L109.361 66.3894ZM111.551 68.6317L103.573 69.2307L103.623 69.9008L111.601 69.3018L119.578 68.7027L119.528 68.0326L111.551 68.6317ZM111.601 69.3018L111.002 61.3242L105.13 61.7651L105.729 69.7427L106.329 77.7202L112.2 77.2793L111.601 69.3018ZM105.729 69.7427L113.707 69.1436L113.657 68.4735L105.679 69.0726L97.7016 69.6716L97.7519 70.3418L105.729 69.7427ZM105.679 69.0726L106.278 77.0501C106.906 77.0029 108.054 76.8962 109.28 76.4921C110.679 76.0312 112.537 75.0648 113.93 73.0759C115.213 71.2423 115.493 69.3873 115.574 68.3842C115.655 67.393 115.591 66.4589 115.551 65.9245L107.574 66.5235L99.596 67.1226C99.6302 67.5774 99.5984 67.4391 99.6267 67.0896C99.6561 66.7283 99.7997 65.3608 100.822 63.8998C101.954 62.2834 103.426 61.5747 104.273 61.2956C104.948 61.0734 105.377 61.0727 105.08 61.095L105.679 69.0726ZM107.574 66.5235L115.551 65.9245L114.758 55.3622L106.78 55.9613L98.8029 56.5604L99.596 67.1226L107.574 66.5235ZM106.78 55.9613L114.758 55.3622C114.736 55.0724 114.686 54.2826 114.593 53.6343C114.541 53.2726 114.433 52.623 114.186 51.8801C113.948 51.1611 113.426 49.8757 112.265 48.6538C109.181 45.4077 105.304 45.9878 103.905 46.3632C102.643 46.7016 101.576 47.294 101.199 47.4998L105.036 54.5199L108.872 61.54C109.312 61.2994 108.853 61.6014 108.049 61.8172C107.583 61.9421 106.491 62.1851 105.08 61.9734C103.448 61.7286 101.874 60.946 100.665 59.6739C99.6109 58.5643 99.1723 57.4361 99.0012 56.9207C98.8221 56.3813 98.7659 55.9815 98.7567 55.9174C98.7491 55.8644 98.7503 55.8609 98.8029 56.5604L106.78 55.9613ZM105.036 54.5199L111.989 50.5634L111.656 49.9787L104.703 53.9352L97.7497 57.8916L98.0824 58.4764L105.036 54.5199ZM104.703 53.9352L108.59 60.9274L111.793 59.1465L107.906 52.1543L104.019 45.162L100.816 46.9429L104.703 53.9352ZM107.906 52.1543L102.689 58.2188L103.101 58.573L108.318 52.5084L113.536 46.4439L113.124 46.0897L107.906 52.1543ZM125.404 60.2423L123.924 52.3803C119.603 53.1936 116.748 57.3418 117.532 61.6684L125.404 60.2423ZM126.064 60.118L133.935 58.6888C133.555 56.5924 132.354 54.7345 130.598 53.527C128.843 52.3194 126.678 51.862 124.584 52.256L126.064 60.118ZM117.868 52.9014L125.73 51.4218C125.337 49.3366 124.133 47.4928 122.381 46.2959C120.629 45.099 118.473 44.647 116.388 45.0395L117.868 52.9014ZM115.258 53.3927L107.396 54.8723C107.788 56.9575 108.993 58.8013 110.745 59.9982C112.497 61.1951 114.652 61.6471 116.737 61.2546L115.258 53.3927ZM115.056 52.3234L113.485 44.4792C109.189 45.3397 106.384 49.4967 107.194 53.8031L115.056 52.3234ZM117.795 47.1517L116.315 39.2897C112.061 40.0904 109.215 44.1305 109.894 48.4062L117.795 47.1517ZM118.55 47.0096L126.412 45.53C125.595 41.1879 121.412 38.3305 117.07 39.1476L118.55 47.0096ZM119.396 51.5067L111.534 52.9863C112.351 57.3284 116.534 60.1858 120.876 59.3686L119.396 51.5067ZM123.201 50.7905L131.063 49.3109C130.246 44.9688 126.064 42.1114 121.722 42.9286L123.201 50.7905ZM123.403 51.8598L124.882 59.7217C126.967 59.3293 128.811 58.1246 130.008 56.3727C131.205 54.6208 131.657 52.4652 131.265 50.3801L123.403 51.8598ZM119.597 52.5759L118.118 44.7139C113.776 45.5311 110.918 49.7135 111.736 54.0556L119.597 52.5759ZM125.404 60.2423L126.883 68.1043L127.544 67.98L126.064 60.118L124.584 52.256L123.924 52.3803L125.404 60.2423ZM126.064 60.118L118.193 61.5472C118.395 62.6593 118.506 63.4597 118.553 64.0386C118.603 64.6568 118.552 64.7232 118.597 64.467C118.648 64.1745 118.884 63.1497 119.837 62.1017C120.86 60.9768 122.046 60.5486 122.734 60.4191L124.214 68.281L125.694 76.143C127.718 75.7619 129.915 74.8016 131.675 72.8664C133.365 71.0081 134.064 68.8949 134.355 67.2385C134.873 64.2945 134.367 61.0663 133.935 58.6888L126.064 60.118ZM124.214 68.281L122.734 60.4191C123.117 60.3471 123.919 60.2672 124.927 60.5544C125.994 60.8586 126.821 61.4409 127.363 62.0227C127.843 62.5391 127.98 62.9238 127.949 62.8454C127.921 62.7761 127.807 62.4582 127.677 61.7681L119.815 63.2478L111.953 64.7274C112.427 67.2442 113.343 70.4429 115.648 72.9213C118.573 76.0651 122.424 76.7584 125.694 76.143L124.214 68.281ZM119.815 63.2478L127.677 61.7681L125.73 51.4218L117.868 52.9014L110.006 54.3811L111.953 64.7274L119.815 63.2478ZM117.868 52.9014L116.388 45.0395L113.778 45.5307L115.258 53.3927L116.737 61.2546L119.348 60.7634L117.868 52.9014ZM115.258 53.3927L123.12 51.913L122.918 50.8438L115.056 52.3234L107.194 53.8031L107.396 54.8723L115.258 53.3927ZM115.056 52.3234L116.627 60.1677C118.887 59.7151 122.695 58.4681 124.762 54.4139C126.446 51.1115 125.972 47.6323 125.696 45.8972L117.795 47.1517L109.894 48.4062C109.987 48.9928 109.97 49.1296 109.974 49.0008C109.979 48.8557 110.021 48.1016 110.509 47.1457C111.054 46.076 111.868 45.3155 112.627 44.867C113.258 44.4942 113.671 44.4421 113.485 44.4792L115.056 52.3234ZM117.795 47.1517L119.275 55.0136L120.03 54.8716L118.55 47.0096L117.07 39.1476L116.315 39.2897L117.795 47.1517ZM118.55 47.0096L110.688 48.4893L111.534 52.9863L119.396 51.5067L127.258 50.027L126.412 45.53L118.55 47.0096ZM119.396 51.5067L120.876 59.3686L124.681 58.6525L123.201 50.7905L121.722 42.9286L117.917 43.6447L119.396 51.5067ZM123.201 50.7905L115.339 52.2702L115.541 53.3394L123.403 51.8598L131.265 50.3801L131.063 49.3109L123.201 50.7905ZM123.403 51.8598L121.923 43.9978L118.118 44.7139L119.597 52.5759L121.077 60.4379L124.882 59.7217L123.403 51.8598ZM119.597 52.5759L111.736 54.0556L113.464 63.2383L121.326 61.7587L129.188 60.279L127.459 51.0962L119.597 52.5759ZM121.326 61.7587L113.464 63.2383C113.717 64.583 114.167 67.1335 115.215 69.2201C115.81 70.4053 116.947 72.1871 119.054 73.4511C121.36 74.8341 123.812 74.9994 125.83 74.6195L124.35 66.7575L122.871 58.8955C123.946 58.6932 125.626 58.7351 127.284 59.7301C128.745 60.606 129.36 61.7351 129.513 62.039C129.671 62.354 129.658 62.4415 129.549 62.0145C129.451 61.6264 129.341 61.093 129.188 60.279L121.326 61.7587ZM124.35 66.7575L125.83 74.6195C127.567 74.2926 129.591 73.4377 131.23 71.6067C132.774 69.8824 133.383 67.9497 133.635 66.5221C134.086 63.9719 133.701 61.165 133.275 58.8161L125.404 60.2423L117.532 61.6684C117.713 62.6663 117.796 63.3315 117.826 63.7526C117.86 64.2158 117.81 64.1318 117.88 63.7362C117.953 63.3233 118.236 62.1337 119.309 60.9344C120.479 59.6284 121.889 59.0803 122.871 58.8955L124.35 66.7575ZM128.41 66.9867L120.751 69.2961C121.363 71.3275 122.758 73.0324 124.627 74.0357C126.497 75.0391 128.688 75.2587 130.72 74.6462L128.41 66.9867ZM126.6 60.9818L124.29 53.3223C120.06 54.5978 117.665 59.0609 118.94 63.2911L126.6 60.9818ZM127.243 60.7878L134.608 57.6627C133.013 53.9041 128.843 51.9497 124.934 53.1283L127.243 60.7878ZM129.066 57.6313L132.549 50.4297C132.544 50.4271 132.539 50.4245 132.533 50.422L129.066 57.6313ZM124.324 53.546L116.665 55.8554L124.324 53.546ZM130.167 49.3113L127.857 41.6518L130.167 49.3113ZM130.227 48.2905L127.917 40.6311C125.886 41.2436 124.181 42.6379 123.178 44.5074C122.174 46.377 121.955 48.5685 122.567 50.5999L130.227 48.2905ZM130.87 48.0965L138.529 45.7871C137.917 43.7557 136.523 42.0508 134.653 41.0475C132.783 40.0442 130.592 39.8246 128.561 40.4371L130.87 48.0965ZM132.348 52.9986L134.657 60.658C138.888 59.3825 141.283 54.9194 140.007 50.6892L132.348 52.9986ZM131.705 53.1925L124.506 56.683C126.221 60.2196 130.251 61.9866 134.014 60.852L131.705 53.1925ZM127.139 50.0235L124.83 42.364L127.139 50.0235ZM125.81 52.5969L118.15 54.9062L125.81 52.5969ZM130.182 56.1248L126.886 63.4141L126.888 63.4153L130.182 56.1248ZM135.59 60.9785L127.93 63.2879L135.59 60.9785ZM129.054 66.7928L131.363 74.4522C135.593 73.1767 137.989 68.7136 136.713 64.4834L129.054 66.7928ZM128.41 66.9867L136.07 64.6774L134.259 58.6724L126.6 60.9818L118.94 63.2911L120.751 69.2961L128.41 66.9867ZM126.6 60.9818L128.909 68.6412L129.553 68.4472L127.243 60.7878L124.934 53.1283L124.29 53.3223L126.6 60.9818ZM127.243 60.7878L119.879 63.9129C120.853 66.2088 122.398 68.7044 124.776 70.5365C127.344 72.5157 131.035 73.7489 135.063 72.5345L132.754 64.8751L130.444 57.2156C131.231 56.9783 132.104 56.9451 132.935 57.1348C133.725 57.3154 134.26 57.6456 134.542 57.8628C135.026 58.2355 134.903 58.3595 134.608 57.6627L127.243 60.7878ZM132.754 64.8751L135.063 72.5345C137.687 71.7433 140.331 69.8535 141.582 66.6037C142.675 63.7657 142.216 61.1172 141.727 59.4957L134.067 61.8051L126.408 64.1145C126.362 63.9637 125.966 62.6331 126.651 60.8538C127.018 59.9007 127.625 59.0288 128.42 58.347C129.186 57.6903 129.938 57.3683 130.444 57.2156L132.754 64.8751ZM134.067 61.8051L141.727 59.4957C140.774 56.3372 138.811 54.2583 136.95 52.9013C135.366 51.7465 133.505 50.892 132.549 50.4297L129.066 57.6313L125.582 64.8329C125.907 64.9904 126.166 65.1148 126.424 65.2416C126.674 65.3645 126.876 65.4661 127.048 65.5568C127.407 65.7466 127.525 65.8302 127.524 65.8299C127.508 65.8179 127.293 65.6597 127.037 65.3294C126.76 64.9731 126.539 64.5496 126.408 64.1145L134.067 61.8051ZM129.066 57.6313L132.533 50.422C131.935 50.1339 131.556 49.949 131.245 49.7806C130.945 49.6184 130.871 49.5576 130.907 49.5853C130.96 49.6256 131.176 49.7986 131.42 50.1255C131.678 50.472 131.871 50.8612 131.984 51.2367L124.324 53.546L116.665 55.8554C118.48 61.8748 124.03 64.0865 125.598 64.8406L129.066 57.6313ZM124.324 53.546L131.984 51.2367C132.251 52.1237 132.237 53.3185 131.629 54.477C131.011 55.6548 129.994 56.3822 129.043 56.6689L126.733 49.0095L124.424 41.3501C118.038 43.2754 114.83 49.7685 116.665 55.8554L124.324 53.546ZM126.733 49.0095L129.043 56.6689C128.71 56.7694 128.272 56.84 127.77 56.8238C127.276 56.8079 126.888 56.7132 126.674 56.6481C126.582 56.6199 126.531 56.5998 126.579 56.6178C126.622 56.6339 126.624 56.635 126.719 56.6706C126.784 56.6952 126.903 56.7402 127.04 56.7884C127.259 56.8656 127.859 57.0746 128.621 57.2039C129.397 57.3354 130.816 57.4713 132.476 56.9707L130.167 49.3113L127.857 41.6518C129.395 41.1881 130.676 41.3238 131.296 41.4291C131.903 41.532 132.331 41.6886 132.358 41.6982C132.399 41.7126 132.418 41.7201 132.378 41.7048C132.366 41.7004 132.258 41.6591 132.185 41.6319C132.001 41.5631 131.697 41.4522 131.329 41.3401C130.563 41.1071 129.531 40.8724 128.286 40.8322C127.034 40.7917 125.738 40.954 124.424 41.3501L126.733 49.0095ZM130.167 49.3113L132.476 56.9707C133.717 56.5965 135.585 55.71 136.954 53.701C138.274 51.7654 138.415 49.8259 138.39 48.7968C138.366 47.811 138.172 47.0235 138.1 46.738C138.016 46.4064 137.916 46.0795 137.886 45.9811L130.227 48.2905L122.567 50.5999C122.63 50.8079 122.61 50.7491 122.585 50.6505C122.572 50.5979 122.415 50.0083 122.395 49.1883C122.374 48.325 122.486 46.5196 123.734 44.6891C125.032 42.7853 126.785 41.9752 127.857 41.6518L130.167 49.3113ZM130.227 48.2905L132.536 55.9499L133.179 55.7559L130.87 48.0965L128.561 40.4371L127.917 40.6311L130.227 48.2905ZM130.87 48.0965L123.211 50.4059L124.689 55.3079L132.348 52.9986L140.007 50.6892L138.529 45.7871L130.87 48.0965ZM132.348 52.9986L130.039 45.3391L129.395 45.5331L131.705 53.1925L134.014 60.852L134.657 60.658L132.348 52.9986ZM131.705 53.1925L138.903 49.7021C138.036 47.9147 136.656 45.7976 134.534 44.1957C132.234 42.4588 128.752 41.1814 124.83 42.364L127.139 50.0235L129.449 57.6829C128.549 57.9541 127.577 57.9808 126.668 57.7695C125.808 57.5697 125.217 57.2092 124.893 56.9644C124.329 56.5388 124.312 56.2834 124.506 56.683L131.705 53.1925ZM127.139 50.0235L124.83 42.364C121.701 43.3073 119.37 45.5592 118.32 48.4296C117.418 50.8937 117.65 53.2472 118.15 54.9062L125.81 52.5969L133.469 50.2875C133.729 51.1499 133.89 52.4385 133.346 53.9259C133.047 54.7435 132.535 55.5971 131.759 56.327C130.982 57.0589 130.144 57.4733 129.449 57.6829L127.139 50.0235ZM125.81 52.5969L118.15 54.9062C119.076 57.9766 121.063 59.933 122.707 61.119C124.211 62.2045 125.882 62.9601 126.886 63.4141L130.182 56.1248L133.479 48.8355C132.971 48.606 132.628 48.4443 132.361 48.3056C132.095 48.1674 132.029 48.1151 132.07 48.1446C132.116 48.1783 132.363 48.3617 132.656 48.728C132.971 49.1215 133.277 49.6502 133.469 50.2875L125.81 52.5969ZM130.182 56.1248L126.888 63.4153C127.632 63.7511 128.1 63.985 128.413 64.1605C128.718 64.3318 128.743 64.3755 128.642 64.2884C128.509 64.1737 128.309 63.9645 128.13 63.6785C127.962 63.4094 127.914 63.2353 127.93 63.2879L135.59 60.9785L143.249 58.6691C142.511 56.2205 141.229 54.0164 139.092 52.1732C137.295 50.6224 135.18 49.6044 133.476 48.8344L130.182 56.1248ZM135.59 60.9785L127.93 63.2879C127.79 62.8248 127.647 61.6166 128.397 60.2765C129.094 59.0309 130.135 58.4453 130.85 58.2296L133.16 65.889L135.469 73.5485C138.084 72.76 140.727 71.006 142.359 68.0917C144.043 65.0829 144.165 61.7058 143.249 58.6691L135.59 60.9785ZM133.16 65.889L130.85 58.2296C131.065 58.1649 131.353 58.1149 131.683 58.1132C132.005 58.1115 132.246 58.1567 132.336 58.1767C132.368 58.1838 132.369 58.1853 132.278 58.1605C132.262 58.156 131.959 58.0711 131.728 58.0135C131.48 57.9517 130.919 57.8169 130.226 57.7523C129.529 57.6874 128.326 57.6537 126.927 58.0756L129.236 65.7351L131.546 73.3945C130.292 73.7725 129.253 73.731 128.742 73.6833C128.234 73.636 127.879 73.5436 127.858 73.5385C127.855 73.5376 127.801 73.5237 128.058 73.5938C128.239 73.6435 128.535 73.7229 128.888 73.8007C129.618 73.9619 130.597 74.1189 131.765 74.113C132.94 74.107 134.182 73.9364 135.469 73.5485L133.16 65.889ZM129.236 65.7351L126.927 58.0756C125.765 58.4259 124.246 59.1565 122.971 60.6326C121.683 62.1253 121.171 63.769 121.005 65.0385C120.738 67.0845 121.305 68.8048 121.394 69.1021L129.054 66.7928L136.713 64.4834C136.715 64.4884 136.782 64.7043 136.839 65.0431C136.891 65.3467 137.001 66.112 136.87 67.1129C136.727 68.2085 136.273 69.7095 135.082 71.0893C133.905 72.4524 132.523 73.0997 131.546 73.3945L129.236 65.7351ZM129.054 66.7928L126.744 59.1333L126.101 59.3273L128.41 66.9867L130.72 74.6462L131.363 74.4522L129.054 66.7928Z" fill="#629EBC" mask="url(#path-3-outside-1_785_106)"/>
</g>
<defs>
<clipPath id="clip0_785_106">
<rect width="141.894" height="56.6958" fill="white" transform="translate(14.6739) rotate(15)"/>
</clipPath>
</defs>
</svg>
