<svg width="115" height="121" viewBox="0 0 115 121" fill="none" xmlns="http://www.w3.org/2000/svg">
<mask id="path-1-outside-1_520_111" maskUnits="userSpaceOnUse" x="-15.1289" y="-12.6877" width="145.389" height="145.936" fill="black">
<rect fill="white" x="-15.1289" y="-12.6877" width="145.389" height="145.936"/>
<path d="M37.3496 18.409L36.7235 18.6532C35.6073 15.7911 35.0969 15.7154 33.2783 16.4247L15.0925 23.5174C13.6019 24.0988 13.4084 24.4834 13.9084 25.7653L16.0246 31.1913C16.7338 33.0099 17.5096 33.3256 22.8523 32.5814L22.9475 33.2656L16.5875 34.1317L16.0341 34.2101L10.3599 19.6615L10.986 19.4173C12.1023 22.2793 12.6126 22.3551 14.4312 21.6458L32.5574 14.5763C34.376 13.867 34.7003 13.4657 33.5841 10.6037L34.2102 10.3595L37.3496 18.409ZM38.9948 28.3488C38.628 27.602 38.9203 26.7454 39.6671 26.3786C40.3852 26.0259 41.2705 26.3041 41.6373 27.0509C41.99 27.769 41.6831 28.6684 40.965 29.0211C40.2182 29.3879 39.3475 29.0669 38.9948 28.3488ZM21.3502 38.2989C19.5694 39.1736 19.2948 39.558 20.113 41.2239L19.5099 41.5202L16.8858 36.1778L17.489 35.8815C18.3072 37.5474 18.7794 37.5651 20.5602 36.6904L30.0673 32.0208C31.8481 31.1461 32.1922 31.0484 30.7552 29.8647L31.1739 29.3381L34.0198 31.6481L33.8444 32.162L21.3502 38.2989ZM29.8869 45.6636L30.2132 46.2511C25.8336 48.647 23.204 49.4486 21.8834 47.0707C20.8268 45.1684 21.5792 43.3596 25.2719 41.3086L34.4756 36.1969L33.186 33.875L34.1371 33.3467C35.5013 35.737 36.9248 35.8615 39.9088 34.314L40.2817 34.9854L36.2813 37.2072L38.1613 40.5922L37.2102 41.1204L35.3302 37.7355L27.1615 42.2724C24.2241 43.9038 22.44 45.0412 23.3722 46.7196C24.118 48.0624 25.7591 47.9197 29.8869 45.6636ZM34.3905 52.6921L34.7511 53.2592C30.5212 55.9105 27.9438 56.8666 26.4845 54.5712C25.317 52.7349 25.9608 50.8846 29.5254 48.6184L38.4099 42.9699L36.9849 40.7286L37.9031 40.1448C39.4066 42.45 40.8349 42.4899 43.7219 40.7682L44.134 41.4163L40.2723 43.8714L42.3497 47.139L41.4316 47.7227L39.3542 44.4552L31.4689 49.4684C28.6334 51.2711 26.9198 52.5122 27.9499 54.1325C28.774 55.4287 30.4037 55.1889 34.3905 52.6921ZM33.7589 58.6544C32.1399 59.8012 31.9299 60.2245 33.0027 61.739L32.4544 62.1275L29.014 57.2705L29.5623 56.8821C30.6352 58.3966 31.1041 58.3389 32.7231 57.1921L48.5996 45.9461C50.2447 44.7808 50.5689 44.6296 48.9358 43.708L49.2915 43.1031L52.4425 44.9495L52.3772 45.4663L33.7589 58.6544ZM44.3738 66.0305L44.7952 66.5539C40.5608 69.3058 37.3621 69.2108 35.7968 67.2667C33.6896 64.6495 35.3872 60.941 39.5248 57.6097C43.3633 54.5192 47.8229 53.4758 50.0103 56.1927C51.8767 58.5107 50.463 61.9085 46.7491 64.8986L41.5314 58.418L40.983 58.8595C37.7677 61.4483 35.8639 64.7477 37.3489 66.5921C38.3322 67.8135 40.4822 68.1366 44.3738 66.0305ZM49.1027 56.8002C47.8183 55.205 45.0921 56.0031 42.419 57.7856L46.4125 62.7457C48.6807 60.9195 50.4673 58.4951 49.1027 56.8002ZM45.1536 77.0208L51.4765 70.4484L51.9607 70.9143C48.2788 74.7877 48.1384 79.2262 50.4676 81.4669C52.52 83.4414 55.0742 83.2788 57.0265 81.2495C59.1785 79.0126 58.5381 75.1549 58.1151 70.8405C57.7321 66.2537 57.5766 64.0614 59.6842 61.8706C61.9914 59.4723 65.1205 59.7738 67.5188 62.0811C70.0324 64.4993 69.2457 67.1172 69.73 67.5831C69.9376 67.7827 70.1629 67.7331 71.2944 66.557L71.8017 67.0451L66.6547 72.3952L66.1474 71.9072C68.9197 68.9793 69.209 65.2168 66.8337 62.9317C64.7351 60.9129 62.5729 61.4526 61.3084 62.7671C59.3339 64.8195 60.056 68.2229 60.2974 71.3414C60.7458 76.968 61.2021 79.4939 58.4733 82.3304C55.7888 85.1208 52.1116 84.5583 49.9208 82.4507C47.1535 79.7884 48.0999 77.2354 47.4311 76.592C47.0621 76.237 46.6141 76.472 45.6379 77.4867L45.1536 77.0208ZM66.5257 93.1532L67.049 93.5747C65.7615 94.5099 64.7196 95.191 63.5733 94.2676C62.3772 93.304 62.796 92.121 63.7797 90.8999L64.1611 90.4264L64.1113 90.3863C63.0854 90.7926 60.5331 91.8184 58.5146 90.1924C56.7702 88.7871 56.9267 86.8586 58.3922 85.0394C60.9217 81.8995 64.3066 82.9006 67.7124 83.6718L69.3003 84.047L70.3041 82.801C71.6692 81.1065 72.5989 79.5954 70.68 78.0496C69.5836 77.1663 68.2898 76.987 67.6474 77.7844C67.1857 78.3576 67.358 79.1128 66.8963 79.6859C66.535 80.1345 65.9452 80.1525 65.3969 79.7108C64.774 79.2089 64.8418 78.3596 65.6649 77.3379C67.0099 75.6683 69.3434 75.7811 71.3868 77.4273C73.4302 79.0734 73.8677 81.2339 71.6394 84L65.115 92.0989C64.4525 92.9212 64.1811 93.3601 64.6297 93.7215C65.0035 94.0226 65.479 93.7893 66.5257 93.1532ZM60.0666 89.388C61.188 90.2914 62.4776 90.2208 64.8035 89.629L68.6579 84.8444L67.0949 84.4893C64.2284 83.8648 61.7246 83.8613 60.0785 85.9047C58.9543 87.3003 58.9951 88.5248 60.0666 89.388ZM81.2572 77.5578C80.5805 77.0738 80.4323 76.1809 80.9164 75.5042C81.3818 74.8535 82.2933 74.6793 82.97 75.1634C83.6207 75.6288 83.7762 76.5663 83.3108 77.217C82.8267 77.8937 81.9078 78.0233 81.2572 77.5578ZM70.4278 94.6769C69.2735 96.2906 69.2137 96.7592 70.7232 97.839L70.3323 98.3856L65.4913 94.9227L65.8823 94.3762C67.3918 95.456 67.816 95.248 68.9703 93.6343L75.1327 85.0195C76.287 83.4058 76.5439 83.1568 74.7176 82.7947L74.8371 82.1326L78.4376 82.8196L78.5265 83.3553L70.4278 94.6769ZM82.8987 86.1522L81.5267 88.3513L81.6082 88.4021C83.4833 87.573 85.3554 87.2323 86.8215 88.147C88.7762 89.3665 88.5674 91.273 87.2123 93.445L81.9106 101.943C80.8604 103.626 80.8303 104.097 82.4321 105.097L82.0764 105.667L77.0537 102.533L77.4095 101.963C78.957 102.929 79.3672 102.694 80.4174 101.011L85.7191 92.5133C86.7185 90.9115 86.7108 89.7752 85.5977 89.0807C84.4303 88.3524 82.6463 88.6727 80.9508 89.2744L75.5305 97.9622C74.4803 99.6454 74.4502 100.117 75.9705 101.066L75.6148 101.636L70.6193 98.519L70.975 97.9488C72.5497 98.9313 72.96 98.6969 74.0101 97.0136L79.6168 88.0272C80.667 86.3439 80.9076 86.0792 79.0621 85.833L79.1396 85.1647L82.7762 85.6231L82.8987 86.1522ZM92.1911 102.927L92.7855 103.24C90.4292 107.641 88.6661 109.751 86.26 108.482C84.3351 107.467 83.9758 105.541 85.9456 101.805L90.8554 92.4918L88.5059 91.2532L89.0133 90.2907C91.4627 91.5458 92.7225 90.8716 94.3744 87.9441L95.0538 88.3023L92.9197 92.3502L96.3449 94.1559L95.8375 95.1183L92.4123 93.3126L88.0547 101.578C86.4877 104.551 85.616 106.478 87.3145 107.374C88.6732 108.09 89.969 107.073 92.1911 102.927ZM90.3188 110.128L92.8425 104.386L93.4577 104.657C92.4794 107.757 92.9128 110.429 94.9928 111.344C96.3696 111.949 97.3676 111.269 97.9856 109.863C98.8741 107.841 97.9759 105.909 96.8935 103.44C95.8604 101.099 95.0665 99.2468 95.9421 97.2547C96.779 95.3505 98.7868 94.5203 100.72 95.3701C102.595 96.1942 102.666 97.6235 103.135 97.8295C103.457 97.9711 103.586 97.6782 103.843 97.0923L104.459 97.3627L102.398 102.05L101.783 101.78C102.397 99.4279 102.128 97.1773 100.37 96.4047C98.9643 95.7867 98.0227 96.7361 97.6879 97.4977C96.9797 99.109 97.7279 100.906 98.7211 103.02C100.275 106.325 100.671 107.967 99.6799 110.223C98.5983 112.684 96.4592 113.177 94.6429 112.378C92.5922 111.477 92.3163 109.957 91.7597 109.713C91.4081 109.558 91.1915 109.813 90.934 110.399L90.3188 110.128Z"/>
</mask>
<path d="M37.3496 18.409L36.7235 18.6532C35.6073 15.7911 35.0969 15.7154 33.2783 16.4247L15.0925 23.5174C13.6019 24.0988 13.4084 24.4834 13.9084 25.7653L16.0246 31.1913C16.7338 33.0099 17.5096 33.3256 22.8523 32.5814L22.9475 33.2656L16.5875 34.1317L16.0341 34.2101L10.3599 19.6615L10.986 19.4173C12.1023 22.2793 12.6126 22.3551 14.4312 21.6458L32.5574 14.5763C34.376 13.867 34.7003 13.4657 33.5841 10.6037L34.2102 10.3595L37.3496 18.409ZM38.9948 28.3488C38.628 27.602 38.9203 26.7454 39.6671 26.3786C40.3852 26.0259 41.2705 26.3041 41.6373 27.0509C41.99 27.769 41.6831 28.6684 40.965 29.0211C40.2182 29.3879 39.3475 29.0669 38.9948 28.3488ZM21.3502 38.2989C19.5694 39.1736 19.2948 39.558 20.113 41.2239L19.5099 41.5202L16.8858 36.1778L17.489 35.8815C18.3072 37.5474 18.7794 37.5651 20.5602 36.6904L30.0673 32.0208C31.8481 31.1461 32.1922 31.0484 30.7552 29.8647L31.1739 29.3381L34.0198 31.6481L33.8444 32.162L21.3502 38.2989ZM29.8869 45.6636L30.2132 46.2511C25.8336 48.647 23.204 49.4486 21.8834 47.0707C20.8268 45.1684 21.5792 43.3596 25.2719 41.3086L34.4756 36.1969L33.186 33.875L34.1371 33.3467C35.5013 35.737 36.9248 35.8615 39.9088 34.314L40.2817 34.9854L36.2813 37.2072L38.1613 40.5922L37.2102 41.1204L35.3302 37.7355L27.1615 42.2724C24.2241 43.9038 22.44 45.0412 23.3722 46.7196C24.118 48.0624 25.7591 47.9197 29.8869 45.6636ZM34.3905 52.6921L34.7511 53.2592C30.5212 55.9105 27.9438 56.8666 26.4845 54.5712C25.317 52.7349 25.9608 50.8846 29.5254 48.6184L38.4099 42.9699L36.9849 40.7286L37.9031 40.1448C39.4066 42.45 40.8349 42.4899 43.7219 40.7682L44.134 41.4163L40.2723 43.8714L42.3497 47.139L41.4316 47.7227L39.3542 44.4552L31.4689 49.4684C28.6334 51.2711 26.9198 52.5122 27.9499 54.1325C28.774 55.4287 30.4037 55.1889 34.3905 52.6921ZM33.7589 58.6544C32.1399 59.8012 31.9299 60.2245 33.0027 61.739L32.4544 62.1275L29.014 57.2705L29.5623 56.8821C30.6352 58.3966 31.1041 58.3389 32.7231 57.1921L48.5996 45.9461C50.2447 44.7808 50.5689 44.6296 48.9358 43.708L49.2915 43.1031L52.4425 44.9495L52.3772 45.4663L33.7589 58.6544ZM44.3738 66.0305L44.7952 66.5539C40.5608 69.3058 37.3621 69.2108 35.7968 67.2667C33.6896 64.6495 35.3872 60.941 39.5248 57.6097C43.3633 54.5192 47.8229 53.4758 50.0103 56.1927C51.8767 58.5107 50.463 61.9085 46.7491 64.8986L41.5314 58.418L40.983 58.8595C37.7677 61.4483 35.8639 64.7477 37.3489 66.5921C38.3322 67.8135 40.4822 68.1366 44.3738 66.0305ZM49.1027 56.8002C47.8183 55.205 45.0921 56.0031 42.419 57.7856L46.4125 62.7457C48.6807 60.9195 50.4673 58.4951 49.1027 56.8002ZM45.1536 77.0208L51.4765 70.4484L51.9607 70.9143C48.2788 74.7877 48.1384 79.2262 50.4676 81.4669C52.52 83.4414 55.0742 83.2788 57.0265 81.2495C59.1785 79.0126 58.5381 75.1549 58.1151 70.8405C57.7321 66.2537 57.5766 64.0614 59.6842 61.8706C61.9914 59.4723 65.1205 59.7738 67.5188 62.0811C70.0324 64.4993 69.2457 67.1172 69.73 67.5831C69.9376 67.7827 70.1629 67.7331 71.2944 66.557L71.8017 67.0451L66.6547 72.3952L66.1474 71.9072C68.9197 68.9793 69.209 65.2168 66.8337 62.9317C64.7351 60.9129 62.5729 61.4526 61.3084 62.7671C59.3339 64.8195 60.056 68.2229 60.2974 71.3414C60.7458 76.968 61.2021 79.4939 58.4733 82.3304C55.7888 85.1208 52.1116 84.5583 49.9208 82.4507C47.1535 79.7884 48.0999 77.2354 47.4311 76.592C47.0621 76.237 46.6141 76.472 45.6379 77.4867L45.1536 77.0208ZM66.5257 93.1532L67.049 93.5747C65.7615 94.5099 64.7196 95.191 63.5733 94.2676C62.3772 93.304 62.796 92.121 63.7797 90.8999L64.1611 90.4264L64.1113 90.3863C63.0854 90.7926 60.5331 91.8184 58.5146 90.1924C56.7702 88.7871 56.9267 86.8586 58.3922 85.0394C60.9217 81.8995 64.3066 82.9006 67.7124 83.6718L69.3003 84.047L70.3041 82.801C71.6692 81.1065 72.5989 79.5954 70.68 78.0496C69.5836 77.1663 68.2898 76.987 67.6474 77.7844C67.1857 78.3576 67.358 79.1128 66.8963 79.6859C66.535 80.1345 65.9452 80.1525 65.3969 79.7108C64.774 79.2089 64.8418 78.3596 65.6649 77.3379C67.0099 75.6683 69.3434 75.7811 71.3868 77.4273C73.4302 79.0734 73.8677 81.2339 71.6394 84L65.115 92.0989C64.4525 92.9212 64.1811 93.3601 64.6297 93.7215C65.0035 94.0226 65.479 93.7893 66.5257 93.1532ZM60.0666 89.388C61.188 90.2914 62.4776 90.2208 64.8035 89.629L68.6579 84.8444L67.0949 84.4893C64.2284 83.8648 61.7246 83.8613 60.0785 85.9047C58.9543 87.3003 58.9951 88.5248 60.0666 89.388ZM81.2572 77.5578C80.5805 77.0738 80.4323 76.1809 80.9164 75.5042C81.3818 74.8535 82.2933 74.6793 82.97 75.1634C83.6207 75.6288 83.7762 76.5663 83.3108 77.217C82.8267 77.8937 81.9078 78.0233 81.2572 77.5578ZM70.4278 94.6769C69.2735 96.2906 69.2137 96.7592 70.7232 97.839L70.3323 98.3856L65.4913 94.9227L65.8823 94.3762C67.3918 95.456 67.816 95.248 68.9703 93.6343L75.1327 85.0195C76.287 83.4058 76.5439 83.1568 74.7176 82.7947L74.8371 82.1326L78.4376 82.8196L78.5265 83.3553L70.4278 94.6769ZM82.8987 86.1522L81.5267 88.3513L81.6082 88.4021C83.4833 87.573 85.3554 87.2323 86.8215 88.147C88.7762 89.3665 88.5674 91.273 87.2123 93.445L81.9106 101.943C80.8604 103.626 80.8303 104.097 82.4321 105.097L82.0764 105.667L77.0537 102.533L77.4095 101.963C78.957 102.929 79.3672 102.694 80.4174 101.011L85.7191 92.5133C86.7185 90.9115 86.7108 89.7752 85.5977 89.0807C84.4303 88.3524 82.6463 88.6727 80.9508 89.2744L75.5305 97.9622C74.4803 99.6454 74.4502 100.117 75.9705 101.066L75.6148 101.636L70.6193 98.519L70.975 97.9488C72.5497 98.9313 72.96 98.6969 74.0101 97.0136L79.6168 88.0272C80.667 86.3439 80.9076 86.0792 79.0621 85.833L79.1396 85.1647L82.7762 85.6231L82.8987 86.1522ZM92.1911 102.927L92.7855 103.24C90.4292 107.641 88.6661 109.751 86.26 108.482C84.3351 107.467 83.9758 105.541 85.9456 101.805L90.8554 92.4918L88.5059 91.2532L89.0133 90.2907C91.4627 91.5458 92.7225 90.8716 94.3744 87.9441L95.0538 88.3023L92.9197 92.3502L96.3449 94.1559L95.8375 95.1183L92.4123 93.3126L88.0547 101.578C86.4877 104.551 85.616 106.478 87.3145 107.374C88.6732 108.09 89.969 107.073 92.1911 102.927ZM90.3188 110.128L92.8425 104.386L93.4577 104.657C92.4794 107.757 92.9128 110.429 94.9928 111.344C96.3696 111.949 97.3676 111.269 97.9856 109.863C98.8741 107.841 97.9759 105.909 96.8935 103.44C95.8604 101.099 95.0665 99.2468 95.9421 97.2547C96.779 95.3505 98.7868 94.5203 100.72 95.3701C102.595 96.1942 102.666 97.6235 103.135 97.8295C103.457 97.9711 103.586 97.6782 103.843 97.0923L104.459 97.3627L102.398 102.05L101.783 101.78C102.397 99.4279 102.128 97.1773 100.37 96.4047C98.9643 95.7867 98.0227 96.7361 97.6879 97.4977C96.9797 99.109 97.7279 100.906 98.7211 103.02C100.275 106.325 100.671 107.967 99.6799 110.223C98.5983 112.684 96.4592 113.177 94.6429 112.378C92.5922 111.477 92.3163 109.957 91.7597 109.713C91.4081 109.558 91.1915 109.813 90.934 110.399L90.3188 110.128Z" fill="black"/>
<path d="M37.3496 18.409L40.2565 25.8622L47.7097 22.9553L44.8028 15.5021L37.3496 18.409ZM36.7235 18.6532L29.2703 21.56L32.1772 29.0132L39.6304 26.1064L36.7235 18.6532ZM33.2783 16.4247L30.3715 8.97148L33.2783 16.4247ZM16.0246 31.1913L8.57137 34.0981L16.0246 31.1913ZM22.8523 32.5814L30.7761 31.4799L29.6743 23.5539L21.7487 24.6579L22.8523 32.5814ZM22.9474 33.2656L24.027 41.1924L31.9758 40.1099L30.8713 32.1641L22.9474 33.2656ZM16.5875 34.1317L15.5079 26.2049L15.4864 26.2078L15.465 26.2109L16.5875 34.1317ZM16.0341 34.2101L8.58094 37.117L10.8832 43.02L17.1566 42.131L16.0341 34.2101ZM10.3599 19.6615L7.45309 12.2083L-0.000114423 15.1151L2.90675 22.5683L10.3599 19.6615ZM10.986 19.4173L18.4392 16.5105L15.5324 9.05725L8.07915 11.9641L10.986 19.4173ZM14.4312 21.6458L11.5244 14.1926L14.4312 21.6458ZM32.5574 14.5763L29.6505 7.1231L32.5574 14.5763ZM33.5841 10.6037L30.6773 3.15051L23.2241 6.05737L26.1309 13.5106L33.5841 10.6037ZM34.2102 10.3595L41.6634 7.45267L38.7565 -0.000524358L31.3033 2.90633L34.2102 10.3595ZM37.3496 18.409L34.4427 10.9558L33.8167 11.2L36.7235 18.6532L39.6304 26.1064L40.2565 25.8622L37.3496 18.409ZM36.7235 18.6532L44.1767 15.7463C43.8601 14.9344 43.4357 13.9158 42.8744 12.9567C42.3365 12.0379 41.2552 10.4311 39.291 9.28698C37.0586 7.98656 34.8276 7.92272 33.2457 8.15887C31.942 8.35348 30.8195 8.79673 30.3715 8.97148L33.2783 16.4247L36.1852 23.8779C36.6464 23.698 36.2697 23.8847 35.608 23.9835C34.6682 24.1238 32.9755 24.1248 31.2376 23.1124C29.7678 22.2563 29.1371 21.1608 29.0657 21.0389C28.9708 20.8767 29.0289 20.9409 29.2703 21.56L36.7235 18.6532ZM33.2783 16.4247L30.3715 8.97148L12.1856 16.0642L15.0925 23.5174L17.9994 30.9706L36.1852 23.8779L33.2783 16.4247ZM15.0925 23.5174L12.1856 16.0642C11.6773 16.2625 10.8266 16.6118 9.96003 17.1549C9.06555 17.7154 7.64821 18.7922 6.66585 20.6694C4.63343 24.5531 6.29342 28.2575 6.45517 28.6722L13.9084 25.7653L21.3616 22.8585C21.3058 22.7155 21.5107 23.179 21.608 23.9384C21.726 24.8593 21.7121 26.4254 20.842 28.088C20.0319 29.6361 18.9112 30.4276 18.4566 30.7125C18.0299 30.9798 17.7624 31.063 17.9994 30.9706L15.0925 23.5174ZM13.9084 25.7653L6.45517 28.6722L8.57137 34.0981L16.0246 31.1913L23.4778 28.2844L21.3616 22.8585L13.9084 25.7653ZM16.0246 31.1913L8.57137 34.0981C8.84621 34.8028 9.47219 36.3287 10.7961 37.7444C12.3224 39.3767 14.1723 40.2546 15.9497 40.6533C17.4914 40.9992 18.9714 40.9832 20.0773 40.9214C21.2495 40.8559 22.5616 40.6991 23.956 40.5049L22.8523 32.5814L21.7487 24.6579C20.4717 24.8357 19.6833 24.9185 19.1852 24.9463C18.6208 24.9778 18.8609 24.9087 19.4521 25.0414C19.8028 25.1201 20.3163 25.2771 20.897 25.5916C21.4977 25.9168 22.0345 26.3371 22.4825 26.8162C23.2945 27.6845 23.5575 28.489 23.4778 28.2844L16.0246 31.1913ZM22.8523 32.5814L14.9285 33.6829L15.0236 34.3671L22.9474 33.2656L30.8713 32.1641L30.7761 31.4799L22.8523 32.5814ZM22.9474 33.2656L21.8679 25.3387L15.5079 26.2049L16.5875 34.1317L17.667 42.0585L24.027 41.1924L22.9474 33.2656ZM16.5875 34.1317L15.465 26.2109L14.9116 26.2893L16.0341 34.2101L17.1566 42.131L17.71 42.0526L16.5875 34.1317ZM16.0341 34.2101L23.4873 31.3033L17.8131 16.7546L10.3599 19.6615L2.90675 22.5683L8.58094 37.117L16.0341 34.2101ZM10.3599 19.6615L13.2668 27.1147L13.8929 26.8705L10.986 19.4173L8.07915 11.9641L7.45309 12.2083L10.3599 19.6615ZM10.986 19.4173L3.53282 22.3242C3.84949 23.1361 4.27381 24.1546 4.83519 25.1138C5.373 26.0326 6.45434 27.6393 8.41851 28.7835C10.651 30.0839 12.882 30.1477 14.4638 29.9116C15.7675 29.717 16.89 29.2737 17.3381 29.099L14.4312 21.6458L11.5244 14.1926C11.0631 14.3725 11.4399 14.1857 12.1015 14.087C13.0413 13.9467 14.734 13.9457 16.472 14.9581C17.9417 15.8142 18.5725 16.9097 18.6438 17.0316C18.7387 17.1937 18.6807 17.1295 18.4392 16.5105L10.986 19.4173ZM14.4312 21.6458L17.3381 29.099L35.4643 22.0295L32.5574 14.5763L29.6505 7.1231L11.5244 14.1926L14.4312 21.6458ZM32.5574 14.5763L35.4643 22.0295C35.9123 21.8547 37.0385 21.421 38.1297 20.6815C39.4538 19.7843 41.0525 18.2269 41.815 15.7584C42.4858 13.5865 42.1938 11.6719 41.9675 10.6316C41.7313 9.54564 41.354 8.50879 41.0373 7.69685L33.5841 10.6037L26.1309 13.5106C26.3724 14.1296 26.3731 14.2162 26.3332 14.0326C26.3031 13.8946 26.0257 12.6613 26.5277 11.0362C27.1213 9.11444 28.3677 7.96914 29.1543 7.43611C29.7081 7.06085 30.1118 6.94321 29.6505 7.1231L32.5574 14.5763ZM33.5841 10.6037L36.491 18.0569L37.117 17.8127L34.2102 10.3595L31.3033 2.90633L30.6773 3.15051L33.5841 10.6037ZM34.2102 10.3595L26.757 13.2664L29.8964 21.3158L37.3496 18.409L44.8028 15.5021L41.6634 7.45267L34.2102 10.3595ZM38.9948 28.3488L31.8143 31.8757L38.9948 28.3488ZM39.6671 26.3786L43.194 33.5592L39.6671 26.3786ZM41.6373 27.0509L34.4567 30.5778L41.6373 27.0509ZM40.965 29.0211L37.4381 21.8405L40.965 29.0211ZM21.3502 38.2989L17.8233 31.1183L21.3502 38.2989ZM20.113 41.2239L23.6399 48.4045L30.8205 44.8776L27.2936 37.697L20.113 41.2239ZM19.5099 41.5202L12.3293 45.0471L15.8562 52.2277L23.0368 48.7008L19.5099 41.5202ZM16.8858 36.1778L13.3589 28.9972L6.17831 32.5242L9.70523 39.7047L16.8858 36.1778ZM17.489 35.8815L24.6696 32.3546L21.1427 25.174L13.9621 28.701L17.489 35.8815ZM30.7552 29.8647L24.4938 24.8851L19.5991 31.0398L25.6689 36.0396L30.7552 29.8647ZM31.1739 29.3381L36.2156 23.1267L29.942 18.0345L24.9126 24.3586L31.1739 29.3381ZM34.0198 31.6481L41.5911 34.2316L43.3926 28.9522L39.0615 25.4367L34.0198 31.6481ZM33.8444 32.162L37.3713 39.3426L40.3456 37.8817L41.4158 34.7456L33.8444 32.162ZM38.9948 28.3488L46.1754 24.8219C47.7565 28.0408 46.413 31.9781 43.194 33.5592L39.6671 26.3786L36.1402 19.198C31.4277 21.5127 29.4996 27.1632 31.8143 31.8757L38.9948 28.3488ZM39.6671 26.3786L43.194 33.5592C40.0486 35.1042 36.0876 33.8982 34.4567 30.5778L41.6373 27.0509L48.8179 23.524C46.4534 18.71 40.7218 16.9477 36.1402 19.198L39.6671 26.3786ZM41.6373 27.0509L34.4567 30.5778C32.8615 27.3302 34.1904 23.4357 37.4381 21.8405L40.965 29.0211L44.4919 36.2017C49.1757 33.9011 51.1184 28.2078 48.8179 23.524L41.6373 27.0509ZM40.965 29.0211L37.4381 21.8405C40.7585 20.2096 44.6305 21.6764 46.1754 24.8219L38.9948 28.3488L31.8143 31.8757C34.0646 36.4573 39.678 38.5662 44.4919 36.2017L40.965 29.0211ZM21.3502 38.2989L17.8233 31.1183C17.3422 31.3546 16.5048 31.7733 15.6911 32.345C14.8677 32.9236 13.4103 34.1047 12.4803 36.1406C11.4714 38.349 11.5802 40.4405 11.8919 41.8802C12.1652 43.1422 12.6547 44.1854 12.9324 44.7508L20.113 41.2239L27.2936 37.697C27.1622 37.4294 27.3792 37.7999 27.5295 38.4939C27.7183 39.3656 27.8535 40.994 27.0337 42.7888C26.2927 44.4109 25.1866 45.2278 24.89 45.4363C24.6031 45.6379 24.4678 45.6805 24.8771 45.4795L21.3502 38.2989ZM20.113 41.2239L16.5861 34.0433L15.9829 34.3396L19.5099 41.5202L23.0368 48.7008L23.6399 48.4045L20.113 41.2239ZM19.5099 41.5202L26.6904 37.9932L24.0664 32.6509L16.8858 36.1778L9.70523 39.7047L12.3293 45.0471L19.5099 41.5202ZM16.8858 36.1778L20.4128 43.3584L21.0159 43.0621L17.489 35.8815L13.9621 28.701L13.3589 28.9972L16.8858 36.1778ZM17.489 35.8815L10.3084 39.4085C10.5861 39.9739 11.1125 40.999 11.9442 41.9867C12.893 43.1134 14.4818 44.478 16.8463 45.0295C19.026 45.538 20.8517 45.1065 21.8129 44.8086C22.7628 44.5141 23.6061 44.1073 24.0871 43.871L20.5602 36.6904L17.0332 29.5098C16.6239 29.7109 16.7404 29.6299 17.0753 29.5261C17.4216 29.4187 18.7442 29.0427 20.481 29.4479C22.4025 29.8961 23.6085 30.9985 24.183 31.6808C24.6404 32.224 24.801 32.6222 24.6696 32.3546L17.489 35.8815ZM20.5602 36.6904L24.0871 43.871L33.5942 39.2014L30.0673 32.0208L26.5403 24.8402L17.0332 29.5098L20.5602 36.6904ZM30.0673 32.0208L33.5942 39.2014C33.855 39.0732 34.5695 38.7329 35.1364 38.4048C35.4526 38.2217 36.0154 37.8797 36.613 37.3742C37.1914 36.8849 38.1899 35.9217 38.8916 34.3893C40.7557 30.3184 38.7736 26.9367 37.9039 25.7773C37.1199 24.7322 36.1728 23.9627 35.8415 23.6898L30.7552 29.8647L25.6689 36.0396C26.056 36.3585 25.6048 36.0451 25.1048 35.3785C24.8155 34.9929 24.1833 34.0698 23.8542 32.6813C23.4737 31.0758 23.6137 29.3233 24.3442 27.7279C24.9814 26.3364 25.8651 25.5092 26.2798 25.1584C26.7137 24.7914 27.0638 24.5903 27.1199 24.5579C27.1662 24.5311 27.1699 24.531 26.5403 24.8402L30.0673 32.0208ZM30.7552 29.8647L37.0165 34.8442L37.4353 34.3177L31.1739 29.3381L24.9126 24.3586L24.4938 24.8851L30.7552 29.8647ZM31.1739 29.3381L26.1322 35.5495L28.9781 37.8595L34.0198 31.6481L39.0615 25.4367L36.2156 23.1267L31.1739 29.3381ZM34.0198 31.6481L26.4484 29.0645L26.2731 29.5785L33.8444 32.162L41.4158 34.7456L41.5911 34.2316L34.0198 31.6481ZM33.8444 32.162L30.3175 24.9814L17.8233 31.1183L21.3502 38.2989L24.8771 45.4795L37.3713 39.3426L33.8444 32.162ZM29.8869 45.6636L36.8806 41.7793L33.0226 34.833L26.0503 38.6437L29.8869 45.6636ZM30.2132 46.2511L34.0526 53.2696L41.1162 49.4055L37.2069 42.3668L30.2132 46.2511ZM34.4756 36.1969L38.3599 43.1906L45.3536 39.3062L41.4693 32.3125L34.4756 36.1969ZM33.186 33.875L29.3017 26.8812L22.308 30.7656L26.1923 37.7593L33.186 33.875ZM34.1372 33.3467L41.0852 29.3813L37.1657 22.5135L30.2528 26.353L34.1372 33.3467ZM39.9088 34.314L46.9025 30.4296L43.1276 23.6329L36.2258 27.2122L39.9088 34.314ZM40.2817 34.9854L44.166 41.9791L51.1597 38.0948L47.2754 31.101L40.2817 34.9854ZM36.2813 37.2072L32.397 30.2135L25.4033 34.0978L29.2876 41.0915L36.2813 37.2072ZM38.1613 40.5922L42.0456 47.5859L49.0394 43.7016L45.155 36.7078L38.1613 40.5922ZM37.2102 41.1204L30.2165 45.0048L34.1008 51.9985L41.0945 48.1141L37.2102 41.1204ZM35.3301 37.7355L42.3239 33.8512L38.4395 26.8574L31.4458 30.7418L35.3301 37.7355ZM23.3722 46.7196L16.3785 50.604L23.3722 46.7196ZM29.8869 45.6636L22.8932 49.548L23.2195 50.1354L30.2132 46.2511L37.2069 42.3668L36.8806 41.7793L29.8869 45.6636ZM30.2132 46.2511L26.3738 39.2326C25.3822 39.7751 24.6579 40.1335 24.1233 40.3605C23.5524 40.6029 23.4732 40.5752 23.7305 40.5372C24.0244 40.4937 25.0714 40.3946 26.3665 40.9683C27.7567 41.5842 28.537 42.574 28.8771 43.1864L21.8834 47.0707L14.8896 50.955C15.8901 52.7563 17.4943 54.5376 19.8858 55.5971C22.1823 56.6145 24.4081 56.611 26.0718 56.3649C29.0289 55.9275 31.9327 54.4293 34.0526 53.2696L30.2132 46.2511ZM21.8834 47.0707L28.8771 43.1864C29.066 43.5265 29.3949 44.2625 29.4403 45.3097C29.4884 46.4186 29.1968 47.3871 28.8154 48.0843C28.477 48.7031 28.1553 48.9548 28.2196 48.9001C28.2766 48.8517 28.5423 48.6433 29.1562 48.3023L25.2719 41.3086L21.3876 34.3149C19.1488 35.5584 16.4023 37.4365 14.7779 40.4065C12.7174 44.1738 13.2743 48.0465 14.8896 50.955L21.8834 47.0707ZM25.2719 41.3086L29.1562 48.3023L38.3599 43.1906L34.4756 36.1969L30.5913 29.2032L21.3876 34.3149L25.2719 41.3086ZM34.4756 36.1969L41.4693 32.3125L40.1797 29.9906L33.186 33.875L26.1923 37.7593L27.4819 40.0812L34.4756 36.1969ZM33.186 33.875L37.0703 40.8687L38.0215 40.3404L34.1372 33.3467L30.2528 26.353L29.3017 26.8812L33.186 33.875ZM34.1372 33.3467L27.1891 37.3121C28.3315 39.3138 30.716 42.5337 35.2154 43.2165C38.8804 43.7726 42.0321 42.2246 43.5918 41.4158L39.9088 34.314L36.2258 27.2122C35.6985 27.4856 35.5632 27.512 35.6868 27.4757C35.8261 27.4348 36.5549 27.2366 37.6157 27.3975C38.8029 27.5777 39.7814 28.1102 40.4463 28.6888C40.9991 29.1698 41.1789 29.5454 41.0852 29.3813L34.1372 33.3467ZM39.9088 34.314L32.9151 38.1983L33.288 38.8697L40.2817 34.9854L47.2754 31.101L46.9025 30.4296L39.9088 34.314ZM40.2817 34.9854L36.3974 27.9917L32.397 30.2135L36.2813 37.2072L40.1656 44.2009L44.166 41.9791L40.2817 34.9854ZM36.2813 37.2072L29.2876 41.0915L31.1676 44.4765L38.1613 40.5922L45.155 36.7078L43.275 33.3229L36.2813 37.2072ZM38.1613 40.5922L34.277 33.5985L33.3258 34.1267L37.2102 41.1204L41.0945 48.1141L42.0456 47.5859L38.1613 40.5922ZM37.2102 41.1204L44.2039 37.2361L42.3239 33.8512L35.3301 37.7355L28.3364 41.6198L30.2165 45.0048L37.2102 41.1204ZM35.3301 37.7355L31.4458 30.7418L23.2772 35.2787L27.1615 42.2724L31.0458 49.2661L39.2145 44.7292L35.3301 37.7355ZM27.1615 42.2724L23.2772 35.2787C22.081 35.943 19.8026 37.1745 18.1532 38.8272C17.2163 39.766 15.8842 41.4071 15.3496 43.8055C14.7646 46.4297 15.3812 48.8084 16.3785 50.604L23.3722 46.7196L30.3659 42.8353C30.8971 43.7917 31.3871 45.3987 30.9663 47.2867C30.5958 48.9487 29.7185 49.8888 29.4782 50.1296C29.2292 50.3791 29.1421 50.3942 29.5131 50.1567C29.8503 49.9408 30.3218 49.6682 31.0458 49.2661L27.1615 42.2724ZM23.3722 46.7196L16.3785 50.604C17.2365 52.1489 18.6863 53.7999 20.9409 54.7778C23.0642 55.6987 25.0903 55.667 26.5247 55.4562C29.0869 55.0795 31.6289 53.8284 33.7236 52.6836L29.8869 45.6636L26.0503 38.6437C25.1604 39.13 24.5553 39.4187 24.1654 39.5805C23.7364 39.7586 23.8004 39.6847 24.1979 39.6262C24.6128 39.5653 25.8308 39.4585 27.3076 40.099C28.9158 40.7965 29.8807 41.9618 30.3659 42.8353L23.3722 46.7196ZM34.3905 52.6921L41.1417 48.4L36.8786 41.6946L30.1444 45.9119L34.3905 52.6921ZM34.7511 53.2592L38.9999 60.0377L45.8219 55.7616L41.5022 48.9671L34.7511 53.2592ZM38.4099 42.9699L42.702 49.721L49.4531 45.4289L45.161 38.6778L38.4099 42.9699ZM36.9849 40.7286L32.6928 33.9774L25.9416 38.2696L30.2338 45.0207L36.9849 40.7286ZM37.9031 40.1448L44.6038 35.7745L40.284 29.1512L33.6109 33.3937L37.9031 40.1448ZM43.7219 40.7682L50.473 36.4761L46.3018 29.9151L39.6243 33.8973L43.7219 40.7682ZM44.1339 41.4163L48.4261 48.1675L55.1772 43.8753L50.8851 37.1242L44.1339 41.4163ZM40.2723 43.8714L35.9802 37.1203L29.2291 41.4125L33.5212 48.1636L40.2723 43.8714ZM42.3497 47.139L46.6418 53.8901L53.393 49.598L49.1008 42.8468L42.3497 47.139ZM41.4316 47.7227L34.6804 52.0148L38.9726 58.766L45.7237 54.4738L41.4316 47.7227ZM39.3542 44.4552L46.1053 40.163L41.8131 33.4119L35.062 37.704L39.3542 44.4552ZM34.3905 52.6921L27.6394 56.9842L28 57.5513L34.7511 53.2592L41.5022 48.9671L41.1417 48.4L34.3905 52.6921ZM34.7511 53.2592L30.5023 46.4807C29.5447 47.081 28.8429 47.4818 28.3227 47.74C27.7671 48.0158 27.6865 47.9929 27.941 47.9396C28.2318 47.8788 29.2711 47.7178 30.598 48.2138C32.0222 48.7461 32.8598 49.6879 33.2356 50.2791L26.4845 54.5712L19.7334 58.8633C20.8388 60.6021 22.5458 62.2852 24.996 63.201C27.3487 64.0804 29.5704 63.9451 31.2166 63.6008C34.1425 62.9888 36.9525 61.321 38.9999 60.0377L34.7511 53.2592ZM26.4845 54.5712L33.2356 50.2791C33.4444 50.6074 33.8163 51.3226 33.9237 52.3652C34.0375 53.4693 33.8038 54.4534 33.4644 55.172C33.1633 55.8098 32.8571 56.0802 32.9181 56.0217C32.9721 55.97 33.225 55.7462 33.8176 55.3695L29.5254 48.6184L25.2333 41.8673C23.0722 43.2412 20.4419 45.2789 18.9964 48.34C17.1629 52.2228 17.9484 56.0557 19.7334 58.8633L26.4845 54.5712ZM29.5254 48.6184L33.8176 55.3695L42.702 49.721L38.4099 42.9699L34.1178 36.2188L25.2333 41.8673L29.5254 48.6184ZM38.4099 42.9699L45.161 38.6778L43.736 36.4364L36.9849 40.7286L30.2338 45.0207L31.6588 47.2621L38.4099 42.9699ZM36.9849 40.7286L41.277 47.4797L42.1952 46.8959L37.9031 40.1448L33.6109 33.3937L32.6928 33.9774L36.9849 40.7286ZM37.9031 40.1448L31.2023 44.5152C32.4614 46.4457 35.0326 49.5185 39.5645 49.9333C43.2561 50.2712 46.3105 48.5391 47.8195 47.6392L43.7219 40.7682L39.6243 33.8973C39.1142 34.2015 38.9806 34.2358 39.1019 34.1922C39.2385 34.1432 39.9543 33.9021 41.0228 33.9999C42.2186 34.1093 43.2269 34.5829 43.925 35.1211C44.5053 35.5684 44.707 35.9327 44.6038 35.7745L37.9031 40.1448ZM43.7219 40.7682L36.9708 45.0604L37.3828 45.7085L44.1339 41.4163L50.8851 37.1242L50.473 36.4761L43.7219 40.7682ZM44.1339 41.4163L39.8418 34.6652L35.9802 37.1203L40.2723 43.8714L44.5644 50.6226L48.4261 48.1675L44.1339 41.4163ZM40.2723 43.8714L33.5212 48.1636L35.5986 51.4311L42.3497 47.139L49.1008 42.8468L47.0234 39.5793L40.2723 43.8714ZM42.3497 47.139L38.0576 40.3879L37.1394 40.9716L41.4316 47.7227L45.7237 54.4738L46.6418 53.8901L42.3497 47.139ZM41.4316 47.7227L48.1827 43.4306L46.1053 40.163L39.3542 44.4552L32.6031 48.7473L34.6804 52.0148L41.4316 47.7227ZM39.3542 44.4552L35.062 37.704L27.1767 42.7173L31.4689 49.4684L35.761 56.2195L43.6463 51.2063L39.3542 44.4552ZM31.4689 49.4684L27.1767 42.7173C26.022 43.4514 23.8207 44.8157 22.2722 46.5633C21.3926 47.556 20.1601 49.2732 19.7686 51.6991C19.3402 54.3534 20.0968 56.6913 21.1988 58.4246L27.9499 54.1325L34.701 49.8404C35.2879 50.7635 35.8724 52.3387 35.5642 54.2483C35.2929 55.9294 34.4729 56.9198 34.2474 57.1744C34.0136 57.4382 33.9275 57.4585 34.2837 57.1994C34.6075 56.9639 35.062 56.6639 35.761 56.2195L31.4689 49.4684ZM27.9499 54.1325L21.1988 58.4246C22.1469 59.9159 23.692 61.4781 26.0007 62.3206C28.1748 63.114 30.1955 62.9622 31.6148 62.6667C34.1502 62.1389 36.6136 60.7392 38.6367 59.4723L34.3905 52.6921L30.1444 45.9119C29.2849 46.4502 28.6981 46.7742 28.3184 46.9589C27.9008 47.1621 27.9603 47.0845 28.3536 47.0026C28.7641 46.9171 29.9737 46.7383 31.4858 47.2902C33.1325 47.8911 34.1649 48.9971 34.701 49.8404L27.9499 54.1325ZM33.0027 61.739L37.6269 68.2672L44.1551 63.643L39.5309 57.1148L33.0027 61.739ZM32.4544 62.1275L25.9262 66.7516L30.5504 73.2798L37.0785 68.6556L32.4544 62.1275ZM29.014 57.2705L24.3898 50.7423L17.8616 55.3665L22.4858 61.8947L29.014 57.2705ZM29.5623 56.8821L36.0905 52.2579L31.4663 45.7297L24.9382 50.3539L29.5623 56.8821ZM48.9358 43.708L42.0399 39.6525L37.9111 46.6728L45.0043 50.6753L48.9358 43.708ZM49.2915 43.1031L53.3361 36.2008L46.4448 32.1627L42.3957 39.0475L49.2915 43.1031ZM52.4425 44.9495L60.3794 45.952L61.0409 40.7156L56.4871 38.0472L52.4425 44.9495ZM52.3772 45.4663L57.0014 51.9944L59.8731 49.9603L60.3142 46.4688L52.3772 45.4663ZM33.7589 58.6545L29.1347 52.1263C28.6974 52.4361 27.9372 52.9827 27.2248 53.6766C26.5039 54.3788 25.2529 55.7767 24.6586 57.9345C24.0139 60.2753 24.4539 62.3229 24.9907 63.6946C25.4612 64.8971 26.1105 65.8492 26.4746 66.3632L33.0027 61.739L39.5309 57.1148C39.3586 56.8716 39.6318 57.2028 39.8905 57.8641C40.2156 58.6947 40.6081 60.2809 40.0842 62.1832C39.6106 63.9025 38.6486 64.885 38.3889 65.1379C38.1377 65.3826 38.0109 65.4462 38.3831 65.1826L33.7589 58.6545ZM33.0027 61.739L28.3785 55.2109L27.8302 55.5993L32.4544 62.1275L37.0785 68.6556L37.6269 68.2672L33.0027 61.739ZM32.4544 62.1275L38.9825 57.5033L35.5421 52.6463L29.014 57.2705L22.4858 61.8947L25.9262 66.7516L32.4544 62.1275ZM29.014 57.2705L33.6382 63.7987L34.1865 63.4102L29.5623 56.8821L24.9382 50.3539L24.3898 50.7423L29.014 57.2705ZM29.5623 56.8821L23.0342 61.5063C23.3983 62.0203 24.081 62.9486 25.0593 63.7915C26.1752 64.7529 27.9609 65.8474 30.3829 66.0158C32.6158 66.1711 34.3495 65.4548 35.2511 65.0077C36.1421 64.5659 36.9099 64.0301 37.3473 63.7203L32.7231 57.1921L28.0989 50.664C27.7267 50.9276 27.8289 50.8291 28.143 50.6733C28.4678 50.5122 29.7137 49.9307 31.4929 50.0544C33.4612 50.1913 34.8273 51.0878 35.503 51.67C36.041 52.1335 36.2628 52.5011 36.0905 52.2579L29.5623 56.8821ZM32.7231 57.1921L37.3473 63.7203L53.2238 52.4743L48.5996 45.9461L43.9754 39.418L28.0989 50.664L32.7231 57.1921ZM48.5996 45.9461L53.2238 52.4743C53.4694 52.3003 54.1214 51.85 54.6287 51.4367C54.9107 51.2069 55.4111 50.7816 55.9202 50.1908C56.4095 49.6229 57.2545 48.5074 57.7079 46.867C58.9259 42.4604 56.3114 39.4135 55.2619 38.4341C54.3075 37.5433 53.2381 36.95 52.8673 36.7407L48.9358 43.708L45.0043 50.6753C45.45 50.9269 44.9525 50.698 44.3452 50.1313C43.9952 49.8046 43.1972 48.9956 42.6265 47.6624C41.9628 46.1123 41.8106 44.3248 42.2861 42.6044C42.6983 41.1133 43.4507 40.151 43.7988 39.747C44.1666 39.3201 44.4771 39.0694 44.5229 39.0322C44.5577 39.0038 44.5523 39.0093 43.9754 39.418L48.5996 45.9461ZM48.9358 43.708L55.8316 47.7636L56.1874 47.1587L49.2915 43.1031L42.3957 39.0475L42.0399 39.6525L48.9358 43.708ZM49.2915 43.1031L45.247 50.0054L48.3979 51.8518L52.4425 44.9495L56.4871 38.0472L53.3361 36.2008L49.2915 43.1031ZM52.4425 44.9495L44.5056 43.9469L44.4403 44.4638L52.3772 45.4663L60.3142 46.4688L60.3794 45.952L52.4425 44.9495ZM52.3772 45.4663L47.753 38.9381L29.1347 52.1263L33.7589 58.6545L38.3831 65.1826L57.0014 51.9944L52.3772 45.4663ZM44.3738 66.0305L50.6051 61.0135L46.4263 55.8232L40.566 58.9948L44.3738 66.0305ZM44.7952 66.5539L49.1546 73.2618L56.5808 68.4356L51.0265 61.5369L44.7952 66.5539ZM46.7491 64.8986L40.5177 69.9157L45.5348 76.147L51.7661 71.13L46.7491 64.8986ZM41.5314 58.418L47.7627 53.401L42.7457 47.1697L36.5144 52.1867L41.5314 58.418ZM49.1027 56.8002L42.8713 61.8172L49.1027 56.8002ZM42.419 57.7856L37.9807 51.1296L30.6988 55.9853L36.1876 62.8026L42.419 57.7856ZM46.4125 62.7457L40.1812 67.7627L45.1982 73.9941L51.4295 68.9771L46.4125 62.7457ZM44.3738 66.0305L38.1424 71.0475L38.5639 71.5709L44.7952 66.5539L51.0265 61.5369L50.6051 61.0135L44.3738 66.0305ZM44.7952 66.5539L40.4358 59.846C39.7704 60.2785 39.2877 60.5055 38.9941 60.6165C38.6954 60.7294 38.6719 60.6926 38.8904 60.6816C39.1233 60.6698 39.6389 60.6895 40.2914 60.9559C40.9693 61.2327 41.5765 61.6887 42.0281 62.2496L35.7968 67.2667L29.5654 72.2837C32.1996 75.5555 36.0291 76.847 39.6997 76.6611C43.1143 76.4881 46.3388 75.0918 49.1546 73.2618L44.7952 66.5539ZM35.7968 67.2667L42.0281 62.2496C42.459 62.7849 42.7944 63.5371 42.873 64.3698C42.9453 65.1348 42.7705 65.6191 42.7315 65.7151C42.6971 65.8 42.7511 65.6348 43.0678 65.2514C43.3751 64.8795 43.8528 64.3958 44.5419 63.841L39.5248 57.6097L34.5078 51.3784C31.8626 53.5081 29.2876 56.2947 27.9065 59.6969C26.3881 63.4373 26.3051 68.2342 29.5654 72.2837L35.7968 67.2667ZM39.5248 57.6097L44.5419 63.841C45.0927 63.3975 45.6012 63.0809 46.0176 62.8753C46.2224 62.7741 46.3877 62.7083 46.5089 62.6675C46.631 62.6263 46.6901 62.6165 46.6863 62.6172C46.683 62.6177 46.5932 62.6325 46.4279 62.626C46.2604 62.6194 46.0042 62.5902 45.6879 62.4952C44.9823 62.2833 44.2811 61.8333 43.779 61.2097L50.0103 56.1927L56.2417 51.1757C52.8092 46.9124 47.8544 46.2095 44.0872 46.8297C40.4714 47.425 37.1498 49.2512 34.5078 51.3784L39.5248 57.6097ZM50.0103 56.1927L43.779 61.2097C43.2906 60.6031 42.9429 59.7993 42.8533 58.9379C42.77 58.1371 42.9389 57.5942 43.0096 57.4112C43.0766 57.2377 43.0838 57.3042 42.8623 57.5787C42.6488 57.8432 42.2875 58.2201 41.7321 58.6673L46.7491 64.8986L51.7661 71.13C54.2663 69.117 56.6693 66.453 57.935 63.176C59.3121 59.6105 59.3423 55.0267 56.2417 51.1757L50.0103 56.1927ZM46.7491 64.8986L52.9804 59.8816L47.7627 53.401L41.5314 58.418L35.3 63.4351L40.5177 69.9157L46.7491 64.8986ZM41.5314 58.418L36.5144 52.1867L35.966 52.6282L40.983 58.8596L46 65.0909L46.5484 64.6494L41.5314 58.418ZM40.983 58.8596L35.966 52.6282C33.7791 54.3889 31.6133 56.7073 30.2536 59.4159C29.0286 61.8561 27.4272 67.0256 31.1176 71.6092L37.3489 66.5921L43.5802 61.5751C44.5727 62.8079 44.8674 64.2029 44.8338 65.2309C44.8186 65.696 44.7406 66.0434 44.6807 66.2496C44.6204 66.4571 44.5638 66.5726 44.553 66.594C44.5395 66.6209 44.6239 66.4538 44.9002 66.1345C45.1647 65.8286 45.5336 65.4665 46 65.0909L40.983 58.8596ZM37.3489 66.5921L31.1176 71.6092C33.4187 74.4672 36.7566 75.6402 39.9786 75.5564C42.8869 75.4808 45.6765 74.4219 48.1815 73.0662L44.3738 66.0305L40.566 58.9948C39.1795 59.7452 38.9483 59.5778 39.5629 59.5618C39.9354 59.5521 40.613 59.6026 41.4255 59.9457C42.2657 60.3003 43.0119 60.8692 43.5802 61.5751L37.3489 66.5921ZM49.1027 56.8002L55.334 51.7832C52.1033 47.7706 47.4966 47.6536 44.7919 48.1662C42.1384 48.6691 39.7625 49.9415 37.9807 51.1296L42.419 57.7856L46.8572 64.4416C47.7486 63.8472 48.0723 63.8293 47.7714 63.8863C47.576 63.9234 46.8857 64.0293 45.9191 63.7833C44.8303 63.5062 43.706 62.8539 42.8713 61.8172L49.1027 56.8002ZM42.419 57.7856L36.1876 62.8026L40.1812 67.7627L46.4125 62.7457L52.6439 57.7287L48.6503 52.7686L42.419 57.7856ZM46.4125 62.7457L51.4295 68.9771C52.9586 67.746 54.895 65.8886 56.1743 63.4968C57.4903 61.0363 58.8737 56.1796 55.334 51.7832L49.1027 56.8002L42.8713 61.8172C41.9859 60.7175 41.5495 59.3301 41.579 58.0089C41.6045 56.8664 41.9636 56.1413 42.0656 55.9507C42.2257 55.6513 42.1347 55.9193 41.3955 56.5144L46.4125 62.7457ZM45.1536 77.0208L39.3884 71.4745L33.842 77.2397L39.6073 82.7861L45.1536 77.0208ZM51.4765 70.4484L57.0228 64.6832L51.2575 59.1368L45.7112 64.9021L51.4765 70.4484ZM51.9607 70.9143L57.7591 76.426L63.2379 70.6623L57.5071 65.1491L51.9607 70.9143ZM58.1151 70.8405L50.1429 71.5061L50.1477 71.5636L50.1533 71.621L58.1151 70.8405ZM69.73 67.5831L64.1837 73.3483L69.73 67.5831ZM71.2944 66.557L76.8407 60.7918L71.0755 55.2454L65.5291 61.0107L71.2944 66.557ZM71.8017 67.0451L77.567 72.5914L83.1133 66.8262L77.3481 61.2798L71.8017 67.0451ZM66.6547 72.3952L61.1084 78.1605L66.8736 83.7068L72.42 77.9416L66.6547 72.3952ZM66.1474 71.9072L60.3383 66.4067L54.8814 72.1699L60.601 77.6724L66.1474 71.9072ZM66.8337 62.9317L72.38 57.1665L66.8337 62.9317ZM60.2975 71.3414L52.3213 71.9588L52.322 71.9679L52.3227 71.9769L60.2975 71.3414ZM45.6379 77.4867L40.0916 83.2519L45.8568 88.7983L51.4031 83.033L45.6379 77.4867ZM45.1536 77.0208L50.9189 82.5672L57.2417 75.9948L51.4765 70.4484L45.7112 64.9021L39.3884 71.4745L45.1536 77.0208ZM51.4765 70.4484L45.9301 76.2137L46.4144 76.6796L51.9607 70.9143L57.5071 65.1491L57.0228 64.6832L51.4765 70.4484ZM51.9607 70.9143L46.1624 65.4026C40.8909 70.9483 38.1002 80.6701 44.9212 87.2322L50.4676 81.4669L56.0139 75.7017C56.4299 76.1019 56.6827 76.5562 56.8101 76.9489C56.9337 77.33 56.9216 77.5899 56.9129 77.6695C56.896 77.8245 56.9111 77.3181 57.7591 76.426L51.9607 70.9143ZM50.4676 81.4669L44.9212 87.2322C47.266 89.488 50.4669 91.005 54.1179 90.8527C57.7062 90.7031 60.684 88.9868 62.7918 86.7958L57.0265 81.2495L51.2613 75.7031C51.4167 75.5416 52.1413 74.9212 53.4513 74.8666C54.824 74.8094 55.7215 75.4204 56.0139 75.7017L50.4676 81.4669ZM57.0265 81.2495L62.7918 86.7958C65.879 83.5867 66.4509 79.6717 66.5325 77.0752C66.6098 74.6152 66.2456 71.78 66.0769 70.06L58.1151 70.8405L50.1533 71.621C50.2774 72.8871 50.3732 73.6971 50.4552 74.6549C50.5308 75.5377 50.554 76.138 50.5404 76.5729C50.5099 77.5431 50.326 76.6753 51.2613 75.7031L57.0265 81.2495ZM58.1151 70.8405L66.0874 70.1748C65.9886 68.9918 65.9232 68.172 65.8959 67.4911C65.8689 66.8186 65.8926 66.5388 65.9023 66.4621C65.9055 66.437 65.8782 66.6529 65.7327 66.9617C65.5859 67.2732 65.4359 67.431 65.4494 67.417L59.6842 61.8706L53.9189 56.3243C51.6281 58.7055 50.414 61.4119 50.029 64.452C49.7237 66.8636 49.9757 69.5045 50.1429 71.5061L58.1151 70.8405ZM59.6842 61.8706L65.4494 67.417C65.3344 67.5366 65.0662 67.7666 64.6205 67.9522C64.1687 68.1404 63.6716 68.2248 63.1941 68.2025C62.2438 68.1582 61.8668 67.7447 61.9725 67.8463L67.5188 62.0811L73.0651 56.3159C70.7724 54.1102 67.6318 52.3924 63.9406 52.22C60.0875 52.04 56.5417 53.598 53.9189 56.3243L59.6842 61.8706ZM67.5188 62.0811L61.9725 67.8463C61.7177 67.6013 61.5432 67.16 61.5058 66.9466C61.5043 66.9382 61.5095 66.9652 61.5196 67.0665C61.5249 67.12 61.5302 67.1798 61.5384 67.2748C61.5451 67.3518 61.5573 67.4966 61.5706 67.6347C61.5901 67.8367 61.6505 68.4908 61.8307 69.2234C61.9766 69.8161 62.4751 71.7047 64.1837 73.3483L69.73 67.5831L75.2763 61.8178C76.8638 63.345 77.281 65.0498 77.3674 65.4007C77.4881 65.8916 77.5109 66.2458 77.4968 66.0991C77.4933 66.0628 77.4897 66.0211 77.4793 65.9004C77.4704 65.7977 77.4575 65.6489 77.4411 65.4837C77.4077 65.1477 77.3556 64.6977 77.2651 64.1818C76.8715 61.9385 75.8335 58.9791 73.0651 56.3159L67.5188 62.0811ZM69.73 67.5831L64.1837 73.3483C64.8459 73.9854 66.5741 75.4472 69.3104 75.6504C71.7752 75.8334 73.5749 74.8707 74.2869 74.4428C75.567 73.6734 76.6117 72.569 77.0596 72.1034L71.2944 66.557L65.5291 61.0107C65.3019 61.2469 65.2141 61.3278 65.2183 61.324C65.2248 61.318 65.2908 61.2579 65.4049 61.168C65.5125 61.0832 65.732 60.917 66.0445 60.7292C66.5328 60.4357 68.1666 59.5214 70.4954 59.6943C73.0957 59.8874 74.7179 61.2806 75.2763 61.8178L69.73 67.5831ZM71.2944 66.557L65.748 72.3223L66.2554 72.8103L71.8017 67.0451L77.3481 61.2798L76.8407 60.7918L71.2944 66.557ZM71.8017 67.0451L66.0365 61.4987L60.8895 66.8489L66.6547 72.3952L72.42 77.9416L77.567 72.5914L71.8017 67.0451ZM66.6547 72.3952L72.2011 66.63L71.6937 66.1419L66.1474 71.9072L60.601 77.6724L61.1084 78.1605L66.6547 72.3952ZM66.1474 71.9072L71.9564 77.4076C76.6688 72.4307 78.9457 63.4828 72.38 57.1665L66.8337 62.9317L61.2873 68.697C61.0149 68.4349 60.7649 68.0707 60.6062 67.6373C60.4509 67.2132 60.4236 66.8362 60.4442 66.5675C60.4841 66.0474 60.6717 66.0546 60.3383 66.4067L66.1474 71.9072ZM66.8337 62.9317L72.38 57.1665C70.0151 54.8913 66.8809 53.4375 63.3684 53.6089C60.0224 53.7722 57.329 55.3643 55.5431 57.2207L61.3084 62.7671L67.0736 68.3134C66.5523 68.8554 65.5723 69.5204 64.1481 69.5899C62.5576 69.6675 61.5537 68.9533 61.2873 68.697L66.8337 62.9317ZM61.3084 62.7671L55.5431 57.2207C52.5332 60.3494 52.0307 64.1211 51.9743 66.4617C51.9255 68.4842 52.2636 71.2132 52.3213 71.9588L60.2975 71.3414L68.2736 70.724C68.2365 70.2451 68.1918 69.7803 68.152 69.3769C68.1098 68.9492 68.0752 68.6087 68.0439 68.2603C67.9811 67.5599 67.9627 67.1364 67.9696 66.8473C67.9854 66.1934 68.109 67.2372 67.0736 68.3134L61.3084 62.7671ZM60.2975 71.3414L52.3227 71.9769C52.447 73.5367 52.5423 74.5396 52.5992 75.5038C52.6533 76.4236 52.6393 76.861 52.6175 77.0766C52.6028 77.2213 52.602 77.0871 52.7088 76.8556C52.8128 76.6304 52.8879 76.5971 52.708 76.7841L58.4733 82.3304L64.2385 87.8768C66.8525 85.1596 68.186 82.1464 68.5361 78.6878C68.8017 76.0639 68.4527 72.9721 68.2722 70.706L60.2975 71.3414ZM58.4733 82.3304L52.708 76.7841C52.7759 76.7135 52.9709 76.5451 53.3064 76.4091C53.6369 76.2751 53.9842 76.2211 54.3011 76.2325C54.8873 76.2537 55.2546 76.4809 55.4672 76.6854L49.9208 82.4507L44.3745 88.2159C49.1296 92.7905 57.9269 94.4375 64.2385 87.8768L58.4733 82.3304ZM49.9208 82.4507L55.4672 76.6854C55.4207 76.6408 55.5123 76.7213 55.6184 76.9342C55.6656 77.0287 55.7007 77.1199 55.7252 77.198C55.7491 77.2741 55.7578 77.3212 55.7577 77.3206C55.7564 77.3136 55.7485 77.2691 55.7321 77.1246C55.731 77.1146 55.6794 76.6262 55.6456 76.3673C55.6053 76.0589 55.5048 75.3244 55.2388 74.49C54.9677 73.6392 54.3652 72.1618 52.9775 70.8267L47.4311 76.592L41.8848 82.3572C40.6642 81.183 40.1785 79.9262 39.9944 79.3485C39.895 79.0367 39.8426 78.7916 39.8173 78.661C39.7916 78.528 39.7808 78.4428 39.7806 78.4416C39.7805 78.4409 39.7837 78.4653 39.7939 78.5601C39.8014 78.629 39.8181 78.7871 39.8341 78.9284C39.8694 79.2395 39.9252 79.6892 40.0203 80.2079C40.2163 81.2761 40.5744 82.6184 41.2983 84.071C42.0262 85.5315 43.0372 86.9294 44.3745 88.2159L49.9208 82.4507ZM47.4311 76.592L52.9775 70.8267C51.9477 69.8361 50.2856 68.7385 48.0091 68.4875C45.857 68.2503 44.1488 68.8842 43.1615 69.3819C41.5123 70.2131 40.3057 71.4902 39.8727 71.9403L45.6379 77.4867L51.4031 83.033C51.5623 82.8677 51.5785 82.862 51.495 82.9338C51.4481 82.9742 51.0463 83.3251 50.3629 83.6696C49.6558 84.026 48.1898 84.6044 46.2559 84.3912C44.1978 84.1643 42.7301 83.1704 41.8848 82.3572L47.4311 76.592ZM45.6379 77.4867L51.1842 71.7215L50.7 71.2556L45.1536 77.0208L39.6073 82.7861L40.0916 83.2519L45.6379 77.4867ZM66.5257 93.1532L71.5445 86.9232L67.1705 83.3996L62.3707 86.3168L66.5257 93.1532ZM67.049 93.5747L71.7503 100.048L80.2094 93.9036L72.0678 87.3448L67.049 93.5747ZM63.7797 90.8999L57.5498 85.8812L63.7797 90.8999ZM64.1611 90.4265L70.391 95.4452L75.4098 89.2153L69.1799 84.1965L64.1611 90.4265ZM64.1113 90.3863L69.13 84.1564L65.4997 81.2318L61.1654 82.9484L64.1113 90.3863ZM67.7124 83.6718L69.552 75.8862L69.5156 75.8776L69.4792 75.8693L67.7124 83.6718ZM69.3003 84.047L67.4607 91.8326L72.3673 92.992L75.5302 89.0658L69.3003 84.047ZM70.6801 78.0496L75.6988 71.8197L70.6801 78.0496ZM66.8963 79.6859L60.6664 74.6672L66.8963 79.6859ZM71.6394 84L65.4094 78.9812L71.6394 84ZM64.6297 93.7215L69.6484 87.4915L64.6297 93.7215ZM64.8035 89.629L66.7762 97.382L69.3605 96.7244L71.0334 94.6478L64.8035 89.629ZM68.6579 84.8444L74.8878 89.8632L82.9279 79.8829L70.4305 77.0433L68.6579 84.8444ZM67.0949 84.4893L68.8674 76.6881L68.8326 76.6802L68.7977 76.6726L67.0949 84.4893ZM66.5257 93.1532L61.5069 99.3831L62.0302 99.8047L67.049 93.5747L72.0678 87.3448L71.5445 86.9232L66.5257 93.1532ZM67.049 93.5747L62.3477 87.1019C62.0281 87.334 61.9522 87.3812 61.9582 87.3776C61.9615 87.3755 62.3187 87.1504 62.9303 86.9643C63.6085 86.7581 64.6439 86.5873 65.8682 86.8128C67.1005 87.0398 68.0178 87.575 68.5921 88.0377L63.5733 94.2676L58.5546 100.498C59.702 101.422 61.1794 102.218 62.9696 102.548C64.752 102.876 66.3432 102.65 67.5861 102.272C69.6632 101.64 71.3306 100.352 71.7503 100.048L67.049 93.5747ZM63.5733 94.2676L68.5921 88.0377C69.0963 88.4439 69.8175 89.1905 70.3179 90.3601C70.8351 91.5691 70.9211 92.7756 70.7846 93.7691C70.5588 95.4132 69.7675 96.2192 70.0096 95.9187L63.7797 90.8999L57.5498 85.8812C56.8081 86.8017 55.3157 88.8097 54.9335 91.5915C54.4308 95.2511 56.0262 98.4607 58.5546 100.498L63.5733 94.2676ZM63.7797 90.8999L70.0096 95.9187L70.391 95.4452L64.1611 90.4265L57.9312 85.4077L57.5498 85.8812L63.7797 90.8999ZM64.1611 90.4265L69.1799 84.1965L69.13 84.1564L64.1113 90.3863L59.0925 96.6162L59.1424 96.6564L64.1611 90.4265ZM64.1113 90.3863L61.1654 82.9484C60.8953 83.0554 60.8112 83.0864 60.732 83.1108C60.6574 83.1338 60.7129 83.1092 60.8727 83.0928C61.0358 83.0762 61.4118 83.0575 61.9189 83.1762C62.4651 83.304 63.0385 83.5637 63.5334 83.9624L58.5146 90.1924L53.4959 96.4223C56.6321 98.9488 60.1003 99.2549 62.4976 99.0101C64.7481 98.7804 66.5834 98.0118 67.0571 97.8242L64.1113 90.3863ZM58.5146 90.1924L63.5334 83.9624C63.8429 84.2117 64.3029 84.6768 64.6784 85.4121C65.0647 86.1687 65.2535 87.0031 65.2496 87.8096C65.2459 88.5839 65.0674 89.1716 64.9185 89.5245C64.7726 89.8702 64.6352 90.0421 64.6221 90.0582L58.3922 85.0394L52.1623 80.0207C50.7358 81.7913 49.2657 84.4357 49.2498 87.7326C49.2323 91.3758 50.9954 94.4079 53.4959 96.4223L58.5146 90.1924ZM58.3922 85.0394L64.6221 90.0582C64.5481 90.1501 64.2762 90.4312 63.7929 90.6546C63.3361 90.8657 62.9946 90.8845 62.9544 90.8856C62.9428 90.886 62.996 90.8838 63.1337 90.8976C63.2722 90.9115 63.4647 90.9384 63.7323 90.9874C64.0018 91.0368 64.3079 91.1013 64.6857 91.1861C64.8736 91.2283 65.0665 91.2726 65.2791 91.3215C65.4855 91.3691 65.7151 91.4221 65.9455 91.4742L67.7124 83.6718L69.4792 75.8693C68.3006 75.6024 65.3559 74.8097 62.4929 74.8923C58.9023 74.9959 55.0938 76.3817 52.1623 80.0207L58.3922 85.0394ZM67.7124 83.6718L65.8727 91.4574L67.4607 91.8326L69.3003 84.047L71.14 76.2614L69.552 75.8862L67.7124 83.6718ZM69.3003 84.047L75.5302 89.0658L76.534 87.8198L70.3041 82.801L64.0741 77.7823L63.0704 79.0282L69.3003 84.047ZM70.3041 82.801L76.534 87.8198C77.0762 87.1468 78.9431 84.9378 79.5551 82.0023C79.927 80.2189 79.8597 78.1653 79.0025 76.1173C78.1894 74.1744 76.8943 72.7828 75.6988 71.8197L70.6801 78.0496L65.6613 84.2795C65.4252 84.0893 64.7335 83.4662 64.243 82.2944C63.7086 81.0174 63.6833 79.7373 63.8919 78.7367C64.0707 77.8792 64.3856 77.3841 64.3988 77.3627C64.4206 77.3273 64.3622 77.4246 64.0741 77.7823L70.3041 82.801ZM70.6801 78.0496L75.6988 71.8197C74.2467 70.6499 72.2329 69.5774 69.8111 69.3286C67.243 69.0648 63.8208 69.7824 61.4175 72.7656L67.6474 77.7844L73.8773 82.8032C72.1165 84.989 69.6623 85.3975 68.1758 85.2448C66.8356 85.1071 66.0169 84.566 65.6613 84.2795L70.6801 78.0496ZM67.6474 77.7844L61.4175 72.7656C60.588 73.7952 60.1212 74.8211 59.8473 75.6057C59.7148 75.9853 59.6253 76.3148 59.5671 76.5479C59.5123 76.7675 59.4689 76.9692 59.4552 77.0324C59.4328 77.1353 59.4399 77.0996 59.4536 77.0446C59.4707 76.9762 59.5141 76.8098 59.5906 76.5906C59.7526 76.1268 60.0678 75.4102 60.6664 74.6672L66.8963 79.6859L73.1262 84.7047C73.9557 83.6751 74.4225 82.6492 74.6964 81.8646C74.829 81.485 74.9184 81.1555 74.9766 80.9225C75.0315 80.7029 75.0748 80.5011 75.0885 80.438C75.111 80.3351 75.1038 80.3708 75.0901 80.4257C75.073 80.4942 75.0296 80.6605 74.9531 80.8797C74.7911 81.3436 74.4759 82.0601 73.8773 82.8032L67.6474 77.7844ZM66.8963 79.6859L60.6664 74.6672C61.8882 73.1505 63.8262 72.0796 66.0525 72.0339C68.1063 71.9917 69.6009 72.8245 70.4157 73.4809L65.3969 79.7108L60.3782 85.9407C61.7413 87.0388 63.8049 88.0834 66.3809 88.0305C69.1295 87.9741 71.5431 86.6699 73.1262 84.7047L66.8963 79.6859ZM65.3969 79.7108L70.4157 73.4809C71.1983 74.1113 71.9629 75.0239 72.4582 76.2274C72.9517 77.4264 73.0453 78.5917 72.9456 79.5485C72.7642 81.2887 71.977 82.2546 71.8948 82.3566L65.6649 77.3379L59.435 72.3191C58.5297 73.4429 57.297 75.3443 57.0317 77.8901C56.7135 80.9436 57.9159 83.9571 60.3782 85.9407L65.3969 79.7108ZM65.6649 77.3379L71.8948 82.3566C71.4765 82.8759 70.8817 83.3685 70.1297 83.7079C69.3871 84.043 68.6632 84.1517 68.0631 84.1366C66.9174 84.1079 66.3701 83.6589 66.3681 83.6572L71.3868 77.4273L76.4056 71.1974C74.3601 69.5495 71.6244 68.221 68.4648 68.1417C65.0859 68.0568 61.7432 69.4538 59.435 72.3191L65.6649 77.3379ZM71.3868 77.4273L66.3681 83.6572C66.315 83.6145 65.2824 82.728 65.1398 80.9237C65.0062 79.2321 65.805 78.4902 65.4094 78.9812L71.6394 84L77.8693 89.0187C79.7021 86.7437 81.3963 83.5385 81.0901 79.6636C80.7751 75.6761 78.5021 72.8863 76.4056 71.1974L71.3868 77.4273ZM71.6394 84L65.4094 78.9812L58.885 87.0801L65.115 92.0989L71.3449 97.1177L77.8693 89.0187L71.6394 84ZM65.115 92.0989L58.885 87.0801C58.7516 87.2458 57.5788 88.6014 56.9456 90.3265C56.5391 91.4341 56.1167 93.2787 56.6812 95.4467C57.2563 97.6558 58.5704 99.1131 59.6109 99.9514L64.6297 93.7215L69.6484 87.4915C70.4647 88.1491 71.6445 89.4161 72.165 91.4155C72.6749 93.374 72.2777 94.9897 71.9658 95.8396C71.6773 96.6254 71.3316 97.1186 71.2904 97.1785C71.2214 97.2791 71.2038 97.2928 71.3449 97.1177L65.115 92.0989ZM64.6297 93.7215L59.6109 99.9514C60.8427 100.944 62.4104 101.649 64.1969 101.815C65.8131 101.965 67.1212 101.626 67.8869 101.368C69.1785 100.931 70.3368 100.199 70.6807 99.9896L66.5257 93.1532L62.3707 86.3168C62.2591 86.3846 62.1787 86.4327 62.1178 86.4684C62.0562 86.5044 62.0349 86.5158 62.0417 86.5121C62.0471 86.5092 62.1096 86.4754 62.2151 86.4268C62.3183 86.3792 62.5073 86.2967 62.7639 86.21C63.233 86.0514 64.2868 85.7545 65.6759 85.8834C67.2355 86.0282 68.6036 86.6498 69.6484 87.4915L64.6297 93.7215ZM60.0666 89.388L55.0479 95.618C59.5285 99.2275 64.5495 97.9486 66.7762 97.382L64.8035 89.629L62.8308 81.876C62.3632 81.995 62.0973 82.0488 61.9553 82.0719C61.8124 82.0951 61.9285 82.0645 62.2095 82.0724C62.5203 82.0812 63.0222 82.1367 63.6157 82.3462C64.2228 82.5605 64.7189 82.8629 65.0854 83.1581L60.0666 89.388ZM64.8035 89.629L71.0334 94.6478L74.8878 89.8632L68.6579 84.8444L62.428 79.8257L58.5736 84.6103L64.8035 89.629ZM68.6579 84.8444L70.4305 77.0433L68.8674 76.6881L67.0949 84.4893L65.3224 92.2904L66.8854 92.6456L68.6579 84.8444ZM67.0949 84.4893L68.7977 76.6726C65.6703 75.9913 58.662 74.9108 53.8485 80.886L60.0785 85.9048L66.3084 90.9235C66.0767 91.2111 65.729 91.5225 65.2814 91.7653C64.8499 91.9995 64.4871 92.0827 64.3027 92.11C64.1384 92.1344 64.1298 92.1128 64.3454 92.1311C64.56 92.1493 64.8948 92.1976 65.3921 92.306L67.0949 84.4893ZM60.0785 85.9048L53.8485 80.886C52.6324 82.3956 51.2302 84.7973 51.2493 87.8952C51.2704 91.3241 53.0095 93.9759 55.0479 95.618L60.0666 89.388L65.0854 83.1581C66.0522 83.9369 67.2351 85.5448 67.249 87.7967C67.2608 89.7177 66.4003 90.8094 66.3084 90.9235L60.0785 85.9048ZM70.7232 97.839L77.2299 102.493L81.8843 95.9868L75.3776 91.3324L70.7232 97.839ZM70.3323 98.3856L65.6779 104.892L72.1845 109.547L76.8389 103.04L70.3323 98.3856ZM65.4913 94.9227L58.9847 90.2683L54.3303 96.775L60.8369 101.429L65.4913 94.9227ZM65.8823 94.3762L70.5367 87.8695L64.03 83.2151L59.3756 89.7218L65.8823 94.3762ZM74.7176 82.7947L66.8449 81.3738L65.4481 89.1125L73.1618 90.6419L74.7176 82.7947ZM74.8371 82.1326L76.3365 74.2744L68.3995 72.76L66.9643 80.7117L74.8371 82.1326ZM78.4376 82.8196L86.3296 81.5098L85.4163 76.0068L79.9369 74.9613L78.4376 82.8196ZM78.5265 83.3553L85.0331 88.0097L86.961 85.3146L86.4185 82.0456L78.5265 83.3553ZM81.2572 77.5578L85.9116 71.0512C88.8284 73.1377 89.5095 77.2418 87.423 80.1586L80.9163 75.5042L74.4097 70.8498C71.3551 75.12 72.3326 81.0099 76.6028 84.0645L81.2572 77.5578ZM80.9163 75.5042L87.423 80.1586C85.3841 83.0089 81.3243 83.8223 78.3156 81.67L82.97 75.1634L87.6244 68.6567C83.2622 65.5364 77.3794 66.6982 74.4097 70.8498L80.9163 75.5042ZM82.97 75.1634L78.3156 81.67C75.3727 79.5649 74.699 75.5055 76.8041 72.5626L83.3108 77.217L89.8175 81.8714C92.8535 77.6272 91.8686 71.6927 87.6244 68.6567L82.97 75.1634ZM83.3108 77.217L76.8041 72.5626C78.9564 69.5539 83.0613 69.0123 85.9116 71.0512L81.2572 77.5578L76.6028 84.0645C80.7544 87.0342 86.6971 86.2335 89.8175 81.8714L83.3108 77.217ZM70.4278 94.6769L63.9212 90.0225C63.6094 90.4584 63.07 91.2238 62.6241 92.1126C62.1728 93.0122 61.4485 94.7426 61.5934 96.9761C61.7506 99.399 62.8368 101.19 63.7931 102.31C64.6314 103.292 65.5565 103.979 66.0688 104.346L70.7232 97.839L75.3776 91.3324C75.1352 91.1589 75.5017 91.3825 75.9628 91.9226C76.5418 92.601 77.432 93.9712 77.5598 95.9402C77.6753 97.7199 77.0879 98.9631 76.9254 99.2872C76.7681 99.6006 76.6691 99.7022 76.9345 99.3313L70.4278 94.6769ZM70.7232 97.839L64.2166 93.1847L63.8256 93.7312L70.3323 98.3856L76.8389 103.04L77.2299 102.493L70.7232 97.839ZM70.3323 98.3856L74.9867 91.8789L70.1457 88.4161L65.4913 94.9227L60.8369 101.429L65.6779 104.892L70.3323 98.3856ZM65.4913 94.9227L71.998 99.5771L72.3889 99.0306L65.8823 94.3762L59.3756 89.7218L58.9847 90.2683L65.4913 94.9227ZM65.8823 94.3762L61.2279 100.883C61.7402 101.249 62.6893 101.903 63.8896 102.379C65.2588 102.922 67.3043 103.372 69.6481 102.738C71.8087 102.154 73.2124 100.909 73.9179 100.191C74.6151 99.4823 75.1652 98.7246 75.477 98.2887L68.9703 93.6343L62.4637 88.9799C62.1983 89.3509 62.2626 89.2243 62.5084 88.9743C62.7626 88.7158 63.7494 87.7583 65.471 87.2927C67.3757 86.7776 68.96 87.1775 69.7891 87.5064C70.4492 87.7682 70.7791 88.043 70.5367 87.8695L65.8823 94.3762ZM68.9703 93.6343L75.477 98.2887L81.6394 89.6739L75.1327 85.0195L68.6261 80.3651L62.4637 88.9799L68.9703 93.6343ZM75.1327 85.0195L81.6394 89.6739C81.8085 89.4375 82.2766 88.7995 82.6205 88.242C82.8123 87.931 83.1461 87.3633 83.4331 86.635C83.7108 85.9302 84.1342 84.609 84.0266 82.9271C83.7407 78.4588 80.3937 76.4188 79.0786 75.8095C77.8932 75.2602 76.6946 75.0309 76.2735 74.9475L74.7176 82.7947L73.1618 90.6419C73.6538 90.7395 73.1079 90.6771 72.3519 90.3268C71.9145 90.1241 70.9205 89.6105 69.9732 88.5434C68.8778 87.3094 68.1712 85.6996 68.0592 83.9485C67.9615 82.4211 68.3482 81.2741 68.5473 80.7688C68.7557 80.24 68.9689 79.8972 69.0028 79.8421C69.031 79.7965 69.0342 79.7946 68.6261 80.3651L75.1327 85.0195ZM74.7176 82.7947L82.5904 84.2156L82.7099 83.5536L74.8371 82.1326L66.9643 80.7117L66.8449 81.3738L74.7176 82.7947ZM74.8371 82.1326L73.3378 89.9909L76.9382 90.6778L78.4376 82.8196L79.9369 74.9613L76.3365 74.2744L74.8371 82.1326ZM78.4376 82.8196L70.5455 84.1293L70.6344 84.6651L78.5265 83.3553L86.4185 82.0456L86.3296 81.5098L78.4376 82.8196ZM78.5265 83.3553L72.0198 78.7009L63.9212 90.0225L70.4278 94.6769L76.9345 99.3313L85.0331 88.0097L78.5265 83.3553ZM82.8987 86.1522L89.6861 90.3868L91.4401 87.5754L90.6924 84.3472L82.8987 86.1522ZM81.5267 88.3513L74.7394 84.1167L70.5048 90.904L77.2921 95.1386L81.5267 88.3513ZM81.6082 88.4021L77.3735 95.1895L80.9683 97.4322L84.8434 95.7188L81.6082 88.4021ZM82.4321 105.097L89.2194 109.331L93.454 102.544L86.6667 98.3095L82.4321 105.097ZM82.0764 105.667L77.8418 112.454L84.6291 116.689L88.8637 109.902L82.0764 105.667ZM77.0537 102.533L70.2664 98.2988L66.0318 105.086L72.8191 109.321L77.0537 102.533ZM77.4094 101.963L81.6441 95.1759L74.8567 90.9413L70.6221 97.7286L77.4094 101.963ZM85.5977 89.0807L81.3631 95.8681L85.5977 89.0807ZM80.9508 89.2744L78.2752 81.7351L75.6423 82.6695L74.1635 85.0398L80.9508 89.2744ZM75.9705 101.066L82.7579 105.3L86.9925 98.5128L80.2052 94.2782L75.9705 101.066ZM75.6148 101.636L71.3802 108.423L78.1676 112.658L82.4022 105.87L75.6148 101.636ZM70.6193 98.519L63.832 94.2844L59.5974 101.072L66.3847 105.306L70.6193 98.519ZM70.975 97.9488L75.2097 91.1615L68.4223 86.9269L64.1877 93.7142L70.975 97.9488ZM79.6168 88.0272L72.8294 83.7926L79.6168 88.0272ZM79.0621 85.833L71.1154 84.9116L70.2097 92.7231L78.0044 93.7628L79.0621 85.833ZM79.1396 85.1647L80.1402 77.2275L72.1235 76.2169L71.1929 84.2433L79.1396 85.1647ZM82.7762 85.6231L90.5699 83.8181L89.3113 78.3836L83.7768 77.686L82.7762 85.6231ZM82.8987 86.1522L76.1114 81.9176L74.7394 84.1167L81.5267 88.3513L88.3141 92.5859L89.6861 90.3868L82.8987 86.1522ZM81.5267 88.3513L77.2921 95.1386L77.3735 95.1895L81.6082 88.4021L85.8428 81.6148L85.7613 81.5639L81.5267 88.3513ZM81.6082 88.4021L84.8434 95.7188C85.3222 95.507 85.3556 95.5658 85.0386 95.5925C84.6289 95.6269 83.6426 95.593 82.5868 94.9343L86.8215 88.147L91.0561 81.3596C85.9949 78.202 80.723 80.0463 78.3729 81.0855L81.6082 88.4021ZM86.8215 88.147L82.5868 94.9343C82.2236 94.7077 81.5972 94.2181 81.0665 93.3473C80.5157 92.4435 80.2818 91.4782 80.2606 90.641C80.2251 89.2335 80.7818 88.6385 80.425 89.2104L87.2124 93.445L93.9997 97.6796C94.998 96.0795 96.3366 93.4453 96.2555 90.2367C96.1564 86.3154 94.017 83.207 91.0561 81.3596L86.8215 88.147ZM87.2124 93.445L80.425 89.2104L75.1233 97.7081L81.9106 101.943L88.698 106.177L93.9997 97.6796L87.2124 93.445ZM81.9106 101.943L75.1233 97.7081C74.8407 98.161 74.3469 98.9644 73.9563 99.8875C73.5589 100.826 72.9464 102.615 73.2493 104.851C73.5759 107.26 74.7871 108.967 75.8026 110.007C76.6975 110.924 77.6595 111.549 78.1975 111.884L82.4321 105.097L86.6667 98.3095C86.4037 98.1455 86.7688 98.3361 87.2517 98.8308C87.8552 99.449 88.8393 100.745 89.1044 102.702C89.3459 104.484 88.8377 105.777 88.6913 106.123C88.5516 106.453 88.4554 106.566 88.698 106.177L81.9106 101.943ZM82.4321 105.097L75.6447 100.862L75.289 101.432L82.0764 105.667L88.8637 109.902L89.2194 109.331L82.4321 105.097ZM82.0764 105.667L86.311 98.8797L81.2884 95.746L77.0537 102.533L72.8191 109.321L77.8418 112.454L82.0764 105.667ZM77.0537 102.533L83.8411 106.768L84.1968 106.198L77.4094 101.963L70.6221 97.7286L70.2664 98.2988L77.0537 102.533ZM77.4094 101.963L73.1748 108.751C73.7059 109.082 74.6993 109.677 75.9387 110.075C77.36 110.532 79.434 110.833 81.7233 110.038C83.8208 109.31 85.1281 107.986 85.7772 107.234C86.422 106.487 86.92 105.702 87.2047 105.246L80.4174 101.011L73.6301 96.7765C73.3897 97.1617 73.4426 97.0372 73.6667 96.7776C73.8952 96.513 74.8063 95.5026 76.4765 94.9228C78.3386 94.2765 79.9542 94.5602 80.8305 94.8416C81.525 95.0646 81.8868 95.3273 81.6441 95.1759L77.4094 101.963ZM80.4174 101.011L87.2047 105.246L92.5065 96.748L85.7191 92.5133L78.9318 88.2787L73.6301 96.7765L80.4174 101.011ZM85.7191 92.5133L92.5065 96.748C93.3175 95.448 94.5295 93.1341 94.4474 90.2308C94.3447 86.595 92.3151 83.8424 89.8323 82.2934L85.5977 89.0807L81.3631 95.8681C80.8136 95.5253 80.0485 94.9052 79.4212 93.8901C78.7702 92.8365 78.4826 91.7028 78.4538 90.6828C78.404 88.9217 79.1201 87.9769 78.9318 88.2787L85.7191 92.5133ZM85.5977 89.0807L89.8323 82.2934C87.2373 80.6744 84.5519 80.567 82.835 80.7042C81.0628 80.8458 79.4596 81.3147 78.2752 81.7351L80.9508 89.2744L83.6264 96.8137C84.1375 96.6323 84.2741 96.6402 84.1095 96.6534C84.0004 96.6621 82.7906 96.7587 81.3631 95.8681L85.5977 89.0807ZM80.9508 89.2744L74.1635 85.0398L68.7432 93.7276L75.5305 97.9622L82.3179 102.197L87.7382 93.509L80.9508 89.2744ZM75.5305 97.9622L68.7432 93.7276C68.4573 94.1858 67.9749 94.9726 67.5893 95.8722C67.2031 96.7733 66.5878 98.513 66.8386 100.701C67.3786 105.41 71.2964 107.579 71.7359 107.853L75.9705 101.066L80.2052 94.2782C79.9728 94.1332 80.3833 94.3523 80.9004 94.8943C81.5558 95.5811 82.5103 96.9226 82.7345 98.8781C82.9341 100.619 82.4282 101.866 82.2955 102.175C82.1634 102.484 82.0786 102.58 82.3179 102.197L75.5305 97.9622ZM75.9705 101.066L69.1832 96.8309L68.8275 97.401L75.6148 101.636L82.4022 105.87L82.7579 105.3L75.9705 101.066ZM75.6148 101.636L79.8494 94.8483L74.854 91.7316L70.6193 98.519L66.3847 105.306L71.3802 108.423L75.6148 101.636ZM70.6193 98.519L77.4067 102.754L77.7624 102.183L70.975 97.9488L64.1877 93.7142L63.832 94.2844L70.6193 98.519ZM70.975 97.9488L66.7404 104.736C67.2749 105.07 68.2633 105.662 69.4912 106.061C70.892 106.517 72.9618 106.837 75.2609 106.056C77.3803 105.337 78.7027 104.006 79.3615 103.245C80.0126 102.494 80.5138 101.703 80.7975 101.248L74.0101 97.0136L67.2228 92.779C66.9814 93.166 67.0375 93.0356 67.2671 92.7706C67.5044 92.4965 68.4289 91.4787 70.1177 90.9055C71.9861 90.2712 73.5925 90.5704 74.4406 90.8463C75.1159 91.0659 75.4626 91.3193 75.2097 91.1615L70.975 97.9488ZM74.0101 97.0136L80.7975 101.248L86.4041 92.2618L79.6168 88.0272L72.8294 83.7926L67.2228 92.779L74.0101 97.0136ZM79.6168 88.0272L86.4041 92.2618C86.5579 92.0152 86.9849 91.3489 87.2929 90.7709C87.4648 90.4484 87.762 89.8607 88.0025 89.1158C88.2352 88.3949 88.5744 87.0496 88.3609 85.3778C87.7937 80.9365 84.3246 79.1117 82.9737 78.5866C81.756 78.1132 80.5454 77.96 80.1198 77.9032L79.0621 85.833L78.0044 93.7628C78.5016 93.8291 77.9529 93.8013 77.1763 93.4994C76.727 93.3247 75.7026 92.8747 74.6899 91.8696C73.5187 90.7072 72.712 89.1451 72.4898 87.4046C72.2959 85.8864 72.6094 84.7173 72.7763 84.2004C72.9508 83.6596 73.142 83.3039 73.1724 83.2468C73.1976 83.1995 73.2007 83.1975 72.8294 83.7926L79.6168 88.0272ZM79.0621 85.833L87.0089 86.7544L87.0864 86.0861L79.1396 85.1647L71.1929 84.2433L71.1154 84.9116L79.0621 85.833ZM79.1396 85.1647L78.1391 93.1019L81.7756 93.5603L82.7762 85.6231L83.7768 77.686L80.1402 77.2275L79.1396 85.1647ZM82.7762 85.6231L74.9825 87.4282L75.105 87.9573L82.8987 86.1522L90.6924 84.3472L90.5699 83.8181L82.7762 85.6231ZM92.1911 102.927L95.9219 95.8502L88.8931 92.1446L85.1399 99.1481L92.1911 102.927ZM92.7855 103.24L99.8383 107.016L103.639 99.9184L96.5164 96.1636L92.7855 103.24ZM90.8554 92.4918L97.9322 96.2227L101.663 89.1459L94.5863 85.4151L90.8554 92.4918ZM88.5059 91.2532L81.4292 87.5223L77.6983 94.5991L84.7751 98.33L88.5059 91.2532ZM89.0133 90.2907L92.6617 83.1711L85.6243 79.5649L81.9366 86.5599L89.0133 90.2907ZM94.3744 87.9441L98.1052 80.8673L91.2278 77.2415L87.4071 84.0127L94.3744 87.9441ZM95.0538 88.3023L102.131 92.0331L105.861 84.9563L98.7846 81.2255L95.0538 88.3023ZM92.9197 92.3502L85.8429 88.6193L82.1121 95.6961L89.1889 99.4269L92.9197 92.3502ZM96.3449 94.1559L103.422 97.8868L107.153 90.81L100.076 87.0791L96.3449 94.1559ZM95.8375 95.1183L92.1066 102.195L99.1834 105.926L102.914 98.8492L95.8375 95.1183ZM92.4123 93.3126L96.1432 86.2358L89.0664 82.505L85.3355 89.5818L92.4123 93.3126ZM92.1911 102.927L88.4602 110.004L89.0547 110.317L92.7855 103.24L96.5164 96.1636L95.9219 95.8502L92.1911 102.927ZM92.7855 103.24L85.7328 99.4642C85.1993 100.461 84.789 101.157 84.4655 101.639C84.1201 102.154 84.0387 102.175 84.2333 102.002C84.4555 101.805 85.2779 101.149 86.676 100.921C88.1766 100.677 89.3712 101.079 89.9908 101.405L86.26 108.482L82.5291 115.559C84.3518 116.52 86.669 117.134 89.2507 116.713C91.7297 116.309 93.5912 115.088 94.8495 113.973C97.086 111.989 98.6977 109.147 99.8383 107.016L92.7855 103.24ZM86.26 108.482L89.9908 101.405C90.335 101.587 91.0129 102.023 91.6236 102.875C92.2703 103.777 92.5558 104.747 92.6179 105.54C92.6729 106.243 92.5413 106.629 92.5652 106.548C92.5864 106.477 92.6949 106.157 93.0224 105.536L85.9456 101.805L78.8689 98.074C77.6746 100.339 76.4024 103.414 76.6667 106.789C77.0019 111.07 79.5861 114.007 82.5291 115.559L86.26 108.482ZM85.9456 101.805L93.0224 105.536L97.9322 96.2227L90.8554 92.4918L83.7787 88.761L78.8689 98.074L85.9456 101.805ZM90.8554 92.4918L94.5863 85.4151L92.2368 84.1764L88.5059 91.2532L84.7751 98.33L87.1246 99.5686L90.8554 92.4918ZM88.5059 91.2532L95.5827 94.984L96.0901 94.0216L89.0133 90.2907L81.9366 86.5599L81.4292 87.5223L88.5059 91.2532ZM89.0133 90.2907L85.365 97.4104C87.4162 98.4615 91.1735 99.8532 95.3138 97.9641C98.6862 96.4253 100.478 93.4057 101.342 91.8755L94.3744 87.9441L87.4071 84.0127C87.1152 84.53 87.0162 84.626 87.0999 84.528C87.1942 84.4176 87.6959 83.8531 88.6721 83.4077C89.7645 82.9092 90.8749 82.8199 91.7481 82.9407C92.4738 83.0411 92.8298 83.2572 92.6617 83.1711L89.0133 90.2907ZM94.3744 87.9441L90.6435 95.0209L91.3229 95.379L95.0538 88.3023L98.7846 81.2255L98.1052 80.8673L94.3744 87.9441ZM95.0538 88.3023L87.977 84.5714L85.8429 88.6193L92.9197 92.3502L99.9965 96.081L102.131 92.0331L95.0538 88.3023ZM92.9197 92.3502L89.1889 99.4269L92.614 101.233L96.3449 94.1559L100.076 87.0791L96.6506 85.2734L92.9197 92.3502ZM96.3449 94.1559L89.2681 90.4251L88.7607 91.3875L95.8375 95.1183L102.914 98.8492L103.422 97.8868L96.3449 94.1559ZM95.8375 95.1183L99.5683 88.0416L96.1432 86.2358L92.4123 93.3126L88.6815 100.389L92.1066 102.195L95.8375 95.1183ZM92.4123 93.3126L85.3355 89.5818L80.9779 97.8474L88.0547 101.578L95.1315 105.309L99.4891 97.0435L92.4123 93.3126ZM88.0547 101.578L80.9779 97.8474C80.3398 99.0578 79.1058 101.335 78.6288 103.62C78.3578 104.919 78.1401 107.021 79.0041 109.322C79.9496 111.839 81.7667 113.493 83.5836 114.451L87.3144 107.374L91.0453 100.297C92.013 100.807 93.3022 101.885 93.9823 103.695C94.5811 105.29 94.3608 106.556 94.2913 106.889C94.2193 107.234 94.1546 107.295 94.3353 106.893C94.4995 106.528 94.7452 106.042 95.1315 105.309L88.0547 101.578ZM87.3144 107.374L83.5836 114.451C85.1469 115.275 87.2635 115.864 89.6859 115.45C91.9672 115.06 93.6461 113.925 94.7316 112.964C96.6708 111.247 98.1148 108.81 99.2423 106.706L92.1911 102.927L85.1399 99.1481C84.6608 100.042 84.3121 100.614 84.0742 100.963C83.8125 101.347 83.8256 101.25 84.1264 100.984C84.4404 100.706 85.4017 99.9502 86.9884 99.6789C88.7162 99.3833 90.1614 99.8311 91.0453 100.297L87.3144 107.374ZM90.3188 110.128L82.995 106.909L79.7759 114.233L87.0997 117.452L90.3188 110.128ZM92.8425 104.386L96.0615 97.0625L88.7377 93.8435L85.5187 101.167L92.8425 104.386ZM93.4577 104.657L101.087 107.064L103.246 100.22L96.6767 97.3329L93.4577 104.657ZM96.8935 103.44L104.22 100.228L104.216 100.219L104.213 100.211L96.8935 103.44ZM103.135 97.8295L106.354 90.5057L103.135 97.8295ZM103.843 97.0923L107.062 89.7685L99.7386 86.5495L96.5195 93.8732L103.843 97.0923ZM104.459 97.3627L111.782 100.582L115.001 93.2579L107.678 90.0389L104.459 97.3627ZM102.398 102.05L99.1793 109.374L106.503 112.593L109.722 105.269L102.398 102.05ZM101.783 101.78L94.0428 99.758L92.319 106.358L98.5641 109.103L101.783 101.78ZM100.37 96.4047L97.1514 103.729L100.37 96.4047ZM97.6879 97.4977L90.3641 94.2787L97.6879 97.4977ZM98.7211 103.02L91.4801 106.422L91.4813 106.424L98.7211 103.02ZM99.6799 110.223L92.3561 107.004L99.6799 110.223ZM94.6429 112.378L97.8619 105.055L94.6429 112.378ZM90.934 110.399L87.7149 117.722L95.0387 120.941L98.2577 113.618L90.934 110.399ZM90.3188 110.128L97.6425 113.347L100.166 107.605L92.8425 104.386L85.5187 101.167L82.995 106.909L90.3188 110.128ZM92.8425 104.386L89.6234 111.71L90.2386 111.98L93.4577 104.657L96.6767 97.3329L96.0615 97.0625L92.8425 104.386ZM93.4577 104.657L85.8284 102.25C85.078 104.628 84.6319 107.529 85.2497 110.467C85.917 113.64 87.9223 116.975 91.7737 118.667L94.9928 111.344L98.2118 104.02C98.9643 104.351 99.6496 104.892 100.158 105.576C100.642 106.227 100.834 106.825 100.907 107.173C101.033 107.771 100.859 107.786 101.087 107.064L93.4577 104.657ZM94.9928 111.344L91.7737 118.667C94.2828 119.77 97.5205 120.051 100.583 118.392C103.257 116.944 104.628 114.632 105.309 113.082L97.9856 109.863L90.6618 106.644C90.7252 106.499 91.2881 105.23 92.9646 104.322C93.8628 103.836 94.8906 103.567 95.9379 103.565C96.9464 103.563 97.7277 103.807 98.2118 104.02L94.9928 111.344ZM97.9856 109.863L105.309 113.082C106.637 110.062 106.495 107.206 105.961 104.965C105.507 103.059 104.646 101.2 104.22 100.228L96.8935 103.44L89.567 106.653C89.7122 106.984 89.8282 107.247 89.9421 107.511C90.0525 107.767 90.1397 107.975 90.2114 108.156C90.3617 108.534 90.3965 108.674 90.3964 108.673C90.3917 108.653 90.3312 108.393 90.3509 107.976C90.3722 107.525 90.479 107.06 90.6618 106.644L97.9856 109.863ZM96.8935 103.44L104.213 100.211C103.945 99.6033 103.777 99.2169 103.65 98.8867C103.527 98.5684 103.51 98.4741 103.52 98.5189C103.534 98.5839 103.586 98.8555 103.559 99.2624C103.53 99.6936 103.424 100.115 103.266 100.474L95.9421 97.2547L88.6183 94.0357C86.0885 99.7913 88.8719 105.078 89.5742 106.67L96.8935 103.44ZM95.9421 97.2547L103.266 100.474C102.893 101.322 102.106 102.221 100.892 102.707C99.6567 103.201 98.4107 103.094 97.5013 102.694L100.72 95.3701L103.939 88.0463C97.8334 85.3625 91.1764 88.2155 88.6183 94.0357L95.9421 97.2547ZM100.72 95.3701L97.5013 102.694C97.1826 102.554 96.8038 102.323 96.4329 101.985C96.068 101.652 95.8345 101.328 95.714 101.14C95.6618 101.058 95.6365 101.01 95.6614 101.055C95.6836 101.095 95.6846 101.097 95.733 101.186C95.7665 101.246 95.8282 101.358 95.9008 101.484C96.0172 101.685 96.3377 102.233 96.8334 102.827C97.3378 103.431 98.328 104.455 99.9158 105.153L103.135 97.8295L106.354 90.5057C107.824 91.1521 108.71 92.087 109.113 92.57C109.508 93.0427 109.732 93.4394 109.746 93.4645C109.768 93.5021 109.777 93.52 109.756 93.482C109.75 93.4712 109.695 93.3693 109.657 93.3012C109.562 93.1296 109.403 92.8481 109.196 92.5234C108.765 91.8487 108.133 91 107.212 90.1612C106.286 89.3167 105.195 88.5984 103.939 88.0463L100.72 95.3701ZM103.135 97.8295L99.9158 105.153C101.102 105.675 103.098 106.214 105.445 105.576C107.705 104.961 109.072 103.578 109.721 102.779C110.343 102.014 110.707 101.289 110.838 101.026C110.99 100.719 111.126 100.405 111.167 100.311L103.843 97.0923L96.5195 93.8732C96.4321 94.0721 96.4554 94.0147 96.5006 93.9236C96.5246 93.875 96.7879 93.3244 97.3052 92.688C97.8499 92.0179 99.1082 90.7182 101.246 90.1368C103.469 89.5322 105.328 90.0549 106.354 90.5057L103.135 97.8295ZM103.843 97.0923L100.624 104.416L101.239 104.686L104.459 97.3627L107.678 90.0389L107.062 89.7685L103.843 97.0923ZM104.459 97.3627L97.1347 94.1436L95.0745 98.8309L102.398 102.05L109.722 105.269L111.782 100.582L104.459 97.3627ZM102.398 102.05L105.617 94.7261L105.002 94.4557L101.783 101.78L98.5641 109.103L99.1793 109.374L102.398 102.05ZM101.783 101.78L109.524 103.801C110.025 101.879 110.351 99.3729 109.778 96.7768C109.158 93.9621 107.34 90.7294 103.589 89.081L100.37 96.4047L97.1514 103.729C96.2912 103.35 95.5344 102.739 94.9805 101.988C94.4569 101.278 94.2415 100.62 94.154 100.223C94.0019 99.5334 94.155 99.3282 94.0428 99.758L101.783 101.78ZM100.37 96.4047L103.589 89.081C100.598 87.7661 97.3624 87.9638 94.6998 89.4643C92.414 90.7525 91.0613 92.6924 90.3641 94.2787L97.6879 97.4977L105.012 100.717C104.649 101.541 103.935 102.626 102.555 103.403C101.797 103.831 100.853 104.147 99.789 104.198C98.7221 104.25 97.8159 104.021 97.1514 103.729L100.37 96.4047ZM97.6879 97.4977L90.3641 94.2787C89.0737 97.2145 89.3141 99.9929 89.7933 101.962C90.232 103.764 91.0117 105.424 91.4801 106.422L98.7211 103.02L105.962 99.619C105.725 99.1147 105.569 98.7691 105.457 98.4902C105.344 98.2125 105.328 98.1295 105.34 98.1786C105.353 98.2345 105.422 98.5344 105.407 99.0032C105.39 99.5067 105.28 100.107 105.012 100.717L97.6879 97.4977ZM98.7211 103.02L91.4813 106.424C91.8284 107.162 92.0327 107.644 92.1563 107.981C92.2769 108.309 92.2674 108.359 92.2472 108.227C92.2206 108.053 92.2046 107.764 92.2543 107.431C92.3012 107.117 92.3782 106.954 92.3561 107.004L99.6799 110.223L107.004 113.442C108.033 111.101 108.49 108.592 108.063 105.803C107.703 103.456 106.757 101.309 105.961 99.6164L98.7211 103.02ZM99.6799 110.223L92.3561 107.004C92.5508 106.561 93.2264 105.549 94.6672 105.018C96.0064 104.523 97.1779 104.754 97.8619 105.055L94.6429 112.378L91.4238 119.702C93.9241 120.801 97.0733 121.184 100.207 120.028C103.441 118.834 105.727 116.346 107.004 113.442L99.6799 110.223ZM94.6429 112.378L97.8619 105.055C98.067 105.145 98.3184 105.294 98.5705 105.507C98.8163 105.714 98.9702 105.905 99.026 105.979C99.0459 106.006 99.0454 106.007 98.9925 105.929C98.983 105.915 98.8079 105.654 98.6697 105.46C98.5214 105.252 98.1823 104.785 97.6973 104.286C97.2097 103.784 96.3167 102.977 94.9787 102.389L91.7597 109.713L88.5406 117.037C87.3418 116.51 86.5791 115.804 86.2212 115.435C85.8659 115.069 85.6557 114.768 85.6435 114.751C85.6415 114.748 85.6099 114.703 85.7592 114.923C85.865 115.078 86.0386 115.331 86.256 115.619C86.7067 116.216 87.3489 116.971 88.2406 117.725C89.1385 118.484 90.1934 119.161 91.4238 119.702L94.6429 112.378ZM91.7597 109.713L94.9787 102.389C93.868 101.901 92.2383 101.47 90.3105 101.764C88.3609 102.062 86.9046 102.98 85.9538 103.837C84.4215 105.219 83.7351 106.895 83.6102 107.18L90.934 110.399L98.2577 113.618C98.2556 113.622 98.1663 113.83 97.9901 114.125C97.8322 114.39 97.4189 115.043 96.6693 115.719C95.8488 116.459 94.5286 117.305 92.7266 117.581C90.9463 117.853 89.4756 117.448 88.5406 117.037L91.7597 109.713ZM90.934 110.399L94.153 103.075L93.5378 102.804L90.3188 110.128L87.0997 117.452L87.7149 117.722L90.934 110.399Z" fill="#53DBBE" mask="url(#path-1-outside-1_520_111)"/>
</svg>
