<svg width="194" height="149" viewBox="0 0 194 149" fill="none" xmlns="http://www.w3.org/2000/svg">
<g clip-path="url(#clip0_785_104)">
<mask id="path-1-outside-1_785_104" maskUnits="userSpaceOnUse" x="-4.76687" y="6.64694" width="198.745" height="141.172" fill="black">
<rect fill="white" x="-4.76687" y="6.64694" width="198.745" height="141.172"/>
<path d="M49.095 34.6325L49.0715 35.3041C47.2166 35.2392 46.6915 35.6051 46.1767 37.5082L39.6678 60.6549L38.7084 60.6214L35.4406 45.1057L30.6493 60.3396L29.7859 60.3094L24.7178 36.7579C24.3063 34.7903 23.8069 34.4206 21.9521 34.3558L21.9755 33.6842L29.5869 33.9503L29.5634 34.6219C26.5253 34.5157 26.5107 34.9314 26.8925 36.8339L30.9361 55.8028L31.032 55.8062L35.0027 42.9771L33.7683 37.0744C33.3876 35.1399 32.8894 34.7382 31.0345 34.6734L31.058 34.0018L38.6693 34.2679L38.6459 34.9395C35.6077 34.8333 35.5612 35.2479 35.9749 37.1515L39.8653 55.9229L39.9613 55.9263L45.0894 37.4702C45.6031 35.599 45.5856 35.1822 42.5475 35.0759L42.571 34.4043L49.095 34.6325ZM52.6701 37.6403C51.8475 37.5154 51.3108 36.7866 51.4357 35.964C51.5558 35.1731 52.2895 34.6048 53.112 34.7297C53.903 34.8498 54.4665 35.615 54.3464 36.406C54.2215 37.2286 53.461 37.7604 52.6701 37.6403ZM50.7731 57.8081C50.4753 59.7696 50.6343 60.2145 52.4692 60.4931L52.3684 61.1575L46.4838 60.264L46.5847 59.5997C48.4197 59.8783 48.7036 59.5006 49.0014 57.5391L50.5914 47.0671C50.8893 45.1056 51.0054 44.7672 49.2133 45.2719L49.0198 44.6275L52.5407 43.6085L52.8627 44.0458L50.7731 57.8081ZM57.1004 58.9996C56.7111 60.945 56.8491 61.3969 58.669 61.7611L58.5371 62.42L52.7008 61.252L52.8327 60.593C54.6526 60.9573 54.9539 60.5933 55.3433 58.6479L59.1615 39.5702C59.5571 37.5934 59.689 37.2608 57.8689 37.7124L57.7121 37.0284L61.2706 36.2067L61.578 36.6273L57.1004 58.9996ZM72.0752 64.6905L72.1895 65.3535L68.5799 65.9089L68.3353 65.4753L69.0655 62.8552L68.9422 62.8208C67.216 64.3661 65.8056 65.1358 64.141 64.6719C60.9352 63.7785 60.159 60.0077 61.4733 55.2914C62.8306 50.421 65.7408 46.4152 69.5939 47.489C71.1044 47.9099 72.0009 49.2228 72.4486 50.477L72.5102 50.4942L74.4603 43.4968C75.0015 41.5548 75.1576 41.2329 73.3177 41.5174L73.2035 40.8544L76.8131 40.2991L77.0577 40.7326L70.9327 62.7111C70.3915 64.6531 70.2353 64.975 72.0752 64.6905ZM69.4263 61.5605L71.1873 55.2413C72.1752 51.6964 71.4905 49.147 69.5176 48.5972C66.5584 47.7725 64.5957 51.4776 63.582 55.115C62.3966 59.3689 62.625 62.7213 65.0294 63.3913C66.8789 63.9068 68.1766 62.7071 69.4263 61.5605ZM102.945 51.6003L102.739 52.2097L101.188 56.9523L100.55 56.7334C101.845 52.7883 101.592 52.1821 99.8143 51.3768L93.0224 48.3007L88.6789 57.8909L93.1679 59.924C94.946 60.7294 95.4438 60.6387 96.8432 57.5488L97.4845 57.8392L93.9991 65.5347L93.3578 65.2443C94.7573 62.1544 94.4971 61.7205 92.719 60.9151L88.23 58.882L84.1109 67.9766C83.4904 69.3467 83.5915 69.7438 84.7284 70.2587L90.4417 72.8463C92.2198 73.6517 93.0245 73.3487 96.327 69.4697L96.86 69.9218L92.8831 74.5141L92.4997 74.9728L78.0706 68.4377L78.3479 67.8255C81.1462 69.0929 81.5643 68.7905 82.3696 67.0123L90.3966 49.2894C91.2019 47.5113 91.1536 46.9975 88.3552 45.7301L88.6325 45.118L102.945 51.6003ZM99.2933 75.1624C98.3163 76.8891 98.3064 77.3615 99.9218 78.2755L99.5909 78.8603L94.4105 75.9294L94.7414 75.3445C96.3568 76.2585 96.7566 76.0067 97.7336 74.2799L107.314 57.3463C108.307 55.5917 108.536 55.3168 106.666 55.178L106.73 54.4791L110.368 54.8089L110.528 55.3043L99.2933 75.1624ZM112.111 78.8791L112.675 79.2448C109.512 83.1815 106.443 84.0904 104.349 82.7324C101.53 80.9043 101.984 76.8511 104.874 72.3942C107.555 68.2594 111.466 65.8752 114.392 67.773C116.889 69.3921 116.608 73.0614 114.014 77.062L107.033 72.5353L106.65 73.126C104.404 76.5896 103.626 80.3185 105.613 81.6068C106.928 82.4599 109.072 82.0954 112.111 78.8791ZM113.72 68.6336C112.002 67.5193 109.661 69.129 107.678 71.6573L113.021 75.1219C114.606 72.6786 115.546 69.8175 113.72 68.6336ZM126.066 95.1636C124.799 96.6908 124.706 97.154 126.159 98.3592L125.73 98.8765L121.198 95.118L121.627 94.6007C123.006 95.7446 123.444 95.5674 124.711 94.0402L131.125 86.3056C132.33 84.8523 132.418 83.8442 131.432 83.0272C130.349 82.1284 128.669 82.1488 126.883 82.4973L126.72 82.6943L120.326 90.4042C119.06 91.9314 118.967 92.3946 120.346 93.5385L119.917 94.0558L115.434 90.3381L115.863 89.8208C117.267 90.9852 117.705 90.8079 118.972 89.2807L125.386 81.5462C126.591 80.0929 126.654 79.0644 125.669 78.2473C124.609 77.3689 122.86 77.3731 121.099 77.742L114.562 85.6243C113.296 87.1515 113.178 87.5943 114.582 88.7586L114.153 89.2759L109.621 85.5174L110.05 85.0001C111.479 86.1849 111.916 86.0076 113.183 84.4804L119.944 76.3272C121.211 74.8 121.485 74.5699 119.689 74.0784L119.855 73.4266L123.398 74.3686L123.448 74.9093L121.793 76.9045L121.867 76.9658C123.837 76.3957 125.688 76.2683 127.043 77.3918C128.496 78.597 128.451 80.0557 127.483 81.6231L127.557 81.6844C129.576 81.1551 131.477 81.0686 132.832 82.1921C134.605 83.6628 134.093 85.4832 132.459 87.4538L126.066 95.1636ZM137.542 101.6L138.003 102.089C133.997 105.164 130.801 105.32 129.088 103.504C126.782 101.06 128.184 97.2301 132.048 93.5849C135.632 90.2031 139.996 88.8135 142.39 91.3507C144.432 93.5154 143.289 97.0135 139.821 100.285L134.111 94.2335L133.599 94.7166C130.597 97.5494 128.957 100.988 130.582 102.71C131.658 103.851 133.827 104.004 137.542 101.6ZM141.533 92.0275C140.127 90.5378 137.472 91.547 134.947 93.5335L139.317 98.1655C141.435 96.1672 143.026 93.6103 141.533 92.0275ZM149.351 100.058L147.306 101.651L147.365 101.727C149.411 101.593 151.286 101.917 152.348 103.28C153.765 105.098 152.913 106.816 150.893 108.39L142.993 114.546C141.428 115.765 141.237 116.198 142.397 117.687L141.867 118.1L138.229 113.43L138.759 113.017C139.88 114.456 140.346 114.377 141.911 113.157L149.812 107.001C151.301 105.841 151.685 104.771 150.878 103.736C150.032 102.651 148.247 102.338 146.448 102.32L138.371 108.614C136.806 109.833 136.615 110.266 137.717 111.679L137.186 112.092L133.568 107.448L134.098 107.035C135.238 108.499 135.704 108.42 137.269 107.2L145.624 100.69C147.189 99.4708 147.506 99.3049 145.858 98.4391L146.161 97.8382L149.418 99.5194L149.351 100.058ZM151.864 120.722L152.232 121.284C148.038 123.992 145.474 124.983 143.984 122.707C142.791 120.887 143.41 119.028 146.944 116.714L155.751 110.946L154.296 108.724L155.206 108.128C156.741 110.413 158.169 110.433 161.033 108.673L161.454 109.315L157.626 111.822L159.747 115.062L158.837 115.658L156.715 112.418L148.899 117.538C146.088 119.379 144.391 120.643 145.443 122.249C146.284 123.534 147.911 123.272 151.864 120.722ZM146.498 126.209L152.013 123.223L152.333 123.814C149.659 125.662 148.362 128.038 149.444 130.036C150.16 131.359 151.365 131.434 152.716 130.703C154.657 129.651 155.134 127.574 155.793 124.961C156.413 122.478 156.922 120.528 158.836 119.492C160.665 118.502 162.76 119.077 163.766 120.935C164.741 122.736 163.92 123.908 164.164 124.358C164.331 124.668 164.613 124.515 165.176 124.211L165.496 124.801L160.993 127.239L160.673 126.648C162.601 125.168 163.769 123.226 162.855 121.537C162.123 120.186 160.797 120.359 160.066 120.755C158.518 121.593 158.007 123.471 157.494 125.75C156.694 129.313 156 130.853 153.833 132.026C151.469 133.306 149.477 132.383 148.533 130.639C147.466 128.669 148.18 127.3 147.891 126.765C147.708 126.428 147.381 126.495 146.818 126.8L146.498 126.209Z"/>
</mask>
<path d="M49.095 34.6325L49.0715 35.3041C47.2166 35.2392 46.6915 35.6051 46.1767 37.5082L39.6678 60.6549L38.7084 60.6214L35.4406 45.1057L30.6493 60.3396L29.7859 60.3094L24.7178 36.7579C24.3063 34.7903 23.8069 34.4206 21.9521 34.3558L21.9755 33.6842L29.5869 33.9503L29.5634 34.6219C26.5253 34.5157 26.5107 34.9314 26.8925 36.8339L30.9361 55.8028L31.032 55.8062L35.0027 42.9771L33.7683 37.0744C33.3876 35.1399 32.8894 34.7382 31.0345 34.6734L31.058 34.0018L38.6693 34.2679L38.6459 34.9395C35.6077 34.8333 35.5612 35.2479 35.9749 37.1515L39.8653 55.9229L39.9613 55.9263L45.0894 37.4702C45.6031 35.599 45.5856 35.1822 42.5475 35.0759L42.571 34.4043L49.095 34.6325ZM52.6701 37.6403C51.8475 37.5154 51.3108 36.7866 51.4357 35.964C51.5558 35.1731 52.2895 34.6048 53.112 34.7297C53.903 34.8498 54.4665 35.615 54.3464 36.406C54.2215 37.2286 53.461 37.7604 52.6701 37.6403ZM50.7731 57.8081C50.4753 59.7696 50.6343 60.2145 52.4692 60.4931L52.3684 61.1575L46.4838 60.264L46.5847 59.5997C48.4197 59.8783 48.7036 59.5006 49.0014 57.5391L50.5914 47.0671C50.8893 45.1056 51.0054 44.7672 49.2133 45.2719L49.0198 44.6275L52.5407 43.6085L52.8627 44.0458L50.7731 57.8081ZM57.1004 58.9996C56.7111 60.945 56.8491 61.3969 58.669 61.7611L58.5371 62.42L52.7008 61.252L52.8327 60.593C54.6526 60.9573 54.9539 60.5933 55.3433 58.6479L59.1615 39.5702C59.5571 37.5934 59.689 37.2608 57.8689 37.7124L57.7121 37.0284L61.2706 36.2067L61.578 36.6273L57.1004 58.9996ZM72.0752 64.6905L72.1895 65.3535L68.5799 65.9089L68.3353 65.4753L69.0655 62.8552L68.9422 62.8208C67.216 64.3661 65.8056 65.1358 64.141 64.6719C60.9352 63.7785 60.159 60.0077 61.4733 55.2914C62.8306 50.421 65.7408 46.4152 69.5939 47.489C71.1044 47.9099 72.0009 49.2228 72.4486 50.477L72.5102 50.4942L74.4603 43.4968C75.0015 41.5548 75.1576 41.2329 73.3177 41.5174L73.2035 40.8544L76.8131 40.2991L77.0577 40.7326L70.9327 62.7111C70.3915 64.6531 70.2353 64.975 72.0752 64.6905ZM69.4263 61.5605L71.1873 55.2413C72.1752 51.6964 71.4905 49.147 69.5176 48.5972C66.5584 47.7725 64.5957 51.4776 63.582 55.115C62.3966 59.3689 62.625 62.7213 65.0294 63.3913C66.8789 63.9068 68.1766 62.7071 69.4263 61.5605ZM102.945 51.6003L102.739 52.2097L101.188 56.9523L100.55 56.7334C101.845 52.7883 101.592 52.1821 99.8143 51.3768L93.0224 48.3007L88.6789 57.8909L93.1679 59.924C94.946 60.7294 95.4438 60.6387 96.8432 57.5488L97.4845 57.8392L93.9991 65.5347L93.3578 65.2443C94.7573 62.1544 94.4971 61.7205 92.719 60.9151L88.23 58.882L84.1109 67.9766C83.4904 69.3467 83.5915 69.7438 84.7284 70.2587L90.4417 72.8463C92.2198 73.6517 93.0245 73.3487 96.327 69.4697L96.86 69.9218L92.8831 74.5141L92.4997 74.9728L78.0706 68.4377L78.3479 67.8255C81.1462 69.0929 81.5643 68.7905 82.3696 67.0123L90.3966 49.2894C91.2019 47.5113 91.1536 46.9975 88.3552 45.7301L88.6325 45.118L102.945 51.6003ZM99.2933 75.1624C98.3163 76.8891 98.3064 77.3615 99.9218 78.2755L99.5909 78.8603L94.4105 75.9294L94.7414 75.3445C96.3568 76.2585 96.7566 76.0067 97.7336 74.2799L107.314 57.3463C108.307 55.5917 108.536 55.3168 106.666 55.178L106.73 54.4791L110.368 54.8089L110.528 55.3043L99.2933 75.1624ZM112.111 78.8791L112.675 79.2448C109.512 83.1815 106.443 84.0904 104.349 82.7324C101.53 80.9043 101.984 76.8511 104.874 72.3942C107.555 68.2594 111.466 65.8752 114.392 67.773C116.889 69.3921 116.608 73.0614 114.014 77.062L107.033 72.5353L106.65 73.126C104.404 76.5896 103.626 80.3185 105.613 81.6068C106.928 82.4599 109.072 82.0954 112.111 78.8791ZM113.72 68.6336C112.002 67.5193 109.661 69.129 107.678 71.6573L113.021 75.1219C114.606 72.6786 115.546 69.8175 113.72 68.6336ZM126.066 95.1636C124.799 96.6908 124.706 97.154 126.159 98.3592L125.73 98.8765L121.198 95.118L121.627 94.6007C123.006 95.7446 123.444 95.5674 124.711 94.0402L131.125 86.3056C132.33 84.8523 132.418 83.8442 131.432 83.0272C130.349 82.1284 128.669 82.1488 126.883 82.4973L126.72 82.6943L120.326 90.4042C119.06 91.9314 118.967 92.3946 120.346 93.5385L119.917 94.0558L115.434 90.3381L115.863 89.8208C117.267 90.9852 117.705 90.8079 118.972 89.2807L125.386 81.5462C126.591 80.0929 126.654 79.0644 125.669 78.2473C124.609 77.3689 122.86 77.3731 121.099 77.742L114.562 85.6243C113.296 87.1515 113.178 87.5943 114.582 88.7586L114.153 89.2759L109.621 85.5174L110.05 85.0001C111.479 86.1849 111.916 86.0076 113.183 84.4804L119.944 76.3272C121.211 74.8 121.485 74.5699 119.689 74.0784L119.855 73.4266L123.398 74.3686L123.448 74.9093L121.793 76.9045L121.867 76.9658C123.837 76.3957 125.688 76.2683 127.043 77.3918C128.496 78.597 128.451 80.0557 127.483 81.6231L127.557 81.6844C129.576 81.1551 131.477 81.0686 132.832 82.1921C134.605 83.6628 134.093 85.4832 132.459 87.4538L126.066 95.1636ZM137.542 101.6L138.003 102.089C133.997 105.164 130.801 105.32 129.088 103.504C126.782 101.06 128.184 97.2301 132.048 93.5849C135.632 90.2031 139.996 88.8135 142.39 91.3507C144.432 93.5154 143.289 97.0135 139.821 100.285L134.111 94.2335L133.599 94.7166C130.597 97.5494 128.957 100.988 130.582 102.71C131.658 103.851 133.827 104.004 137.542 101.6ZM141.533 92.0275C140.127 90.5378 137.472 91.547 134.947 93.5335L139.317 98.1655C141.435 96.1672 143.026 93.6103 141.533 92.0275ZM149.351 100.058L147.306 101.651L147.365 101.727C149.411 101.593 151.286 101.917 152.348 103.28C153.765 105.098 152.913 106.816 150.893 108.39L142.993 114.546C141.428 115.765 141.237 116.198 142.397 117.687L141.867 118.1L138.229 113.43L138.759 113.017C139.88 114.456 140.346 114.377 141.911 113.157L149.812 107.001C151.301 105.841 151.685 104.771 150.878 103.736C150.032 102.651 148.247 102.338 146.448 102.32L138.371 108.614C136.806 109.833 136.615 110.266 137.717 111.679L137.186 112.092L133.568 107.448L134.098 107.035C135.238 108.499 135.704 108.42 137.269 107.2L145.624 100.69C147.189 99.4708 147.506 99.3049 145.858 98.4391L146.161 97.8382L149.418 99.5194L149.351 100.058ZM151.864 120.722L152.232 121.284C148.038 123.992 145.474 124.983 143.984 122.707C142.791 120.887 143.41 119.028 146.944 116.714L155.751 110.946L154.296 108.724L155.206 108.128C156.741 110.413 158.169 110.433 161.033 108.673L161.454 109.315L157.626 111.822L159.747 115.062L158.837 115.658L156.715 112.418L148.899 117.538C146.088 119.379 144.391 120.643 145.443 122.249C146.284 123.534 147.911 123.272 151.864 120.722ZM146.498 126.209L152.013 123.223L152.333 123.814C149.659 125.662 148.362 128.038 149.444 130.036C150.16 131.359 151.365 131.434 152.716 130.703C154.657 129.651 155.134 127.574 155.793 124.961C156.413 122.478 156.922 120.528 158.836 119.492C160.665 118.502 162.76 119.077 163.766 120.935C164.741 122.736 163.92 123.908 164.164 124.358C164.331 124.668 164.613 124.515 165.176 124.211L165.496 124.801L160.993 127.239L160.673 126.648C162.601 125.168 163.769 123.226 162.855 121.537C162.123 120.186 160.797 120.359 160.066 120.755C158.518 121.593 158.007 123.471 157.494 125.75C156.694 129.313 156 130.853 153.833 132.026C151.469 133.306 149.477 132.383 148.533 130.639C147.466 128.669 148.18 127.3 147.891 126.765C147.708 126.428 147.381 126.495 146.818 126.8L146.498 126.209Z" fill="#FFFEFC"/>
<path d="M49.095 34.6325L57.0901 34.912C57.2445 30.4965 53.7901 26.7918 49.3745 26.6374L49.095 34.6325ZM49.0715 35.3041L48.7919 43.2992C50.9124 43.3733 52.9754 42.6021 54.5272 41.1551C56.079 39.7082 56.9925 37.7041 57.0666 35.5836L49.0715 35.3041ZM46.1767 37.5082L53.878 39.6739C53.8852 39.6483 53.8922 39.6228 53.8991 39.5972L46.1767 37.5082ZM39.6678 60.6549L39.3883 68.65C43.0743 68.7789 46.3707 66.3711 47.3691 62.8205L39.6678 60.6549ZM38.7084 60.6214L30.8802 62.2701C31.6382 65.8694 34.7529 68.488 38.4289 68.6165L38.7084 60.6214ZM35.4406 45.1057L43.2689 43.457C42.5192 39.8974 39.4624 37.2918 35.829 37.1151C32.1957 36.9385 28.9006 39.2354 27.8092 42.7055L35.4406 45.1057ZM30.6493 60.3396L30.3698 68.3347C33.9647 68.4604 37.2016 66.1712 38.2808 62.7398L30.6493 60.3396ZM29.7859 60.3094L21.9649 61.9924C22.736 65.5755 25.8434 68.1764 29.5063 68.3045L29.7859 60.3094ZM24.7178 36.7579L16.8872 38.3955C16.8904 38.4107 16.8936 38.4258 16.8968 38.4409L24.7178 36.7579ZM21.9521 34.3558L13.9569 34.0762C13.8025 38.4918 17.2569 42.1965 21.6725 42.3509L21.9521 34.3558ZM21.9755 33.6842L22.2551 25.6891C20.1347 25.6149 18.0716 26.3862 16.5198 27.8331C14.968 29.28 14.0546 31.2842 13.9804 33.4046L21.9755 33.6842ZM29.5869 33.9503L37.582 34.2299C37.7364 29.8143 34.282 26.1096 29.8665 25.9552L29.5869 33.9503ZM29.5634 34.6219L29.2838 42.617C31.4043 42.6912 33.4673 41.9199 35.0191 40.473C36.5709 39.0261 37.4844 37.0219 37.5585 34.9015L29.5634 34.6219ZM26.8925 36.8339L19.0488 38.4078C19.0551 38.4392 19.0616 38.4705 19.0683 38.5018L26.8925 36.8339ZM30.9361 55.8028L23.1119 57.4707C23.8772 61.061 26.9878 63.6697 30.6565 63.7979L30.9361 55.8028ZM31.032 55.8062L30.7524 63.8013C34.3609 63.9275 37.6067 61.6208 38.6743 58.1716L31.032 55.8062ZM35.0028 42.9771L42.6451 45.3425C43.0464 44.0457 43.1112 42.6682 42.8333 41.3394L35.0028 42.9771ZM33.7683 37.0744L25.9188 38.6188C25.9249 38.6499 25.9312 38.681 25.9377 38.712L33.7683 37.0744ZM31.0345 34.6734L23.0394 34.3938C22.885 38.8094 26.3394 42.5141 30.7549 42.6685L31.0345 34.6734ZM31.058 34.0018L31.3376 26.0067C29.2171 25.9325 27.1541 26.7037 25.6023 28.1507C24.0505 29.5976 23.137 31.6018 23.0629 33.7222L31.058 34.0018ZM38.6693 34.2679L46.6645 34.5475C46.8189 30.1319 43.3645 26.4272 38.9489 26.2728L38.6693 34.2679ZM38.6459 34.9395L38.3663 42.9346C40.4867 43.0088 42.5498 42.2375 44.1016 40.7906C45.6534 39.3436 46.5668 37.3395 46.641 35.2191L38.6459 34.9395ZM35.9749 37.1515L43.8085 35.528C43.8032 35.5028 43.7979 35.4776 43.7924 35.4525L35.9749 37.1515ZM39.8653 55.9229L32.0318 57.5464C32.7802 61.1576 35.9002 63.7892 39.5858 63.918L39.8653 55.9229ZM39.9613 55.9263L39.6817 63.9214C43.377 64.0506 46.6794 61.6306 47.6692 58.068L39.9613 55.9263ZM45.0894 37.4702L52.7973 39.6119C52.7995 39.604 52.8017 39.5961 52.8039 39.5881L45.0894 37.4702ZM42.5475 35.0759L34.5524 34.7964C34.398 39.2119 37.8523 42.9166 42.2679 43.071L42.5475 35.0759ZM42.571 34.4043L42.8505 26.4092C40.7301 26.3351 38.667 27.1063 37.1152 28.5533C35.5634 30.0002 34.65 32.0043 34.5758 34.1248L42.571 34.4043ZM49.095 34.6325L41.0999 34.3529L41.0764 35.0245L49.0715 35.3041L57.0666 35.5836L57.0901 34.912L49.095 34.6325ZM49.0715 35.3041L49.3511 27.3089C48.3896 27.2753 45.1832 27.1176 42.3154 29.2728C39.5091 31.3817 38.718 34.4444 38.4542 35.4193L46.1767 37.5082L53.8991 39.5972C53.9751 39.3163 53.9404 39.5307 53.7394 39.9323C53.5016 40.4073 52.9628 41.2857 51.9277 42.0635C50.8802 42.8507 49.857 43.1355 49.27 43.2369C48.7827 43.321 48.5222 43.2897 48.7919 43.2992L49.0715 35.3041ZM46.1767 37.5082L38.4754 35.3426L31.9665 58.4893L39.6678 60.6549L47.3691 62.8205L53.878 39.6739L46.1767 37.5082ZM39.6678 60.6549L39.9474 52.6598L38.988 52.6263L38.7084 60.6214L38.4289 68.6165L39.3883 68.65L39.6678 60.6549ZM38.7084 60.6214L46.5367 58.9726L43.2689 43.457L35.4406 45.1057L27.6124 46.7544L30.8802 62.2701L38.7084 60.6214ZM35.4406 45.1057L27.8092 42.7055L23.0179 57.9394L30.6493 60.3396L38.2808 62.7398L43.0721 47.5059L35.4406 45.1057ZM30.6493 60.3396L30.9289 52.3445L30.0654 52.3143L29.7859 60.3094L29.5063 68.3045L30.3698 68.3347L30.6493 60.3396ZM29.7859 60.3094L37.6068 58.6264L32.5388 35.0749L24.7178 36.7579L16.8968 38.4409L21.9649 61.9924L29.7859 60.3094ZM24.7178 36.7579L32.5484 35.1202C32.3417 34.1317 31.7318 31.0181 29.0535 28.7445C26.332 26.4341 23.1215 26.3918 22.2316 26.3607L21.9521 34.3558L21.6725 42.3509C21.9687 42.3612 21.7228 42.375 21.262 42.2657C20.701 42.1326 19.6992 41.7913 18.6989 40.9421C17.709 40.1018 17.2244 39.1912 17.018 38.7089C16.8444 38.3032 16.8246 38.0961 16.8872 38.3955L24.7178 36.7579ZM21.9521 34.3558L29.9472 34.6353L29.9707 33.9637L21.9755 33.6842L13.9804 33.4046L13.9569 34.0762L21.9521 34.3558ZM21.9755 33.6842L21.696 41.6793L29.3073 41.9454L29.5869 33.9503L29.8665 25.9552L22.2551 25.6891L21.9755 33.6842ZM29.5869 33.9503L21.5918 33.6708L21.5683 34.3424L29.5634 34.6219L37.5585 34.9015L37.582 34.2299L29.5869 33.9503ZM29.5634 34.6219L29.843 26.6268C29.0165 26.5979 27.9029 26.579 26.8011 26.7191C25.8836 26.8359 23.4295 27.2223 21.3504 29.2567C18.94 31.6152 18.7013 34.4611 18.7225 35.798C18.7411 36.968 18.9857 38.0933 19.0488 38.4078L26.8925 36.8339L34.7361 35.2601C34.6084 34.6233 34.7116 34.9832 34.7205 35.5435C34.7321 36.2707 34.6152 38.6625 32.5406 40.6926C30.7972 42.3985 28.8925 42.582 28.8202 42.5912C28.5637 42.6239 28.5912 42.5928 29.2838 42.617L29.5634 34.6219ZM26.8925 36.8339L19.0683 38.5018L23.1119 57.4707L30.9361 55.8028L38.7603 54.1349L34.7167 35.166L26.8925 36.8339ZM30.9361 55.8028L30.6565 63.7979L30.7524 63.8013L31.032 55.8062L31.3116 47.8111L31.2156 47.8077L30.9361 55.8028ZM31.032 55.8062L38.6743 58.1716L42.6451 45.3425L35.0028 42.9771L27.3604 40.6117L23.3897 53.4408L31.032 55.8062ZM35.0028 42.9771L42.8333 41.3394L41.5989 35.4367L33.7683 37.0744L25.9377 38.712L27.1722 44.6148L35.0028 42.9771ZM33.7683 37.0744L41.6178 35.5299C41.4228 34.539 40.8475 31.4285 38.1953 29.1287C35.4851 26.7785 32.2755 26.7119 31.3141 26.6782L31.0345 34.6734L30.7549 42.6685C31.0246 42.6779 30.7626 42.6909 30.2824 42.5729C29.7039 42.4308 28.7031 42.0753 27.7131 41.2168C26.7349 40.3685 26.2587 39.4547 26.0547 38.9643C25.8823 38.5496 25.8626 38.3333 25.9188 38.6188L33.7683 37.0744ZM31.0345 34.6734L39.0296 34.9529L39.0531 34.2813L31.058 34.0018L23.0629 33.7222L23.0394 34.3938L31.0345 34.6734ZM31.058 34.0018L30.7784 41.9969L38.3898 42.263L38.6693 34.2679L38.9489 26.2728L31.3376 26.0067L31.058 34.0018ZM38.6693 34.2679L30.6742 33.9883L30.6507 34.6599L38.6459 34.9395L46.641 35.2191L46.6645 34.5475L38.6693 34.2679ZM38.6459 34.9395L38.9254 26.9444C38.097 26.9154 36.9858 26.8968 35.8865 27.0356C34.9767 27.1505 32.5351 27.5301 30.456 29.5397C28.0178 31.8964 27.7632 34.7616 27.7922 36.1544C27.8174 37.3647 28.0828 38.5071 28.1574 38.8506L35.9749 37.1515L43.7924 35.4525C43.6602 34.8441 43.7762 35.2209 43.7887 35.8213C43.805 36.6043 43.6744 39.0156 41.5759 41.044C39.8365 42.7252 37.9502 42.9021 37.8907 42.9096C37.6417 42.941 37.6756 42.9105 38.3663 42.9346L38.6459 34.9395ZM35.9749 37.1515L28.1414 38.775L32.0318 57.5464L39.8653 55.9229L47.6989 54.2994L43.8085 35.528L35.9749 37.1515ZM39.8653 55.9229L39.5858 63.918L39.6817 63.9214L39.9613 55.9263L40.2408 47.9312L40.1449 47.9278L39.8653 55.9229ZM39.9613 55.9263L47.6692 58.068L52.7973 39.6119L45.0894 37.4702L37.3814 35.3285L32.2533 53.7846L39.9613 55.9263ZM45.0894 37.4702L52.8039 39.5881C52.8953 39.2551 53.2215 38.1316 53.3131 36.9289C53.4192 35.535 53.3189 32.7001 51.066 30.2255C49.1402 28.1103 46.7599 27.5636 45.8512 27.3838C44.7648 27.1689 43.656 27.1098 42.827 27.0808L42.5475 35.0759L42.2679 43.071C42.958 43.0952 42.9907 43.128 42.746 43.0796C42.679 43.0664 40.8406 42.7608 39.2347 40.9969C37.3017 38.8737 37.2994 36.5005 37.3592 35.7144C37.4045 35.1194 37.5402 34.7498 37.3748 35.3523L45.0894 37.4702ZM42.5475 35.0759L50.5426 35.3555L50.5661 34.6839L42.571 34.4043L34.5758 34.1248L34.5524 34.7964L42.5475 35.0759ZM42.571 34.4043L42.2914 42.3995L48.8154 42.6276L49.095 34.6325L49.3745 26.6374L42.8505 26.4092L42.571 34.4043ZM51.4357 35.964L43.5264 34.7631L51.4357 35.964ZM54.3464 36.406L46.437 35.2051L54.3464 36.406ZM52.4692 60.4931L60.3786 61.6941C61.0418 57.3259 58.0384 53.247 53.6702 52.5838L52.4692 60.4931ZM52.3684 61.1575L51.1674 69.0669C53.2651 69.3854 55.4034 68.8575 57.1119 67.5995C58.8204 66.3414 59.9592 64.4561 60.2777 62.3585L52.3684 61.1575ZM46.4838 60.264L38.5745 59.0631C37.9112 63.4313 40.9147 67.5101 45.2829 68.1734L46.4838 60.264ZM46.5847 59.5997L47.7856 51.6903C45.6879 51.3718 43.5496 51.8996 41.8411 53.1577C40.1326 54.4158 38.9938 56.301 38.6753 58.3987L46.5847 59.5997ZM50.5914 47.0671L42.6821 45.8662L50.5914 47.0671ZM49.2133 45.2719L41.5512 47.5724C42.8064 51.7528 47.1807 54.1555 51.382 52.9723L49.2133 45.2719ZM49.0198 44.6275L46.7957 36.9429C44.7444 37.5366 43.0155 38.9259 41.9942 40.8013C40.9728 42.6768 40.7436 44.8828 41.3578 46.9281L49.0198 44.6275ZM52.5407 43.6085L58.9826 38.865C56.9953 36.1661 53.5362 34.9921 50.3166 35.9239L52.5407 43.6085ZM52.8627 44.0458L60.7721 45.2468C61.0906 43.1491 60.5627 41.0108 59.3046 39.3023L52.8627 44.0458ZM52.6701 37.6403L53.871 29.731C57.4167 30.2693 59.8834 33.6193 59.3451 37.165L51.4357 35.964L43.5264 34.7631C42.7382 39.9539 46.2784 44.7615 51.4692 45.5497L52.6701 37.6403ZM51.4357 35.964L59.3451 37.165C58.819 40.6297 55.5685 43.1944 51.9111 42.639L53.112 34.7297L54.313 26.8203C49.0105 26.0152 44.2926 29.7165 43.5264 34.7631L51.4357 35.964ZM53.112 34.7297L51.9111 42.639C48.3338 42.0959 45.8939 38.7823 46.437 35.2051L54.3464 36.406L62.2557 37.6069C63.0391 32.4478 59.4721 27.6037 54.313 26.8203L53.112 34.7297ZM54.3464 36.406L46.437 35.2051C46.9923 31.5477 50.4063 29.2049 53.871 29.731L52.6701 37.6403L51.4692 45.5497C56.5158 46.3159 61.4506 42.9094 62.2557 37.6069L54.3464 36.406ZM50.7731 57.8081L42.8637 56.6072C42.7833 57.137 42.6493 58.0637 42.6545 59.0581C42.6598 60.0645 42.7982 61.9353 43.9394 63.8607C45.1773 65.9494 46.957 67.0535 48.3172 67.619C49.5095 68.1147 50.6455 68.3079 51.2683 68.4025L52.4692 60.4931L53.6702 52.5838C53.3755 52.539 53.8035 52.5722 54.4592 52.8448C55.2828 53.1872 56.6973 54.0053 57.7033 55.7027C58.6127 57.2368 58.6524 58.6113 58.6543 58.9738C58.6562 59.3244 58.614 59.4599 58.6824 59.009L50.7731 57.8081ZM52.4692 60.4931L44.5599 59.2922L44.459 59.9566L52.3684 61.1575L60.2777 62.3585L60.3786 61.6941L52.4692 60.4931ZM52.3684 61.1575L53.5693 53.2482L47.6847 52.3547L46.4838 60.264L45.2829 68.1734L51.1674 69.0669L52.3684 61.1575ZM46.4838 60.264L54.3932 61.465L54.494 60.8006L46.5847 59.5997L38.6753 58.3987L38.5745 59.0631L46.4838 60.264ZM46.5847 59.5997L45.3838 67.509C46.0065 67.6036 47.1488 67.7562 48.4345 67.6368C49.9012 67.5005 51.9284 66.9744 53.7305 65.3474C55.3918 63.8475 56.0792 62.102 56.383 61.1426C56.6832 60.1945 56.8303 59.2699 56.9107 58.74L49.0014 57.5391L41.092 56.3382C41.0236 56.7891 41.0235 56.6472 41.1294 56.3129C41.2388 55.9672 41.6847 54.6666 43.0084 53.4715C44.473 52.1492 46.0665 51.7879 46.9546 51.7054C47.6617 51.6397 48.0803 51.7351 47.7856 51.6903L46.5847 59.5997ZM49.0014 57.5391L56.9107 58.74L58.5008 48.268L50.5914 47.0671L42.6821 45.8662L41.092 56.3382L49.0014 57.5391ZM50.5914 47.0671L58.5008 48.268C58.5444 47.9807 58.6726 47.1998 58.7266 46.547C58.7567 46.1829 58.797 45.5255 58.7228 44.7463C58.6511 43.9922 58.4298 42.6225 57.5717 41.1719C55.2923 37.3182 51.3842 37.0162 49.9358 37.0689C48.6302 37.1164 47.4578 37.4551 47.0446 37.5714L49.2133 45.2719L51.382 52.9723C51.8648 52.8364 51.3499 53.0281 50.5173 53.0584C50.0354 53.0759 48.9166 53.0683 47.5887 52.5463C46.053 51.9427 44.6937 50.8277 43.8004 49.3174C43.0212 48.0002 42.8462 46.8024 42.7947 46.2618C42.7409 45.696 42.7756 45.2937 42.7809 45.2292C42.7853 45.1758 42.7874 45.1727 42.6821 45.8662L50.5914 47.0671ZM49.2133 45.2719L56.8754 42.9713L56.6819 42.327L49.0198 44.6275L41.3578 46.9281L41.5512 47.5724L49.2133 45.2719ZM49.0198 44.6275L51.2439 52.3122L54.7648 51.2932L52.5407 43.6085L50.3166 35.9239L46.7957 36.9429L49.0198 44.6275ZM52.5407 43.6085L46.0988 48.3521L46.4208 48.7894L52.8627 44.0458L59.3046 39.3023L58.9826 38.865L52.5407 43.6085ZM52.8627 44.0458L44.9534 42.8449L42.8637 56.6072L50.7731 57.8081L58.6824 59.009L60.7721 45.2468L52.8627 44.0458ZM58.669 61.7611L66.5134 63.3311C66.9298 61.2506 66.5027 59.09 65.326 57.3244C64.1493 55.5589 62.3194 54.3331 60.239 53.9167L58.669 61.7611ZM58.5371 62.42L56.9671 70.2645C61.2995 71.1316 65.5144 68.3224 66.3815 63.99L58.5371 62.42ZM52.7008 61.252L44.8564 59.682C43.9893 64.0143 46.7985 68.2293 51.1308 69.0964L52.7008 61.252ZM52.8327 60.593L54.4027 52.7486C52.3222 52.3322 50.1616 52.7593 48.396 53.936C46.6305 55.1127 45.4047 56.9426 44.9883 59.023L52.8327 60.593ZM57.8689 37.7124L50.0712 39.4998C50.5507 41.5921 51.851 43.4039 53.6798 44.5279C55.5085 45.652 57.7122 45.9939 59.7956 45.477L57.8689 37.7124ZM57.7121 37.0284L55.9123 29.2335C51.6122 30.2264 48.9283 34.514 49.9144 38.8157L57.7121 37.0284ZM61.2706 36.2067L67.7286 31.4851C65.8389 28.9005 62.5903 27.6915 59.4708 28.4118L61.2706 36.2067ZM61.578 36.6273L69.4225 38.1972C69.8625 35.9984 69.3596 33.7158 68.036 31.9056L61.578 36.6273ZM57.1004 58.9996L49.256 57.4296C49.1508 57.9551 48.9736 58.8745 48.9322 59.8681C48.8904 60.8736 48.941 62.7488 49.9908 64.7256C51.1296 66.8699 52.8556 68.0561 54.1878 68.6847C55.3556 69.2356 56.4813 69.4819 57.099 69.6055L58.669 61.7611L60.239 53.9167C59.9467 53.8582 60.3727 53.9114 61.015 54.2144C61.8216 54.595 63.1962 55.4784 64.1216 57.221C64.9581 58.7961 64.9335 60.1708 64.9184 60.5331C64.9038 60.8834 64.8553 61.0168 64.9448 60.5696L57.1004 58.9996ZM58.669 61.7611L50.8245 60.1911L50.6927 60.85L58.5371 62.42L66.3815 63.99L66.5134 63.3311L58.669 61.7611ZM58.5371 62.42L60.1071 54.5756L54.2708 53.4075L52.7008 61.252L51.1308 69.0964L56.9671 70.2645L58.5371 62.42ZM52.7008 61.252L60.5453 62.822L60.6771 62.163L52.8327 60.593L44.9883 59.023L44.8564 59.682L52.7008 61.252ZM52.8327 60.593L51.2627 68.4375C51.8804 68.5611 53.0142 68.7671 54.3041 68.708C55.7756 68.6405 57.8252 68.2099 59.7015 66.6691C61.4312 65.2486 62.1996 63.5373 62.548 62.5931C62.8923 61.6602 63.0825 60.7434 63.1877 60.2179L55.3433 58.6479L47.4988 57.0779C47.4093 57.5251 47.4159 57.3834 47.5373 57.0544C47.6628 56.7143 48.1691 55.4359 49.5474 54.3041C51.0722 53.0519 52.6809 52.7655 53.5719 52.7247C54.2813 52.6922 54.695 52.8071 54.4027 52.7486L52.8327 60.593ZM55.3433 58.6479L63.1877 60.2179L67.0059 41.1402L59.1615 39.5702L51.317 38.0002L47.4988 57.0779L55.3433 58.6479ZM59.1615 39.5702L67.0059 41.1402C67.065 40.845 67.2297 40.07 67.3147 39.4211C67.3619 39.0605 67.4336 38.4076 67.3979 37.6286C67.3636 36.8797 67.2118 35.4886 66.4149 33.9848C64.2743 29.9452 60.2814 29.5257 58.8459 29.5344C57.5404 29.5423 56.3555 29.8454 55.9423 29.9479L57.8689 37.7124L59.7956 45.477C60.2924 45.3537 59.7735 45.529 58.9428 45.5341C58.4641 45.537 57.3285 45.4969 55.9981 44.9197C54.4512 44.2486 53.113 43.0538 52.2772 41.4766C51.5529 40.1097 51.439 38.8934 51.4146 38.3606C51.3889 37.7978 51.4424 37.4023 51.4501 37.3438C51.4559 37.2992 51.4558 37.307 51.317 38.0002L59.1615 39.5702ZM57.8689 37.7124L65.6667 35.9251L65.5099 35.241L57.7121 37.0284L49.9144 38.8157L50.0712 39.4998L57.8689 37.7124ZM57.7121 37.0284L59.512 44.8233L63.0704 44.0016L61.2706 36.2067L59.4708 28.4118L55.9123 29.2335L57.7121 37.0284ZM61.2706 36.2067L54.8126 40.9284L55.12 41.3489L61.578 36.6273L68.036 31.9056L67.7286 31.4851L61.2706 36.2067ZM61.578 36.6273L53.7336 35.0573L49.256 57.4296L57.1004 58.9996L64.9448 60.5696L69.4225 38.1972L61.578 36.6273ZM72.0752 64.6905L79.9591 63.3324C79.2182 59.031 75.1662 56.1175 70.8527 56.7845L72.0752 64.6905ZM72.1895 65.3535L73.4061 73.2605C75.5277 72.934 77.4291 71.7686 78.6829 70.0263C79.9367 68.284 80.4377 66.1108 80.0733 63.9954L72.1895 65.3535ZM68.5799 65.9089L61.6121 69.8395C63.2474 72.7385 66.5068 74.322 69.7965 73.8158L68.5799 65.9089ZM68.3353 65.4753L60.6289 63.3277C60.0594 65.3716 60.325 67.558 61.3675 69.4059L68.3353 65.4753ZM69.0655 62.8552L76.7718 65.0028C77.3414 62.9589 77.0757 60.7725 76.0333 58.9245C74.9908 57.0766 73.2569 55.7184 71.2131 55.1488L69.0655 62.8552ZM68.9422 62.8208L71.0898 55.1145C68.4608 54.3818 65.6397 55.0399 63.6062 56.8603L68.9422 62.8208ZM72.4486 50.477L64.9143 53.1666C65.7882 55.6147 67.797 57.4855 70.301 58.1833L72.4486 50.477ZM72.5102 50.4942L70.3626 58.2005C74.6187 59.3866 79.0305 56.8979 80.2166 52.6418L72.5102 50.4942ZM73.3177 41.5174L65.4338 42.8755C66.1748 47.1769 70.2268 50.0905 74.5403 49.4235L73.3177 41.5174ZM73.2035 40.8544L71.9869 32.9475C69.8653 33.2739 67.9639 34.4393 66.71 36.1816C65.4562 37.924 64.9552 40.0971 65.3196 42.2125L73.2035 40.8544ZM76.8131 40.2991L83.7809 36.3685C82.1456 33.4695 78.8862 31.8859 75.5965 32.3921L76.8131 40.2991ZM77.0577 40.7326L84.764 42.8802C85.3336 40.8364 85.0679 38.65 84.0255 36.802L77.0577 40.7326ZM69.4263 61.5605L74.8348 67.4552C75.9356 66.4452 76.7316 65.1472 77.1326 63.7081L69.4263 61.5605ZM71.1873 55.2413L63.481 53.0937L71.1873 55.2413ZM72.0752 64.6905L64.1914 66.0486L64.3056 66.7116L72.1895 65.3535L80.0733 63.9954L79.9591 63.3324L72.0752 64.6905ZM72.1895 65.3535L70.9729 57.4466L67.3633 58.0019L68.5799 65.9089L69.7965 73.8158L73.4061 73.2605L72.1895 65.3535ZM68.5799 65.9089L75.5477 61.9783L75.3031 61.5447L68.3353 65.4753L61.3675 69.4059L61.6121 69.8395L68.5799 65.9089ZM68.3353 65.4753L76.0416 67.6229L76.7718 65.0028L69.0655 62.8552L61.3591 60.7075L60.6289 63.3277L68.3353 65.4753ZM69.0655 62.8552L71.2131 55.1488L71.0898 55.1145L68.9422 62.8208L66.7946 70.5271L66.9179 70.5615L69.0655 62.8552ZM68.9422 62.8208L63.6062 56.8603C63.3197 57.1168 63.1588 57.239 63.0934 57.2851C63.0288 57.3305 63.1412 57.2418 63.4087 57.129C63.6963 57.0076 64.146 56.8659 64.7207 56.8205C65.3069 56.7742 65.8463 56.8423 66.2886 56.9655L64.141 64.6719L61.9934 72.3782C67.961 74.0413 72.2906 70.5605 74.2781 68.7813L68.9422 62.8208ZM64.141 64.6719L66.2886 56.9655C66.8721 57.1281 67.5495 57.4991 68.1039 58.1083C68.6238 58.6797 68.8021 59.2015 68.8511 59.3886C68.8953 59.5573 68.8471 59.4883 68.8704 59.1012C68.8929 58.727 68.9757 58.1707 69.1796 57.439L61.4733 55.2914L53.7669 53.1438C52.8994 56.2567 52.4519 59.9242 53.373 63.4418C54.3979 67.3554 57.1997 71.0423 61.9934 72.3782L64.141 64.6719ZM61.4733 55.2914L69.1796 57.439C69.4007 56.6459 69.6619 55.9749 69.9226 55.4556C70.1913 54.9204 70.3945 54.6749 70.4437 54.6223C70.4929 54.5696 70.2354 54.8688 69.5979 55.0981C68.8662 55.3613 68.0737 55.3702 67.4463 55.1953L69.5939 47.489L71.7416 39.7826C66.1327 38.2196 61.5239 40.7323 58.7517 43.7C56.1812 46.4516 54.6411 50.0072 53.7669 53.1438L61.4733 55.2914ZM69.5939 47.489L67.4463 55.1953C66.4459 54.9165 65.7634 54.3562 65.3907 53.9289C65.0569 53.5462 64.9441 53.2503 64.9143 53.1666L72.4486 50.477L79.9829 47.7874C79.1213 45.3738 76.8341 41.2018 71.7416 39.7826L69.5939 47.489ZM72.4486 50.477L70.301 58.1833L70.3626 58.2005L72.5102 50.4942L74.6579 42.7878L74.5962 42.7707L72.4486 50.477ZM72.5102 50.4942L80.2166 52.6418L82.1666 45.6444L74.4603 43.4968L66.7539 41.3492L64.8039 48.3466L72.5102 50.4942ZM74.4603 43.4968L82.1666 45.6444C82.2476 45.3539 82.4691 44.594 82.602 43.9534C82.676 43.5965 82.7951 42.9545 82.8182 42.1799C82.8404 41.4327 82.7937 40.0575 82.1349 38.5204C80.3685 34.3995 76.5262 33.5929 75.0423 33.4637C73.73 33.3495 72.5153 33.5464 72.0951 33.6114L73.3177 41.5174L74.5403 49.4235C75.0401 49.3462 74.4958 49.4767 73.6548 49.4035C73.1665 49.361 72.0433 49.2131 70.7783 48.5181C69.3156 47.7145 68.1155 46.4256 67.4289 44.824C66.8317 43.4307 66.8095 42.2341 66.8253 41.7043C66.8418 41.1471 66.9236 40.7611 66.9356 40.7031C66.9445 40.6602 66.9436 40.6687 66.7539 41.3492L74.4603 43.4968ZM73.3177 41.5174L81.2016 40.1594L81.0874 39.4964L73.2035 40.8544L65.3196 42.2125L65.4338 42.8755L73.3177 41.5174ZM73.2035 40.8544L74.4201 48.7614L78.0297 48.206L76.8131 40.2991L75.5965 32.3921L71.9869 32.9475L73.2035 40.8544ZM76.8131 40.2991L69.8453 44.2297L70.0899 44.6632L77.0577 40.7326L84.0255 36.802L83.7809 36.3685L76.8131 40.2991ZM77.0577 40.7326L69.3513 38.585L63.2263 60.5635L70.9327 62.7111L78.639 64.8587L84.764 42.8802L77.0577 40.7326ZM70.9327 62.7111L63.2263 60.5635C63.1454 60.854 62.9239 61.614 62.7909 62.2546C62.7169 62.6114 62.5978 63.2534 62.5748 64.028C62.5525 64.7752 62.5992 66.1505 63.2581 67.6876C65.0244 71.8084 68.8668 72.6151 70.3507 72.7442C71.663 72.8584 72.8777 72.6615 73.2978 72.5965L72.0752 64.6905L70.8527 56.7845C70.3529 56.8618 70.8971 56.7313 71.7381 56.8045C72.2264 56.847 73.3496 56.9948 74.6147 57.6898C76.0773 58.4934 77.2775 59.7823 77.964 61.384C78.5612 62.7772 78.5835 63.9739 78.5677 64.5037C78.5511 65.0609 78.4694 65.4468 78.4573 65.5048C78.4484 65.5478 78.4494 65.5392 78.639 64.8587L70.9327 62.7111ZM69.4263 61.5605L77.1326 63.7081L78.8937 57.3889L71.1873 55.2413L63.481 53.0937L61.7199 59.4129L69.4263 61.5605ZM71.1873 55.2413L78.8937 57.3889C79.608 54.8257 79.9748 51.7872 79.2126 48.8114C78.3832 45.5724 76.025 42.1058 71.6653 40.8908L69.5176 48.5972L67.37 56.3035C66.3654 56.0236 65.4352 55.4414 64.7367 54.6454C64.0784 53.8953 63.8138 53.1751 63.7129 52.7808C63.5393 52.1033 63.7546 52.112 63.481 53.0937L71.1873 55.2413ZM69.5176 48.5972L71.6653 40.8908C65.7296 39.2367 61.4692 42.7295 59.4896 45.2917C57.5827 47.7599 56.4962 50.7408 55.8757 52.9674L63.582 55.115L71.2884 57.2626C71.4612 56.6425 71.6529 56.1005 71.8417 55.6721C72.0407 55.2204 72.1674 55.0526 72.1509 55.0739C72.1343 55.0954 72.0404 55.2146 71.8512 55.3789C71.6599 55.545 71.3384 55.7852 70.8747 56.0022C70.3977 56.2254 69.8121 56.4034 69.1482 56.4612C68.4816 56.5192 67.8739 56.4439 67.37 56.3035L69.5176 48.5972ZM63.582 55.115L55.8757 52.9674C55.1552 55.5526 54.6028 58.6952 55.0413 61.7382C55.5112 64.9987 57.5107 69.6009 62.8818 71.0977L65.0294 63.3913L67.177 55.685C68.347 56.011 69.4101 56.7582 70.1208 57.7481C70.7415 58.6126 70.8593 59.3283 70.8777 59.4561C70.8986 59.6007 70.8634 59.487 70.916 59.036C70.966 58.6079 71.0787 58.0152 71.2884 57.2626L63.582 55.115ZM65.0294 63.3913L62.8818 71.0977C69.667 72.9886 74.3237 67.9241 74.8348 67.4552L69.4263 61.5605L64.0177 55.6658C63.6685 55.9862 63.5309 56.1096 63.4212 56.1989C63.3269 56.2757 63.433 56.1761 63.6944 56.037C63.9786 55.8857 64.4865 55.6658 65.1784 55.566C65.8995 55.4619 66.5917 55.5219 67.177 55.685L65.0294 63.3913ZM102.945 51.6003L110.525 54.1594C111.839 50.2653 109.989 46.0086 106.245 44.3129L102.945 51.6003ZM102.739 52.2097L95.1595 49.6506C95.1514 49.6748 95.1433 49.699 95.1354 49.7233L102.739 52.2097ZM101.188 56.9523L98.5935 64.5198C100.619 65.2144 102.839 65.0679 104.756 64.1129C106.673 63.1579 108.127 61.4742 108.792 59.4387L101.188 56.9523ZM100.55 56.7334L92.9488 54.2383C91.5837 58.3973 93.8144 62.8811 97.955 64.3009L100.55 56.7334ZM93.0224 48.3007L96.323 41.0133C92.2983 39.1904 87.5579 40.9754 85.735 45.0001L93.0224 48.3007ZM88.6789 57.8909L81.3915 54.5903C80.5161 56.523 80.4444 58.7244 81.192 60.71C81.9397 62.6956 83.4455 64.3029 85.3783 65.1783L88.6789 57.8909ZM96.8432 57.5488L100.144 50.2614C96.1191 48.4385 91.3787 50.2235 89.5558 54.2482L96.8432 57.5488ZM97.4845 57.8392L104.772 61.1398C105.647 59.2071 105.719 57.0058 104.971 55.0201C104.224 53.0345 102.718 51.4272 100.785 50.5518L97.4845 57.8392ZM93.9991 65.5347L90.6985 72.8221C94.7233 74.645 99.4637 72.86 101.287 68.8353L93.9991 65.5347ZM93.3578 65.2443L86.0704 61.9437C85.1951 63.8765 85.1233 66.0778 85.871 68.0634C86.6187 70.049 88.1245 71.6563 90.0573 72.5317L93.3578 65.2443ZM88.23 58.882L91.5306 51.5946C87.5058 49.7717 82.7654 51.5567 80.9426 55.5814L88.23 58.882ZM96.327 69.4697L101.503 63.3694C98.1377 60.5145 93.0964 60.9235 90.2357 64.2836L96.327 69.4697ZM96.86 69.9218L102.907 75.1589C104.306 73.5444 105 71.4379 104.836 69.3084C104.673 67.1789 103.664 65.2033 102.036 63.8216L96.86 69.9218ZM92.8831 74.5141L86.8355 69.277C86.805 69.3123 86.7748 69.3478 86.7449 69.3835L92.8831 74.5141ZM92.4997 74.9728L89.1991 82.2602C92.4727 83.7429 96.3331 82.8607 98.6378 80.1034L92.4997 74.9728ZM78.0706 68.4377L70.7832 65.1371C69.9079 67.0698 69.8361 69.2711 70.5838 71.2568C71.3315 73.2424 72.8373 74.8497 74.77 75.7251L78.0706 68.4377ZM78.3479 67.8255L81.6484 60.5381C77.6237 58.7153 72.8833 60.5002 71.0605 64.525L78.3479 67.8255ZM90.3966 49.2894L83.1092 45.9888L90.3966 49.2894ZM88.3552 45.7301L81.0678 42.4296C79.245 46.4543 81.0299 51.1947 85.0546 53.0175L88.3552 45.7301ZM88.6325 45.118L91.933 37.8306C87.9083 36.0077 83.1679 37.7927 81.3451 41.8174L88.6325 45.118ZM102.945 51.6003L95.3653 49.0412L95.1595 49.6506L102.739 52.2097L110.319 54.7688L110.525 54.1594L102.945 51.6003ZM102.739 52.2097L95.1354 49.7233L93.5846 54.4659L101.188 56.9523L108.792 59.4387L110.343 54.6961L102.739 52.2097ZM101.188 56.9523L103.783 49.3848L103.145 49.1659L100.55 56.7334L97.955 64.3009L98.5935 64.5198L101.188 56.9523ZM100.55 56.7334L108.151 59.2284C108.498 58.1697 108.838 57.0536 109.062 55.9844C109.27 54.9884 109.527 53.3819 109.227 51.57C108.866 49.3931 107.809 47.5108 106.259 46.0941C105.012 44.9539 103.668 44.3399 103.115 44.0894L99.8143 51.3768L96.5137 58.6642C96.8496 58.8163 96.204 58.5801 95.4637 57.9033C95.024 57.5013 94.5463 56.9469 94.1508 56.2237C93.7551 55.5 93.5425 54.7918 93.4421 54.1853C93.2653 53.1188 93.4538 52.4538 93.401 52.7062C93.3635 52.8855 93.2488 53.3245 92.9488 54.2383L100.55 56.7334ZM99.8143 51.3768L103.115 44.0894L96.323 41.0133L93.0224 48.3007L89.7218 55.5881L96.5137 58.6642L99.8143 51.3768ZM93.0224 48.3007L85.735 45.0001L81.3915 54.5903L88.6789 57.8909L95.9663 61.1914L100.31 51.6012L93.0224 48.3007ZM88.6789 57.8909L85.3783 65.1783L89.8673 67.2114L93.1679 59.924L96.4685 52.6366L91.9794 50.6035L88.6789 57.8909ZM93.1679 59.924L89.8673 67.2114C90.3066 67.4104 91.4882 67.9543 92.8993 68.2044C94.6807 68.5201 96.9787 68.4074 99.2174 67.0845C101.093 65.9763 102.166 64.4444 102.697 63.6018C103.272 62.6897 103.748 61.695 104.131 60.8494L96.8432 57.5488L89.5558 54.2482C89.2391 54.9475 89.1281 55.1228 89.1604 55.0716C89.1903 55.0242 89.335 54.7976 89.6071 54.4975C89.8863 54.1895 90.366 53.7303 91.0777 53.3097C91.8264 52.8673 92.6844 52.5555 93.5996 52.4233C94.4795 52.2962 95.2085 52.3643 95.6917 52.4499C96.4656 52.5871 96.9182 52.8403 96.4685 52.6366L93.1679 59.924ZM96.8432 57.5488L93.5427 64.8362L94.184 65.1266L97.4845 57.8392L100.785 50.5518L100.144 50.2614L96.8432 57.5488ZM97.4845 57.8392L90.1971 54.5387L86.7117 62.2342L93.9991 65.5347L101.287 68.8353L104.772 61.1398L97.4845 57.8392ZM93.9991 65.5347L97.2997 58.2473L96.6584 57.9569L93.3578 65.2443L90.0573 72.5317L90.6985 72.8221L93.9991 65.5347ZM93.3578 65.2443L100.645 68.5449C101.028 67.6993 101.462 66.6853 101.768 65.6517C102.052 64.6969 102.495 62.8799 102.091 60.7394C101.609 58.1841 100.178 56.3825 98.7658 55.2518C97.6471 54.3561 96.4589 53.8267 96.0196 53.6277L92.719 60.9151L89.4184 68.2025C89.8682 68.4062 89.3794 68.233 88.7658 67.7418C88.3827 67.4351 87.8507 66.9321 87.3658 66.1869C86.8616 65.4118 86.5301 64.5611 86.3688 63.7066C86.2155 62.8943 86.2442 62.2309 86.2916 61.8178C86.3377 61.4154 86.4126 61.1571 86.4285 61.1034C86.4457 61.0454 86.3872 61.2444 86.0704 61.9437L93.3578 65.2443ZM92.719 60.9151L96.0196 53.6277L91.5306 51.5946L88.23 58.882L84.9294 66.1694L89.4184 68.2025L92.719 60.9151ZM88.23 58.882L80.9426 55.5814L76.8235 64.6761L84.1109 67.9766L91.3983 71.2772L95.5174 62.1825L88.23 58.882ZM84.1109 67.9766L76.8235 64.6761C76.6116 65.1438 76.2656 65.9426 76.0286 66.8823C75.7879 67.8368 75.5023 69.5297 76.0338 71.511C77.1864 75.808 80.9651 77.3365 81.4278 77.5461L84.7284 70.2587L88.0289 62.9713C88.0306 62.972 88.1392 63.0206 88.3073 63.1163C88.4726 63.2104 88.7787 63.3968 89.1405 63.6938C89.9436 64.3529 91.001 65.5524 91.4874 67.3656C91.9291 69.0121 91.6635 70.3166 91.5428 70.7952C91.4258 71.2591 91.2999 71.4945 91.3983 71.2772L84.1109 67.9766ZM84.7284 70.2587L81.4278 77.5461L87.1411 80.1337L90.4417 72.8463L93.7423 65.5589L88.0289 62.9713L84.7284 70.2587ZM90.4417 72.8463L87.1411 80.1337C87.8504 80.455 89.294 81.0692 91.1339 81.1875C93.232 81.3223 95.1052 80.7839 96.6682 79.9243C99.0245 78.6283 100.985 76.3397 102.418 74.6558L96.327 69.4697L90.2357 64.2836C89.4518 65.2043 88.9589 65.7423 88.6392 66.0585C88.2801 66.4136 88.427 66.1966 88.9573 65.905C89.2672 65.7345 89.7292 65.5256 90.3272 65.3804C90.9422 65.2311 91.5655 65.1822 92.1601 65.2204C93.2458 65.2902 93.922 65.6403 93.7423 65.5589L90.4417 72.8463ZM96.327 69.4697L91.1514 75.5699L91.6844 76.0221L96.86 69.9218L102.036 63.8216L101.503 63.3694L96.327 69.4697ZM96.86 69.9218L90.8124 64.6847L86.8355 69.277L92.8831 74.5141L98.9306 79.7512L102.907 75.1589L96.86 69.9218ZM92.8831 74.5141L86.7449 69.3835L86.3615 69.8422L92.4997 74.9728L98.6378 80.1034L99.0212 79.6447L92.8831 74.5141ZM92.4997 74.9728L95.8002 67.6854L81.3712 61.1503L78.0706 68.4377L74.77 75.7251L89.1991 82.2602L92.4997 74.9728ZM78.0706 68.4377L85.358 71.7382L85.6353 71.1261L78.3479 67.8255L71.0605 64.525L70.7832 65.1371L78.0706 68.4377ZM78.3479 67.8255L75.0473 75.1129C75.8412 75.4725 76.8564 75.9046 77.9282 76.1985C78.955 76.48 80.8512 76.8738 83.0558 76.3198C85.5615 75.6902 87.2021 74.1769 88.1687 72.9026C88.9653 71.8525 89.4586 70.751 89.657 70.3129L82.3696 67.0123L75.0822 63.7118C74.8779 64.1627 75.017 63.7659 75.4213 63.2329C75.9955 62.4759 77.2057 61.2924 79.1564 60.8022C80.806 60.3877 82.0228 60.7306 82.1589 60.7679C82.3402 60.8176 82.2537 60.8123 81.6484 60.5381L78.3479 67.8255ZM82.3696 67.0123L89.657 70.3129L97.684 52.59L90.3966 49.2894L83.1092 45.9888L75.0822 63.7118L82.3696 67.0123ZM90.3966 49.2894L97.684 52.59C97.8824 52.1519 98.385 51.0546 98.6489 49.7632C98.9691 48.1962 99.0245 45.9649 97.8451 43.6663C96.8074 41.6438 95.2607 40.4782 94.3719 39.8922C93.4441 39.2804 92.4497 38.8023 91.6558 38.4427L88.3552 45.7301L85.0546 53.0175C85.6599 53.2917 85.721 53.3531 85.5641 53.2497C85.4462 53.1719 84.386 52.4835 83.6095 50.9702C82.6913 49.1807 82.7827 47.4904 82.9729 46.5595C83.1069 45.9041 83.3135 45.5378 83.1092 45.9888L90.3966 49.2894ZM88.3552 45.7301L95.6426 49.0307L95.9199 48.4186L88.6325 45.118L81.3451 41.8174L81.0678 42.4296L88.3552 45.7301ZM88.6325 45.118L85.3319 52.4054L99.6443 58.8877L102.945 51.6003L106.245 44.3129L91.933 37.8306L88.6325 45.118ZM99.2933 75.1624L92.3304 71.223L99.2933 75.1624ZM99.9218 78.2755L106.885 82.2149C109.06 78.3694 107.707 73.4883 103.861 71.3126L99.9218 78.2755ZM99.5909 78.8603L95.6515 85.8232C97.4981 86.868 99.6842 87.1364 101.729 86.5694C103.773 86.0024 105.509 84.6464 106.554 82.7997L99.5909 78.8603ZM94.4105 75.9294L87.4477 71.99C85.272 75.8355 86.6257 80.7166 90.4711 82.8923L94.4105 75.9294ZM94.7414 75.3445L98.6808 68.3817C96.8342 67.3369 94.6481 67.0685 92.6035 67.6355C90.559 68.2025 88.8234 69.5585 87.7786 71.4051L94.7414 75.3445ZM97.7336 74.2799L90.7707 70.3405L97.7336 74.2799ZM106.666 55.178L98.6998 54.4428C98.5025 56.5803 99.1725 58.7074 100.559 60.3459C101.946 61.9845 103.933 62.997 106.073 63.156L106.666 55.178ZM106.73 54.4791L107.453 46.5118C103.058 46.1133 99.1698 49.3494 98.7643 53.744L106.73 54.4791ZM110.368 54.8089L117.976 52.3382C116.988 49.293 114.279 47.1307 111.09 46.8416L110.368 54.8089ZM110.528 55.3043L117.491 59.2437C118.596 57.292 118.83 54.9664 118.137 52.8336L110.528 55.3043ZM99.2933 75.1624L92.3304 71.223C92.0665 71.6894 91.6112 72.5076 91.2619 73.4386C90.9084 74.3809 90.3713 76.1783 90.7519 78.3839C91.1647 80.7765 92.4343 82.4421 93.5039 83.455C94.4414 84.3429 95.4341 84.9281 95.9824 85.2383L99.9218 78.2755L103.861 71.3126C103.602 71.1658 103.99 71.3493 104.506 71.8376C105.153 72.4509 106.183 73.7191 106.519 75.6635C106.822 77.421 106.37 78.7194 106.242 79.0588C106.119 79.3871 106.032 79.4987 106.256 79.1018L99.2933 75.1624ZM99.9218 78.2755L92.9589 74.336L92.628 74.9209L99.5909 78.8603L106.554 82.7997L106.885 82.2149L99.9218 78.2755ZM99.5909 78.8603L103.53 71.8975L98.3499 68.9666L94.4105 75.9294L90.4711 82.8923L95.6515 85.8232L99.5909 78.8603ZM94.4105 75.9294L101.373 79.8688L101.704 79.2839L94.7414 75.3445L87.7786 71.4051L87.4477 71.99L94.4105 75.9294ZM94.7414 75.3445L90.802 82.3074C91.3503 82.6176 92.3632 83.167 93.6071 83.5134C95.0262 83.9085 97.1078 84.139 99.3713 83.2606C101.458 82.4508 102.722 81.0647 103.348 80.2764C103.966 79.4974 104.433 78.6858 104.696 78.2193L97.7336 74.2799L90.7707 70.3405C90.5462 70.7375 90.5966 70.6049 90.8146 70.3302C91.04 70.0462 91.92 68.9897 93.5825 68.3444C95.422 67.6306 97.0398 67.8605 97.899 68.0998C98.5831 68.2903 98.9403 68.5285 98.6808 68.3817L94.7414 75.3445ZM97.7336 74.2799L104.696 78.2193L114.277 61.2857L107.314 57.3463L100.351 53.4069L90.7707 70.3405L97.7336 74.2799ZM107.314 57.3463L114.277 61.2857C114.425 61.0237 114.824 60.3387 115.107 59.7488C115.264 59.4209 115.536 58.823 115.745 58.0718C115.946 57.3496 116.236 55.9805 115.948 54.3032C115.175 49.7973 111.513 48.1527 110.146 47.7131C108.903 47.3132 107.683 47.2314 107.258 47.1999L106.666 55.178L106.073 63.156C106.584 63.1939 106.036 63.1985 105.246 62.9441C104.79 62.7975 103.723 62.405 102.64 61.4415C101.379 60.3213 100.481 58.7685 100.179 57.0093C99.9172 55.4846 100.189 54.2935 100.332 53.7798C100.483 53.2369 100.657 52.878 100.683 52.8248C100.702 52.7842 100.699 52.7916 100.351 53.4069L107.314 57.3463ZM106.666 55.178L114.632 55.9131L114.697 55.2142L106.73 54.4791L98.7643 53.744L98.6998 54.4428L106.666 55.178ZM106.73 54.4791L106.008 62.4464L109.645 62.7762L110.368 54.8089L111.09 46.8416L107.453 46.5118L106.73 54.4791ZM110.368 54.8089L102.759 57.2796L102.92 57.7751L110.528 55.3043L118.137 52.8336L117.976 52.3382L110.368 54.8089ZM110.528 55.3043L103.566 51.3649L92.3304 71.223L99.2933 75.1624L106.256 79.1018L117.491 59.2437L110.528 55.3043ZM112.111 78.8791L116.463 72.1668C113.224 70.0665 108.947 70.5788 106.296 73.3848L112.111 78.8791ZM112.675 79.2448L118.911 84.2554C120.328 82.4914 120.932 80.2096 120.573 77.9754C120.214 75.7412 118.926 73.7636 117.027 72.5324L112.675 79.2448ZM114.014 77.062L109.661 83.7743C111.441 84.9287 113.607 85.3286 115.682 84.886C117.757 84.4435 119.572 83.1948 120.726 81.4145L114.014 77.062ZM107.033 72.5353L111.385 65.823C109.605 64.6686 107.439 64.2687 105.364 64.7113C103.289 65.1538 101.475 66.4026 100.32 68.1828L107.033 72.5353ZM113.72 68.6336L118.073 61.9213L113.72 68.6336ZM107.678 71.6573L101.383 66.7206C99.997 68.4883 99.4179 70.7574 99.7874 72.9732C100.157 75.189 101.441 77.1474 103.326 78.3696L107.678 71.6573ZM113.021 75.1219L108.669 81.8342C110.449 82.9886 112.615 83.3885 114.69 82.946C116.765 82.5034 118.579 81.2547 119.734 79.4745L113.021 75.1219ZM112.111 78.8791L107.758 85.5915L108.322 85.9571L112.675 79.2448L117.027 72.5324L116.463 72.1668L112.111 78.8791ZM112.675 79.2448L106.438 74.2341C105.941 74.8527 105.553 75.2191 105.309 75.4163C105.061 75.6168 105.027 75.5893 105.231 75.5105C105.449 75.4265 105.944 75.2843 106.648 75.3335C107.378 75.3847 108.097 75.6283 108.701 76.0201L104.349 82.7324L99.9963 89.4447C103.521 91.7301 107.562 91.7609 110.991 90.4378C114.181 89.2069 116.808 86.8733 118.911 84.2554L112.675 79.2448ZM104.349 82.7324L108.701 76.0201C109.278 76.3939 109.831 77.0038 110.166 77.7703C110.474 78.4744 110.459 78.9891 110.452 79.0924C110.446 79.1838 110.446 79.01 110.627 78.5469C110.802 78.0976 111.105 77.489 111.586 76.7467L104.874 72.3942L98.1618 68.0416C96.3141 70.891 94.7384 74.3425 94.489 78.0058C94.2149 82.0334 95.6342 86.6162 99.9963 89.4447L104.349 82.7324ZM104.874 72.3942L111.586 76.7467C111.971 76.1533 112.355 75.6938 112.687 75.3683C112.85 75.2082 112.986 75.0941 113.089 75.0175C113.192 74.9402 113.245 74.9125 113.241 74.9143C113.238 74.9158 113.158 74.9579 112.999 75.0034C112.838 75.0494 112.585 75.1017 112.255 75.1103C111.518 75.1294 110.712 74.9209 110.04 74.4853L114.392 67.773L118.745 61.0606C114.153 58.0828 109.226 58.9626 105.841 60.7285C102.592 62.4233 100.007 65.1957 98.1618 68.0416L104.874 72.3942ZM114.392 67.773L110.04 74.4853C109.387 74.0616 108.805 73.4066 108.451 72.6163C108.122 71.8816 108.113 71.3131 108.123 71.1172C108.132 70.9314 108.16 70.9923 108.035 71.3223C107.915 71.6403 107.689 72.1112 107.301 72.7094L114.014 77.062L120.726 81.4145C122.472 78.7213 123.923 75.4401 124.102 71.9317C124.296 68.1144 122.893 63.7505 118.745 61.0606L114.392 67.773ZM114.014 77.062L118.366 70.3497L111.385 65.823L107.033 72.5353L102.68 79.2477L109.661 83.7743L114.014 77.062ZM107.033 72.5353L100.32 68.1828L99.9375 68.7735L106.65 73.126L113.362 77.4786L113.745 76.8879L107.033 72.5353ZM106.65 73.126L99.9375 68.7735C98.4099 71.1292 97.0766 74.008 96.6309 77.0058C96.2294 79.7066 96.3228 85.1176 101.26 88.3192L105.613 81.6068L109.965 74.8945C111.293 75.7556 112.009 76.9888 112.298 77.9758C112.429 78.4224 112.463 78.7768 112.471 78.9914C112.478 79.2073 112.461 79.3348 112.457 79.3585C112.453 79.3883 112.481 79.2032 112.643 78.8135C112.799 78.4403 113.036 77.9811 113.362 77.4786L106.65 73.126ZM105.613 81.6068L101.26 88.3192C104.339 90.3155 107.876 90.3872 110.911 89.3013C113.65 88.3211 115.969 86.4438 117.925 84.3735L112.111 78.8791L106.296 73.3848C105.213 74.5307 104.941 74.4439 105.52 74.2367C105.871 74.1112 106.53 73.9475 107.409 74.0196C108.318 74.0941 109.205 74.4015 109.965 74.8945L105.613 81.6068ZM113.72 68.6336L118.073 61.9213C113.75 59.1185 109.337 60.4462 106.928 61.778C104.564 63.0845 102.705 65.0354 101.383 66.7206L107.678 71.6573L113.974 76.594C114.635 75.751 114.937 75.6328 114.669 75.781C114.495 75.8772 113.872 76.1935 112.877 76.2617C111.756 76.3385 110.484 76.07 109.367 75.3459L113.72 68.6336ZM107.678 71.6573L103.326 78.3696L108.669 81.8342L113.021 75.1219L117.374 68.4096L112.031 64.945L107.678 71.6573ZM113.021 75.1219L119.734 79.4745C120.802 77.8274 122.061 75.4581 122.529 72.7864C123.011 70.038 122.808 64.9921 118.073 61.9213L113.72 68.6336L109.367 75.3459C108.183 74.5777 107.335 73.3961 106.95 72.1318C106.618 71.0385 106.732 70.2375 106.77 70.0245C106.828 69.6902 106.825 69.9732 106.309 70.7694L113.021 75.1219ZM126.066 95.1636L119.908 90.0569L126.066 95.1636ZM126.159 98.3592L132.317 103.466C135.138 100.065 134.667 95.0215 131.266 92.2012L126.159 98.3592ZM125.73 98.8765L120.624 105.035C122.257 106.389 124.361 107.039 126.474 106.842C128.586 106.645 130.534 105.616 131.888 103.983L125.73 98.8765ZM121.198 95.118L115.04 90.0113C113.686 91.6445 113.035 93.7489 113.233 95.8614C113.43 97.974 114.458 99.9217 116.091 101.276L121.198 95.118ZM121.627 94.6007L126.734 88.4426C123.333 85.6223 118.289 86.093 115.469 89.494L121.627 94.6007ZM124.711 94.0402L118.553 88.9335L124.711 94.0402ZM131.125 86.3057L124.967 81.199L131.125 86.3057ZM131.432 83.0272L126.326 89.1852L131.432 83.0272ZM126.883 82.4973L125.351 74.6454C123.538 74.9991 121.904 75.969 120.725 77.3906L126.883 82.4973ZM126.72 82.6943L120.562 77.5876L126.72 82.6943ZM120.346 93.5385L126.504 98.6452C127.859 97.012 128.509 94.9076 128.312 92.7951C128.114 90.6825 127.086 88.7348 125.453 87.3805L120.346 93.5385ZM119.917 94.0558L114.81 100.214C118.211 103.034 123.255 102.563 126.075 99.1625L119.917 94.0558ZM115.434 90.3381L109.276 85.2314C107.922 86.8646 107.272 88.969 107.469 91.0815C107.666 93.1941 108.694 95.1418 110.327 96.4962L115.434 90.3381ZM115.863 89.8208L120.97 83.6628C117.569 80.8424 112.525 81.3131 109.705 84.7141L115.863 89.8208ZM125.669 78.2473L120.562 84.4054L125.669 78.2473ZM121.099 77.742L119.459 69.912C117.688 70.2829 116.096 71.2429 114.941 72.6353L121.099 77.742ZM114.582 88.7586L120.74 93.8653C123.561 90.4643 123.09 85.4209 119.689 82.6006L114.582 88.7586ZM114.153 89.2759L109.047 95.434C110.68 96.7884 112.784 97.4385 114.897 97.2413C117.009 97.0441 118.957 96.0158 120.311 94.3826L114.153 89.2759ZM109.621 85.5174L103.463 80.4107C100.642 83.8117 101.113 88.8551 104.514 91.6755L109.621 85.5174ZM110.05 85.0001L115.157 78.8421C113.523 77.4877 111.419 76.8376 109.306 77.0347C107.194 77.2319 105.246 78.2602 103.892 79.8934L110.05 85.0001ZM119.944 76.3272L113.786 71.2205L119.944 76.3272ZM119.689 74.0784L111.938 72.0995C110.858 76.3286 113.367 80.6425 117.577 81.7947L119.689 74.0784ZM119.855 73.4266L121.911 65.6953C119.848 65.1464 117.65 65.4455 115.808 66.526C113.966 67.6064 112.632 69.3785 112.104 71.4476L119.855 73.4266ZM123.398 74.3686L131.363 73.6252C131.051 70.288 128.693 67.4988 125.454 66.6373L123.398 74.3686ZM123.448 74.9093L129.606 80.016C130.96 78.3828 131.611 76.2784 131.413 74.1659L123.448 74.9093ZM121.793 76.9045L115.635 71.7978C112.815 75.1988 113.286 80.2422 116.687 83.0626L121.793 76.9045ZM121.867 76.9658L116.761 83.1239C118.801 84.8157 121.546 85.3873 124.092 84.6503L121.867 76.9658ZM127.043 77.3918L121.936 83.5498L127.043 77.3918ZM127.483 81.6231L120.675 77.4219C118.581 80.8163 119.306 85.2351 122.377 87.7812L127.483 81.6231ZM127.557 81.6844L122.451 87.8424C124.436 89.4884 127.092 90.0768 129.586 89.4228L127.557 81.6844ZM132.459 87.4538L126.301 82.3471L132.459 87.4538ZM126.066 95.1636L119.908 90.0569C119.567 90.4679 118.97 91.1978 118.459 92.0601C117.939 92.9373 117.092 94.6278 117.093 96.8835C117.093 99.3153 118.064 101.169 118.931 102.336C119.695 103.365 120.565 104.113 121.053 104.517L126.159 98.3592L131.266 92.2012C131.027 92.0033 131.364 92.2413 131.776 92.7962C132.291 93.4898 133.092 94.9064 133.093 96.8809C133.093 98.6792 132.416 99.8923 132.224 100.215C132.042 100.524 131.931 100.623 132.224 100.27L126.066 95.1636ZM126.159 98.3592L120.001 93.2525L119.572 93.7698L125.73 98.8765L131.888 103.983L132.317 103.466L126.159 98.3592ZM125.73 98.8765L130.837 92.7184L126.305 88.9599L121.198 95.118L116.091 101.276L120.624 105.035L125.73 98.8765ZM121.198 95.118L127.356 100.225L127.785 99.7074L121.627 94.6007L115.469 89.494L115.04 90.0113L121.198 95.118ZM121.627 94.6007L116.52 100.759C116.919 101.089 120.212 104.124 124.852 103.152C127.007 102.701 128.464 101.568 129.197 100.918C129.929 100.268 130.524 99.5626 130.869 99.1469L124.711 94.0402L118.553 88.9335C118.264 89.2814 118.329 89.1704 118.58 88.948C118.832 88.7245 119.856 87.8513 121.571 87.4921C123.497 87.0885 125.071 87.5715 125.93 87.977C126.607 88.297 126.944 88.6174 126.734 88.4426L121.627 94.6007ZM124.711 94.0402L130.869 99.1469L137.283 91.4123L131.125 86.3057L124.967 81.199L118.553 88.9335L124.711 94.0402ZM131.125 86.3057L137.283 91.4123C138.2 90.3068 139.791 88.1428 140.066 85.1625C140.415 81.377 138.531 78.5212 136.539 76.8691L131.432 83.0272L126.326 89.1852C125.92 88.8485 125.263 88.1947 124.758 87.1437C124.22 86.0238 124.03 84.8149 124.134 83.6932C124.31 81.7845 125.255 80.8512 124.967 81.199L131.125 86.3057ZM131.432 83.0272L136.539 76.8691C132.358 73.4017 127.207 74.2831 125.351 74.6454L126.883 82.4973L128.416 90.3491C128.952 90.2445 129.015 90.288 128.769 90.2679C128.489 90.245 127.43 90.1011 126.326 89.1852L131.432 83.0272ZM126.883 82.4973L120.725 77.3906L120.562 77.5876L126.72 82.6943L132.878 87.801L133.041 87.6039L126.883 82.4973ZM126.72 82.6943L120.562 77.5876L114.168 85.2975L120.326 90.4042L126.484 95.5109L132.878 87.801L126.72 82.6943ZM120.326 90.4042L114.168 85.2975C113.823 85.7132 113.24 86.4283 112.737 87.2681C112.234 88.1092 111.391 89.7507 111.346 91.9521C111.249 96.6916 114.841 99.3659 115.239 99.6966L120.346 93.5385L125.453 87.3805C125.242 87.2056 125.619 87.4778 126.059 88.0842C126.617 88.8528 127.382 90.3102 127.342 92.2781C127.307 94.0298 126.638 95.1977 126.465 95.4867C126.293 95.7744 126.196 95.8588 126.484 95.5109L120.326 90.4042ZM120.346 93.5385L114.188 88.4318L113.759 88.9491L119.917 94.0558L126.075 99.1625L126.504 98.6452L120.346 93.5385ZM119.917 94.0558L125.024 87.8977L120.541 84.1801L115.434 90.3381L110.327 96.4962L114.81 100.214L119.917 94.0558ZM115.434 90.3381L121.592 95.4448L122.021 94.9275L115.863 89.8208L109.705 84.7141L109.276 85.2314L115.434 90.3381ZM115.863 89.8208L110.756 95.9789C111.238 96.3785 112.143 97.1018 113.318 97.6625C114.665 98.3054 116.68 98.8817 119.055 98.4013C121.231 97.9611 122.704 96.8242 123.448 96.1662C124.187 95.5127 124.786 94.8016 125.13 94.3874L118.972 89.2807L112.813 84.174C112.524 84.5235 112.593 84.4073 112.85 84.1801C113.112 83.9485 114.15 83.0694 115.883 82.7189C117.815 82.3281 119.378 82.826 120.208 83.2223C120.867 83.5365 121.19 83.8454 120.97 83.6628L115.863 89.8208ZM118.972 89.2807L125.13 94.3874L131.544 86.6529L125.386 81.5462L119.227 76.4395L112.813 84.174L118.972 89.2807ZM125.386 81.5462L131.544 86.6529C132.503 85.4966 134.082 83.3034 134.323 80.2959C134.622 76.5523 132.755 73.7312 130.775 72.0892L125.669 78.2473L120.562 84.4054C120.154 84.0672 119.513 83.425 119.015 82.4017C118.486 81.3149 118.285 80.1327 118.374 79.0205C118.528 77.0948 119.474 76.1425 119.227 76.4395L125.386 81.5462ZM125.669 78.2473L130.775 72.0892C128.553 70.2466 126.061 69.6933 124.279 69.552C122.474 69.4088 120.786 69.634 119.459 69.912L121.099 77.742L122.739 85.5721C123.173 85.4812 123.24 85.5198 123.014 85.5019C122.812 85.4859 121.725 85.3696 120.562 84.4054L125.669 78.2473ZM121.099 77.742L114.941 72.6353L108.404 80.5176L114.562 85.6243L120.72 90.731L127.257 82.8487L121.099 77.742ZM114.562 85.6243L108.404 80.5176C108.076 80.9132 107.499 81.6162 107.002 82.4327C106.506 83.2455 105.635 84.8879 105.574 87.1086C105.507 89.5629 106.446 91.4699 107.339 92.6977C108.111 93.7597 108.998 94.5203 109.475 94.9167L114.582 88.7586L119.689 82.6006C119.465 82.4148 119.84 82.6835 120.279 83.2872C120.838 84.0568 121.623 85.5394 121.568 87.5465C121.519 89.3201 120.827 90.4927 120.666 90.7566C120.503 91.0241 120.415 91.0991 120.72 90.731L114.562 85.6243ZM114.582 88.7586L108.424 83.652L107.995 84.1692L114.153 89.2759L120.311 94.3826L120.74 93.8653L114.582 88.7586ZM114.153 89.2759L119.26 83.1179L114.728 79.3593L109.621 85.5174L104.514 91.6755L109.047 95.434L114.153 89.2759ZM109.621 85.5174L115.779 90.6241L116.208 90.1068L110.05 85.0001L103.892 79.8934L103.463 80.4107L109.621 85.5174ZM110.05 85.0001L104.943 91.1582C105.428 91.5603 106.328 92.2799 107.491 92.8405C108.818 93.4799 110.827 94.0742 113.21 93.6091C115.406 93.1804 116.895 92.0392 117.65 91.3737C118.396 90.7161 118.999 89.9997 119.341 89.5871L113.183 84.4804L107.025 79.3738C106.734 79.7248 106.807 79.6032 107.07 79.3713C107.342 79.1316 108.395 78.247 110.145 77.9054C112.082 77.5275 113.633 78.0394 114.437 78.4265C115.076 78.7348 115.386 79.0323 115.157 78.8421L110.05 85.0001ZM113.183 84.4804L119.341 89.5871L126.102 81.4339L119.944 76.3272L113.786 71.2205L107.025 79.3738L113.183 84.4804ZM119.944 76.3272L126.102 81.4339C126.288 81.2102 126.8 80.6071 127.183 80.0756C127.397 79.7791 127.77 79.2366 128.108 78.5307C128.435 77.8475 128.952 76.5599 128.965 74.8745C128.998 70.3972 125.805 68.1237 124.537 67.4221C123.394 66.7897 122.215 66.4755 121.801 66.3622L119.689 74.0784L117.577 81.7947C118.061 81.9271 117.521 81.8259 116.792 81.4226C116.37 81.1892 115.415 80.6059 114.546 79.474C113.542 78.165 112.952 76.5089 112.965 74.7543C112.977 73.2238 113.444 72.1073 113.679 71.6175C113.924 71.105 114.161 70.7782 114.199 70.7256C114.231 70.6822 114.234 70.6806 113.786 71.2205L119.944 76.3272ZM119.689 74.0784L127.44 76.0574L127.607 75.4055L119.855 73.4266L112.104 71.4476L111.938 72.0995L119.689 74.0784ZM119.855 73.4266L117.799 81.1578L121.341 82.0999L123.398 74.3686L125.454 66.6373L121.911 65.6953L119.855 73.4266ZM123.398 74.3686L115.432 75.112L115.483 75.6527L123.448 74.9093L131.413 74.1659L131.363 73.6252L123.398 74.3686ZM123.448 74.9093L117.29 69.8026L115.635 71.7978L121.793 76.9045L127.951 82.0112L129.606 80.016L123.448 74.9093ZM121.793 76.9045L116.687 83.0626L116.761 83.1239L121.867 76.9658L126.974 70.8077L126.9 70.7465L121.793 76.9045ZM121.867 76.9658L124.092 84.6503C124.673 84.482 124.689 84.551 124.346 84.5365C124.137 84.5276 123.771 84.4864 123.315 84.3283C122.843 84.1643 122.364 83.9048 121.936 83.5498L127.043 77.3918L132.15 71.2337C127.481 67.362 121.989 68.6021 119.643 69.2814L121.867 76.9658ZM127.043 77.3918L121.936 83.5498C121.315 83.0345 120.32 81.7967 120.19 79.9252C120.135 79.1287 120.264 78.4921 120.392 78.0823C120.516 77.686 120.65 77.4623 120.675 77.4219L127.483 81.6231L134.292 85.8243C135.259 84.257 136.36 81.8172 136.152 78.818C135.923 75.524 134.225 72.9542 132.15 71.2337L127.043 77.3918ZM127.483 81.6231L122.377 87.7812L122.451 87.8424L127.557 81.6844L132.664 75.5263L132.59 75.4651L127.483 81.6231ZM127.557 81.6844L129.586 89.4228C130.184 89.266 130.252 89.321 129.975 89.3047C129.802 89.2945 129.472 89.2551 129.052 89.1063C128.615 88.9516 128.152 88.7038 127.725 88.3501L132.832 82.1921L137.938 76.034C133.362 72.239 127.915 73.3202 125.528 73.946L127.557 81.6844ZM132.832 82.1921L127.725 88.3501C127.397 88.0782 126.823 87.4936 126.404 86.5227C125.969 85.5116 125.879 84.4897 125.985 83.6442C126.081 82.8723 126.319 82.39 126.391 82.254C126.466 82.1124 126.472 82.1409 126.301 82.3471L132.459 87.4538L138.617 92.5604C139.763 91.1787 141.467 88.7861 141.862 85.6268C142.354 81.6831 140.642 78.2764 137.938 76.034L132.832 82.1921ZM132.459 87.4538L126.301 82.3471L119.908 90.0569L126.066 95.1636L132.224 100.27L138.617 92.5604L132.459 87.4538ZM137.542 101.6L143.361 96.1101C140.711 93.302 136.435 92.7863 133.194 94.8841L137.542 101.6ZM138.003 102.089L142.874 108.434C144.669 107.056 145.797 104.983 145.977 102.727C146.158 100.471 145.375 98.2449 143.822 96.5989L138.003 102.089ZM142.39 91.3507L136.571 96.8405L142.39 91.3507ZM139.821 100.285L134.002 105.775C135.458 107.319 137.467 108.22 139.588 108.282C141.709 108.344 143.767 107.56 145.311 106.105L139.821 100.285ZM134.111 94.2335L139.931 88.7437C136.899 85.5299 131.835 85.3825 128.622 88.4144L134.111 94.2335ZM133.599 94.7166L128.11 88.8975L133.599 94.7166ZM134.947 93.5335L130.001 87.2457C128.235 88.6346 127.135 90.7018 126.969 92.9421C126.803 95.1824 127.586 97.3892 129.128 99.0233L134.947 93.5335ZM139.317 98.1655L133.498 103.655C134.954 105.199 136.963 106.1 139.084 106.162C141.205 106.224 143.263 105.441 144.806 103.985L139.317 98.1655ZM137.542 101.6L131.722 107.09L132.184 107.578L138.003 102.089L143.822 96.5989L143.361 96.1101L137.542 101.6ZM138.003 102.089L133.131 95.743C132.502 96.2262 132.038 96.4903 131.754 96.624C131.465 96.7599 131.439 96.7251 131.656 96.697C131.887 96.667 132.403 96.6463 133.074 96.8608C133.772 97.0835 134.413 97.4906 134.907 98.0144L129.088 103.504L123.269 108.994C126.151 112.049 130.07 113.037 133.715 112.564C137.105 112.124 140.21 110.479 142.874 108.434L138.003 102.089ZM129.088 103.504L134.907 98.0144C135.378 98.5142 135.772 99.2378 135.915 100.062C136.047 100.819 135.911 101.315 135.88 101.414C135.852 101.501 135.893 101.332 136.179 100.926C136.456 100.531 136.894 100.011 137.538 99.404L132.048 93.5849L126.558 87.7657C124.088 90.0962 121.739 93.076 120.629 96.5759C119.408 100.424 119.701 105.212 123.269 108.994L129.088 103.504ZM132.048 93.5849L137.538 99.404C138.052 98.9187 138.534 98.5632 138.933 98.3256C139.129 98.2087 139.289 98.1301 139.407 98.0799C139.525 98.0292 139.583 98.0149 139.58 98.0159C139.576 98.0167 139.488 98.0384 139.323 98.0449C139.155 98.0514 138.897 98.0424 138.575 97.9725C137.855 97.8166 137.12 97.4229 136.571 96.8405L142.39 91.3507L148.209 85.8609C144.453 81.8796 139.459 81.5671 135.751 82.4805C132.193 83.3573 129.025 85.4382 126.558 87.7657L132.048 93.5849ZM142.39 91.3507L136.571 96.8405C136.036 96.274 135.627 95.4999 135.47 94.6482C135.324 93.8564 135.45 93.3019 135.506 93.114C135.559 92.9358 135.572 93.0015 135.373 93.2925C135.18 93.5729 134.85 93.977 134.331 94.4663L139.821 100.285L145.311 106.105C147.645 103.902 149.832 101.058 150.837 97.6917C151.931 94.0292 151.602 89.4571 148.209 85.8609L142.39 91.3507ZM139.821 100.285L145.64 94.7956L139.931 88.7437L134.111 94.2335L128.292 99.7233L134.002 105.775L139.821 100.285ZM134.111 94.2335L128.622 88.4144L128.11 88.8975L133.599 94.7166L139.089 100.536L139.601 100.053L134.111 94.2335ZM133.599 94.7166L128.11 88.8975C126.067 90.8242 124.09 93.305 122.947 96.1119C121.916 98.6406 120.725 103.92 124.763 108.2L130.582 102.71L136.401 97.2204C137.487 98.3715 137.89 99.7392 137.938 100.767C137.959 101.232 137.908 101.584 137.865 101.794C137.821 102.006 137.773 102.125 137.764 102.148C137.753 102.176 137.824 102.002 138.074 101.662C138.314 101.337 138.654 100.947 139.089 100.536L133.599 94.7166ZM130.582 102.71L124.763 108.2C127.281 110.869 130.701 111.777 133.906 111.441C136.8 111.138 139.498 109.863 141.889 108.316L137.542 101.6L133.194 94.8841C131.871 95.7408 131.627 95.5921 132.239 95.528C132.609 95.4892 133.289 95.4864 134.126 95.7647C134.991 96.0525 135.779 96.5612 136.401 97.2204L130.582 102.71ZM141.533 92.0275L147.352 86.5377C143.817 82.7905 139.215 83.0347 136.559 83.7577C133.953 84.467 131.684 85.9216 130.001 87.2457L134.947 93.5335L139.893 99.8212C140.735 99.1589 141.056 99.1156 140.761 99.1961C140.569 99.2483 139.889 99.4081 138.906 99.2385C137.799 99.0476 136.627 98.4853 135.714 97.5173L141.533 92.0275ZM134.947 93.5335L129.128 99.0233L133.498 103.655L139.317 98.1655L145.136 92.6757L140.766 88.0436L134.947 93.5335ZM139.317 98.1655L144.806 103.985C146.234 102.637 148.019 100.634 149.107 98.1494C150.226 95.5934 151.225 90.6432 147.352 86.5377L141.533 92.0275L135.714 97.5173C134.745 96.4902 134.201 95.1413 134.127 93.8219C134.063 92.6809 134.364 91.9299 134.451 91.7319C134.587 91.4209 134.517 91.6952 133.827 92.3464L139.317 98.1655ZM149.351 100.058L154.268 106.369C155.942 105.065 157.029 103.149 157.29 101.044L149.351 100.058ZM147.306 101.651L142.389 95.3408C140.716 96.6449 139.629 98.5604 139.367 100.666C139.106 102.772 139.692 104.895 140.996 106.568L147.306 101.651ZM147.365 101.727L141.055 106.644C142.684 108.735 145.242 109.883 147.887 109.71L147.365 101.727ZM152.348 103.28L146.038 108.197L152.348 103.28ZM142.397 117.687L147.314 123.997C150.8 121.282 151.424 116.255 148.708 112.77L142.397 117.687ZM141.867 118.1L135.557 123.017C136.861 124.69 138.776 125.778 140.882 126.039C142.987 126.3 145.111 125.715 146.784 124.41L141.867 118.1ZM138.229 113.43L133.312 107.119C131.638 108.423 130.551 110.339 130.29 112.445C130.028 114.55 130.614 116.673 131.918 118.347L138.229 113.43ZM138.759 113.017L145.069 108.1C143.765 106.426 141.85 105.339 139.744 105.078C137.639 104.817 135.516 105.402 133.842 106.706L138.759 113.017ZM149.812 107.001L144.895 100.691L149.812 107.001ZM146.448 102.32L146.529 94.3205C144.72 94.3023 142.958 94.8977 141.531 96.0095L146.448 102.32ZM137.717 111.679L142.633 117.99C144.307 116.686 145.394 114.77 145.656 112.665C145.917 110.559 145.331 108.436 144.027 106.762L137.717 111.679ZM137.186 112.092L130.876 117.009C133.591 120.494 138.618 121.118 142.103 118.403L137.186 112.092ZM133.568 107.448L128.651 101.137C125.165 103.853 124.541 108.879 127.257 112.365L133.568 107.448ZM134.098 107.035L140.408 102.118C137.693 98.6324 132.666 98.0084 129.181 100.724L134.098 107.035ZM145.858 98.4391L138.713 94.8408C136.75 98.7392 138.274 103.492 142.138 105.521L145.858 98.4391ZM146.161 97.8382L149.83 90.7293C147.932 89.7498 145.722 89.5697 143.691 90.2291C141.66 90.8885 139.976 92.3326 139.016 94.24L146.161 97.8382ZM149.418 99.5194L157.357 100.505C157.77 97.1787 156.066 93.9477 153.087 92.4105L149.418 99.5194ZM149.351 100.058L144.434 93.7477L142.389 95.3408L147.306 101.651L152.223 107.962L154.268 106.369L149.351 100.058ZM147.306 101.651L140.996 106.568L141.055 106.644L147.365 101.727L153.676 96.8102L153.617 96.7344L147.306 101.651ZM147.365 101.727L147.887 109.71C148.409 109.676 148.42 109.743 148.114 109.659C147.717 109.55 146.803 109.179 146.038 108.197L152.348 103.28L158.659 98.3635C154.993 93.6579 149.408 93.5766 146.844 93.7441L147.365 101.727ZM152.348 103.28L146.038 108.197C145.775 107.86 145.355 107.185 145.156 106.184C144.95 105.146 145.062 104.159 145.33 103.366C145.781 102.032 146.508 101.665 145.976 102.079L150.893 108.39L155.81 114.7C157.298 113.541 159.461 111.528 160.488 108.487C161.744 104.771 160.804 101.116 158.659 98.3635L152.348 103.28ZM150.893 108.39L145.976 102.079L138.076 108.235L142.993 114.546L147.91 120.856L155.81 114.7L150.893 108.39ZM142.993 114.546L138.076 108.235C137.654 108.563 136.915 109.148 136.23 109.88C135.534 110.625 134.344 112.094 133.86 114.297C133.337 116.672 133.888 118.692 134.484 120.018C135.009 121.186 135.697 122.104 136.087 122.604L142.397 117.687L148.708 112.77C148.518 112.525 148.795 112.83 149.078 113.461C149.432 114.249 149.91 115.804 149.486 117.733C149.1 119.489 148.178 120.528 147.922 120.803C147.677 121.065 147.548 121.138 147.91 120.856L142.993 114.546ZM142.397 117.687L137.481 111.376L136.95 111.789L141.867 118.1L146.784 124.41L147.314 123.997L142.397 117.687ZM141.867 118.1L148.178 113.183L144.539 108.513L138.229 113.43L131.918 118.347L135.557 123.017L141.867 118.1ZM138.229 113.43L143.146 119.741L143.676 119.328L138.759 113.017L133.842 106.706L133.312 107.119L138.229 113.43ZM138.759 113.017L132.448 117.934C132.833 118.428 133.561 119.329 134.588 120.129C135.766 121.046 137.61 122.042 140.033 122.083C142.252 122.121 143.935 121.327 144.804 120.844C145.666 120.365 146.403 119.799 146.828 119.468L141.911 113.157L136.994 106.847C136.636 107.126 136.728 107.027 137.028 106.86C137.333 106.691 138.536 106.055 140.304 106.085C142.275 106.119 143.694 106.941 144.421 107.506C144.996 107.955 145.245 108.326 145.069 108.1L138.759 113.017ZM141.911 113.157L146.828 119.468L154.729 113.312L149.812 107.001L144.895 100.691L136.994 106.847L141.911 113.157ZM149.812 107.001L154.729 113.312C155.937 112.37 157.871 110.614 158.793 107.86C159.946 104.41 158.987 101.128 157.189 98.8195L150.878 103.736L144.568 108.653C144.17 108.142 143.664 107.297 143.424 106.128C143.176 104.915 143.295 103.752 143.619 102.784C144.178 101.113 145.175 100.472 144.895 100.691L149.812 107.001ZM150.878 103.736L157.189 98.8195C155.309 96.4068 152.824 95.3823 151.165 94.9207C149.452 94.4442 147.785 94.3331 146.529 94.3205L146.448 102.32L146.368 110.32C146.91 110.325 147.036 110.38 146.876 110.335C146.771 110.306 145.602 109.981 144.568 108.653L150.878 103.736ZM146.448 102.32L141.531 96.0095L133.454 102.303L138.371 108.614L143.288 114.924L151.365 108.631L146.448 102.32ZM138.371 108.614L133.454 102.303C133.028 102.635 132.304 103.208 131.633 103.92C130.96 104.634 129.784 106.055 129.267 108.196C128.154 112.804 131.088 116.187 131.406 116.596L137.717 111.679L144.027 106.762C143.859 106.546 144.169 106.893 144.468 107.58C144.847 108.45 145.282 110.038 144.82 111.951C144.409 113.655 143.505 114.652 143.274 114.897C143.044 115.141 142.931 115.202 143.288 114.924L138.371 108.614ZM137.717 111.679L132.8 105.369L132.269 105.782L137.186 112.092L142.103 118.403L142.633 117.99L137.717 111.679ZM137.186 112.092L143.497 107.175L139.878 102.531L133.568 107.448L127.257 112.365L130.876 117.009L137.186 112.092ZM133.568 107.448L138.484 113.758L139.015 113.345L134.098 107.035L129.181 100.724L128.651 101.137L133.568 107.448ZM134.098 107.035L127.787 111.951C128.174 112.448 128.899 113.345 129.914 114.142C131.073 115.052 132.906 116.064 135.334 116.121C137.571 116.175 139.271 115.38 140.151 114.892C141.021 114.41 141.763 113.84 142.186 113.511L137.269 107.2L132.352 100.89C131.993 101.17 132.09 101.067 132.397 100.897C132.714 100.721 133.932 100.083 135.715 100.126C137.687 100.173 139.093 101.006 139.795 101.557C140.353 101.996 140.591 102.353 140.408 102.118L134.098 107.035ZM137.269 107.2L142.186 113.511L150.541 107.001L145.624 100.69L140.707 94.3796L132.352 100.89L137.269 107.2ZM145.624 100.69L150.541 107.001C150.771 106.822 151.401 106.343 151.889 105.906C152.161 105.663 152.642 105.213 153.124 104.596C153.591 104 154.372 102.853 154.746 101.21C155.741 96.8442 153.111 93.9377 152.023 92.98C151.043 92.1167 149.959 91.5564 149.579 91.3568L145.858 98.4391L142.138 105.521C142.582 105.755 142.076 105.54 141.451 104.989C141.089 104.671 140.282 103.896 139.677 102.604C138.977 101.109 138.756 99.3652 139.146 97.6544C139.486 96.1622 140.183 95.1722 140.517 94.7443C140.867 94.2965 141.169 94.0282 141.217 93.9851C141.257 93.9493 141.261 93.9485 140.707 94.3796L145.624 100.69ZM145.858 98.4391L153.003 102.037L153.306 101.436L146.161 97.8382L139.016 94.24L138.713 94.8408L145.858 98.4391ZM146.161 97.8382L142.492 104.947L145.749 106.628L149.418 99.5194L153.087 92.4105L149.83 90.7293L146.161 97.8382ZM149.418 99.5194L141.479 98.5339L141.412 99.0728L149.351 100.058L157.29 101.044L157.357 100.505L149.418 99.5194ZM151.864 120.722L158.556 116.339C156.147 112.66 151.221 111.616 147.526 114L151.864 120.722ZM152.232 121.284L156.572 128.004C158.361 126.849 159.616 125.026 160.058 122.942C160.5 120.858 160.091 118.683 158.924 116.901L152.232 121.284ZM155.751 110.946L160.134 117.639C163.83 115.218 164.864 110.259 162.444 106.563L155.751 110.946ZM154.296 108.724L149.913 102.032C146.217 104.452 145.183 109.411 147.603 113.107L154.296 108.724ZM155.206 108.128L161.847 103.668C159.404 100.03 154.489 99.0349 150.823 101.436L155.206 108.128ZM161.033 108.673L167.725 104.29C165.354 100.668 160.531 99.5904 156.843 101.858L161.033 108.673ZM161.454 109.315L165.837 116.008C169.533 113.587 170.567 108.629 168.146 104.932L161.454 109.315ZM157.626 111.822L153.243 105.13C149.546 107.551 148.512 112.509 150.933 116.205L157.626 111.822ZM159.747 115.062L164.13 121.754C167.826 119.333 168.86 114.375 166.439 110.679L159.747 115.062ZM158.837 115.658L152.144 120.041C153.307 121.816 155.127 123.056 157.204 123.489C159.281 123.922 161.445 123.513 163.22 122.35L158.837 115.658ZM156.715 112.418L163.408 108.036C160.987 104.339 156.029 103.305 152.332 105.726L156.715 112.418ZM151.864 120.722L145.171 125.105L145.539 125.667L152.232 121.284L158.924 116.901L158.556 116.339L151.864 120.722ZM152.232 121.284L147.892 114.563C146.942 115.177 146.246 115.587 145.729 115.852C145.178 116.135 145.097 116.114 145.35 116.057C145.64 115.992 146.677 115.817 148.011 116.295C149.442 116.808 150.292 117.739 150.676 118.324L143.984 122.707L137.291 127.09C138.42 128.814 140.149 130.474 142.612 131.357C144.976 132.204 147.196 132.039 148.837 131.672C151.755 131.021 154.542 129.315 156.572 128.004L152.232 121.284ZM143.984 122.707L150.676 118.324C150.889 118.65 151.271 119.36 151.392 120.401C151.521 121.504 151.301 122.491 150.971 123.214C150.678 123.856 150.376 124.13 150.436 124.071C150.489 124.018 150.739 123.791 151.327 123.407L146.944 116.714L142.561 110.022C140.418 111.425 137.816 113.498 136.412 116.578C134.631 120.485 135.468 124.307 137.291 127.09L143.984 122.707ZM146.944 116.714L151.327 123.407L160.134 117.639L155.751 110.946L151.368 104.254L142.561 110.022L146.944 116.714ZM155.751 110.946L162.444 106.563L160.988 104.341L154.296 108.724L147.603 113.107L149.059 115.329L155.751 110.946ZM154.296 108.724L158.679 115.417L159.589 114.821L155.206 108.128L150.823 101.436L149.913 102.032L154.296 108.724ZM155.206 108.128L148.565 112.589C149.85 114.502 152.463 117.54 157 117.893C160.695 118.181 163.726 116.408 165.223 115.488L161.033 108.673L156.843 101.858C156.337 102.169 156.204 102.205 156.325 102.16C156.46 102.109 157.173 101.858 158.243 101.942C159.44 102.035 160.454 102.495 161.16 103.023C161.746 103.463 161.953 103.824 161.847 103.668L155.206 108.128ZM161.033 108.673L154.34 113.056L154.761 113.698L161.454 109.315L168.146 104.932L167.725 104.29L161.033 108.673ZM161.454 109.315L157.071 102.623L153.243 105.13L157.626 111.822L162.009 118.515L165.837 116.008L161.454 109.315ZM157.626 111.822L150.933 116.205L153.054 119.445L159.747 115.062L166.439 110.679L164.318 107.439L157.626 111.822ZM159.747 115.062L155.364 108.369L154.454 108.965L158.837 115.658L163.22 122.35L164.13 121.754L159.747 115.062ZM158.837 115.658L165.529 111.275L163.408 108.036L156.715 112.418L150.023 116.801L152.144 120.041L158.837 115.658ZM156.715 112.418L152.332 105.726L144.516 110.845L148.899 117.538L153.281 124.23L161.098 119.111L156.715 112.418ZM148.899 117.538L144.516 110.845C143.371 111.595 141.188 112.989 139.663 114.757C138.797 115.762 137.588 117.495 137.229 119.926C136.837 122.586 137.625 124.914 138.75 126.632L145.443 122.249L152.135 117.866C152.735 118.781 153.34 120.348 153.058 122.262C152.81 123.947 152.003 124.948 151.781 125.206C151.551 125.472 151.465 125.494 151.818 125.23C152.138 124.99 152.589 124.684 153.281 124.23L148.899 117.538ZM145.443 122.249L138.75 126.632C139.719 128.11 141.285 129.651 143.604 130.463C145.789 131.227 147.808 131.048 149.223 130.733C151.751 130.171 154.195 128.738 156.201 127.444L151.864 120.722L147.526 114C146.674 114.549 146.092 114.881 145.714 115.071C145.3 115.28 145.358 115.201 145.75 115.114C146.16 115.023 147.367 114.828 148.886 115.36C150.541 115.938 151.588 117.03 152.135 117.866L145.443 122.249ZM146.498 126.209L142.689 119.174C138.803 121.278 137.359 126.133 139.463 130.019L146.498 126.209ZM152.013 123.223L159.048 119.413C158.038 117.548 156.328 116.16 154.294 115.555C152.26 114.95 150.07 115.178 148.204 116.188L152.013 123.223ZM152.333 123.814L156.882 130.395C160.241 128.073 161.312 123.595 159.368 120.004L152.333 123.814ZM155.793 124.961L163.55 126.918C163.551 126.912 163.553 126.906 163.554 126.9L155.793 124.961ZM163.766 120.935L156.731 124.744L163.766 120.935ZM164.164 124.358L157.129 128.167L164.164 124.358ZM165.176 124.211L172.21 120.401C170.107 116.516 165.252 115.072 161.366 117.176L165.176 124.211ZM165.496 124.801L169.305 131.836C171.171 130.826 172.559 129.116 173.164 127.082C173.768 125.049 173.541 122.858 172.53 120.992L165.496 124.801ZM160.993 127.239L153.958 131.049C156.062 134.934 160.917 136.378 164.803 134.274L160.993 127.239ZM160.673 126.648L155.8 120.304C152.683 122.698 151.767 127.002 153.638 130.458L160.673 126.648ZM162.855 121.537L155.82 125.346L162.855 121.537ZM160.066 120.755L156.256 113.72L160.066 120.755ZM157.494 125.75L149.689 123.994L149.688 123.997L157.494 125.75ZM146.818 126.8L139.783 130.61C141.887 134.495 146.742 135.939 150.627 133.835L146.818 126.8ZM146.498 126.209L150.307 133.244L155.823 130.258L152.013 123.223L148.204 116.188L142.689 119.174L146.498 126.209ZM152.013 123.223L144.978 127.032L145.298 127.623L152.333 123.814L159.368 120.004L159.048 119.413L152.013 123.223ZM152.333 123.814L147.785 117.233C145.733 118.651 143.601 120.668 142.287 123.367C140.868 126.282 140.406 130.146 142.409 133.846L149.444 130.036L156.479 126.227C156.87 126.95 157.079 127.798 157.061 128.65C157.044 129.461 156.828 130.051 156.673 130.371C156.405 130.92 156.259 130.825 156.882 130.395L152.333 123.814ZM149.444 130.036L142.409 133.846C143.714 136.256 146.099 138.463 149.535 139.032C152.535 139.529 155.036 138.544 156.525 137.738L152.716 130.703L148.906 123.668C149.045 123.593 150.268 122.936 152.149 123.247C153.157 123.414 154.133 123.832 154.962 124.473C155.759 125.09 156.227 125.762 156.479 126.227L149.444 130.036ZM152.716 130.703L156.525 137.738C159.426 136.167 161.066 133.824 162.018 131.727C162.829 129.943 163.29 127.947 163.55 126.918L155.793 124.961L148.036 123.004C147.947 123.354 147.878 123.633 147.806 123.911C147.736 124.181 147.677 124.399 147.623 124.586C147.51 124.977 147.452 125.108 147.452 125.108C147.46 125.089 147.572 124.847 147.844 124.529C148.137 124.187 148.507 123.884 148.906 123.668L152.716 130.703ZM155.793 124.961L163.554 126.9C163.715 126.256 163.82 125.848 163.922 125.509C164.02 125.182 164.065 125.097 164.045 125.139C164.016 125.199 163.89 125.445 163.62 125.75C163.332 126.073 162.99 126.34 162.645 126.527L158.836 119.492L155.027 112.457C149.498 115.451 148.453 121.333 148.032 123.021L155.793 124.961ZM158.836 119.492L162.645 126.527C161.831 126.968 160.658 127.196 159.4 126.834C158.122 126.467 157.204 125.617 156.731 124.744L163.766 120.935L170.801 117.125C167.625 111.26 160.617 109.43 155.027 112.457L158.836 119.492ZM163.766 120.935L156.731 124.744C156.565 124.438 156.407 124.023 156.322 123.529C156.238 123.042 156.252 122.643 156.273 122.42C156.282 122.324 156.291 122.27 156.283 122.321C156.276 122.366 156.275 122.369 156.26 122.468C156.249 122.537 156.229 122.663 156.209 122.807C156.178 123.037 156.094 123.667 156.122 124.439C156.15 125.226 156.303 126.642 157.129 128.167L164.164 124.358L171.199 120.549C171.964 121.961 172.089 123.243 172.112 123.872C172.134 124.487 172.067 124.938 172.063 124.966C172.057 125.009 172.053 125.029 172.06 124.987C172.062 124.974 172.081 124.86 172.093 124.783C172.123 124.589 172.17 124.269 172.205 123.886C172.279 123.088 172.3 122.03 172.088 120.803C171.875 119.568 171.454 118.332 170.801 117.125L163.766 120.935ZM164.164 124.358L157.129 128.167C157.746 129.307 158.992 130.958 161.236 131.893C163.398 132.794 165.326 132.54 166.329 132.308C167.29 132.085 168.022 131.736 168.287 131.608C168.595 131.459 168.895 131.294 168.985 131.245L165.176 124.211L161.366 117.176C161.175 117.279 161.229 117.248 161.32 117.204C161.369 117.18 161.915 116.907 162.714 116.722C163.555 116.526 165.346 116.272 167.391 117.124C169.518 118.01 170.665 119.564 171.199 120.549L164.164 124.358ZM165.176 124.211L158.141 128.02L158.461 128.611L165.496 124.801L172.53 120.992L172.21 120.401L165.176 124.211ZM165.496 124.801L161.686 117.767L157.184 120.205L160.993 127.239L164.803 134.274L169.305 131.836L165.496 124.801ZM160.993 127.239L168.028 123.43L167.708 122.839L160.673 126.648L153.638 130.458L153.958 131.049L160.993 127.239ZM160.673 126.648L165.546 132.993C167.122 131.783 168.916 130.004 170.056 127.602C171.293 124.998 171.84 121.33 169.889 117.728L162.855 121.537L155.82 125.346C155.372 124.52 155.15 123.573 155.173 122.64C155.195 121.758 155.429 121.106 155.603 120.739C155.906 120.101 156.153 120.033 155.8 120.304L160.673 126.648ZM162.855 121.537L169.889 117.728C168.334 114.854 165.657 113.026 162.634 112.577C160.038 112.193 157.78 112.895 156.256 113.72L160.066 120.755L163.875 127.79C163.083 128.219 161.853 128.637 160.287 128.404C159.426 128.277 158.486 127.948 157.615 127.336C156.741 126.722 156.165 125.985 155.82 125.346L162.855 121.537ZM160.066 120.755L156.256 113.72C153.436 115.247 151.922 117.589 151.092 119.438C150.333 121.13 149.931 122.919 149.689 123.994L157.494 125.75L165.299 127.506C165.421 126.962 165.51 126.594 165.592 126.304C165.674 126.016 165.712 125.94 165.691 125.986C165.667 126.039 165.538 126.318 165.238 126.679C164.916 127.066 164.46 127.473 163.875 127.79L160.066 120.755ZM157.494 125.75L149.688 123.997C149.51 124.793 149.375 125.299 149.266 125.641C149.16 125.974 149.123 126.007 149.187 125.891C149.273 125.737 149.437 125.499 149.681 125.266C149.911 125.047 150.072 124.965 150.024 124.992L153.833 132.026L157.642 139.061C159.891 137.844 161.791 136.143 163.164 133.678C164.32 131.604 164.89 129.328 165.3 127.503L157.494 125.75ZM153.833 132.026L150.024 124.992C150.449 124.761 151.603 124.377 153.067 124.841C154.428 125.272 155.212 126.173 155.568 126.83L148.533 130.639L141.498 134.448C142.798 136.85 145.05 139.084 148.234 140.093C151.521 141.135 154.853 140.572 157.642 139.061L153.833 132.026ZM148.533 130.639L155.568 126.83C155.674 127.026 155.781 127.298 155.85 127.621C155.916 127.936 155.921 128.181 155.92 128.274C155.919 128.307 155.918 128.308 155.924 128.214C155.925 128.197 155.947 127.883 155.957 127.646C155.967 127.39 155.986 126.814 155.909 126.122C155.832 125.426 155.622 124.241 154.926 122.956L147.891 126.765L140.856 130.575C140.232 129.423 140.063 128.397 140.007 127.887C139.95 127.38 139.969 127.013 139.97 126.992C139.97 126.989 139.973 126.934 139.956 127.199C139.944 127.387 139.926 127.693 139.921 128.054C139.911 128.802 139.955 129.792 140.197 130.934C140.44 132.085 140.858 133.266 141.498 134.448L148.533 130.639ZM147.891 126.765L154.926 122.956C154.348 121.889 153.325 120.549 151.622 119.599C149.9 118.638 148.187 118.469 146.91 118.563C144.852 118.715 143.282 119.618 143.009 119.765L146.818 126.8L150.627 133.835C150.623 133.838 150.425 133.947 150.105 134.072C149.818 134.184 149.091 134.446 148.084 134.52C146.982 134.601 145.42 134.46 143.828 133.572C142.255 132.695 141.342 131.473 140.856 130.575L147.891 126.765ZM146.818 126.8L153.853 122.991L153.533 122.4L146.498 126.209L139.463 130.019L139.783 130.61L146.818 126.8Z" fill="#B39B6B" mask="url(#path-1-outside-1_785_104)"/>
</g>
<defs>
<clipPath id="clip0_785_104">
<rect width="186.31" height="63.8396" fill="white" transform="translate(31.9199) rotate(30)"/>
</clipPath>
</defs>
</svg>
