<svg width="116" height="116" viewBox="0 0 116 116" fill="none" xmlns="http://www.w3.org/2000/svg">
<g clip-path="url(#clip0_785_105)">
<circle cx="93.4705" cy="87.1777" r="7.5" transform="rotate(-9.25112 93.4705 87.1777)" fill="#D6706F"/>
<mask id="path-2-outside-1_785_105" maskUnits="userSpaceOnUse" x="5.92834" y="9.7207" width="103.843" height="96.6302" fill="black">
<rect fill="white" x="5.92834" y="9.7207" width="103.843" height="96.6302"/>
<path d="M19.1568 43.2253L19.4339 42.6131C22.2326 43.8799 22.6505 43.5774 23.4555 41.7991L31.4789 24.0745C32.2839 22.2962 32.2354 21.7825 29.4368 20.5157L29.7139 19.9035L37.6725 23.5061C44.2318 26.4753 46.8688 32.8325 43.5301 40.208C40.1914 47.5835 33.4706 49.7047 27.1154 46.8279L19.1568 43.2253ZM27.5641 45.8367C33.1904 48.3836 38.6605 45.7665 41.5769 39.3239C44.4933 32.8812 42.8502 27.0442 37.2238 24.4973C35.9994 23.943 34.8548 23.6005 33.867 23.61L24.6823 43.9C25.327 44.6485 26.3397 45.2825 27.5641 45.8367ZM51.2667 52.6402L51.8162 53.0271C48.5055 56.8405 45.4047 57.6318 43.3637 56.1949C40.6163 54.2608 41.2247 50.2278 44.2826 45.8842C47.1194 41.8546 51.118 39.6212 53.9701 41.6291C56.4036 43.3422 55.9822 46.9982 53.2375 50.8969L46.4343 46.1075L46.029 46.6832C43.6528 50.0587 42.7332 53.7552 44.6695 55.1183C45.9517 56.021 48.1073 55.7384 51.2667 52.6402ZM53.2653 42.4635C51.5907 41.2846 49.1905 42.8039 47.1129 45.2547L52.32 48.9205C53.9963 46.5393 55.0446 43.7161 53.2653 42.4635ZM53.9285 64.3781L61.0432 58.6724L61.4637 59.1967C57.3147 62.565 56.6052 66.9487 58.6272 69.47C60.409 71.6919 62.9629 71.8587 65.1598 70.097C67.5813 68.1551 67.4417 64.2472 67.5765 59.9141C67.786 55.3161 67.9133 53.122 70.2849 51.2201C72.8812 49.1381 75.9455 49.8391 78.0276 52.4354C80.2097 55.1565 79.0932 57.6516 79.5137 58.1758C79.6938 58.4005 79.9237 58.3802 81.1969 57.3592L81.6373 57.9084L75.8456 62.553L75.4052 62.0038C78.5307 59.4564 79.3009 55.7622 77.2389 53.1909C75.4171 50.9192 73.2034 51.1767 71.7805 52.3178C69.5587 54.0996 69.8377 57.5676 69.6764 60.6912C69.3982 66.3288 69.5262 68.8924 66.4556 71.3549C63.435 73.7773 59.8605 72.747 57.9586 70.3754C55.5562 67.3797 56.8228 64.9694 56.2422 64.2454C55.9219 63.846 55.4473 64.0215 54.3489 64.9023L53.9285 64.3781ZM64.7847 82.1678C63.2324 78.4813 66.0124 74.7761 70.6131 72.8388C75.2434 70.889 79.8364 71.4896 81.3887 75.1761C82.9286 78.8331 80.1487 82.5384 75.5185 84.4881C70.9177 86.4254 66.3246 85.8248 64.7847 82.1678ZM66.0777 82.3525C67.3149 84.7134 70.7686 84.7521 75.09 82.4811C79.4113 80.2101 81.3205 77.3229 80.0833 74.962C78.8166 72.6135 75.3924 72.5623 71.0416 74.8458C66.7327 77.1463 64.8111 80.004 66.0777 82.3525ZM91.346 87.6368C91.2186 86.8146 91.753 86.0842 92.5752 85.9568C93.3658 85.8343 94.1279 86.3639 94.2553 87.1861C94.3777 87.9766 93.8166 88.7436 93.026 88.8661C92.2038 88.9935 91.4685 88.4274 91.346 87.6368ZM71.5368 91.8719C69.5762 92.1757 69.1994 92.4607 69.4836 94.2949L68.8195 94.3978L67.9082 88.5159L68.5723 88.413C68.8565 90.2472 69.3018 90.4048 71.2624 90.101L81.7295 88.4792C83.6902 88.1754 84.0478 88.1848 83.0292 86.6264L83.5859 86.2487L85.6134 89.3022L85.2927 89.7405L71.5368 91.8719Z"/>
</mask>
<path d="M19.1568 43.2253L19.4339 42.6131C22.2326 43.8799 22.6505 43.5774 23.4555 41.7991L31.4789 24.0745C32.2839 22.2962 32.2354 21.7825 29.4368 20.5157L29.7139 19.9035L37.6725 23.5061C44.2318 26.4753 46.8688 32.8325 43.5301 40.208C40.1914 47.5835 33.4706 49.7047 27.1154 46.8279L19.1568 43.2253ZM27.5641 45.8367C33.1904 48.3836 38.6605 45.7665 41.5769 39.3239C44.4933 32.8812 42.8502 27.0442 37.2238 24.4973C35.9994 23.943 34.8548 23.6005 33.867 23.61L24.6823 43.9C25.327 44.6485 26.3397 45.2825 27.5641 45.8367ZM51.2667 52.6402L51.8162 53.0271C48.5055 56.8405 45.4047 57.6318 43.3637 56.1949C40.6163 54.2608 41.2247 50.2278 44.2826 45.8842C47.1194 41.8546 51.118 39.6212 53.9701 41.6291C56.4036 43.3422 55.9822 46.9982 53.2375 50.8969L46.4343 46.1075L46.029 46.6832C43.6528 50.0587 42.7332 53.7552 44.6695 55.1183C45.9517 56.021 48.1073 55.7384 51.2667 52.6402ZM53.2653 42.4635C51.5907 41.2846 49.1905 42.8039 47.1129 45.2547L52.32 48.9205C53.9963 46.5393 55.0446 43.7161 53.2653 42.4635ZM53.9285 64.3781L61.0432 58.6724L61.4637 59.1967C57.3147 62.565 56.6052 66.9487 58.6272 69.47C60.409 71.6919 62.9629 71.8587 65.1598 70.097C67.5813 68.1551 67.4417 64.2472 67.5765 59.9141C67.786 55.3161 67.9133 53.122 70.2849 51.2201C72.8812 49.1381 75.9455 49.8391 78.0276 52.4354C80.2097 55.1565 79.0932 57.6516 79.5137 58.1758C79.6938 58.4005 79.9237 58.3802 81.1969 57.3592L81.6373 57.9084L75.8456 62.553L75.4052 62.0038C78.5307 59.4564 79.3009 55.7622 77.2389 53.1909C75.4171 50.9192 73.2034 51.1767 71.7805 52.3178C69.5587 54.0996 69.8377 57.5676 69.6764 60.6912C69.3982 66.3288 69.5262 68.8924 66.4556 71.3549C63.435 73.7773 59.8605 72.747 57.9586 70.3754C55.5562 67.3797 56.8228 64.9694 56.2422 64.2454C55.9219 63.846 55.4473 64.0215 54.3489 64.9023L53.9285 64.3781ZM64.7847 82.1678C63.2324 78.4813 66.0124 74.7761 70.6131 72.8388C75.2434 70.889 79.8364 71.4896 81.3887 75.1761C82.9286 78.8331 80.1487 82.5384 75.5185 84.4881C70.9177 86.4254 66.3246 85.8248 64.7847 82.1678ZM66.0777 82.3525C67.3149 84.7134 70.7686 84.7521 75.09 82.4811C79.4113 80.2101 81.3205 77.3229 80.0833 74.962C78.8166 72.6135 75.3924 72.5623 71.0416 74.8458C66.7327 77.1463 64.8111 80.004 66.0777 82.3525ZM91.346 87.6368C91.2186 86.8146 91.753 86.0842 92.5752 85.9568C93.3658 85.8343 94.1279 86.3639 94.2553 87.1861C94.3777 87.9766 93.8166 88.7436 93.026 88.8661C92.2038 88.9935 91.4685 88.4274 91.346 87.6368ZM71.5368 91.8719C69.5762 92.1757 69.1994 92.4607 69.4836 94.2949L68.8195 94.3978L67.9082 88.5159L68.5723 88.413C68.8565 90.2472 69.3018 90.4048 71.2624 90.101L81.7295 88.4792C83.6902 88.1754 84.0478 88.1848 83.0292 86.6264L83.5859 86.2487L85.6134 89.3022L85.2927 89.7405L71.5368 91.8719Z" fill="#FFFEFC"/>
<path d="M19.1568 43.2253L11.8687 39.9262C10.0467 43.9513 11.8326 48.6913 15.8577 50.5134L19.1568 43.2253ZM19.4339 42.6131L22.733 35.325C20.8001 34.45 18.5988 34.3788 16.6133 35.1268C14.6278 35.8749 13.0208 37.3811 12.1459 39.314L19.4339 42.6131ZM29.4368 20.5157L22.1487 17.2166C20.3267 21.2417 22.1126 25.9817 26.1377 27.8037L29.4368 20.5157ZM29.7139 19.9035L33.013 12.6154C31.0801 11.7404 28.8788 11.6691 26.8933 12.4172C24.9078 13.1653 23.3008 14.6715 22.4259 16.6044L29.7139 19.9035ZM37.6725 23.5061L34.3734 30.7942L37.6725 23.5061ZM41.5769 39.3239L34.2888 36.0248L41.5769 39.3239ZM37.2238 24.4973L40.5229 17.2092L37.2238 24.4973ZM33.867 23.61L33.7902 15.6104C30.6765 15.6402 27.863 17.4741 26.5789 20.3109L33.867 23.61ZM24.6823 43.9L17.3942 40.6009C16.1101 43.4376 16.5887 46.7617 18.6209 49.121L24.6823 43.9ZM19.1568 43.2253L26.4449 46.5244L26.722 45.9122L19.4339 42.6131L12.1459 39.314L11.8687 39.9262L19.1568 43.2253ZM19.4339 42.6131L16.1348 49.9012C16.9288 50.2606 17.9441 50.6925 19.016 50.9861C20.0428 51.2674 21.9391 51.6608 24.1436 51.1064C26.6491 50.4763 28.2894 48.9627 29.2558 47.6882C30.0522 46.6379 30.5452 45.5363 30.7436 45.0982L23.4555 41.7991L16.1674 38.5C15.9633 38.951 16.1022 38.5541 16.5064 38.0211C17.0805 37.2639 18.2905 36.0802 20.2411 35.5896C21.8906 35.1748 23.1074 35.5174 23.2436 35.5547C23.4248 35.6044 23.3384 35.5991 22.733 35.325L19.4339 42.6131ZM23.4555 41.7991L30.7436 45.0982L38.767 27.3736L31.4789 24.0745L24.1908 20.7754L16.1674 38.5L23.4555 41.7991ZM31.4789 24.0745L38.767 27.3736C38.9653 26.9355 39.4676 25.8381 39.7313 24.5466C40.0512 22.9796 40.1061 20.7483 38.9263 18.4499C37.8882 16.4276 36.3412 15.2624 35.4523 14.6765C34.5244 14.0649 33.5299 13.587 32.7359 13.2276L29.4368 20.5157L26.1377 27.8037C26.7431 28.0778 26.8041 28.1392 26.6472 28.0358C26.5293 27.958 25.4689 27.2699 24.6922 25.7567C23.7736 23.9674 23.8646 22.2771 24.0547 21.3461C24.1885 20.6907 24.395 20.3244 24.1908 20.7754L31.4789 24.0745ZM29.4368 20.5157L36.7249 23.8148L37.002 23.2026L29.7139 19.9035L22.4259 16.6044L22.1487 17.2166L29.4368 20.5157ZM29.7139 19.9035L26.4148 27.1915L34.3734 30.7942L37.6725 23.5061L40.9716 16.218L33.013 12.6154L29.7139 19.9035ZM37.6725 23.5061L34.3734 30.7942C36.0403 31.5487 36.6042 32.4218 36.8062 32.9701C37.0076 33.5169 37.219 34.7506 36.242 36.9089L43.5301 40.208L50.8182 43.5071C53.1799 38.2899 53.7421 32.6573 51.8199 27.4393C49.8982 22.2228 45.864 18.4327 40.9716 16.218L37.6725 23.5061ZM43.5301 40.208L36.242 36.9089C35.3055 38.9778 34.2373 39.6481 33.6265 39.8789C32.9878 40.1202 31.9324 40.2269 30.4145 39.5398L27.1154 46.8279L23.8163 54.116C28.6536 56.3057 34.1362 56.7902 39.2814 54.8463C44.4545 52.8918 48.416 48.8137 50.8182 43.5071L43.5301 40.208ZM27.1154 46.8279L30.4145 39.5398L22.4559 35.9372L19.1568 43.2253L15.8577 50.5134L23.8163 54.116L27.1154 46.8279ZM27.5641 45.8367L24.265 53.1248C29.0392 55.286 34.2657 55.4053 38.9814 53.1954C43.5403 51.0591 46.8226 47.1349 48.865 42.623L41.5769 39.3239L34.2888 36.0248C33.4149 37.9555 32.5039 38.5612 32.1921 38.7073C32.0395 38.7788 31.9199 38.8011 31.789 38.7999C31.65 38.7986 31.3476 38.7679 30.8632 38.5487L27.5641 45.8367ZM41.5769 39.3239L48.865 42.623C50.9074 38.111 51.69 33.0554 50.287 28.2202C48.8356 23.2187 45.2972 19.3704 40.5229 17.2092L37.2238 24.4973L33.9247 31.7853C34.4091 32.0046 34.6317 32.2116 34.7244 32.3152C34.8117 32.4128 34.8739 32.5173 34.9209 32.6791C35.0168 33.0099 35.1628 34.094 34.2888 36.0248L41.5769 39.3239ZM37.2238 24.4973L40.5229 17.2092C38.903 16.4759 36.4993 15.5844 33.7902 15.6104L33.867 23.61L33.9438 31.6096C33.7167 31.6118 33.5514 31.5934 33.46 31.5798C33.3683 31.5661 33.329 31.5541 33.3484 31.5594C33.367 31.5645 33.4258 31.5818 33.5282 31.6199C33.6298 31.6578 33.7614 31.7114 33.9247 31.7853L37.2238 24.4973ZM33.867 23.61L26.5789 20.3109L17.3942 40.6009L24.6823 43.9L31.9704 47.1991L41.1551 26.9091L33.867 23.61ZM24.6823 43.9L18.6209 49.121C20.389 51.1737 22.645 52.3915 24.265 53.1248L27.5641 45.8367L30.8632 38.5487C30.6998 38.4747 30.5727 38.4113 30.4772 38.3599C30.381 38.3081 30.3292 38.2753 30.3131 38.2647C30.2963 38.2536 30.3313 38.2752 30.402 38.3351C30.4726 38.3948 30.5955 38.5069 30.7437 38.6789L24.6823 43.9ZM51.2667 52.6403L55.8719 46.0987C52.7152 43.8764 48.4219 44.2254 45.6655 46.9283L51.2667 52.6403ZM51.8162 53.0271L57.8572 58.2718C59.3407 56.563 60.0311 54.3059 59.7575 52.0597C59.4839 49.8134 58.2717 47.7881 56.4214 46.4855L51.8162 53.0271ZM53.2375 50.8969L48.6324 57.4385C52.2452 59.9819 57.2357 59.1149 59.7791 55.5021L53.2375 50.8969ZM46.4343 46.1075L51.0395 39.566C49.3045 38.3446 47.1555 37.8624 45.065 38.2256C42.9746 38.5887 41.1141 39.7674 39.8927 41.5024L46.4343 46.1075ZM47.1129 45.2547L41.0105 40.0817C39.5579 41.7953 38.8927 44.0407 39.1775 46.269C39.4623 48.4973 40.6708 50.5032 42.5077 51.7963L47.1129 45.2547ZM52.32 48.9205L47.7148 55.462C49.4498 56.6834 51.5988 57.1656 53.6893 56.8024C55.7797 56.4393 57.6402 55.2606 58.8616 53.5256L52.32 48.9205ZM51.2667 52.6403L46.6615 59.1818L47.211 59.5687L51.8162 53.0271L56.4214 46.4855L55.8719 46.0987L51.2667 52.6403ZM51.8162 53.0271L45.7752 47.7824C45.255 48.3816 44.8537 48.733 44.6021 48.9207C44.3461 49.1117 44.3134 49.0828 44.5204 49.0119C44.741 48.9363 45.2419 48.813 45.9427 48.889C46.6706 48.968 47.38 49.2388 47.9689 49.6534L43.3637 56.1949L38.7585 62.7365C42.1932 65.1545 46.2304 65.3393 49.7073 64.1478C52.9416 63.0394 55.6556 60.8076 57.8572 58.2718L51.8162 53.0271ZM43.3637 56.1949L47.9689 49.6534C48.5308 50.0489 49.0606 50.6794 49.366 51.4581C49.6465 52.1734 49.6122 52.6872 49.6012 52.7902C49.5915 52.8813 49.5978 52.7076 49.7965 52.2517C49.9892 51.8095 50.3149 51.2128 50.8242 50.4894L44.2826 45.8842L37.741 41.279C35.7861 44.056 34.0799 47.4449 33.6911 51.096C33.2637 55.1102 34.5074 59.7438 38.7585 62.7365L43.3637 56.1949ZM44.2826 45.8842L50.8242 50.4894C51.2313 49.9111 51.6327 49.4665 51.9762 49.154C52.1451 49.0002 52.2858 48.8914 52.391 48.8187C52.4971 48.7453 52.5512 48.7197 52.5477 48.7214C52.5447 48.7228 52.4625 48.7618 52.3018 48.8011C52.139 48.841 51.8846 48.8837 51.5544 48.8796C50.8178 48.8706 50.0196 48.6316 49.3649 48.1707L53.9701 41.6291L58.5753 35.0875C54.0998 31.9368 49.1434 32.6283 45.6935 34.2638C42.3823 35.8336 39.6935 38.5055 37.741 41.279L44.2826 45.8842ZM53.9701 41.6291L49.3649 48.1707C48.7281 47.7224 48.1721 47.0457 47.8483 46.2425C47.5473 45.4958 47.5599 44.9273 47.5773 44.7319C47.5939 44.5467 47.6191 44.6086 47.482 44.9336C47.3497 45.2467 47.1064 45.7087 46.696 46.2918L53.2375 50.8969L59.7791 55.5021C61.6269 52.8774 63.2015 49.6538 63.5139 46.1549C63.8539 42.3477 62.618 37.9336 58.5753 35.0875L53.9701 41.6291ZM53.2375 50.8969L57.8427 44.3554L51.0395 39.566L46.4343 46.1075L41.8291 52.6491L48.6324 57.4385L53.2375 50.8969ZM46.4343 46.1075L39.8927 41.5024L39.4874 42.078L46.029 46.6832L52.5706 51.2884L52.9759 50.7127L46.4343 46.1075ZM46.029 46.6832L39.4874 42.078C37.8712 44.3738 36.4292 47.1997 35.8696 50.1783C35.3655 52.8619 35.2526 58.2725 40.0643 61.6599L44.6695 55.1183L49.2747 48.5768C50.5688 49.4878 51.2369 50.7474 51.4883 51.7447C51.602 52.196 51.6228 52.5514 51.6222 52.7662C51.6215 52.9822 51.5989 53.1089 51.5945 53.1324C51.589 53.162 51.6239 52.9781 51.8014 52.5949C51.9713 52.228 52.2259 51.7781 52.5706 51.2884L46.029 46.6832ZM44.6695 55.1183L40.0643 61.6599C43.0647 63.7721 46.5967 63.9786 49.6705 63.0091C52.445 62.134 54.8342 60.3465 56.8679 58.3522L51.2667 52.6403L45.6655 46.9283C44.5399 48.0321 44.2715 47.935 44.8578 47.7501C45.2131 47.638 45.8784 47.4995 46.754 47.6051C47.6594 47.7142 48.5337 48.0551 49.2747 48.5768L44.6695 55.1183ZM53.2653 42.4635L57.8705 35.9219C53.6581 32.9564 49.1979 34.115 46.7396 35.354C44.3279 36.5695 42.3953 38.4481 41.0105 40.0817L47.1129 45.2547L53.2154 50.4278C53.9081 49.6105 54.2144 49.504 53.9408 49.6419C53.7633 49.7313 53.129 50.0237 52.1321 50.0539C51.009 50.088 49.7484 49.7712 48.6601 49.0051L53.2653 42.4635ZM47.1129 45.2547L42.5077 51.7963L47.7148 55.462L52.32 48.9205L56.9252 42.3789L51.7181 38.7132L47.1129 45.2547ZM52.32 48.9205L58.8616 53.5256C59.9916 51.9205 61.3404 49.6009 61.9101 46.949C62.4961 44.2209 62.4858 39.171 57.8705 35.9219L53.2653 42.4635L48.6601 49.0051C47.5056 48.1923 46.7033 46.9792 46.3672 45.7011C46.0765 44.596 46.2215 43.7999 46.267 43.5886C46.3382 43.2567 46.3247 43.5393 45.7784 44.3153L52.32 48.9205ZM53.9285 64.3781L48.9235 58.1371C47.2683 59.4645 46.2082 61.395 45.9764 63.504C45.7445 65.6131 46.36 67.7278 47.6874 69.383L53.9285 64.3781ZM61.0432 58.6724L67.2843 53.6675C65.9569 52.0123 64.0263 50.9521 61.9173 50.7203C59.8083 50.4885 57.6935 51.104 56.0383 52.4314L61.0432 58.6724ZM61.4637 59.1967L66.5059 65.4076C69.9216 62.6347 70.4571 57.624 67.7047 54.1917L61.4637 59.1967ZM67.5765 59.9141L59.5848 59.5501C59.5831 59.5885 59.5816 59.6269 59.5804 59.6653L67.5765 59.9141ZM78.0276 52.4354L71.7866 57.4403L78.0276 52.4354ZM81.1969 57.3592L87.4379 52.3543C86.1105 50.699 84.1799 49.6389 82.0709 49.4071C79.9619 49.1753 77.8472 49.7908 76.1919 51.1182L81.1969 57.3592ZM81.6373 57.9084L86.6422 64.1495C90.0891 61.3853 90.6425 56.3503 87.8783 52.9035L81.6373 57.9084ZM75.8456 62.553L69.6046 67.558C70.932 69.2132 72.8626 70.2733 74.9716 70.5051C77.0806 70.7369 79.1953 70.1215 80.8506 68.7941L75.8456 62.553ZM75.4052 62.0038L70.3509 55.8027C66.9453 58.5785 66.4155 63.5813 69.1642 67.0088L75.4052 62.0038ZM77.2389 53.1909L70.9978 58.1959L77.2389 53.1909ZM69.6764 60.6912L61.6871 60.2789C61.6868 60.2849 61.6864 60.2909 61.6862 60.297L69.6764 60.6912ZM57.9586 70.3754L51.7176 75.3803L57.9586 70.3754ZM54.3489 64.9023L48.1079 69.9073C50.872 73.3541 55.907 73.9075 59.3538 71.1434L54.3489 64.9023ZM53.9285 64.3781L58.9334 70.6191L66.0482 64.9135L61.0432 58.6724L56.0383 52.4314L48.9235 58.1371L53.9285 64.3781ZM61.0432 58.6724L54.8022 63.6774L55.2226 64.2016L61.4637 59.1967L67.7047 54.1917L67.2843 53.6675L61.0432 58.6724ZM61.4637 59.1967L56.4214 52.9857C50.4811 57.8082 46.4646 67.091 52.3862 74.475L58.6272 69.47L64.8682 64.4651C65.2293 64.9154 65.4217 65.3984 65.4976 65.8042C65.5713 66.1981 65.5258 66.4543 65.507 66.5321C65.4703 66.6837 65.5503 66.1834 66.5059 65.4076L61.4637 59.1967ZM58.6272 69.47L52.3862 74.475C54.4218 77.0133 57.4012 78.929 61.0416 79.247C64.6193 79.5596 67.793 78.24 70.1647 76.338L65.1598 70.097L60.1548 63.856C60.3297 63.7157 61.128 63.1936 62.4341 63.3077C63.8028 63.4273 64.6144 64.1486 64.8682 64.4651L58.6272 69.47ZM65.1598 70.097L70.1647 76.338C73.6386 73.5521 74.7088 69.743 75.1232 67.1785C75.5159 64.7488 75.5189 61.8903 75.5727 60.1629L67.5765 59.9141L59.5804 59.6653C59.5408 60.9369 59.5318 61.7524 59.4901 62.7129C59.4516 63.5981 59.3976 64.1964 59.3281 64.6259C59.1733 65.5842 59.1024 64.6999 60.1548 63.856L65.1598 70.097ZM67.5765 59.9141L75.5682 60.2781C75.6223 59.0922 75.6627 58.2708 75.7231 57.5921C75.7827 56.9217 75.8422 56.6472 75.8617 56.5724C75.868 56.5479 75.8133 56.7585 75.6293 57.0461C75.4437 57.3361 75.2747 57.4734 75.2899 57.4612L70.2849 51.2201L65.28 44.9791C62.7023 47.0463 61.1505 49.5743 60.3782 52.5398C59.7655 54.8921 59.6762 57.5435 59.5848 59.5501L67.5765 59.9141ZM70.2849 51.2201L75.2899 57.4612C75.1604 57.565 74.8649 57.7587 74.3991 57.8855C73.9268 58.0141 73.423 58.034 72.9523 57.9505C72.0156 57.7844 71.6948 57.326 71.7866 57.4403L78.0276 52.4354L84.2686 47.4304C82.2783 44.9485 79.3843 42.8414 75.7458 42.1963C71.9478 41.5228 68.2312 42.6123 65.28 44.9791L70.2849 51.2201ZM78.0276 52.4354L71.7866 57.4403C71.5654 57.1646 71.449 56.7045 71.4393 56.488C71.4389 56.4796 71.4406 56.507 71.4376 56.6087C71.436 56.6625 71.4336 56.7225 71.4295 56.8178C71.4262 56.8949 71.4198 57.0401 71.4152 57.1788C71.4086 57.3816 71.3845 58.0381 71.4691 58.7878C71.5376 59.3943 71.7894 61.3312 73.2726 63.1808L79.5137 58.1758L85.7547 53.1709C87.1328 54.8893 87.3275 56.6336 87.3681 56.9927C87.4248 57.495 87.4019 57.8492 87.4067 57.7019C87.4079 57.6655 87.4097 57.6236 87.4149 57.5026C87.4193 57.3997 87.4256 57.2504 87.4305 57.0845C87.4406 56.747 87.4467 56.294 87.4232 55.7708C87.3211 53.4954 86.6719 50.4273 84.2686 47.4304L78.0276 52.4354ZM79.5137 58.1758L73.2726 63.1808C73.8475 63.8977 75.3736 65.5694 78.0612 66.1224C80.482 66.6206 82.3905 65.897 83.1516 65.5641C84.5199 64.9655 85.6978 64.0045 86.2018 63.6003L81.1969 57.3592L76.1919 51.1182C75.9362 51.3232 75.8388 51.3922 75.8434 51.389C75.8507 51.3839 75.9238 51.3328 76.0485 51.2583C76.1661 51.188 76.4051 51.0514 76.7392 50.9052C77.2612 50.6769 78.9989 49.9801 81.2861 50.4508C83.8401 50.9763 85.2699 52.5663 85.7547 53.1709L79.5137 58.1758ZM81.1969 57.3592L74.9558 62.3642L75.3963 62.9134L81.6373 57.9084L87.8783 52.9035L87.4379 52.3543L81.1969 57.3592ZM81.6373 57.9084L76.6324 51.6674L70.8407 56.312L75.8456 62.553L80.8506 68.7941L86.6422 64.1495L81.6373 57.9084ZM75.8456 62.553L82.0867 57.5481L81.6462 56.9989L75.4052 62.0038L69.1642 67.0088L69.6046 67.558L75.8456 62.553ZM75.4052 62.0038L80.4595 68.2049C85.7722 63.8747 89.1797 55.2935 83.4799 48.186L77.2389 53.1909L70.9978 58.1959C70.7613 57.9009 70.5602 57.5077 70.4585 57.0575C70.359 56.617 70.3803 56.2396 70.4353 55.9757C70.5416 55.465 70.7267 55.4964 70.3509 55.8027L75.4052 62.0038ZM77.2389 53.1909L83.4799 48.186C81.4268 45.6259 78.5054 43.7815 75 43.5002C71.6607 43.2322 68.7851 44.4652 66.7755 46.0768L71.7805 52.3178L76.7854 58.5589C76.1988 59.0293 75.1415 59.563 73.7202 59.4489C72.1329 59.3216 71.2291 58.4843 70.9978 58.1959L77.2389 53.1909ZM71.7805 52.3178L66.7755 46.0768C63.3886 48.7929 62.4057 52.4688 62.0491 54.7827C61.7409 56.7822 61.7256 59.532 61.6871 60.2789L69.6764 60.6912L77.6658 61.1036C77.6906 60.6239 77.7059 60.1572 77.7183 59.7521C77.7314 59.3225 77.7408 58.9804 77.7546 58.6308C77.7823 57.9281 77.8183 57.5058 77.8624 57.22C77.962 56.5735 77.9505 57.6245 76.7854 58.5589L71.7805 52.3178ZM69.6764 60.6912L61.6862 60.297C61.609 61.8598 61.5747 62.8666 61.5072 63.8302C61.4428 64.7493 61.3726 65.1813 61.3233 65.3923C61.2902 65.5339 61.3066 65.4007 61.4423 65.1849C61.5743 64.9748 61.6531 64.9515 61.4507 65.1138L66.4556 71.3549L71.4606 77.5959C74.4019 75.2371 76.1116 72.4202 76.9031 69.0352C77.5035 66.4671 77.5547 63.3561 77.6667 61.0855L69.6764 60.6912ZM66.4556 71.3549L61.4507 65.1138C61.5271 65.0525 61.742 64.9106 62.0923 64.8188C62.4372 64.7284 62.7886 64.7194 63.1014 64.7715C63.6801 64.8678 64.0151 65.1403 64.1996 65.3704L57.9586 70.3754L51.7176 75.3803C55.8456 80.5279 64.3584 83.2914 71.4606 77.5959L66.4556 71.3549ZM57.9586 70.3754L64.1996 65.3704C64.1593 65.3202 64.2398 65.4118 64.3177 65.6366C64.3523 65.7364 64.3754 65.8314 64.3897 65.9119C64.4037 65.9904 64.4062 66.0383 64.4061 66.0377C64.4058 66.0305 64.4037 65.9854 64.406 65.84C64.4061 65.8299 64.4178 65.339 64.4175 65.0779C64.4171 64.7669 64.4118 64.0255 64.2553 63.1638C64.0957 62.2853 63.688 60.7428 62.4832 59.2405L56.2422 64.2454L50.0012 69.2504C48.9415 67.9291 48.6213 66.6202 48.5129 66.0237C48.4544 65.7017 48.4339 65.4519 48.4257 65.3191C48.4173 65.1839 48.4175 65.0981 48.4175 65.0968C48.4175 65.0962 48.4174 65.1207 48.4154 65.2161C48.414 65.2854 48.4102 65.4443 48.408 65.5865C48.403 65.8996 48.4006 66.3527 48.4283 66.8794C48.4854 67.9639 48.6681 69.341 49.1994 70.8746C49.7336 72.4164 50.5567 73.9328 51.7176 75.3803L57.9586 70.3754ZM56.2422 64.2454L62.4832 59.2405C61.5892 58.1257 60.0819 56.8237 57.8566 56.2824C55.7527 55.7706 53.9772 56.1798 52.9342 56.5465C51.1919 57.159 49.8313 58.2705 49.3439 58.6613L54.3489 64.9023L59.3538 71.1434C59.5329 70.9998 59.5497 70.9963 59.4577 71.0568C59.4059 71.0908 58.9624 71.3872 58.2405 71.641C57.4934 71.9036 55.9653 72.2889 54.0748 71.829C52.0629 71.3396 50.735 70.1654 50.0012 69.2504L56.2422 64.2454ZM54.3489 64.9023L60.5899 59.8974L60.1695 59.3731L53.9285 64.3781L47.6874 69.383L48.1079 69.9073L54.3489 64.9023ZM75.5185 84.4881L72.4138 77.1151L75.5185 84.4881ZM66.0777 82.3525L73.1638 78.6392C73.149 78.611 73.134 78.5828 73.1189 78.5548L66.0777 82.3525ZM75.09 82.4811L78.8116 89.5627L78.8116 89.5627L75.09 82.4811ZM80.0833 74.962L87.1693 71.2487C87.1545 71.2204 87.1396 71.1923 87.1244 71.1643L80.0833 74.962ZM71.0416 74.8458L67.3239 67.7621C67.3071 67.7709 67.2905 67.7797 67.2738 67.7886L71.0416 74.8458ZM64.7847 82.1678L72.1577 79.0631C72.3077 79.4192 72.3961 79.9149 72.3293 80.4388C72.2671 80.927 72.102 81.2032 72.067 81.2561C72.0391 81.2985 72.1164 81.1698 72.4114 80.9436C72.7003 80.722 73.1325 80.4582 73.7178 80.2118L70.6131 72.8388L67.5085 65.4658C64.1731 66.8702 60.8854 69.1538 58.716 72.4386C56.4021 75.9422 55.4427 80.5963 57.4117 85.2724L64.7847 82.1678ZM70.6131 72.8388L73.7178 80.2118C74.3141 79.9606 74.813 79.8334 75.1792 79.7803C75.5531 79.7261 75.702 79.7609 75.653 79.7516C75.5914 79.7398 75.277 79.6651 74.8825 79.3673C74.4591 79.0479 74.1657 78.6369 74.0157 78.2808L81.3887 75.1761L88.7617 72.0715C86.7918 67.3932 82.7888 64.826 78.6573 64.0361C74.7864 63.2962 70.8506 64.0584 67.5085 65.4658L70.6131 72.8388ZM81.3887 75.1761L74.0157 78.2808C73.858 77.9063 73.7702 77.396 73.8396 76.8645C73.9041 76.3702 74.0719 76.0935 74.1044 76.0446C74.1303 76.0057 74.0486 76.1386 73.7466 76.3695C73.4509 76.5956 73.0101 76.864 72.4138 77.1151L75.5185 84.4881L78.6231 91.8611C81.9658 90.4535 85.2553 88.1732 87.4304 84.9001C89.748 81.4125 90.7347 76.7569 88.7617 72.0715L81.3887 75.1761ZM75.5185 84.4881L72.4138 77.1151C71.8286 77.3615 71.3368 77.4868 70.9742 77.5391C70.6039 77.5926 70.4546 77.5583 70.5014 77.5672C70.5597 77.5784 70.8736 77.6518 71.2704 77.95C71.6971 78.2706 72.0001 78.6887 72.1577 79.0631L64.7847 82.1678L57.4117 85.2724C59.3838 89.9557 63.4002 92.5019 67.5061 93.2844C71.3621 94.0192 75.2871 93.2658 78.6231 91.8611L75.5185 84.4881ZM66.0777 82.3525L58.9917 86.0658C61.3154 90.4999 65.6434 92.1037 69.3199 92.153C72.7073 92.1985 76.0064 91.0369 78.8116 89.5627L75.09 82.4811L71.3683 75.3995C70.6726 75.7651 70.1394 75.9694 69.7814 76.0744C69.409 76.1836 69.3417 76.1519 69.5347 76.1545C69.7328 76.1571 70.3598 76.2016 71.1518 76.6222C72.0123 77.079 72.7258 77.8034 73.1638 78.6392L66.0777 82.3525ZM75.09 82.4811L78.8116 89.5627C81.6332 88.0799 84.4604 86.0078 86.3378 83.1773C88.3697 80.1139 89.4787 75.6556 87.1693 71.2487L80.0833 74.962L72.9973 78.6752C72.5627 77.8459 72.3759 76.8607 72.4839 75.9101C72.5835 75.0333 72.8947 74.4985 73.0043 74.3332C73.1111 74.1723 73.1009 74.2437 72.8057 74.4849C72.5217 74.717 72.0574 75.0373 71.3683 75.3995L75.09 82.4811ZM80.0833 74.962L87.1244 71.1643C84.7838 66.8245 80.5195 65.2172 76.8264 65.1676C73.4362 65.1221 70.1368 66.2858 67.3239 67.7621L71.0416 74.8458L74.7593 81.9295C75.4661 81.5585 76.0046 81.3522 76.3648 81.2465C76.7388 81.1367 76.8055 81.1688 76.6116 81.1662C76.4105 81.1635 75.7926 81.118 75.0134 80.7067C74.1705 80.2618 73.4745 79.5612 73.0422 78.7597L80.0833 74.962ZM71.0416 74.8458L67.2738 67.7886C64.4934 69.273 61.6765 71.3376 59.8052 74.1543C57.766 77.224 56.6479 81.7214 59.0366 86.1502L66.0777 82.3525L73.1189 78.5548C73.5681 79.3878 73.7735 80.3956 73.6656 81.382C73.5664 82.2887 73.2432 82.8411 73.1324 83.008C73.0245 83.1704 73.0366 83.096 73.3415 82.8461C73.6342 82.6061 74.1088 82.277 74.8094 81.903L71.0416 74.8458ZM91.346 87.6368L99.2516 86.4119L91.346 87.6368ZM92.5752 85.9568L91.3503 78.0511L92.5752 85.9568ZM94.2552 87.1861L102.161 85.9611L94.2552 87.1861ZM93.026 88.8661L91.8011 80.9604L93.026 88.8661ZM69.4836 94.2949L70.7086 102.201C75.0747 101.524 78.0658 97.4361 77.3893 93.0699L69.4836 94.2949ZM68.8195 94.3978L60.9139 95.6227C61.2388 97.7194 62.3832 99.6012 64.0956 100.854C65.8079 102.107 67.9478 102.628 70.0445 102.303L68.8195 94.3978ZM67.9082 88.5159L66.6833 80.6103C62.3171 81.2868 59.326 85.3747 60.0025 89.7409L67.9082 88.5159ZM68.5723 88.413L76.4779 87.1881C75.8014 82.8219 71.7135 79.8309 67.3473 80.5074L68.5723 88.413ZM83.0292 86.6264L78.5378 80.0061C74.9259 82.4565 73.9447 87.3499 76.3328 91.0034L83.0292 86.6264ZM83.5859 86.2487L90.2506 81.8235C89.0693 80.0444 87.2258 78.8115 85.1304 78.3992C83.0351 77.9869 80.8618 78.4295 79.0946 79.6284L83.5859 86.2487ZM85.6134 89.3022L92.0697 94.0262C94.0488 91.3213 94.132 87.6694 92.2781 84.8771L85.6134 89.3022ZM85.2927 89.7405L86.5176 97.6462C88.6143 97.3213 90.4961 96.1768 91.749 94.4645L85.2927 89.7405ZM91.346 87.6368L99.2516 86.4119C99.8007 89.9559 97.3441 93.3133 93.8002 93.8625L92.5752 85.9568L91.3503 78.0511C86.1619 78.8551 82.6364 83.6734 83.4403 88.8618L91.346 87.6368ZM92.5752 85.9568L93.8002 93.8625C90.337 94.3991 86.916 92.0667 86.3496 88.411L94.2552 87.1861L102.161 85.9611C101.34 80.6611 96.3945 77.2696 91.3503 78.0511L92.5752 85.9568ZM94.2552 87.1861L86.3496 88.411C85.7956 84.8354 88.2255 81.5144 91.8011 80.9604L93.026 88.8661L94.2509 96.7718C99.4077 95.9727 102.96 91.1179 102.161 85.9611L94.2552 87.1861ZM93.026 88.8661L91.8011 80.9604C95.4567 80.394 98.715 82.9488 99.2516 86.4119L91.346 87.6368L83.4403 88.8618C84.2219 93.906 88.9509 97.593 94.2509 96.7718L93.026 88.8661ZM71.5368 91.8719L70.3119 83.9662C69.7823 84.0483 68.8581 84.1982 67.9109 84.5013C66.9524 84.808 65.2091 85.5007 63.7142 87.1665C62.0927 88.9736 61.5727 91.0024 61.4409 92.4695C61.3254 93.7556 61.4815 94.8973 61.578 95.5198L69.4836 94.2949L77.3893 93.0699C77.3436 92.7753 77.4403 93.1937 77.3768 93.901C77.297 94.7893 76.9404 96.3839 75.6227 97.8525C74.4316 99.1798 73.1323 99.6297 72.7869 99.7402C72.453 99.847 72.3111 99.8474 72.7618 99.7776L71.5368 91.8719ZM69.4836 94.2949L68.2587 86.3892L67.5946 86.4921L68.8195 94.3978L70.0445 102.303L70.7086 102.201L69.4836 94.2949ZM68.8195 94.3978L76.7252 93.1728L75.8139 87.291L67.9082 88.5159L60.0025 89.7409L60.9139 95.6227L68.8195 94.3978ZM67.9082 88.5159L69.1331 96.4216L69.7972 96.3187L68.5723 88.413L67.3473 80.5074L66.6833 80.6103L67.9082 88.5159ZM68.5723 88.413L60.6666 89.638C60.7631 90.2605 60.9598 91.3959 61.4591 92.5867C62.0287 93.9452 63.1382 95.7215 65.2306 96.9531C67.1595 98.0884 69.0307 98.2211 70.0371 98.2233C71.0315 98.2256 71.9578 98.0888 72.4874 98.0067L71.2625 90.101L70.0375 82.1954C69.5868 82.2652 69.7222 82.2226 70.0728 82.2234C70.4354 82.2242 71.8099 82.2598 73.3468 83.1644C75.0472 84.1653 75.8696 85.5773 76.2145 86.3998C76.4891 87.0547 76.5236 87.4827 76.4779 87.1881L68.5723 88.413ZM71.2625 90.101L72.4874 98.0067L82.9545 96.3849L81.7295 88.4792L80.5046 80.5735L70.0375 82.1954L71.2625 90.101ZM81.7295 88.4792L82.9545 96.3849C83.2417 96.3404 84.0251 96.2286 84.664 96.0845C85.0205 96.004 85.6597 95.8454 86.3809 95.5411C87.0788 95.2467 88.3192 94.625 89.4459 93.3716C92.4393 90.0419 91.5559 86.223 91.0716 84.857C90.6349 83.6257 89.9605 82.6087 89.7256 82.2494L83.0292 86.6264L76.3328 91.0034C76.6072 91.4232 76.27 90.9895 75.9915 90.2042C75.8304 89.7498 75.5022 88.6802 75.6022 87.2568C75.7179 85.6108 76.3741 83.9798 77.5472 82.6749C78.5704 81.5367 79.6606 81.0107 80.161 80.7996C80.6846 80.5787 81.0788 80.4912 81.1419 80.4769C81.1942 80.4651 81.1977 80.4662 80.5046 80.5735L81.7295 88.4792ZM83.0292 86.6264L87.5205 93.2466L88.0772 92.8689L83.5859 86.2487L79.0946 79.6284L78.5378 80.0061L83.0292 86.6264ZM83.5859 86.2487L76.9212 90.6738L78.9487 93.7274L85.6134 89.3022L92.2781 84.8771L90.2506 81.8235L83.5859 86.2487ZM85.6134 89.3022L79.1571 84.5782L78.8364 85.0165L85.2927 89.7405L91.749 94.4645L92.0697 94.0262L85.6134 89.3022ZM85.2927 89.7405L84.0678 81.8348L70.3119 83.9662L71.5368 91.8719L72.7618 99.7776L86.5176 97.6462L85.2927 89.7405Z" fill="#D6706F" mask="url(#path-2-outside-1_785_105)"/>
</g>
<defs>
<clipPath id="clip0_785_105">
<rect width="111.02" height="52.8904" fill="white" transform="translate(37.3994) rotate(45)"/>
</clipPath>
</defs>
</svg>
