<svg width="154" height="109" viewBox="0 0 154 109" fill="none" xmlns="http://www.w3.org/2000/svg">
<mask id="path-1-outside-1_520_109" maskUnits="userSpaceOnUse" x="-16.8902" y="-29.5367" width="177.045" height="165.216" fill="black">
<rect fill="white" x="-16.8902" y="-29.5367" width="177.045" height="165.216"/>
<path d="M23.1389 33.8171L23.2333 33.8345L34.8158 13.1577L40.6065 14.2236L40.4849 14.8845C37.4951 14.3342 37.1308 14.7226 36.7774 16.6424L33.2553 35.7769C32.9019 37.6967 33.104 38.1894 36.0938 38.7397L35.9721 39.4006L27.4749 37.8365L27.5965 37.1756C30.6178 37.7317 30.9821 37.3433 31.3355 35.4235L35.0778 15.0931L34.9834 15.0757L22.4007 37.6508L21.4565 37.4771L17.9309 12.2622L17.8365 12.2448L14.2151 32.2721C13.8618 34.1919 14.0324 34.6788 17.0595 35.2035L16.932 35.8959L9.31597 34.494L9.43762 33.8331C12.4589 34.3892 12.7917 33.9949 13.1451 32.0752L16.6672 12.9406C17.0206 11.0209 16.8499 10.534 13.8287 9.97783L13.9504 9.31693L19.804 10.3944L23.1389 33.8171ZM47.8885 41.5835L48.5203 41.8124C47.606 43.1148 46.8416 44.0972 45.4577 43.5957C44.0135 43.0725 44.0257 41.8176 44.5599 40.3434L44.767 39.7718L44.7068 39.75C43.8683 40.4672 41.7872 42.2658 39.3502 41.3829C37.2442 40.6198 36.7663 38.7449 37.562 36.5486C38.9355 32.7578 42.4621 32.606 45.9338 32.2302L47.5576 32.0697L48.1026 30.5654C48.8439 28.5196 49.2328 26.7885 46.9162 25.9492C45.5924 25.4695 44.3105 25.7198 43.9617 26.6826C43.7109 27.3745 44.1191 28.0329 43.8683 28.7249C43.6721 29.2665 43.1201 29.4749 42.4582 29.2351C41.7061 28.9626 41.4946 28.1372 41.9415 26.9036C42.6719 24.8879 44.9157 24.2373 47.3827 25.1312C49.8498 26.025 50.9647 27.9266 49.7547 31.2661L46.212 41.0441C45.8523 42.0369 45.738 42.5401 46.2796 42.7363C46.7309 42.8998 47.105 42.5249 47.8885 41.5835ZM40.5571 40.1184C41.911 40.6089 43.1079 40.1236 45.1158 38.809L47.2088 33.0325L45.6151 33.2038C42.7011 33.5435 40.3317 34.3528 39.4378 36.8198C38.8274 38.5046 39.2634 39.6497 40.5571 40.1184ZM54.8083 44.6919C58.4018 46.2978 60.5195 48.2256 59.2923 50.9719C58.0128 53.835 53.6017 54.8429 49.4531 52.989C46.6776 51.7487 44.5344 49.5641 45.6833 46.9932C46.4406 45.2987 48.083 44.5255 50.4073 43.9519C49.6259 43.112 49.4619 42.3027 49.8797 41.3678C50.3497 40.316 51.501 39.779 52.9121 39.288C52.2458 37.7986 52.2919 35.8914 53.1536 33.9632C54.642 30.6327 57.6601 29.2125 60.3479 30.4136C61.312 30.8445 62.0579 31.5283 62.5402 32.4098C63.8432 32.3962 65.1392 32.5548 66.2786 33.064C66.9214 33.3512 67.0507 33.6894 66.8548 34.1276C66.6198 34.6535 66.1878 34.6006 65.5743 34.3265C64.5809 33.8826 63.8114 33.6438 63.0188 33.535L62.9088 33.3105C63.3414 34.6956 63.2437 36.4044 62.4733 38.1281C60.985 41.4586 57.9377 42.8658 55.3083 41.6908C54.4318 41.2991 53.7313 40.6706 53.226 39.919C52.2245 40.2776 51.5221 40.5946 51.2348 41.2373C50.7909 42.2306 51.4485 43.1905 54.8083 44.6919ZM59.495 31.2241C57.5015 30.5085 55.8578 31.912 54.7598 34.9965C53.6911 38.0939 54.2131 40.2199 56.132 40.8672C58.0963 41.5697 59.8114 40.1631 60.8541 37.1241C61.8806 34.0427 61.4723 31.8975 59.495 31.2241ZM50.6871 51.7178C54.1929 53.2846 57.137 53.1281 58.1684 50.8201C59.0431 48.8627 57.0509 47.5167 54.0417 46.172C52.6978 45.5714 51.6852 45.0137 50.9586 44.4436C48.6958 45.1148 47.723 45.8017 47.2399 46.8826C46.5088 48.5187 47.6487 50.36 50.6871 51.7178ZM73.5501 30.0537C72.8079 29.6777 72.5262 28.8176 72.9022 28.0754C73.2637 27.3618 74.1383 27.0515 74.8805 27.4275C75.5941 27.789 75.8899 28.6922 75.5284 29.4058C75.1524 30.148 74.2637 30.4153 73.5501 30.0537ZM65.4382 48.6154C64.5416 50.3852 64.5534 50.8576 66.2091 51.6963L65.9054 52.2958L60.5958 49.606L60.8995 49.0065C62.5552 49.8453 62.943 49.5754 63.8396 47.8056L68.6263 38.3568C69.5229 36.587 69.7391 36.3019 67.8791 36.2206L67.8969 35.548L71.5598 35.6818L71.7288 36.1979L65.4382 48.6154ZM79.5376 44.6242C80.2748 43.24 80.5396 41.8482 79.3386 41.1768C77.1599 39.9588 74.6028 41.9754 72.2761 46.1372C70.0275 50.1593 69.9284 53.55 72.2187 54.8304C73.755 55.6893 75.5067 54.9822 78.2785 51.7291L78.8651 52.0571C76.0915 55.969 73.3686 57.233 70.9385 55.8745C67.7823 54.11 67.8586 49.9732 70.3101 45.588C73.074 40.6441 76.8808 38.5563 79.9812 40.2896C82.4112 41.6481 82.4099 44.4703 81.6136 45.8948C81.1763 46.6768 80.6036 46.9799 79.9053 46.5895C79.2071 46.1992 79.0659 45.5336 79.5376 44.6242ZM94.0521 66.277L94.131 66.3318L113.213 52.2762L118.048 55.6365L117.665 56.1883C115.168 54.4534 114.676 54.6569 113.562 56.2598L102.459 72.2363C101.345 73.8392 101.325 74.3715 103.822 76.1064L103.438 76.6582L96.3434 71.7274L96.7269 71.1756C99.2495 72.9287 99.7417 72.7252 100.856 71.1223L112.653 54.1473L112.574 54.0925L91.7979 69.4646L91.0095 68.9167L98.202 44.4936L98.1232 44.4388L86.5609 61.1876C85.4469 62.7905 85.4015 63.3045 87.9423 65.0314L87.5406 65.6095L81.1815 61.19L81.565 60.6382C84.0876 62.3914 84.5535 62.1696 85.6675 60.5667L96.771 44.5902C97.885 42.9873 97.9304 42.4733 95.4078 40.7201L95.7913 40.1683L100.679 43.5651L94.0521 66.277ZM120.434 60.4125C119.78 59.8982 119.672 58.9994 120.187 58.3455C120.681 57.7167 121.6 57.5842 122.254 58.0986C122.883 58.5932 122.995 59.5369 122.501 60.1656C121.986 60.8196 121.063 60.9071 120.434 60.4125ZM108.836 77.0205C107.609 78.5798 107.528 79.0453 108.987 80.1928L108.571 80.7209L103.893 77.0411L104.309 76.5129C105.767 77.6604 106.201 77.4719 107.427 75.9125L113.976 67.5874C115.202 66.028 115.47 65.7909 113.662 65.346L113.812 64.6901L117.377 65.5404L117.442 66.0796L108.836 77.0205ZM122.686 70.408L121.02 72.3938L121.094 72.4555C123.067 71.8965 124.968 71.8208 126.292 72.9313C128.057 74.4121 127.584 76.2707 125.938 78.232L119.501 85.9055C118.226 87.4255 118.13 87.8881 119.577 89.1015L119.145 89.6164L114.61 85.8116L115.041 85.2968C116.439 86.4691 116.878 86.2943 118.153 84.7743L124.59 77.1008C125.804 75.6544 125.955 74.5281 124.95 73.6849C123.895 72.8006 122.084 72.8684 120.321 73.2273L113.74 81.0724C112.465 82.5924 112.369 83.0551 113.742 84.2068L113.31 84.7216L108.799 80.9375L109.231 80.4226C110.653 81.6155 111.092 81.4407 112.367 79.9207L119.175 71.8059C120.45 70.2859 120.725 70.0574 118.932 69.5558L119.102 68.9049L122.639 69.867L122.686 70.408ZM129.816 97.5574L129.613 98.199L126.151 97.0386L126.132 96.5411L127.982 94.5469L127.888 94.4598C125.645 95.0423 124.039 95.0801 122.772 93.905C120.332 91.6419 121.37 87.9346 124.699 84.3449C128.138 80.6379 132.56 78.411 135.493 81.1311C136.642 82.1974 136.838 83.7751 136.661 85.0951L136.708 85.1386L141.647 79.8127C143.018 78.3346 143.305 78.1201 141.539 77.5298L141.741 76.8882L145.204 78.0486L145.223 78.5461L129.707 95.2745C128.336 96.7526 128.05 96.9671 129.816 97.5574ZM128.895 93.5615L133.356 88.7518C135.859 86.0536 136.419 83.4739 134.917 82.0812C132.665 79.9921 129.222 82.386 126.655 85.1545C123.652 88.3922 122.318 91.4766 124.148 93.1739C125.556 94.4796 127.259 94.0079 128.895 93.5615Z"/>
</mask>
<path d="M23.1389 33.8171L23.2333 33.8345L34.8158 13.1577L40.6065 14.2236L40.4849 14.8845C37.4951 14.3342 37.1308 14.7226 36.7774 16.6424L33.2553 35.7769C32.9019 37.6967 33.104 38.1894 36.0938 38.7397L35.9721 39.4006L27.4749 37.8365L27.5965 37.1756C30.6178 37.7317 30.9821 37.3433 31.3355 35.4235L35.0778 15.0931L34.9834 15.0757L22.4007 37.6508L21.4565 37.4771L17.9309 12.2622L17.8365 12.2448L14.2151 32.2721C13.8618 34.1919 14.0324 34.6788 17.0595 35.2035L16.932 35.8959L9.31597 34.494L9.43762 33.8331C12.4589 34.3892 12.7917 33.9949 13.1451 32.0752L16.6672 12.9406C17.0206 11.0209 16.8499 10.534 13.8287 9.97783L13.9504 9.31693L19.804 10.3944L23.1389 33.8171ZM47.8885 41.5835L48.5203 41.8124C47.606 43.1148 46.8416 44.0972 45.4577 43.5957C44.0135 43.0725 44.0257 41.8176 44.5599 40.3434L44.767 39.7718L44.7068 39.75C43.8683 40.4672 41.7872 42.2658 39.3502 41.3829C37.2442 40.6198 36.7663 38.7449 37.562 36.5486C38.9355 32.7578 42.4621 32.606 45.9338 32.2302L47.5576 32.0697L48.1026 30.5654C48.8439 28.5196 49.2328 26.7885 46.9162 25.9492C45.5924 25.4695 44.3105 25.7198 43.9617 26.6826C43.7109 27.3745 44.1191 28.0329 43.8683 28.7249C43.6721 29.2665 43.1201 29.4749 42.4582 29.2351C41.7061 28.9626 41.4946 28.1372 41.9415 26.9036C42.6719 24.8879 44.9157 24.2373 47.3827 25.1312C49.8498 26.025 50.9647 27.9266 49.7547 31.2661L46.212 41.0441C45.8523 42.0369 45.738 42.5401 46.2796 42.7363C46.7309 42.8998 47.105 42.5249 47.8885 41.5835ZM40.5571 40.1184C41.911 40.6089 43.1079 40.1236 45.1158 38.809L47.2088 33.0325L45.6151 33.2038C42.7011 33.5435 40.3317 34.3528 39.4378 36.8198C38.8274 38.5046 39.2634 39.6497 40.5571 40.1184ZM54.8083 44.6919C58.4018 46.2978 60.5195 48.2256 59.2923 50.9719C58.0128 53.835 53.6017 54.8429 49.4531 52.989C46.6776 51.7487 44.5344 49.5641 45.6833 46.9932C46.4406 45.2987 48.083 44.5255 50.4073 43.9519C49.6259 43.112 49.4619 42.3027 49.8797 41.3678C50.3497 40.316 51.501 39.779 52.9121 39.288C52.2458 37.7986 52.2919 35.8914 53.1536 33.9632C54.642 30.6327 57.6601 29.2125 60.3479 30.4136C61.312 30.8445 62.0579 31.5283 62.5402 32.4098C63.8432 32.3962 65.1392 32.5548 66.2786 33.064C66.9214 33.3512 67.0507 33.6894 66.8548 34.1276C66.6198 34.6535 66.1878 34.6006 65.5743 34.3265C64.5809 33.8826 63.8114 33.6438 63.0188 33.535L62.9088 33.3105C63.3414 34.6956 63.2437 36.4044 62.4733 38.1281C60.985 41.4586 57.9377 42.8658 55.3083 41.6908C54.4318 41.2991 53.7313 40.6706 53.226 39.919C52.2245 40.2776 51.5221 40.5946 51.2348 41.2373C50.7909 42.2306 51.4485 43.1905 54.8083 44.6919ZM59.495 31.2241C57.5015 30.5085 55.8578 31.912 54.7598 34.9965C53.6911 38.0939 54.2131 40.2199 56.132 40.8672C58.0963 41.5697 59.8114 40.1631 60.8541 37.1241C61.8806 34.0427 61.4723 31.8975 59.495 31.2241ZM50.6871 51.7178C54.1929 53.2846 57.137 53.1281 58.1684 50.8201C59.0431 48.8627 57.0509 47.5167 54.0417 46.172C52.6978 45.5714 51.6852 45.0137 50.9586 44.4436C48.6958 45.1148 47.723 45.8017 47.2399 46.8826C46.5088 48.5187 47.6487 50.36 50.6871 51.7178ZM73.5501 30.0537C72.8079 29.6777 72.5262 28.8176 72.9022 28.0754C73.2637 27.3618 74.1383 27.0515 74.8805 27.4275C75.5941 27.789 75.8899 28.6922 75.5284 29.4058C75.1524 30.148 74.2637 30.4153 73.5501 30.0537ZM65.4382 48.6154C64.5416 50.3852 64.5534 50.8576 66.2091 51.6963L65.9054 52.2958L60.5958 49.606L60.8995 49.0065C62.5552 49.8453 62.943 49.5754 63.8396 47.8056L68.6263 38.3568C69.5229 36.587 69.7391 36.3019 67.8791 36.2206L67.8969 35.548L71.5598 35.6818L71.7288 36.1979L65.4382 48.6154ZM79.5376 44.6242C80.2748 43.24 80.5396 41.8482 79.3386 41.1768C77.1599 39.9588 74.6028 41.9754 72.2761 46.1372C70.0275 50.1593 69.9284 53.55 72.2187 54.8304C73.755 55.6893 75.5067 54.9822 78.2785 51.7291L78.8651 52.0571C76.0915 55.969 73.3686 57.233 70.9385 55.8745C67.7823 54.11 67.8586 49.9732 70.3101 45.588C73.074 40.6441 76.8808 38.5563 79.9812 40.2896C82.4112 41.6481 82.4099 44.4703 81.6136 45.8948C81.1763 46.6768 80.6036 46.9799 79.9053 46.5895C79.2071 46.1992 79.0659 45.5336 79.5376 44.6242ZM94.0521 66.277L94.131 66.3318L113.213 52.2762L118.048 55.6365L117.665 56.1883C115.168 54.4534 114.676 54.6569 113.562 56.2598L102.459 72.2363C101.345 73.8392 101.325 74.3715 103.822 76.1064L103.438 76.6582L96.3434 71.7274L96.7269 71.1756C99.2495 72.9287 99.7417 72.7252 100.856 71.1223L112.653 54.1473L112.574 54.0925L91.7979 69.4646L91.0095 68.9167L98.202 44.4936L98.1232 44.4388L86.5609 61.1876C85.4469 62.7905 85.4015 63.3045 87.9423 65.0314L87.5406 65.6095L81.1815 61.19L81.565 60.6382C84.0876 62.3914 84.5535 62.1696 85.6675 60.5667L96.771 44.5902C97.885 42.9873 97.9304 42.4733 95.4078 40.7201L95.7913 40.1683L100.679 43.5651L94.0521 66.277ZM120.434 60.4125C119.78 59.8982 119.672 58.9994 120.187 58.3455C120.681 57.7167 121.6 57.5842 122.254 58.0986C122.883 58.5932 122.995 59.5369 122.501 60.1656C121.986 60.8196 121.063 60.9071 120.434 60.4125ZM108.836 77.0205C107.609 78.5798 107.528 79.0453 108.987 80.1928L108.571 80.7209L103.893 77.0411L104.309 76.5129C105.767 77.6604 106.201 77.4719 107.427 75.9125L113.976 67.5874C115.202 66.028 115.47 65.7909 113.662 65.346L113.812 64.6901L117.377 65.5404L117.442 66.0796L108.836 77.0205ZM122.686 70.408L121.02 72.3938L121.094 72.4555C123.067 71.8965 124.968 71.8208 126.292 72.9313C128.057 74.4121 127.584 76.2707 125.938 78.232L119.501 85.9055C118.226 87.4255 118.13 87.8881 119.577 89.1015L119.145 89.6164L114.61 85.8116L115.041 85.2968C116.439 86.4691 116.878 86.2943 118.153 84.7743L124.59 77.1008C125.804 75.6544 125.955 74.5281 124.95 73.6849C123.895 72.8006 122.084 72.8684 120.321 73.2273L113.74 81.0724C112.465 82.5924 112.369 83.0551 113.742 84.2068L113.31 84.7216L108.799 80.9375L109.231 80.4226C110.653 81.6155 111.092 81.4407 112.367 79.9207L119.175 71.8059C120.45 70.2859 120.725 70.0574 118.932 69.5558L119.102 68.9049L122.639 69.867L122.686 70.408ZM129.816 97.5574L129.613 98.199L126.151 97.0386L126.132 96.5411L127.982 94.5469L127.888 94.4598C125.645 95.0423 124.039 95.0801 122.772 93.905C120.332 91.6419 121.37 87.9346 124.699 84.3449C128.138 80.6379 132.56 78.411 135.493 81.1311C136.642 82.1974 136.838 83.7751 136.661 85.0951L136.708 85.1386L141.647 79.8127C143.018 78.3346 143.305 78.1201 141.539 77.5298L141.741 76.8882L145.204 78.0486L145.223 78.5461L129.707 95.2745C128.336 96.7526 128.05 96.9671 129.816 97.5574ZM128.895 93.5615L133.356 88.7518C135.859 86.0536 136.419 83.4739 134.917 82.0812C132.665 79.9921 129.222 82.386 126.655 85.1545C123.652 88.3922 122.318 91.4766 124.148 93.1739C125.556 94.4796 127.259 94.0079 128.895 93.5615Z" fill="#325E7D"/>
<path d="M23.1389 33.8171L15.2188 34.9448L16.0301 40.643L21.6906 41.685L23.1389 33.8171ZM23.2333 33.8345L21.785 41.7023L27.4151 42.7387L30.2128 37.7442L23.2333 33.8345ZM34.8158 13.1577L36.2641 5.28986L30.634 4.25353L27.8363 9.24796L34.8158 13.1577ZM40.6065 14.2236L48.4743 15.6718L49.9226 7.80402L42.0548 6.35578L40.6065 14.2236ZM40.4849 14.8845L39.0366 22.7523L46.9044 24.2006L48.3527 16.3327L40.4849 14.8845ZM36.7774 16.6424L44.6452 18.0906L36.7774 16.6424ZM33.2553 35.7769L25.3874 34.3287L33.2553 35.7769ZM36.0938 38.7397L43.9616 40.188L45.4099 32.3201L37.542 30.8719L36.0938 38.7397ZM35.9721 39.4006L34.5239 47.2684L42.3917 48.7167L43.84 40.8489L35.9721 39.4006ZM27.4749 37.8365L19.6071 36.3883L18.1588 44.2561L26.0266 45.7043L27.4749 37.8365ZM27.5965 37.1756L29.0448 29.3078L21.177 27.8595L19.7287 35.7274L27.5965 37.1756ZM31.3355 35.4235L23.4677 33.9753L31.3355 35.4235ZM35.0778 15.0931L42.9456 16.5413L44.3938 8.67351L36.526 7.22526L35.0778 15.0931ZM34.9834 15.0757L36.4316 7.20789L30.7888 6.16921L27.9955 11.1809L34.9834 15.0757ZM22.4007 37.6509L20.9524 45.5187L26.5952 46.5573L29.3885 41.5457L22.4007 37.6509ZM21.4565 37.4771L13.5336 38.5849L14.3327 44.3002L20.0083 45.3449L21.4565 37.4771ZM17.9309 12.2622L25.8539 11.1544L25.0547 5.4391L19.3792 4.39438L17.9309 12.2622ZM17.8365 12.2448L19.2848 4.37701L11.3922 2.9242L9.96419 10.8213L17.8365 12.2448ZM14.2151 32.2721L22.0829 33.7204L22.0852 33.708L22.0875 33.6956L14.2151 32.2721ZM17.0595 35.2035L24.9273 36.6517L26.3907 28.7015L18.4257 27.321L17.0595 35.2035ZM16.932 35.8959L15.4838 43.7637L23.3516 45.2119L24.7998 37.3441L16.932 35.8959ZM9.31597 34.494L1.44815 33.0457L-9.8966e-05 40.9135L7.86772 42.3618L9.31597 34.494ZM9.43762 33.8331L10.8859 25.9652L3.01805 24.517L1.5698 32.3848L9.43762 33.8331ZM13.8287 9.97783L5.96089 8.52958L4.51264 16.3974L12.3805 17.8456L13.8287 9.97783ZM13.9504 9.31693L15.3986 1.44911L7.53079 0.000866915L6.08254 7.86869L13.9504 9.31693ZM19.804 10.3944L27.7241 9.26678L26.9128 3.56857L21.2523 2.52661L19.804 10.3944ZM23.1389 33.8171L21.6906 41.685L21.785 41.7023L23.2333 33.8345L24.6815 25.9667L24.5871 25.9493L23.1389 33.8171ZM23.2333 33.8345L30.2128 37.7442L41.7954 17.0674L34.8158 13.1577L27.8363 9.24796L16.2537 29.9248L23.2333 33.8345ZM34.8158 13.1577L33.3676 21.0255L39.1583 22.0914L40.6065 14.2236L42.0548 6.35578L36.2641 5.28986L34.8158 13.1577ZM40.6065 14.2236L32.7387 12.7753L32.6171 13.4362L40.4849 14.8845L48.3527 16.3327L48.4743 15.6718L40.6065 14.2236ZM40.4849 14.8845L41.9331 7.01667C41.0806 6.85974 39.9949 6.68578 38.8848 6.6593C37.8177 6.63384 35.9021 6.71118 33.9121 7.76014C31.6526 8.95115 30.409 10.7847 29.7586 12.268C29.2204 13.4955 29.0017 14.6937 28.9096 15.1941L36.7774 16.6424L44.6452 18.0906C44.7298 17.6312 44.6891 18.0609 44.412 18.6928C44.0228 19.5805 43.1234 20.9914 41.3729 21.9142C39.8919 22.6948 38.65 22.6582 38.5032 22.6547C38.3133 22.6502 38.3943 22.6341 39.0366 22.7523L40.4849 14.8845ZM36.7774 16.6424L28.9096 15.1941L25.3874 34.3287L33.2553 35.7769L41.1231 37.2251L44.6452 18.0906L36.7774 16.6424ZM33.2553 35.7769L25.3874 34.3287C25.2953 34.8291 25.0731 36.0267 25.1389 37.3653C25.2185 38.9829 25.7277 41.1392 27.415 43.0567C28.901 44.7455 30.6635 45.4998 31.6697 45.856C32.7165 46.2266 33.793 46.4506 34.6455 46.6075L36.0938 38.7397L37.542 30.8719C36.8997 30.7537 36.8298 30.7097 37.0088 30.7731C37.1473 30.8221 38.3208 31.2302 39.4267 32.487C40.7339 33.9726 41.072 35.6113 41.1196 36.5794C41.1535 37.2685 41.0385 37.6846 41.1231 37.2251L33.2553 35.7769ZM36.0938 38.7397L28.226 37.2915L28.1043 37.9524L35.9721 39.4006L43.84 40.8489L43.9616 40.188L36.0938 38.7397ZM35.9721 39.4006L37.4204 31.5328L28.9231 29.9687L27.4749 37.8365L26.0266 45.7043L34.5239 47.2684L35.9721 39.4006ZM27.4749 37.8365L35.3427 39.2848L35.4644 38.6239L27.5965 37.1756L19.7287 35.7274L19.6071 36.3883L27.4749 37.8365ZM27.5965 37.1756L26.1483 45.0434C27.0074 45.2016 28.0943 45.3757 29.2027 45.4039C30.2648 45.4308 32.177 45.3588 34.1666 44.3209C36.4346 43.1378 37.6904 41.3047 38.3489 39.8088C38.892 38.5751 39.1116 37.3703 39.2033 36.8718L31.3355 35.4235L23.4677 33.9753C23.3828 34.4366 23.4242 34.0003 23.7052 33.362C24.1017 32.4615 25.0113 31.0507 26.7664 30.1351C28.243 29.3648 29.4756 29.4056 29.6086 29.409C29.788 29.4136 29.6963 29.4277 29.0448 29.3078L27.5965 37.1756ZM31.3355 35.4235L39.2033 36.8718L42.9456 16.5413L35.0778 15.0931L27.21 13.6448L23.4677 33.9753L31.3355 35.4235ZM35.0778 15.0931L36.526 7.22526L36.4316 7.20789L34.9834 15.0757L33.5351 22.9435L33.6295 22.9609L35.0778 15.0931ZM34.9834 15.0757L27.9955 11.1809L15.4128 33.756L22.4007 37.6509L29.3885 41.5457L41.9712 18.9705L34.9834 15.0757ZM22.4007 37.6509L23.8489 29.783L22.9048 29.6092L21.4565 37.4771L20.0083 45.3449L20.9524 45.5187L22.4007 37.6509ZM21.4565 37.4771L29.3795 36.3693L25.8539 11.1544L17.9309 12.2622L10.008 13.37L13.5336 38.5849L21.4565 37.4771ZM17.9309 12.2622L19.3792 4.39438L19.2848 4.37701L17.8365 12.2448L16.3883 20.1126L16.4827 20.13L17.9309 12.2622ZM17.8365 12.2448L9.96419 10.8213L6.3428 30.8486L14.2151 32.2721L22.0875 33.6956L25.7089 13.6683L17.8365 12.2448ZM14.2151 32.2721L6.34731 30.8239C6.26047 31.2957 6.03646 32.4836 6.09185 33.8021C6.15906 35.4017 6.64593 37.5982 8.36995 39.5528C9.88532 41.2709 11.6884 42.0172 12.6955 42.3623C13.7492 42.7233 14.834 42.937 15.6932 43.086L17.0595 35.2035L18.4257 27.321C17.7714 27.2076 17.6997 27.1638 17.8812 27.2259C18.0159 27.2721 19.2308 27.6784 20.3693 28.9691C21.7165 30.4965 22.0378 32.1785 22.0778 33.1305C22.1059 33.8013 21.9931 34.2085 22.0829 33.7204L14.2151 32.2721ZM17.0595 35.2035L9.19164 33.7552L9.0642 34.4476L16.932 35.8959L24.7998 37.3441L24.9273 36.6517L17.0595 35.2035ZM16.932 35.8959L18.3803 28.028L10.7642 26.6261L9.31597 34.494L7.86772 42.3618L15.4838 43.7637L16.932 35.8959ZM9.31597 34.494L17.1838 35.9422L17.3054 35.2813L9.43762 33.8331L1.5698 32.3848L1.44815 33.0457L9.31597 34.494ZM9.43762 33.8331L7.98937 41.7009C8.84648 41.8586 9.9359 42.0335 11.0469 42.0606C12.1113 42.0865 14.0466 42.012 16.0528 40.9434C18.3331 39.7288 19.5609 37.8649 20.1922 36.3954C20.7124 35.1842 20.9259 33.9964 21.0129 33.5234L13.1451 32.0752L5.27729 30.6269C5.18766 31.1138 5.22702 30.6952 5.49103 30.0805C5.86606 29.2075 6.7556 27.7674 8.53082 26.8218C10.032 26.0221 11.2955 26.0619 11.4367 26.0653C11.6245 26.0699 11.5394 26.0855 10.8859 25.9652L9.43762 33.8331ZM13.1451 32.0752L21.0129 33.5234L24.5351 14.3889L16.6672 12.9406L8.79942 11.4924L5.27729 30.6269L13.1451 32.0752ZM16.6672 12.9406L24.5351 14.3889C24.6221 13.9159 24.8456 12.7299 24.7907 11.4129C24.7241 9.81495 24.2405 7.63603 22.5421 5.68908C21.0479 3.9761 19.266 3.21736 18.2622 2.8626C17.2143 2.49229 16.1341 2.26778 15.277 2.11001L13.8287 9.97783L12.3805 17.8456C13.034 17.9659 13.108 18.0109 12.9308 17.9482C12.7977 17.9012 11.6028 17.4884 10.4848 16.2067C9.1626 14.6909 8.84416 13.0285 8.8046 12.0791C8.77675 11.4107 8.88905 11.0055 8.79942 11.4924L16.6672 12.9406ZM13.8287 9.97783L21.6965 11.4261L21.8182 10.7652L13.9504 9.31693L6.08254 7.86869L5.96089 8.52958L13.8287 9.97783ZM13.9504 9.31693L12.5021 17.1848L18.3558 18.2622L19.804 10.3944L21.2523 2.52661L15.3986 1.44911L13.9504 9.31693ZM19.804 10.3944L11.8839 11.5221L15.2188 34.9448L23.1389 33.8171L31.059 32.6895L27.7241 9.26678L19.804 10.3944ZM47.8885 41.5835L50.6137 34.0619L45.3329 32.1486L41.7397 36.4656L47.8885 41.5835ZM48.5203 41.8124L55.0679 46.4091L61.0751 37.8523L51.2455 34.2909L48.5203 41.8124ZM44.5599 40.3434L37.0383 37.6182L44.5599 40.3434ZM44.767 39.7718L52.2885 42.497L55.0137 34.9754L47.4922 32.2502L44.767 39.7718ZM44.7068 39.75L47.432 32.2284L43.049 30.6404L39.5065 33.6708L44.7068 39.75ZM45.9338 32.2302L45.1471 24.269L45.1099 24.2726L45.0727 24.2767L45.9338 32.2302ZM47.5576 32.0697L48.3443 40.0309L53.3616 39.5351L55.0791 34.7949L47.5576 32.0697ZM43.9617 26.6826L36.4401 23.9574L43.9617 26.6826ZM41.9415 26.9036L34.42 24.1784L41.9415 26.9036ZM46.212 41.0441L38.6905 38.3189L46.212 41.0441ZM46.2796 42.7363L49.0048 35.2148L46.2796 42.7363ZM45.1158 38.809L49.4979 45.5021L51.7289 44.0414L52.6373 41.5342L45.1158 38.809ZM47.2088 33.0325L54.7303 35.7577L59.096 23.7082L46.3535 25.0783L47.2088 33.0325ZM45.6151 33.2038L44.7598 25.2497L44.7243 25.2535L44.6888 25.2576L45.6151 33.2038ZM47.8885 41.5835L45.1633 49.105L45.7951 49.3339L48.5203 41.8124L51.2455 34.2909L50.6137 34.0619L47.8885 41.5835ZM48.5203 41.8124L41.9728 37.2157C41.7458 37.539 41.6893 37.6083 41.6938 37.6029C41.6963 37.5998 41.961 37.271 42.4792 36.8965C43.0538 36.4813 43.9776 35.9837 45.2089 35.7997C46.4482 35.6145 47.4895 35.823 48.1829 36.0742L45.4577 43.5957L42.7325 51.1173C44.1178 51.6192 45.7737 51.893 47.574 51.6239C49.3665 51.356 50.7981 50.6255 51.851 49.8645C53.6107 48.5928 54.7698 46.8336 55.0679 46.4091L48.5203 41.8124ZM45.4577 43.5957L48.1829 36.0742C48.7916 36.2948 49.7161 36.7669 50.569 37.7109C51.4505 38.6866 51.9235 39.7998 52.1168 40.7839C52.4368 42.4123 51.9499 43.4314 52.0814 43.0686L44.5599 40.3434L37.0383 37.6182C36.6357 38.7296 35.8757 41.1133 36.417 43.8685C37.1292 47.4932 39.6799 50.0113 42.7325 51.1173L45.4577 43.5957ZM44.5599 40.3434L52.0814 43.0686L52.2885 42.497L44.767 39.7718L37.2455 37.0466L37.0383 37.6182L44.5599 40.3434ZM44.767 39.7718L47.4922 32.2502L47.432 32.2284L44.7068 39.75L41.9816 47.2715L42.0418 47.2933L44.767 39.7718ZM44.7068 39.75L39.5065 33.6708C39.2857 33.8596 39.2162 33.9162 39.1493 33.965C39.0862 34.011 39.1306 33.9696 39.2765 33.9024C39.4253 33.8337 39.7749 33.694 40.2931 33.6416C40.8512 33.5852 41.4779 33.6449 42.0754 33.8614L39.3502 41.3829L36.625 48.9044C40.4114 50.2763 43.7912 49.4402 45.9794 48.4307C48.0334 47.483 49.52 46.1604 49.9071 45.8291L44.7068 39.75ZM39.3502 41.3829L42.0754 33.8614C42.449 33.9967 43.0351 34.2873 43.6289 34.861C44.2399 35.4512 44.6892 36.1792 44.9473 36.9433C45.1951 37.6769 45.217 38.2907 45.1906 38.6728C45.1649 39.0472 45.0906 39.2543 45.0835 39.2738L37.562 36.5486L30.0405 33.8234C29.2659 35.9612 28.7336 38.9396 29.7886 42.0632C30.9544 45.5148 33.6061 47.8106 36.625 48.9044L39.3502 41.3829ZM37.562 36.5486L45.0835 39.2738C45.0433 39.3848 44.8774 39.7389 44.4927 40.1071C44.1292 40.455 43.8122 40.5836 43.7747 40.5977C43.7638 40.6018 43.8134 40.5824 43.9481 40.5509C44.0836 40.5191 44.2744 40.482 44.5435 40.4415C44.8144 40.4008 45.1248 40.3625 45.5097 40.32C45.7011 40.299 45.898 40.2783 46.115 40.2556C46.3256 40.2335 46.56 40.2091 46.7949 40.1837L45.9338 32.2302L45.0727 24.2767C43.8713 24.4067 40.8287 24.6125 38.1476 25.6199C34.785 26.8832 31.6323 29.43 30.0405 33.8234L37.562 36.5486ZM45.9338 32.2302L46.7205 40.1914L48.3443 40.0309L47.5576 32.0697L46.7709 24.1085L45.1471 24.269L45.9338 32.2302ZM47.5576 32.0697L55.0791 34.7949L55.6241 33.2906L48.1026 30.5654L40.5811 27.8402L40.0361 29.3445L47.5576 32.0697ZM48.1026 30.5654L55.6241 33.2906C55.9185 32.4781 56.9675 29.7828 56.5937 26.8075C56.3666 25 55.6365 23.0794 54.1611 21.4204C52.7614 19.8466 51.0848 18.9506 49.6414 18.4276L46.9162 25.9492L44.191 33.4707C43.9059 33.3674 43.0495 33.0026 42.2052 32.0533C41.2852 31.0189 40.8459 29.8163 40.7185 28.8022C40.6093 27.933 40.7464 27.3625 40.752 27.338C40.7611 27.2974 40.7376 27.4084 40.5811 27.8402L48.1026 30.5654ZM46.9162 25.9492L49.6414 18.4276C47.8883 17.7925 45.6354 17.4316 43.2639 17.9823C40.7492 18.5662 37.7451 20.3556 36.4401 23.9574L43.9617 26.6826L51.4832 29.4078C50.527 32.0467 48.3383 33.2297 46.8827 33.5677C45.5703 33.8724 44.6203 33.6262 44.191 33.4707L46.9162 25.9492ZM43.9617 26.6826L36.4401 23.9574C35.9897 25.2004 35.8811 26.3223 35.8767 27.1533C35.8745 27.5554 35.8969 27.896 35.9174 28.1354C35.9368 28.3609 35.9613 28.5658 35.9688 28.63C35.981 28.7346 35.9762 28.6985 35.9713 28.642C35.9653 28.5718 35.9523 28.4004 35.9535 28.1682C35.9562 27.6769 36.0218 26.8968 36.3468 25.9997L43.8683 28.7249L51.3899 31.4501C51.8402 30.2071 51.9488 29.0852 51.9533 28.2542C51.9555 27.8521 51.9331 27.5114 51.9126 27.2721C51.8932 27.0466 51.8687 26.8417 51.8612 26.7775C51.849 26.6729 51.8538 26.709 51.8587 26.7654C51.8647 26.8357 51.8777 27.0071 51.8764 27.2393C51.8738 27.7306 51.8082 28.5107 51.4832 29.4078L43.9617 26.6826ZM43.8683 28.7249L36.3468 25.9997C37.0103 24.1687 38.4958 22.5267 40.5868 21.7609C42.5157 21.0545 44.1996 21.3571 45.1834 21.7136L42.4582 29.2351L39.733 36.7566C41.3787 37.3529 43.6696 37.6711 46.089 36.7851C48.6706 35.8397 50.5302 33.8227 51.3899 31.4501L43.8683 28.7249ZM42.4582 29.2351L45.1834 21.7136C46.1282 22.0559 47.1477 22.6709 48.0067 23.6485C48.8626 24.6225 49.3293 25.6943 49.5455 26.6317C49.9388 28.3366 49.5077 29.5056 49.463 29.6288L41.9415 26.9036L34.42 24.1784C33.9284 25.5352 33.3796 27.7337 33.9549 30.2278C34.6449 33.2193 36.7602 35.6795 39.733 36.7566L42.4582 29.2351ZM41.9415 26.9036L49.463 29.6288C49.2359 30.2558 48.8331 30.9148 48.232 31.4798C47.6383 32.0378 46.9889 32.3755 46.4165 32.556C45.3234 32.9007 44.66 32.6536 44.6575 32.6527L47.3827 25.1312L50.1079 17.6096C47.6384 16.7149 44.6196 16.3461 41.6053 17.2965C38.3817 18.3129 35.6734 20.7191 34.42 24.1784L41.9415 26.9036ZM47.3827 25.1312L44.6575 32.6527C44.5935 32.6295 43.3291 32.1261 42.6087 30.4658C41.9332 28.9091 42.448 27.9481 42.2332 28.5409L49.7547 31.2661L57.2763 33.9913C58.2715 31.2446 58.8338 27.6631 57.2866 24.0972C55.6945 20.4278 52.6391 18.5267 50.1079 17.6096L47.3827 25.1312ZM49.7547 31.2661L42.2332 28.5409L38.6905 38.3189L46.212 41.0441L53.7335 43.7693L57.2763 33.9913L49.7547 31.2661ZM46.212 41.0441L38.6905 38.3189C38.618 38.5189 37.9487 40.1817 37.9096 42.019C37.8845 43.1986 38.0837 45.0804 39.3213 46.9479C40.5822 48.8507 42.2981 49.8027 43.5544 50.2579L46.2796 42.7363L49.0048 35.2148C49.9903 35.5719 51.5174 36.3874 52.6587 38.1096C53.7765 39.7966 53.9252 41.4538 53.906 42.3589C53.8882 43.1958 53.7213 43.7745 53.7018 43.8446C53.6691 43.9621 53.6569 43.9807 53.7335 43.7693L46.212 41.0441ZM46.2796 42.7363L43.5544 50.2579C45.0415 50.7967 46.7533 50.9551 48.497 50.5321C50.0743 50.1495 51.2018 49.4047 51.842 48.9115C52.922 48.0794 53.7799 47.0106 54.0373 46.7013L47.8885 41.5835L41.7397 36.4656C41.6562 36.566 41.5957 36.6376 41.5497 36.6911C41.5032 36.7451 41.4866 36.7629 41.4919 36.7571C41.4961 36.7526 41.5442 36.7004 41.6282 36.6202C41.7104 36.5417 41.8624 36.4023 42.0769 36.237C42.4692 35.9347 43.3696 35.3118 44.7254 34.983C46.2475 34.6138 47.7433 34.7577 49.0048 35.2148L46.2796 42.7363ZM40.5571 40.1184L37.8319 47.6399C43.2415 49.5999 47.5756 46.7606 49.4979 45.5021L45.1158 38.809L40.7337 32.1159C40.33 32.3802 40.0959 32.5174 39.9692 32.5853C39.8415 32.6537 39.9414 32.587 40.2097 32.5033C40.5066 32.4107 40.9993 32.3004 41.6287 32.3059C42.2725 32.3116 42.8399 32.4366 43.2823 32.5969L40.5571 40.1184ZM45.1158 38.809L52.6373 41.5342L54.7303 35.7577L47.2088 33.0325L39.6872 30.3073L37.5943 36.0838L45.1158 38.809ZM47.2088 33.0325L46.3535 25.0783L44.7598 25.2497L45.6151 33.2038L46.4703 41.158L48.064 40.9866L47.2088 33.0325ZM45.6151 33.2038L44.6888 25.2576C41.5096 25.6282 34.5301 26.8807 31.9163 34.0946L39.4378 36.8198L46.9593 39.545C46.8335 39.8922 46.6057 40.2996 46.2612 40.6746C45.929 41.0361 45.6129 41.2325 45.4473 41.3182C45.2998 41.3946 45.2847 41.377 45.4946 41.3243C45.7035 41.2719 46.0358 41.209 46.5413 41.15L45.6151 33.2038ZM39.4378 36.8198L31.9163 34.0946C31.2559 35.9172 30.7091 38.644 31.7326 41.568C32.8654 44.8045 35.371 46.7483 37.8319 47.6399L40.5571 40.1184L43.2823 32.5969C44.4496 33.0198 46.0903 34.1567 46.8342 36.2823C47.4689 38.0954 47.0093 39.4072 46.9593 39.545L39.4378 36.8198ZM50.4073 43.9519L52.324 51.7189L65.528 48.4603L56.2646 38.5029L50.4073 43.9519ZM52.9121 39.288L55.541 46.8437L63.7744 43.979L60.2147 36.0213L52.9121 39.288ZM62.5402 32.4098L55.5221 36.2498L57.8254 40.4594L62.6237 40.4094L62.5402 32.4098ZM66.2786 33.064L69.5427 25.7601L66.2786 33.064ZM66.8548 34.1276L59.551 30.8636L66.8548 34.1276ZM65.5743 34.3265L68.8383 27.0226L65.5743 34.3265ZM63.0188 33.535L55.8355 37.0564L57.7105 40.8811L61.9304 41.4606L63.0188 33.535ZM62.9088 33.3105L70.0921 29.7891L55.2726 35.6955L62.9088 33.3105ZM53.226 39.919L59.8649 35.4553L56.3908 30.2883L50.529 32.3873L53.226 39.919ZM59.495 31.2242L56.7921 38.7537L56.8539 38.7759L56.9162 38.7971L59.495 31.2242ZM54.7598 34.9965L47.2231 32.3135L47.2101 32.3502L47.1974 32.387L54.7598 34.9965ZM56.132 40.8672L58.8262 33.3345L58.7577 33.31L58.6888 33.2868L56.132 40.8672ZM60.8541 37.1241L68.4211 39.7202L68.4327 39.6864L68.444 39.6526L60.8541 37.1241ZM50.9586 44.4436L55.8966 38.1495L52.6453 35.5988L48.6835 36.7739L50.9586 44.4436ZM47.2399 46.8826L39.936 43.6186L47.2399 46.8826ZM54.8083 44.6919L51.5443 51.9958C52.1895 52.2841 52.5884 52.5085 52.8073 52.6522C53.0446 52.808 52.8947 52.7545 52.6243 52.4182C52.3157 52.0346 51.8445 51.2668 51.6906 50.1568C51.5345 49.0313 51.7881 48.156 51.9884 47.7078L59.2923 50.9719L66.5961 54.2359C67.41 52.4146 67.8592 50.2685 67.5389 47.9589C67.2208 45.6649 66.2256 43.7999 65.0918 42.3903C63.0326 39.83 60.1466 38.315 58.0723 37.3881L54.8083 44.6919ZM59.2923 50.9719L51.9884 47.7078C52.3126 46.9824 52.7857 46.5038 53.1621 46.2361C53.5176 45.9833 53.7641 45.9286 53.7873 45.9237C53.8051 45.9199 53.3857 45.9839 52.7171 45.6851L49.4531 52.989L46.1891 60.2928C49.6691 61.848 53.5294 62.335 57.1098 61.5749C60.6277 60.8281 64.6301 58.6352 66.5961 54.2359L59.2923 50.9719ZM49.4531 52.989L52.7171 45.6851C52.4566 45.5687 52.3062 45.4711 52.2551 45.4338C52.1925 45.388 52.3523 45.4884 52.5801 45.8036C52.8207 46.1364 53.1863 46.7839 53.3187 47.7214C53.4586 48.712 53.2773 49.608 52.9872 50.2572L45.6833 46.9932L38.3795 43.7292C36.4579 48.029 37.4805 52.2264 39.613 55.1766C41.4749 57.7524 44.0793 59.35 46.1891 60.2928L49.4531 52.989ZM45.6833 46.9932L52.9872 50.2572C52.8194 50.6326 52.5777 51.0027 52.2775 51.3262C51.9867 51.6395 51.7196 51.8247 51.5694 51.9147C51.4308 51.9977 51.3944 51.9982 51.5355 51.9468C51.6773 51.8951 51.9233 51.8178 52.324 51.7189L50.4073 43.9519L48.4905 36.1849C45.8563 36.835 40.7761 38.3663 38.3795 43.7292L45.6833 46.9932ZM50.4073 43.9519L56.2646 38.5029C56.5331 38.7915 57.2388 39.6561 57.5326 41.0978C57.8454 42.6323 57.5085 43.9046 57.1835 44.6318L49.8797 41.3678L42.5758 38.1038C41.833 39.7659 41.3693 41.9102 41.855 44.2931C42.3217 46.5832 43.5001 48.2724 44.55 49.4009L50.4073 43.9519ZM49.8797 41.3678L57.1835 44.6318C56.5811 45.9797 55.6545 46.6692 55.2852 46.9002C55.1125 47.0082 55.0237 47.0413 55.0875 47.0137C55.1505 46.9864 55.2839 46.9332 55.541 46.8437L52.9121 39.288L50.2831 31.7323C49.2216 32.1017 44.6274 33.513 42.5758 38.1038L49.8797 41.3678ZM52.9121 39.288L60.2147 36.0213C60.6598 37.0164 60.3255 37.5225 60.4575 37.2272L53.1536 33.9632L45.8498 30.6992C44.2583 34.2604 43.8318 38.5808 45.6094 42.5547L52.9121 39.288ZM53.1536 33.9632L60.4575 37.2272C60.5648 36.987 60.4809 37.3519 59.8016 37.6824C59.4603 37.8486 59.0115 37.9785 58.4894 37.9909C57.9611 38.0034 57.4755 37.8925 57.0839 37.7175L60.3479 30.4136L63.6119 23.1098C55.736 19.5901 48.5776 24.5952 45.8498 30.6992L53.1536 33.9632ZM60.3479 30.4136L57.0839 37.7175C56.5111 37.4615 55.9097 36.9582 55.5221 36.2498L62.5402 32.4098L69.5584 28.5697C68.2061 26.0983 66.1129 24.2274 63.6119 23.1098L60.3479 30.4136ZM62.5402 32.4098L62.6237 40.4094C62.9343 40.4061 63.1156 40.4257 63.1957 40.4386C63.2726 40.451 63.192 40.4471 63.0146 40.3678L66.2786 33.064L69.5427 25.7601C66.9495 24.6013 64.3729 24.3902 62.4568 24.4102L62.5402 32.4098ZM66.2786 33.064L63.0146 40.3678C62.7188 40.2356 60.8803 39.4112 59.7351 37.1354C58.3636 34.4102 59.074 31.9309 59.551 30.8636L66.8548 34.1276L74.1587 37.3916C74.8315 35.8861 75.5751 33.0187 74.0273 29.943C72.7057 27.3167 70.4813 26.1796 69.5427 25.7601L66.2786 33.064ZM66.8548 34.1276L59.551 30.8636C59.8772 30.1336 60.5213 29.0454 61.728 28.1061C63.0022 27.1143 64.4231 26.6628 65.6771 26.556C66.8117 26.4593 67.6798 26.6518 68.0895 26.7627C68.5172 26.8784 68.7955 27.0035 68.8383 27.0226L65.5743 34.3265L62.3102 41.6303C62.7018 41.8053 64.6114 42.7048 67.0359 42.4982C68.5039 42.373 70.1152 41.8533 71.5557 40.7321C72.9287 39.6634 73.7149 38.3846 74.1587 37.3916L66.8548 34.1276ZM65.5743 34.3265L68.8383 27.0226C67.3871 26.3741 65.8684 25.8512 64.1072 25.6093L63.0188 33.535L61.9304 41.4606C61.9084 41.4575 61.8845 41.4532 61.8633 41.4485C61.8427 41.4439 61.838 41.4418 61.8535 41.4466C61.8889 41.4576 62.0236 41.5022 62.3102 41.6303L65.5743 34.3265ZM63.0188 33.535L70.2021 30.0136L70.0921 29.7891L62.9088 33.3105L55.7255 36.8319L55.8355 37.0564L63.0188 33.535ZM62.9088 33.3105L55.2726 35.6955C55.0491 34.9798 55.2535 34.6761 55.1695 34.8641L62.4733 38.1281L69.7772 41.3921C71.2338 38.1326 71.6337 34.4113 70.5451 30.9256L62.9088 33.3105ZM62.4733 38.1281L55.1695 34.8641C55.074 35.0777 55.1615 34.7251 55.818 34.4056C56.5486 34.0501 57.6073 33.9556 58.5723 34.3869L55.3083 41.6908L52.0443 48.9946C59.8617 52.4881 67.0494 47.4962 69.7772 41.3921L62.4733 38.1281ZM55.3083 41.6908L58.5723 34.3869C59.1853 34.6608 59.6105 35.0769 59.8649 35.4553L53.226 39.919L46.5871 44.3827C47.8521 46.2642 49.6784 47.9373 52.0443 48.9946L55.3083 41.6908ZM53.226 39.919L50.529 32.3873C50.0203 32.5695 48.9081 32.9671 47.8109 33.6332C46.5705 34.3862 44.937 35.7222 43.931 37.9733L51.2348 41.2373L58.5387 44.5013C57.8199 46.1097 56.6812 46.9658 56.1142 47.31C55.6904 47.5673 55.4302 47.6271 55.923 47.4507L53.226 39.919ZM51.2348 41.2373L43.931 37.9733C43.3018 39.3812 42.8367 41.3418 43.2954 43.5866C43.7358 45.742 44.8552 47.3035 45.8197 48.3097C47.5076 50.0708 49.7735 51.2044 51.5443 51.9958L54.8083 44.6919L58.0723 37.3881C57.41 37.0921 57.0497 36.8967 56.8893 36.8004C56.694 36.6831 56.9622 36.8122 57.3707 37.2384C57.8063 37.6929 58.6345 38.7343 58.9715 40.3834C59.3267 42.122 58.9459 43.5901 58.5387 44.5013L51.2348 41.2373ZM59.495 31.2242L62.1979 23.6946C58.5101 22.3707 54.6738 23.1014 51.7509 25.4731C49.3148 27.4497 47.992 30.1536 47.2231 32.3135L54.7598 34.9965L62.2965 37.6794C62.6256 36.7549 62.6737 37.2148 61.8323 37.8975C61.3256 38.3086 60.5211 38.77 59.4495 38.9578C58.3706 39.1469 57.4376 38.9855 56.7921 38.7537L59.495 31.2242ZM54.7598 34.9965L47.1974 32.387C46.4097 34.6698 45.8163 37.6353 46.5409 40.6946C47.3834 44.2513 49.8771 47.2002 53.5752 48.4476L56.132 40.8672L58.6888 33.2868C59.3979 33.5259 60.223 33.9968 60.9283 34.7877C61.6246 35.5684 61.9643 36.3912 62.1101 37.0067C62.3612 38.0669 62.0412 38.4206 62.3223 37.6059L54.7598 34.9965ZM56.132 40.8672L53.4378 48.3998C57.1501 49.7276 60.9629 48.9443 63.8362 46.6457C66.2974 44.6767 67.6485 41.9722 68.4211 39.7202L60.8541 37.1241L53.2871 34.5279C53.017 35.3149 52.9892 34.8333 53.8411 34.1517C54.3377 33.7544 55.1171 33.3134 56.1521 33.1295C57.2007 32.9431 58.1366 33.0878 58.8262 33.3345L56.132 40.8672ZM60.8541 37.1241L68.444 39.6526C69.1663 37.4843 69.7782 34.5753 69.1147 31.5546C68.3242 27.9566 65.8455 24.9356 62.0738 23.6512L59.495 31.2242L56.9162 38.7971C56.2247 38.5616 55.3819 38.0857 54.6596 37.2583C53.948 36.4433 53.6206 35.5942 53.4873 34.9876C53.2656 33.9782 53.5684 33.6825 53.2642 34.5956L60.8541 37.1241ZM50.6871 51.7178L47.4231 59.0217C49.8649 60.1129 52.9431 61.0067 56.1605 60.6814C59.7909 60.3143 63.5874 58.3017 65.4722 54.0841L58.1684 50.8201L50.8645 47.5561C51.1993 46.8071 51.7968 46.0423 52.6437 45.4821C53.445 44.952 54.1694 44.8012 54.5508 44.7626C54.9137 44.7259 55.0445 44.7792 54.8791 44.7434C54.727 44.7106 54.4153 44.6214 53.9511 44.414L50.6871 51.7178ZM58.1684 50.8201L65.4722 54.0841C66.3357 52.152 66.6849 49.8333 66.0542 47.428C65.4634 45.1749 64.2026 43.573 63.1598 42.5515C61.272 40.7021 58.8211 39.5453 57.3057 38.8681L54.0417 46.172L50.7777 53.4758C51.4011 53.7544 51.8084 53.9615 52.0649 54.1103C52.3507 54.2761 52.235 54.2473 51.9632 53.9811C51.6853 53.7088 50.9467 52.8944 50.5774 51.4863C50.1683 49.9259 50.4385 48.5095 50.8645 47.5561L58.1684 50.8201ZM54.0417 46.172L57.3057 38.8681C56.7828 38.6344 56.4172 38.4501 56.1676 38.3108C55.9139 38.1691 55.849 38.1121 55.8966 38.1495L50.9586 44.4436L46.0206 50.7378C47.5077 51.9044 49.2123 52.7762 50.7777 53.4758L54.0417 46.172ZM50.9586 44.4436L48.6835 36.7739C45.8723 37.6079 41.9109 39.1995 39.936 43.6186L47.2399 46.8826L54.5437 50.1466C54.3755 50.5232 54.1261 50.9432 53.7803 51.3465C53.4405 51.7429 53.1064 52.008 52.8676 52.1671C52.6452 52.3153 52.5249 52.3586 52.597 52.3283C52.6696 52.2977 52.8624 52.2234 53.2337 52.1133L50.9586 44.4436ZM47.2399 46.8826L39.936 43.6186C38.2873 47.3081 39.0186 51.1147 40.9562 53.9348C42.6724 56.4327 45.1657 58.0129 47.4231 59.0217L50.6871 51.7178L53.9511 44.414C53.1701 44.065 53.5742 44.0456 54.1436 44.8744C54.4681 45.3466 54.8569 46.1234 54.9843 47.1721C55.1158 48.2539 54.9265 49.2902 54.5437 50.1466L47.2399 46.8826ZM75.5284 29.4058L68.3919 25.7905L75.5284 29.4058ZM66.2091 51.6963L73.3456 55.3116L76.9609 48.1752L69.8244 44.5598L66.2091 51.6963ZM65.9054 52.2958L62.2901 59.4323L69.4266 63.0476L73.0419 55.9111L65.9054 52.2958ZM60.5958 49.606L53.4594 45.9907L49.844 53.1272L56.9805 56.7425L60.5958 49.606ZM60.8995 49.0065L64.5148 41.87L57.3784 38.2547L53.763 45.3912L60.8995 49.0065ZM68.6263 38.3568L61.4898 34.7415L68.6263 38.3568ZM67.8791 36.2206L59.8819 36.0083L59.6732 43.8693L67.5295 44.2129L67.8791 36.2206ZM67.8969 35.548L68.1889 27.5534L60.1141 27.2585L59.8997 35.3358L67.8969 35.548ZM71.5598 35.6818L79.1625 33.192L77.4264 27.8907L71.8518 27.6871L71.5598 35.6818ZM71.7288 36.1979L78.8653 39.8132L80.3628 36.8572L79.3315 33.7081L71.7288 36.1979ZM73.5501 30.0537L77.1654 22.9173C80.3646 24.5379 81.6593 28.4915 80.0387 31.6907L72.9022 28.0754L65.7657 24.4601C63.393 29.1437 65.2512 34.8176 69.9347 37.1902L73.5501 30.0537ZM72.9022 28.0754L80.0387 31.6907C78.4549 34.8169 74.5652 36.2358 71.2652 34.564L74.8805 27.4275L78.4958 20.291C73.7114 17.8673 68.0724 19.9066 65.7657 24.4601L72.9022 28.0754ZM74.8805 27.4275L71.2652 34.564C68.0374 32.9288 66.7567 29.0182 68.3919 25.7905L75.5284 29.4058L82.6649 33.0212C85.0231 28.3661 83.1508 22.6492 78.4958 20.291L74.8805 27.4275ZM75.5284 29.4058L68.3919 25.7905C70.0637 22.4906 74.0392 21.3335 77.1654 22.9173L73.5501 30.0537L69.9347 37.1902C74.4882 39.497 80.2411 37.8055 82.6649 33.0212L75.5284 29.4058ZM65.4382 48.6154L58.3017 45.0001C58.0595 45.4781 57.6423 46.3164 57.3361 47.2625C57.0263 48.22 56.5723 50.0402 57.0538 52.226C57.5761 54.5971 58.921 56.2026 60.0359 57.1653C61.0133 58.0091 62.0318 58.5481 62.5938 58.8328L66.2091 51.6963L69.8244 44.5598C69.5585 44.4251 69.9547 44.5906 70.4922 45.0547C71.1673 45.6375 72.2548 46.8571 72.6792 48.784C73.0629 50.5257 72.6706 51.8435 72.559 52.1885C72.451 52.5221 72.3686 52.6376 72.5747 52.2307L65.4382 48.6154ZM66.2091 51.6963L59.0726 48.081L58.7689 48.6805L65.9054 52.2958L73.0419 55.9111L73.3456 55.3116L66.2091 51.6963ZM65.9054 52.2958L69.5207 45.1593L64.2112 42.4695L60.5958 49.606L56.9805 56.7425L62.2901 59.4323L65.9054 52.2958ZM60.5958 49.606L67.7323 53.2213L68.036 52.6218L60.8995 49.0065L53.763 45.3912L53.4594 45.9907L60.5958 49.606ZM60.8995 49.0065L57.2842 56.143C57.8461 56.4277 58.8832 56.93 60.1418 57.2189C61.5775 57.5484 63.6675 57.6829 65.8882 56.7015C67.9354 55.7967 69.1344 54.3539 69.7231 53.5377C70.3049 52.7312 70.7339 51.899 70.9761 51.4209L63.8396 47.8056L56.7031 44.1902C56.497 44.5971 56.5413 44.4623 56.7465 44.1779C56.9586 43.8839 57.789 42.788 59.4202 42.0671C61.225 41.2694 62.8516 41.4248 63.7209 41.6243C64.413 41.7832 64.7808 42.0047 64.5148 41.87L60.8995 49.0065ZM63.8396 47.8056L70.9761 51.4209L75.7628 41.9722L68.6263 38.3568L61.4898 34.7415L56.7031 44.1902L63.8396 47.8056ZM68.6263 38.3568L75.7628 41.9722C75.8941 41.7129 76.2602 41.0113 76.5157 40.4082C76.6582 40.0717 76.9022 39.46 77.0756 38.6967C77.2434 37.958 77.4617 36.5879 77.1007 34.9416C76.1414 30.5682 72.524 29.0587 71.1318 28.6555C69.8769 28.2921 68.6575 28.247 68.2286 28.2282L67.8791 36.2206L67.5295 44.2129C68.0306 44.2348 67.4816 44.2558 66.6813 44.0241C66.2182 43.89 65.1579 43.5328 64.06 42.6215C62.7902 41.5676 61.8481 40.0833 61.4721 38.3694C61.1443 36.8745 61.3527 35.6821 61.473 35.1525C61.5989 34.5983 61.7577 34.2271 61.783 34.1675C61.8039 34.1181 61.8068 34.1158 61.4898 34.7415L68.6263 38.3568ZM67.8791 36.2206L75.8762 36.4328L75.8941 35.7603L67.8969 35.548L59.8997 35.3358L59.8819 36.0083L67.8791 36.2206ZM67.8969 35.548L67.6049 43.5427L71.2679 43.6765L71.5598 35.6818L71.8518 27.6871L68.1889 27.5534L67.8969 35.548ZM71.5598 35.6818L63.9571 38.1716L64.1262 38.6877L71.7288 36.1979L79.3315 33.7081L79.1625 33.192L71.5598 35.6818ZM71.7288 36.1979L64.5924 32.5826L58.3017 45.0001L65.4382 48.6154L72.5747 52.2307L78.8653 39.8132L71.7288 36.1979ZM79.5376 44.6242L72.4765 40.8637L72.4562 40.902L72.4362 40.9404L79.5376 44.6242ZM79.3386 41.1768L83.2423 34.1939L79.3386 41.1768ZM78.2785 51.7291L82.1823 44.7463L76.4491 41.5411L72.1892 46.5407L78.2785 51.7291ZM78.8651 52.0571L85.3912 56.6841L90.5417 49.4196L82.7689 45.0742L78.8651 52.0571ZM79.9812 40.2896L83.885 33.3067L79.9812 40.2896ZM81.6136 45.8948L74.6307 41.991L81.6136 45.8948ZM79.5376 44.6242L86.5987 48.3847C87.1897 47.275 88.1303 45.2347 88.1642 42.7419C88.2071 39.5873 86.7269 36.142 83.2423 34.1939L79.3386 41.1768L75.4348 48.1596C74.5449 47.6621 73.5956 46.8231 72.934 45.5926C72.2958 44.4057 72.1553 43.2846 72.1657 42.5245C72.1831 41.2415 72.6228 40.5892 72.4765 40.8637L79.5376 44.6242ZM79.3386 41.1768L83.2423 34.1939C78.5819 31.5885 73.9944 33.1121 71.1659 35.1635C68.6023 37.0228 66.6971 39.7222 65.2932 42.2334L72.2761 46.1372L79.259 50.0409C79.6782 49.2911 80.0396 48.7622 80.3149 48.4161C80.6038 48.053 80.7016 48.0127 80.5598 48.1156C80.4221 48.2154 79.8147 48.6245 78.7691 48.7731C77.5966 48.9398 76.4003 48.6994 75.4348 48.1596L79.3386 41.1768ZM72.2761 46.1372L65.2932 42.2334C63.8072 44.8916 62.5891 48.0799 62.546 51.4083C62.4993 55.0126 63.9494 59.3727 68.315 61.8133L72.2187 54.8304L76.1225 47.8476C76.9631 48.3175 77.6769 49.0637 78.1146 49.9479C78.5171 50.7607 78.5474 51.4009 78.5446 51.6156C78.5419 51.8265 78.5085 51.7852 78.6144 51.455C78.7156 51.1392 78.9117 50.6622 79.259 50.0409L72.2761 46.1372ZM72.2187 54.8304L68.315 61.8133C71.5703 63.6332 75.174 63.5324 78.2911 62.0127C80.7871 60.7958 82.7883 58.7713 84.3678 56.9176L78.2785 51.7291L72.1892 46.5407C71.659 47.163 71.2962 47.522 71.0836 47.7098C70.8585 47.9085 70.9291 47.8016 71.2795 47.6308C71.6685 47.4412 72.4403 47.1568 73.4929 47.1659C74.5804 47.1753 75.4896 47.4937 76.1225 47.8476L72.2187 54.8304ZM78.2785 51.7291L74.3747 58.712L74.9613 59.0399L78.8651 52.0571L82.7689 45.0742L82.1823 44.7463L78.2785 51.7291ZM78.8651 52.0571L72.3389 47.43C71.875 48.0844 71.5189 48.4763 71.2959 48.6876C71.0676 48.904 71.0692 48.8454 71.3279 48.722C71.6167 48.5842 72.1844 48.3888 72.9548 48.4025C73.7425 48.4165 74.3987 48.6436 74.8423 48.8916L70.9385 55.8745L67.0347 62.8573C70.6651 64.8869 74.7027 64.8397 78.2181 63.1624C81.2991 61.6923 83.6324 59.1649 85.3912 56.6841L78.8651 52.0571ZM70.9385 55.8745L74.8423 48.8916C75.2795 49.136 75.7748 49.5775 76.1276 50.2014C76.4592 50.7877 76.5098 51.2575 76.5155 51.408C76.5206 51.5397 76.4949 51.4304 76.6071 51.0479C76.7161 50.6759 76.9261 50.148 77.293 49.4918L70.3101 45.588L63.3273 41.6842C61.6746 44.6404 60.3829 48.2485 60.5272 52.02C60.686 56.1687 62.6611 60.4122 67.0347 62.8573L70.9385 55.8745ZM70.3101 45.588L77.293 49.4918C77.7251 48.7188 78.1278 48.1854 78.4413 47.8443C78.761 47.4964 78.923 47.4182 78.8642 47.4504C78.7938 47.489 78.4358 47.6649 77.8304 47.6861C77.184 47.7087 76.559 47.5417 76.0774 47.2724L79.9812 40.2896L83.885 33.3067C79.5278 30.8708 74.842 31.4095 71.1747 33.4193C67.758 35.2918 65.1712 38.3859 63.3273 41.6842L70.3101 45.588ZM79.9812 40.2896L76.0774 47.2724C75.0055 46.6732 74.3445 45.5766 74.153 44.5875C74.07 44.1587 74.0727 43.7631 74.1277 43.4028C74.1793 43.064 74.3053 42.573 74.6307 41.991L81.6136 45.8948L88.5964 49.7985C89.9597 47.36 90.4069 44.3653 89.8615 41.5473C89.2623 38.4513 87.3869 35.2644 83.885 33.3067L79.9812 40.2896ZM81.6136 45.8948L74.6307 41.991C74.8215 41.6496 75.6694 40.2194 77.651 39.3525C80.0878 38.2865 82.416 38.8278 83.8091 39.6067L79.9054 46.5895L76.0016 53.5724C78.093 54.7416 81.0567 55.3266 84.0637 54.0111C86.6155 52.8948 87.9684 50.922 88.5964 49.7985L81.6136 45.8948ZM79.9054 46.5895L83.8091 39.6067C85.0513 40.3011 86.6607 41.8192 87.1371 44.2821C87.5472 46.4019 86.8458 47.9094 86.639 48.308L79.5376 44.6242L72.4362 40.9404C71.7577 42.2484 70.891 44.5434 71.4283 47.3209C72.032 50.4415 74.0611 52.4876 76.0016 53.5724L79.9054 46.5895ZM94.0521 66.277L86.3724 64.0363L84.7602 69.5616L89.4866 72.8463L94.0521 66.277ZM94.131 66.3318L89.5654 72.9011L94.2663 76.1681L98.8755 72.773L94.131 66.3318ZM113.213 52.2762L117.779 45.7069L113.078 42.4399L108.469 45.835L113.213 52.2762ZM118.048 55.6365L124.617 60.202L129.183 53.6327L122.614 49.0672L118.048 55.6365ZM117.665 56.1883L113.099 62.7576L119.668 67.3231L124.234 60.7539L117.665 56.1883ZM113.562 56.2598L106.993 51.6942L113.562 56.2598ZM103.822 76.1064L110.391 80.6719L114.957 74.1027L108.387 69.5371L103.822 76.1064ZM103.438 76.6582L98.8727 83.2275L105.442 87.7931L110.008 81.2238L103.438 76.6582ZM96.3434 71.7274L89.7741 67.1618L85.2085 73.7311L91.7778 78.2967L96.3434 71.7274ZM96.7269 71.1755L101.292 64.6063L94.7232 60.0407L90.1576 66.61L96.7269 71.1755ZM112.653 54.1473L119.222 58.7128L123.788 52.1435L117.219 47.578L112.653 54.1473ZM112.574 54.0925L117.14 47.5232L112.428 44.2488L107.816 47.6614L112.574 54.0925ZM91.7979 69.4646L87.2323 76.0339L91.9438 79.3083L96.5561 75.8957L91.7979 69.4646ZM91.0095 68.9167L83.3354 66.6567L81.7051 72.1926L86.444 75.486L91.0095 68.9167ZM98.202 44.4936L105.876 46.7536L107.506 41.2178L102.768 37.9243L98.202 44.4936ZM98.1232 44.4388L102.689 37.8695L96.0988 33.2896L91.5396 39.8939L98.1232 44.4388ZM86.5609 61.1876L93.1302 65.7532L93.1374 65.7429L93.1445 65.7325L86.5609 61.1876ZM87.9423 65.0314L94.5116 69.597L99.125 62.9589L92.4392 58.4149L87.9423 65.0314ZM87.5406 65.6095L82.975 72.1788L89.5443 76.7444L94.1098 70.1751L87.5406 65.6095ZM81.1815 61.19L74.6122 56.6245L70.0466 63.1938L76.6159 67.7593L81.1815 61.19ZM81.565 60.6382L86.1306 54.0689L79.5613 49.5034L74.9957 56.0726L81.565 60.6382ZM95.4078 40.7201L88.8385 36.1546L84.2729 42.7238L90.8422 47.2894L95.4078 40.7201ZM95.7913 40.1683L100.357 33.599L93.7876 29.0334L89.222 35.6027L95.7913 40.1683ZM100.679 43.5651L108.359 45.8058L109.971 40.2806L105.244 36.9958L100.679 43.5651ZM94.0521 66.277L89.4866 72.8463L89.5654 72.9011L94.131 66.3318L98.6965 59.7625L98.6177 59.7077L94.0521 66.277ZM94.131 66.3318L98.8755 72.773L117.958 58.7174L113.213 52.2762L108.469 45.835L89.3864 59.8906L94.131 66.3318ZM113.213 52.2762L108.647 58.8455L113.483 62.2058L118.048 55.6365L122.614 49.0672L117.779 45.7069L113.213 52.2762ZM118.048 55.6365L111.479 51.0709L111.095 51.6227L117.665 56.1883L124.234 60.7539L124.617 60.202L118.048 55.6365ZM117.665 56.1883L122.23 49.619C121.518 49.1243 120.601 48.5178 119.601 48.0357C118.639 47.5722 116.862 46.8522 114.617 46.9866C112.067 47.1393 110.178 48.2964 108.974 49.3791C107.977 50.2752 107.283 51.2764 106.993 51.6942L113.562 56.2598L120.131 60.8254C120.398 60.4418 120.184 60.8164 119.67 61.2777C118.95 61.9257 117.548 62.8398 115.573 62.9581C113.902 63.0581 112.786 62.5124 112.653 62.4486C112.482 62.3661 112.563 62.3848 113.099 62.7576L117.665 56.1883ZM113.562 56.2598L106.993 51.6942L95.8893 67.6707L102.459 72.2363L109.028 76.8019L120.131 60.8254L113.562 56.2598ZM102.459 72.2363L95.8893 67.6707C95.5989 68.0886 94.9023 69.0878 94.41 70.3343C93.815 71.8406 93.3891 74.0149 94.1349 76.4577C94.7917 78.6092 96.086 80.0236 96.8556 80.7632C97.6562 81.5327 98.5443 82.1809 99.2562 82.6757L103.822 76.1064L108.387 69.5371C107.851 69.1644 107.805 69.0955 107.942 69.2271C108.048 69.3289 108.949 70.1847 109.438 71.7859C110.015 73.6785 109.647 75.3107 109.291 76.2122C109.038 76.8539 108.761 77.1855 109.028 76.8019L102.459 72.2363ZM103.822 76.1064L97.2525 71.5408L96.869 72.0926L103.438 76.6582L110.008 81.2238L110.391 80.6719L103.822 76.1064ZM103.438 76.6582L108.004 70.0889L100.909 65.1581L96.3434 71.7274L91.7778 78.2967L98.8727 83.2275L103.438 76.6582ZM96.3434 71.7274L102.913 76.2929L103.296 75.7411L96.7269 71.1755L90.1576 66.61L89.7741 67.1618L96.3434 71.7274ZM96.7269 71.1755L92.1613 77.7448C92.8786 78.2433 93.7968 78.8504 94.7949 79.3334C95.7513 79.7962 97.5228 80.5196 99.7634 80.3951C102.317 80.2532 104.218 79.1016 105.435 78.0107C106.439 77.111 107.136 76.1041 107.425 75.6879L100.856 71.1223L94.2864 66.5567C94.0187 66.9419 94.2365 66.5615 94.7558 66.0961C95.4885 65.4394 96.8992 64.5296 98.8757 64.4198C100.539 64.3274 101.645 64.8731 101.764 64.9311C101.926 65.0092 101.836 64.9843 101.292 64.6063L96.7269 71.1755ZM100.856 71.1223L107.425 75.6879L119.222 58.7128L112.653 54.1473L106.084 49.5817L94.2864 66.5567L100.856 71.1223ZM112.653 54.1473L117.219 47.578L117.14 47.5232L112.574 54.0925L108.009 60.6618L108.088 60.7165L112.653 54.1473ZM112.574 54.0925L107.816 47.6614L87.0396 63.0335L91.7979 69.4646L96.5561 75.8957L117.333 60.5236L112.574 54.0925ZM91.7979 69.4646L96.3634 62.8953L95.5751 62.3474L91.0095 68.9167L86.444 75.486L87.2323 76.0339L91.7979 69.4646ZM91.0095 68.9167L98.6837 71.1767L105.876 46.7536L98.202 44.4936L90.5279 42.2336L83.3354 66.6567L91.0095 68.9167ZM98.202 44.4936L102.768 37.9243L102.689 37.8695L98.1232 44.4388L93.5576 51.0081L93.6364 51.0629L98.202 44.4936ZM98.1232 44.4388L91.5396 39.8939L79.9773 56.6427L86.5609 61.1876L93.1445 65.7325L104.707 48.9837L98.1232 44.4388ZM86.5609 61.1876L79.9916 56.622C79.7179 57.016 79.0237 58.0056 78.5301 59.2295C77.9313 60.7143 77.4685 62.916 78.2324 65.4079C78.9039 67.5981 80.2384 69.0219 81.0133 69.7517C81.8242 70.5154 82.7242 71.1577 83.4454 71.6479L87.9423 65.0314L92.4392 58.4149C91.8901 58.0417 91.8428 57.9722 91.9825 58.1036C92.0862 58.2013 93.0252 59.0726 93.5297 60.7182C94.1266 62.6653 93.7252 64.33 93.3689 65.2137C93.1177 65.8364 92.847 66.1607 93.1302 65.7532L86.5609 61.1876ZM87.9423 65.0314L81.373 60.4658L80.9713 61.0439L87.5406 65.6095L94.1098 70.1751L94.5116 69.597L87.9423 65.0314ZM87.5406 65.6095L92.1061 59.0402L85.7471 54.6207L81.1815 61.19L76.6159 67.7593L82.975 72.1788L87.5406 65.6095ZM81.1815 61.19L87.7508 65.7556L88.1343 65.2038L81.565 60.6382L74.9957 56.0726L74.6122 56.6245L81.1815 61.19ZM81.565 60.6382L76.9994 67.2075C77.7151 67.7049 78.6353 68.3137 79.6361 68.7968C80.595 69.2595 82.3886 69.9902 84.657 69.8446C87.2353 69.679 89.1228 68.4878 90.3041 67.4097C91.2777 66.5211 91.9623 65.5272 92.2368 65.1323L85.6675 60.5667L79.0982 56.0011C78.8157 56.4077 79.0243 56.0426 79.5184 55.5916C80.2202 54.9511 81.6247 54.0063 83.6319 53.8774C85.3293 53.7684 86.4638 54.326 86.591 54.3874C86.7602 54.4691 86.6762 54.4481 86.1306 54.0689L81.565 60.6382ZM85.6675 60.5667L92.2368 65.1323L103.34 49.1558L96.771 44.5902L90.2017 40.0246L79.0982 56.0011L85.6675 60.5667ZM96.771 44.5902L103.34 49.1558C103.615 48.7608 104.308 47.7727 104.801 46.5504C105.4 45.0673 105.858 42.883 105.115 40.4087C104.46 38.2318 103.15 36.8055 102.382 36.0681C101.58 35.2984 100.689 34.6482 99.9734 34.1508L95.4078 40.7201L90.8422 47.2894C91.3879 47.6686 91.4368 47.7401 91.3012 47.61C91.1994 47.5122 90.2813 46.6432 89.7917 45.0143C89.2127 43.0881 89.6086 41.4423 89.9643 40.5612C90.2147 39.9409 90.4842 39.6181 90.2017 40.0246L96.771 44.5902ZM95.4078 40.7201L101.977 45.2857L102.361 44.7339L95.7913 40.1683L89.222 35.6027L88.8385 36.1546L95.4078 40.7201ZM95.7913 40.1683L91.2257 46.7376L96.1133 50.1344L100.679 43.5651L105.244 36.9958L100.357 33.599L95.7913 40.1683ZM100.679 43.5651L92.9991 41.3243L86.3724 64.0363L94.0521 66.277L101.732 68.5178L108.359 45.8058L100.679 43.5651ZM120.434 60.4125L125.38 54.1247L120.434 60.4125ZM122.254 58.0986L127.2 51.8108L122.254 58.0986ZM122.501 60.1656L116.213 55.2196L122.501 60.1656ZM108.987 80.1928L115.275 85.1388L120.221 78.8509L113.933 73.9049L108.987 80.1928ZM108.571 80.7209L103.625 87.0088L109.913 91.9548L114.859 85.6669L108.571 80.7209ZM103.893 77.0411L97.6052 72.0951L92.6592 78.383L98.9471 83.329L103.893 77.0411ZM104.309 76.5129L109.255 70.2251L102.967 65.2791L98.0207 71.5669L104.309 76.5129ZM113.662 65.346L105.863 63.5679L104.115 71.235L111.751 73.1142L113.662 65.346ZM113.812 64.6901L115.668 56.9083L107.808 55.0339L106.012 62.9119L113.812 64.6901ZM117.377 65.5404L125.321 64.5915L124.659 59.0526L119.233 57.7586L117.377 65.5404ZM117.442 66.0796L123.73 71.0256L125.778 68.4211L125.385 65.1308L117.442 66.0796ZM120.434 60.4125L125.38 54.1247C128.198 56.3419 128.692 60.4728 126.475 63.2915L120.187 58.3455L113.899 53.3995C110.653 57.5261 111.361 63.4544 115.488 66.7004L120.434 60.4125ZM120.187 58.3455L126.475 63.2915C124.308 66.0459 120.215 66.6735 117.308 64.3865L122.254 58.0986L127.2 51.8108C122.984 48.4949 117.055 49.3875 113.899 53.3995L120.187 58.3455ZM122.254 58.0986L117.308 64.3865C114.464 62.1495 113.976 58.0635 116.213 55.2196L122.501 60.1656L128.789 65.1116C132.015 61.0102 131.301 55.037 127.2 51.8108L122.254 58.0986ZM122.501 60.1656L116.213 55.2196C118.5 52.3121 122.625 51.9581 125.38 54.1247L120.434 60.4125L115.488 66.7004C119.5 69.8562 125.473 69.3271 128.789 65.1116L122.501 60.1656ZM108.836 77.0205L102.548 72.0744C102.216 72.4957 101.643 73.2357 101.157 74.1033C100.665 74.9813 99.8626 76.677 99.9057 78.9148C99.9523 81.3423 100.956 83.1806 101.86 84.3434C102.653 85.3627 103.546 86.0912 104.041 86.4806L108.987 80.1928L113.933 73.9049C113.698 73.7206 114.054 73.9606 114.49 74.5212C115.038 75.2253 115.865 76.6346 115.903 78.6074C115.937 80.3904 115.294 81.6056 115.116 81.9219C114.945 82.2279 114.842 82.3249 115.124 81.9665L108.836 77.0205ZM108.987 80.1928L102.699 75.2468L102.283 75.7749L108.571 80.7209L114.859 85.6669L115.275 85.1388L108.987 80.1928ZM108.571 80.7209L113.517 74.4331L108.839 70.7533L103.893 77.0411L98.9471 83.329L103.625 87.0088L108.571 80.7209ZM103.893 77.0411L110.181 81.9871L110.596 81.4589L104.309 76.5129L98.0207 71.5669L97.6052 72.0951L103.893 77.0411ZM104.309 76.5129L99.3626 82.8008C99.8577 83.1902 100.776 83.8864 101.953 84.4167C103.296 85.0217 105.319 85.5639 107.689 85.0375C109.874 84.5522 111.333 83.373 112.071 82.6882C112.8 82.0116 113.384 81.2798 113.715 80.8585L107.427 75.9125L101.139 70.9665C100.857 71.325 100.927 71.2015 101.184 70.963C101.45 70.7163 102.479 69.8048 104.22 69.4181C106.147 68.9903 107.711 69.462 108.524 69.8283C109.172 70.1199 109.489 70.4094 109.255 70.2251L104.309 76.5129ZM107.427 75.9125L113.715 80.8585L120.264 72.5334L113.976 67.5874L107.688 62.6414L101.139 70.9665L107.427 75.9125ZM113.976 67.5874L120.264 72.5334C120.443 72.305 120.94 71.6889 121.309 71.1477C121.515 70.8458 121.874 70.2939 122.194 69.5794C122.503 68.888 122.986 67.5875 122.956 65.9024C122.874 61.4257 119.623 59.2354 118.337 58.5668C117.178 57.9641 115.991 57.6804 115.574 57.5778L113.662 65.346L111.751 73.1142C112.238 73.2341 111.695 73.1469 110.956 72.7625C110.528 72.5401 109.559 71.9817 108.661 70.8726C107.623 69.59 106.99 67.9496 106.958 66.1953C106.93 64.665 107.369 63.5368 107.591 63.0411C107.823 62.5224 108.052 62.1896 108.088 62.1361C108.118 62.0918 108.121 62.0901 107.688 62.6414L113.976 67.5874ZM113.662 65.346L121.462 67.1242L121.612 66.4682L113.812 64.6901L106.012 62.9119L105.863 63.5679L113.662 65.346ZM113.812 64.6901L111.956 72.4719L115.522 73.3221L117.377 65.5404L119.233 57.7586L115.668 56.9083L113.812 64.6901ZM117.377 65.5404L109.434 66.4892L109.498 67.0284L117.442 66.0796L125.385 65.1308L125.321 64.5915L117.377 65.5404ZM117.442 66.0796L111.154 61.1336L102.548 72.0744L108.836 77.0205L115.124 81.9665L123.73 71.0256L117.442 66.0796ZM122.686 70.408L128.815 75.5495L130.945 73.0108L130.656 69.7097L122.686 70.408ZM121.02 72.3938L114.891 67.2522L109.75 73.3812L115.879 78.5228L121.02 72.3938ZM121.094 72.4555L115.952 78.5845L119.199 81.3076L123.275 80.1524L121.094 72.4555ZM126.292 72.9313L121.15 79.0603L126.292 72.9313ZM119.501 85.9055L113.372 80.7639L119.501 85.9055ZM119.577 89.1015L125.706 94.2431L130.847 88.1141L124.718 82.9725L119.577 89.1015ZM119.145 89.6164L114.003 95.7454L120.132 100.887L125.274 94.7579L119.145 89.6164ZM114.61 85.8116L108.481 80.6701L103.339 86.7991L109.468 91.9406L114.61 85.8116ZM115.041 85.2968L120.183 79.1678L114.054 74.0263L108.912 80.1553L115.041 85.2968ZM118.153 84.7743L112.024 79.6328L118.153 84.7743ZM124.59 77.1008L118.461 71.9593L124.59 77.1008ZM124.95 73.6849L130.091 67.5559L124.95 73.6849ZM120.321 73.2273L118.725 65.3881L115.988 65.9454L114.192 68.0858L120.321 73.2273ZM113.742 84.2068L119.871 89.3483L125.013 83.2193L118.884 78.0778L113.742 84.2068ZM113.31 84.7216L108.169 90.8506L114.298 95.9922L119.439 89.8632L113.31 84.7216ZM108.799 80.9375L102.67 75.7959L97.5287 81.9249L103.658 87.0665L108.799 80.9375ZM109.231 80.4226L114.373 74.2936L108.244 69.1521L103.102 75.2811L109.231 80.4226ZM118.932 69.5558L111.192 67.5329L109.204 75.1412L116.777 77.2599L118.932 69.5558ZM119.102 68.9049L121.202 61.1854L113.405 59.0645L111.362 66.882L119.102 68.9049ZM122.639 69.867L130.608 69.1687L130.122 63.6117L124.739 62.1475L122.639 69.867ZM122.686 70.408L116.557 65.2664L114.891 67.2522L121.02 72.3938L127.149 77.5353L128.815 75.5495L122.686 70.408ZM121.02 72.3938L115.879 78.5228L115.952 78.5845L121.094 72.4555L126.236 66.3265L126.162 66.2648L121.02 72.3938ZM121.094 72.4555L123.275 80.1524C123.779 80.0097 123.804 80.0725 123.486 80.0546C123.075 80.0315 122.104 79.8601 121.15 79.0603L126.292 72.9313L131.433 66.8023C126.863 62.9684 121.385 64.058 118.913 64.7585L121.094 72.4555ZM126.292 72.9313L121.15 79.0603C120.822 78.7852 120.27 78.2128 119.867 77.2764C119.447 76.3046 119.351 75.316 119.447 74.484C119.608 73.0854 120.243 72.5741 119.809 73.0904L125.939 78.232L132.068 83.3735C133.28 81.9286 134.973 79.5073 135.341 76.3189C135.791 72.4222 134.107 69.0453 131.433 66.8023L126.292 72.9313ZM125.939 78.232L119.809 73.0904L113.372 80.7639L119.501 85.9055L125.63 91.047L132.068 83.3735L125.939 78.232ZM119.501 85.9055L113.372 80.7639C113.029 81.1729 112.428 81.8994 111.912 82.7588C111.388 83.6331 110.531 85.3188 110.519 87.5744C110.505 90.0062 111.466 91.8655 112.326 93.0375C113.084 94.0703 113.95 94.823 114.435 95.2305L119.577 89.1015L124.718 82.9725C124.481 82.7733 124.816 83.0132 125.225 83.5704C125.736 84.2669 126.529 85.6881 126.518 87.6625C126.508 89.4609 125.825 90.67 125.631 90.9921C125.447 91.2993 125.336 91.398 125.63 91.047L119.501 85.9055ZM119.577 89.1015L113.448 83.96L113.016 84.4748L119.145 89.6164L125.274 94.7579L125.706 94.2431L119.577 89.1015ZM119.145 89.6164L124.287 83.4874L119.751 79.6826L114.61 85.8116L109.468 91.9406L114.003 95.7454L119.145 89.6164ZM114.61 85.8116L120.739 90.9532L121.17 90.4383L115.041 85.2968L108.912 80.1553L108.481 80.6701L114.61 85.8116ZM115.041 85.2968L109.9 91.4258C110.379 91.8281 111.28 92.5566 112.452 93.1239C113.795 93.7744 115.807 94.3622 118.185 93.8952C120.363 93.4674 121.843 92.3388 122.591 91.6851C123.333 91.0357 123.936 90.328 124.282 89.9159L118.153 84.7743L112.024 79.6328C111.732 79.9806 111.802 79.8648 112.06 79.639C112.323 79.4089 113.367 78.5358 115.102 78.1951C117.036 77.8153 118.596 78.322 119.424 78.7231C120.081 79.0409 120.402 79.3517 120.183 79.1678L115.041 85.2968ZM118.153 84.7743L124.282 89.9159L130.719 82.2424L124.59 77.1008L118.461 71.9593L112.024 79.6328L118.153 84.7743ZM124.59 77.1008L130.719 82.2424C131.704 81.0684 133.227 78.9467 133.552 76.0604C133.958 72.4458 132.333 69.4367 130.091 67.5559L124.95 73.6849L119.808 79.8139C119.312 79.3977 118.641 78.6768 118.162 77.584C117.664 76.4498 117.538 75.287 117.652 74.273C117.849 72.5222 118.69 71.6868 118.461 71.9593L124.59 77.1008ZM124.95 73.6849L130.091 67.5559C127.748 65.5902 125.104 65.1086 123.385 65.0045C121.61 64.8971 119.957 65.1374 118.725 65.3881L120.321 73.2273L121.917 81.0665C122.448 80.9583 122.583 80.9853 122.418 80.9753C122.309 80.9687 121.097 80.8953 119.808 79.8139L124.95 73.6849ZM120.321 73.2273L114.192 68.0858L107.611 75.9309L113.74 81.0724L119.869 86.214L126.45 78.3688L120.321 73.2273ZM113.74 81.0724L107.611 75.9309C107.264 76.3447 106.676 77.0564 106.169 77.8933C105.661 78.7316 104.808 80.3682 104.751 82.5694C104.627 87.3083 108.204 90.0029 108.601 90.3358L113.742 84.2068L118.884 78.0778C118.674 77.9018 119.05 78.1761 119.486 78.785C120.039 79.5567 120.797 81.0184 120.745 82.986C120.7 84.7376 120.025 85.9016 119.85 86.1896C119.676 86.4763 119.579 86.5602 119.869 86.214L113.74 81.0724ZM113.742 84.2068L107.613 79.0653L107.181 79.5801L113.31 84.7216L119.439 89.8632L119.871 89.3483L113.742 84.2068ZM113.31 84.7216L118.452 78.5926L113.941 74.8085L108.799 80.9375L103.658 87.0665L108.169 90.8506L113.31 84.7216ZM108.799 80.9375L114.928 86.079L115.36 85.5642L109.231 80.4226L103.102 75.2811L102.67 75.7959L108.799 80.9375ZM109.231 80.4226L104.09 86.5516C104.572 86.9565 105.468 87.6812 106.628 88.2483C107.952 88.8953 109.956 89.501 112.342 89.0494C114.541 88.6332 116.036 87.5004 116.795 86.8393C117.545 86.1859 118.152 85.4728 118.496 85.0623L112.367 79.9207L106.238 74.7792C105.945 75.1286 106.019 75.0074 106.283 74.777C106.556 74.5388 107.614 73.6602 109.366 73.3286C111.305 72.9616 112.854 73.4823 113.655 73.874C114.293 74.1859 114.601 74.4852 114.373 74.2936L109.231 80.4226ZM112.367 79.9207L118.496 85.0623L125.304 76.9475L119.175 71.8059L113.046 66.6644L106.238 74.7792L112.367 79.9207ZM119.175 71.8059L125.304 76.9475C125.49 76.7248 126.006 76.1247 126.392 75.5954C126.607 75.3 126.984 74.7597 127.326 74.0557C127.657 73.3744 128.181 72.0897 128.203 70.4044C128.262 65.9274 125.082 63.6358 123.818 62.9271C122.678 62.2882 121.501 61.9673 121.087 61.8516L118.932 69.5558L116.777 77.2599C117.26 77.3951 116.72 77.2909 115.993 76.8834C115.573 76.6476 114.621 76.059 113.759 74.9221C112.762 73.6075 112.181 71.948 112.204 70.1935C112.225 68.6631 112.698 67.5493 112.936 67.0608C113.184 66.5497 113.423 66.2242 113.461 66.1719C113.493 66.1286 113.496 66.127 113.046 66.6644L119.175 71.8059ZM118.932 69.5558L126.672 71.5786L126.842 70.9277L119.102 68.9049L111.362 66.882L111.192 67.5329L118.932 69.5558ZM119.102 68.9049L117.002 76.6244L120.539 77.5865L122.639 69.867L124.739 62.1475L121.202 61.1854L119.102 68.9049ZM122.639 69.867L114.669 70.5652L114.717 71.1062L122.686 70.408L130.656 69.7097L130.608 69.1687L122.639 69.867ZM129.816 97.5574L137.445 99.963L139.81 92.4631L132.352 89.97L129.816 97.5574ZM129.613 98.199L127.071 105.784L134.794 108.372L137.243 100.605L129.613 98.199ZM126.151 97.0386L118.156 97.3393L118.364 102.867L123.609 104.624L126.151 97.0386ZM126.132 96.5411L120.266 91.1009L118.013 93.5305L118.138 96.8418L126.132 96.5411ZM127.982 94.5469L133.847 99.9871L139.287 94.1216L133.422 88.6814L127.982 94.5469ZM127.888 94.4598L133.328 88.5943L130.116 85.6154L125.876 86.7168L127.888 94.4598ZM135.493 81.1311L130.052 86.9966L135.493 81.1311ZM136.661 85.0951L128.732 84.0331L128.181 88.1417L131.22 90.9606L136.661 85.0951ZM136.708 85.1386L131.267 91.0041L137.133 96.4443L142.573 90.5788L136.708 85.1386ZM141.647 79.8127L135.782 74.3725L141.647 79.8127ZM141.539 77.5298L133.909 75.1242L131.544 82.6241L139.003 85.1172L141.539 77.5298ZM141.741 76.8882L144.283 69.3028L136.561 66.7149L134.111 74.4826L141.741 76.8882ZM145.204 78.0486L153.198 77.7479L152.99 72.2207L147.746 70.4632L145.204 78.0486ZM145.223 78.5461L151.088 83.9863L153.342 81.5568L153.217 78.2454L145.223 78.5461ZM128.895 93.5615L131.002 101.279L133.207 100.678L134.761 99.0017L128.895 93.5615ZM134.917 82.0812L129.477 87.9467L134.917 82.0812ZM129.816 97.5574L122.186 95.1518L121.984 95.7934L129.613 98.199L137.243 100.605L137.445 99.963L129.816 97.5574ZM129.613 98.199L132.155 90.6136L128.693 89.4532L126.151 97.0386L123.609 104.624L127.071 105.784L129.613 98.199ZM126.151 97.0386L134.145 96.7379L134.126 96.2404L126.132 96.5411L118.138 96.8418L118.156 97.3393L126.151 97.0386ZM126.132 96.5411L131.997 101.981L133.847 99.9871L127.982 94.5469L122.116 89.1066L120.266 91.1009L126.132 96.5411ZM127.982 94.5469L133.422 88.6814L133.328 88.5943L127.888 94.4598L122.447 100.325L122.541 100.412L127.982 94.5469ZM127.888 94.4598L125.876 86.7168C125.504 86.8135 125.305 86.8484 125.226 86.8594C125.148 86.8702 125.288 86.8428 125.578 86.8651C125.889 86.889 126.354 86.9691 126.885 87.1921C127.427 87.4196 127.876 87.7273 128.212 88.0395L122.772 93.905L117.332 99.7705C121.874 103.983 127.317 102.874 129.899 102.203L127.888 94.4598ZM122.772 93.905L128.212 88.0395C128.656 88.4515 129.088 89.0916 129.302 89.8871C129.502 90.6331 129.422 91.1787 129.38 91.3674C129.341 91.5377 129.33 91.4543 129.528 91.1209C129.72 90.7986 130.048 90.342 130.565 89.7851L124.699 84.3449L118.834 78.9047C116.636 81.274 114.558 84.3287 113.765 87.8774C112.882 91.8255 113.683 96.3864 117.332 99.7705L122.772 93.905ZM124.699 84.3449L130.565 89.7851C131.125 89.1815 131.664 88.7048 132.134 88.3627C132.618 88.0101 132.911 87.885 132.979 87.8608C133.047 87.8365 132.681 87.9845 132.009 87.8962C131.238 87.7948 130.53 87.4395 130.052 86.9966L135.493 81.1311L140.933 75.2656C136.664 71.3062 131.416 71.4276 127.592 72.795C124.046 74.0628 121.048 76.5174 118.834 78.9047L124.699 84.3449ZM135.493 81.1311L130.052 86.9966C129.291 86.2904 128.941 85.4796 128.806 84.929C128.684 84.4359 128.72 84.1212 128.732 84.0331L136.661 85.0951L144.59 86.157C144.93 83.6169 144.809 78.8607 140.933 75.2656L135.493 81.1311ZM136.661 85.0951L131.22 90.9606L131.267 91.0041L136.708 85.1386L142.148 79.2731L142.101 79.2296L136.661 85.0951ZM136.708 85.1386L142.573 90.5788L147.513 85.253L141.647 79.8127L135.782 74.3725L130.842 79.6984L136.708 85.1386ZM141.647 79.8127L147.513 85.253C147.718 85.0319 148.263 84.4579 148.675 83.9494C148.904 83.6662 149.304 83.1501 149.68 82.4722C150.042 81.8183 150.63 80.5745 150.749 78.9064C151.068 74.4342 148.022 71.9565 146.762 71.1617C145.648 70.4589 144.478 70.0773 144.075 69.9425L141.539 77.5298L139.003 85.1172C139.482 85.2775 138.939 85.1441 138.225 84.6936C137.81 84.4321 136.88 83.786 136.074 82.5886C135.142 81.204 134.666 79.5085 134.79 77.7703C134.897 76.2583 135.426 75.1845 135.683 74.7208C135.953 74.2331 136.202 73.9276 136.239 73.8815C136.267 73.8474 136.262 73.8546 135.782 74.3725L141.647 79.8127ZM141.539 77.5298L149.169 79.9355L149.371 79.2938L141.741 76.8882L134.111 74.4826L133.909 75.1242L141.539 77.5298ZM141.741 76.8882L139.199 84.4736L142.662 85.6341L145.204 78.0486L147.746 70.4632L144.283 69.3028L141.741 76.8882ZM145.204 78.0486L137.21 78.3493L137.228 78.8468L145.223 78.5461L153.217 78.2454L153.198 77.7479L145.204 78.0486ZM145.223 78.5461L139.357 73.1059L123.842 89.8342L129.707 95.2745L135.573 100.715L151.088 83.9863L145.223 78.5461ZM129.707 95.2745L123.842 89.8342C123.637 90.0553 123.091 90.6293 122.68 91.1378C122.45 91.421 122.05 91.9371 121.675 92.615C121.313 93.269 120.724 94.5127 120.605 96.1808C120.287 100.653 123.333 103.131 124.592 103.925C125.706 104.628 126.876 105.01 127.279 105.145L129.816 97.5574L132.352 89.97C131.872 89.8097 132.416 89.9431 133.13 90.3936C133.544 90.6551 134.475 91.3012 135.281 92.4986C136.213 93.8832 136.689 95.5787 136.565 97.3169C136.457 98.8289 135.929 99.9027 135.672 100.366C135.402 100.854 135.152 101.16 135.115 101.206C135.088 101.24 135.092 101.233 135.573 100.715L129.707 95.2745ZM128.895 93.5615L134.761 99.0017L139.222 94.192L133.356 88.7518L127.491 83.3115L123.03 88.1212L128.895 93.5615ZM133.356 88.7518L139.222 94.192C141.031 92.2411 142.75 89.7085 143.436 86.7142C144.183 83.4552 143.676 79.2934 140.357 76.2157L134.917 82.0812L129.477 87.9467C128.712 87.2375 128.152 86.2937 127.896 85.2662C127.655 84.2978 127.75 83.5364 127.84 83.1397C127.997 82.458 128.184 82.5643 127.491 83.3115L133.356 88.7518ZM134.917 82.0812L140.357 76.2157C135.839 72.0255 130.452 73.1777 127.519 74.5479C124.693 75.8679 122.361 78.0195 120.789 79.7142L126.655 85.1545L132.52 90.5947C132.958 90.1227 133.377 89.7288 133.741 89.4345C134.125 89.1243 134.314 89.0332 134.29 89.0445C134.265 89.056 134.127 89.1189 133.884 89.1783C133.637 89.2382 133.242 89.3045 132.73 89.2848C132.204 89.2646 131.602 89.1545 130.985 88.9016C130.366 88.6477 129.86 88.3024 129.477 87.9467L134.917 82.0812ZM126.655 85.1545L120.789 79.7142C118.964 81.6819 117.033 84.222 116.028 87.1276C114.952 90.241 114.62 95.2477 118.708 99.0394L124.148 93.1739L129.589 87.3084C130.479 88.1344 131.082 89.2856 131.26 90.4911C131.415 91.544 131.192 92.2341 131.15 92.3561C131.102 92.4942 131.123 92.377 131.376 92.0003C131.617 91.6427 131.989 91.1675 132.52 90.5947L126.655 85.1545ZM124.148 93.1739L118.708 99.0394C123.873 103.829 130.332 101.462 131.002 101.279L128.895 93.5615L126.789 85.8436C126.332 85.9684 126.153 86.015 126.015 86.0442C125.896 86.0692 126.036 86.0293 126.332 86.0254C126.654 86.0212 127.206 86.0585 127.867 86.2868C128.555 86.5247 129.143 86.8953 129.589 87.3084L124.148 93.1739Z" fill="#C7E7BF" mask="url(#path-1-outside-1_520_109)"/>
</svg>
