<svg width="181" height="94" viewBox="0 0 181 94" fill="none" xmlns="http://www.w3.org/2000/svg">
<mask id="path-1-outside-1_520_108" maskUnits="userSpaceOnUse" x="-8.13327" y="-44.1476" width="193.984" height="183.69" fill="black">
<rect fill="white" x="-8.13327" y="-44.1476" width="193.984" height="183.69"/>
<path d="M23.175 57.0877L23.8259 57.2547C23.3647 59.0525 23.6095 59.6438 25.3579 60.5549L46.57 71.8767L46.3314 72.8066L30.476 72.6706L44.3277 80.6177L44.113 81.4546L20.0226 81.3534C18.0126 81.3334 17.5444 81.7418 17.0832 83.5396L16.4323 83.3727L18.3247 75.9955L18.9756 76.1625C18.2202 79.1071 18.6232 79.2105 20.5633 79.2457L39.958 79.3646L39.9819 79.2716L28.303 72.6417L22.2728 72.5815C20.3017 72.5383 19.8026 72.9389 19.3414 74.7367L18.6905 74.5697L20.5829 67.1925L21.2338 67.3595C20.4784 70.3042 20.8734 70.4385 22.8215 70.4427L41.9905 70.6689L42.0143 70.5759L25.0876 61.6087C23.3701 60.7057 22.9592 60.6333 22.2039 63.5779L21.5529 63.411L23.175 57.0877ZM29.3317 50.8828C28.8961 51.5917 28.0157 51.8019 27.3068 51.3662C26.6253 50.9474 26.3878 50.0503 26.8234 49.3414C27.2423 48.6598 28.1667 48.4392 28.8482 48.858C29.5571 49.2936 29.7505 50.2012 29.3317 50.8828ZM47.1653 60.4901C48.8556 61.5288 49.3273 61.5558 50.2991 59.9745L50.8716 60.3264L47.7553 65.3973L47.1828 65.0455C48.1545 63.4642 47.9174 63.0556 46.2271 62.0168L37.2029 56.4711C35.5125 55.4324 35.2461 55.1936 35.0125 57.0406L34.3437 56.9677L34.7775 53.3281L35.3057 53.2019L47.1653 60.4901ZM51.1445 55.1565C52.6981 56.3905 53.1632 56.4738 54.3175 55.0205L54.8437 55.4384L51.1418 60.0992L50.6156 59.6812C51.77 58.2279 51.5836 57.7937 50.03 56.5598L34.795 44.4589C33.2163 43.2051 32.9805 42.936 32.5521 44.7616L31.8718 44.5891L32.764 41.0477L33.2785 40.9659L51.1445 55.1565ZM64.1573 45.3565L64.7752 45.6226L63.2712 48.9506L62.7744 48.919L60.977 46.8775L60.881 46.9621C61.2342 49.2518 61.1097 50.8537 59.8127 51.9956C57.3149 54.1948 53.7313 52.7879 50.4959 49.1132C47.1549 45.3184 45.3857 40.694 48.3879 38.0507C49.5647 37.0146 51.1541 36.9796 52.4495 37.2887L52.4975 37.2464L47.6974 31.7944C46.3652 30.2813 46.1806 29.9748 45.4152 31.672L44.7972 31.4059L46.3012 28.0779L46.798 28.1095L61.8751 45.2341C63.2073 46.7472 63.3919 47.0537 64.1573 45.3565ZM60.0889 45.8688L55.754 40.9451C53.3222 38.1831 50.8121 37.366 49.275 38.7193C46.9693 40.7493 49.0035 44.4157 51.4987 47.2498C54.4168 50.5642 57.3509 52.2018 59.2243 50.5525C60.6653 49.2837 60.368 47.5416 60.0889 45.8688ZM74.7413 13.0913L75.0615 13.6491L77.5866 17.9527L76.9996 18.286C74.9024 14.7023 74.2811 14.4898 72.4999 15.2882L65.6961 18.3378L70.0022 27.9449L74.4991 25.9293C76.2804 25.1309 76.5422 24.698 75.1548 21.6027L75.7972 21.3147L79.2526 29.0238L78.6101 29.3117C77.2228 26.2164 76.7254 26.1237 74.9441 26.9221L70.4472 28.9378L74.5308 38.0484C75.1459 39.4209 75.5104 39.6082 76.6492 39.0977L82.3726 36.5324C84.1539 35.734 84.46 34.9305 83.7423 29.8869L84.4341 29.7872L85.2393 35.8086L85.3289 36.3996L70.8745 42.8784L70.5996 42.2652C73.4029 41.0087 73.4533 40.4952 72.6549 38.7139L64.6971 20.9598C63.8987 19.1785 63.4818 18.8744 60.6786 20.1309L60.4037 19.5177L74.7413 13.0913ZM90.1385 31.5999C90.7043 33.5015 91.0377 33.8364 92.8166 33.3071L93.0082 33.9511L87.3034 35.6486L87.1118 35.0045C88.8907 34.4752 88.9867 34.0126 88.4209 32.111L82.8722 13.463C82.2972 11.5307 82.2582 11.1751 80.8608 12.4256L80.4022 11.8943L83.163 9.50362L83.6315 9.73149L90.1385 31.5999ZM101.884 25.1261L102.541 24.9865C103.084 30.0073 101.554 32.8183 99.1125 33.3367C95.8257 34.0345 93.2838 30.8449 92.1806 25.6487C91.1571 20.8282 92.2404 16.3781 95.6524 15.6537C98.5635 15.0356 100.956 17.8316 101.947 22.4956L93.8081 24.2236L93.9543 24.9123C94.8116 28.9503 96.8954 32.139 99.2117 31.6472C100.746 31.3215 102.005 29.5493 101.884 25.1261ZM95.7845 16.7379C93.7811 17.1633 93.2618 19.956 93.6447 23.1461L99.8739 21.8235C99.2691 18.975 97.913 16.286 95.7845 16.7379ZM123.322 27.0311C123.481 29.0088 123.737 29.4056 125.619 29.2549L125.673 29.9248L119.803 30.3946L119.75 29.7248C121.536 29.5818 121.726 29.1492 121.568 27.1715L120.766 17.1556C120.615 15.2736 119.975 14.4902 118.699 14.5924C117.295 14.7047 116.106 15.8914 115.07 17.3868L115.091 17.642L115.89 27.6261C116.048 29.6037 116.305 30.0005 118.091 29.8575L118.145 30.5274L112.339 30.9921L112.286 30.3223C114.104 30.1767 114.294 29.7442 114.136 27.7665L113.334 17.7505C113.183 15.8686 112.511 15.0877 111.235 15.1899C109.863 15.2997 108.613 16.5233 107.609 18.0162L108.426 28.2236C108.584 30.2012 108.809 30.6006 110.627 30.4551L110.681 31.1249L104.811 31.5947L104.758 30.9249C106.608 30.7768 106.798 30.3442 106.64 28.3666L105.794 17.8083C105.636 15.8307 105.672 15.4747 104.043 16.3756L103.707 15.7925L106.902 13.9958L107.315 14.348L107.522 16.9317L107.618 16.924C108.631 15.1415 109.868 13.7584 111.623 13.6179C113.505 13.4673 114.49 14.5441 114.89 16.3418L114.986 16.3342C116.063 14.5466 117.364 13.1583 119.119 13.0179C121.415 12.834 122.319 14.4952 122.523 17.047L123.322 27.0311ZM135.96 23.5069L136.632 23.5276C135.965 28.5335 133.811 30.9004 131.317 30.8236C127.958 30.7202 126.247 27.0179 126.411 21.7084C126.562 16.7827 128.672 12.7177 132.159 12.825C135.133 12.9165 136.793 16.2011 136.646 20.9669L128.33 20.7109L128.309 21.4146C128.182 25.5407 129.448 29.1333 131.815 29.2061C133.382 29.2544 135.026 27.8323 135.96 23.5069ZM132.029 13.9095C129.982 13.8465 128.814 16.4358 128.428 19.6254L134.793 19.8213C134.882 16.9107 134.204 13.9764 132.029 13.9095ZM142.904 13.9415L142.633 16.5193L142.728 16.5293C144.051 14.9631 145.585 13.8374 147.304 14.0182C149.595 14.2591 150.242 16.0647 149.974 18.6106L148.927 28.5717C148.719 30.5448 148.898 30.982 150.776 31.1794L150.706 31.8478L144.818 31.2286L144.889 30.5602C146.703 30.751 146.969 30.3607 147.176 28.3876L148.224 18.4266C148.421 16.5489 147.917 15.5306 146.612 15.3934C145.244 15.2494 143.78 16.3182 142.519 17.6013L141.448 27.7852C141.24 29.7583 141.42 30.1954 143.202 30.3829L143.132 31.0512L137.276 30.4353L137.346 29.767C139.192 29.9611 139.458 29.5709 139.666 27.5977L140.774 17.0638C140.981 15.0907 141.082 14.7473 139.315 15.3337L139.092 14.6989L142.562 13.5195L142.904 13.9415ZM159.444 26.3003L160.106 26.4143C159.228 31.3286 158.205 33.88 155.524 33.4187C153.38 33.0496 152.442 31.3297 153.158 27.1669L154.943 16.7914L152.326 16.3409L152.51 15.2687C155.228 15.7039 156.217 14.6727 156.882 11.3776L157.639 11.5079L156.863 16.0176L160.678 16.6742L160.494 17.7465L156.678 17.0898L155.093 26.2985C154.524 29.6098 154.292 31.7129 156.184 32.0385C157.697 32.299 158.615 30.9308 159.444 26.3003ZM159.823 33.9208L161.212 27.8045L161.867 27.9534C161.495 31.1831 162.427 33.7246 164.642 34.2278C166.109 34.5609 166.96 33.704 167.3 32.2062C167.789 30.053 166.541 28.3256 165.01 26.1075C163.551 24.0043 162.421 22.3365 162.903 20.2145C163.363 18.1862 165.177 16.9902 167.237 17.4579C169.234 17.9114 169.575 19.3014 170.074 19.4148C170.417 19.4927 170.488 19.1807 170.63 18.5566L171.285 18.7054L170.151 23.6983L169.496 23.5494C169.653 21.124 168.962 18.9653 167.089 18.5401C165.592 18.2 164.847 19.3107 164.663 20.122C164.273 21.8383 165.348 23.4608 166.725 25.3484C168.877 28.2983 169.578 29.8357 169.032 32.2385C168.437 34.8597 166.43 35.7494 164.495 35.31C162.311 34.814 161.752 33.3744 161.159 33.2398C160.784 33.1547 160.62 33.4455 160.478 34.0696L159.823 33.9208Z"/>
</mask>
<path d="M23.175 57.0877L23.8259 57.2547C23.3647 59.0525 23.6095 59.6438 25.3579 60.5549L46.57 71.8767L46.3314 72.8066L30.476 72.6706L44.3277 80.6177L44.113 81.4546L20.0226 81.3534C18.0126 81.3334 17.5444 81.7418 17.0832 83.5396L16.4323 83.3727L18.3247 75.9955L18.9756 76.1625C18.2202 79.1071 18.6232 79.2105 20.5633 79.2457L39.958 79.3646L39.9819 79.2716L28.303 72.6417L22.2728 72.5815C20.3017 72.5383 19.8026 72.9389 19.3414 74.7367L18.6905 74.5697L20.5829 67.1925L21.2338 67.3595C20.4784 70.3042 20.8734 70.4385 22.8215 70.4427L41.9905 70.6689L42.0143 70.5759L25.0876 61.6087C23.3701 60.7057 22.9592 60.6333 22.2039 63.5779L21.5529 63.411L23.175 57.0877ZM29.3317 50.8828C28.8961 51.5917 28.0157 51.8019 27.3068 51.3662C26.6253 50.9474 26.3878 50.0503 26.8234 49.3414C27.2423 48.6598 28.1667 48.4392 28.8482 48.858C29.5571 49.2936 29.7505 50.2012 29.3317 50.8828ZM47.1653 60.4901C48.8556 61.5288 49.3273 61.5558 50.2991 59.9745L50.8716 60.3264L47.7553 65.3973L47.1828 65.0455C48.1545 63.4642 47.9174 63.0556 46.2271 62.0168L37.2029 56.4711C35.5125 55.4324 35.2461 55.1936 35.0125 57.0406L34.3437 56.9677L34.7775 53.3281L35.3057 53.2019L47.1653 60.4901ZM51.1445 55.1565C52.6981 56.3905 53.1632 56.4738 54.3175 55.0205L54.8437 55.4384L51.1418 60.0992L50.6156 59.6812C51.77 58.2279 51.5836 57.7937 50.03 56.5598L34.795 44.4589C33.2163 43.2051 32.9805 42.936 32.5521 44.7616L31.8718 44.5891L32.764 41.0477L33.2785 40.9659L51.1445 55.1565ZM64.1573 45.3565L64.7752 45.6226L63.2712 48.9506L62.7744 48.919L60.977 46.8775L60.881 46.9621C61.2342 49.2518 61.1097 50.8537 59.8127 51.9956C57.3149 54.1948 53.7313 52.7879 50.4959 49.1132C47.1549 45.3184 45.3857 40.694 48.3879 38.0507C49.5647 37.0146 51.1541 36.9796 52.4495 37.2887L52.4975 37.2464L47.6974 31.7944C46.3652 30.2813 46.1806 29.9748 45.4152 31.672L44.7972 31.4059L46.3012 28.0779L46.798 28.1095L61.8751 45.2341C63.2073 46.7472 63.3919 47.0537 64.1573 45.3565ZM60.0889 45.8688L55.754 40.9451C53.3222 38.1831 50.8121 37.366 49.275 38.7193C46.9693 40.7493 49.0035 44.4157 51.4987 47.2498C54.4168 50.5642 57.3509 52.2018 59.2243 50.5525C60.6653 49.2837 60.368 47.5416 60.0889 45.8688ZM74.7413 13.0913L75.0615 13.6491L77.5866 17.9527L76.9996 18.286C74.9024 14.7023 74.2811 14.4898 72.4999 15.2882L65.6961 18.3378L70.0022 27.9449L74.4991 25.9293C76.2804 25.1309 76.5422 24.698 75.1548 21.6027L75.7972 21.3147L79.2526 29.0238L78.6101 29.3117C77.2228 26.2164 76.7254 26.1237 74.9441 26.9221L70.4472 28.9378L74.5308 38.0484C75.1459 39.4209 75.5104 39.6082 76.6492 39.0977L82.3726 36.5324C84.1539 35.734 84.46 34.9305 83.7423 29.8869L84.4341 29.7872L85.2393 35.8086L85.3289 36.3996L70.8745 42.8784L70.5996 42.2652C73.4029 41.0087 73.4533 40.4952 72.6549 38.7139L64.6971 20.9598C63.8987 19.1785 63.4818 18.8744 60.6786 20.1309L60.4037 19.5177L74.7413 13.0913ZM90.1385 31.5999C90.7043 33.5015 91.0377 33.8364 92.8166 33.3071L93.0082 33.9511L87.3034 35.6486L87.1118 35.0045C88.8907 34.4752 88.9867 34.0126 88.4209 32.111L82.8722 13.463C82.2972 11.5307 82.2582 11.1751 80.8608 12.4256L80.4022 11.8943L83.163 9.50362L83.6315 9.73149L90.1385 31.5999ZM101.884 25.1261L102.541 24.9865C103.084 30.0073 101.554 32.8183 99.1125 33.3367C95.8257 34.0345 93.2838 30.8449 92.1806 25.6487C91.1571 20.8282 92.2404 16.3781 95.6524 15.6537C98.5635 15.0356 100.956 17.8316 101.947 22.4956L93.8081 24.2236L93.9543 24.9123C94.8116 28.9503 96.8954 32.139 99.2117 31.6472C100.746 31.3215 102.005 29.5493 101.884 25.1261ZM95.7845 16.7379C93.7811 17.1633 93.2618 19.956 93.6447 23.1461L99.8739 21.8235C99.2691 18.975 97.913 16.286 95.7845 16.7379ZM123.322 27.0311C123.481 29.0088 123.737 29.4056 125.619 29.2549L125.673 29.9248L119.803 30.3946L119.75 29.7248C121.536 29.5818 121.726 29.1492 121.568 27.1715L120.766 17.1556C120.615 15.2736 119.975 14.4902 118.699 14.5924C117.295 14.7047 116.106 15.8914 115.07 17.3868L115.091 17.642L115.89 27.6261C116.048 29.6037 116.305 30.0005 118.091 29.8575L118.145 30.5274L112.339 30.9921L112.286 30.3223C114.104 30.1767 114.294 29.7442 114.136 27.7665L113.334 17.7505C113.183 15.8686 112.511 15.0877 111.235 15.1899C109.863 15.2997 108.613 16.5233 107.609 18.0162L108.426 28.2236C108.584 30.2012 108.809 30.6006 110.627 30.4551L110.681 31.1249L104.811 31.5947L104.758 30.9249C106.608 30.7768 106.798 30.3442 106.64 28.3666L105.794 17.8083C105.636 15.8307 105.672 15.4747 104.043 16.3756L103.707 15.7925L106.902 13.9958L107.315 14.348L107.522 16.9317L107.618 16.924C108.631 15.1415 109.868 13.7584 111.623 13.6179C113.505 13.4673 114.49 14.5441 114.89 16.3418L114.986 16.3342C116.063 14.5466 117.364 13.1583 119.119 13.0179C121.415 12.834 122.319 14.4952 122.523 17.047L123.322 27.0311ZM135.96 23.5069L136.632 23.5276C135.965 28.5335 133.811 30.9004 131.317 30.8236C127.958 30.7202 126.247 27.0179 126.411 21.7084C126.562 16.7827 128.672 12.7177 132.159 12.825C135.133 12.9165 136.793 16.2011 136.646 20.9669L128.33 20.7109L128.309 21.4146C128.182 25.5407 129.448 29.1333 131.815 29.2061C133.382 29.2544 135.026 27.8323 135.96 23.5069ZM132.029 13.9095C129.982 13.8465 128.814 16.4358 128.428 19.6254L134.793 19.8213C134.882 16.9107 134.204 13.9764 132.029 13.9095ZM142.904 13.9415L142.633 16.5193L142.728 16.5293C144.051 14.9631 145.585 13.8374 147.304 14.0182C149.595 14.2591 150.242 16.0647 149.974 18.6106L148.927 28.5717C148.719 30.5448 148.898 30.982 150.776 31.1794L150.706 31.8478L144.818 31.2286L144.889 30.5602C146.703 30.751 146.969 30.3607 147.176 28.3876L148.224 18.4266C148.421 16.5489 147.917 15.5306 146.612 15.3934C145.244 15.2494 143.78 16.3182 142.519 17.6013L141.448 27.7852C141.24 29.7583 141.42 30.1954 143.202 30.3829L143.132 31.0512L137.276 30.4353L137.346 29.767C139.192 29.9611 139.458 29.5709 139.666 27.5977L140.774 17.0638C140.981 15.0907 141.082 14.7473 139.315 15.3337L139.092 14.6989L142.562 13.5195L142.904 13.9415ZM159.444 26.3003L160.106 26.4143C159.228 31.3286 158.205 33.88 155.524 33.4187C153.38 33.0496 152.442 31.3297 153.158 27.1669L154.943 16.7914L152.326 16.3409L152.51 15.2687C155.228 15.7039 156.217 14.6727 156.882 11.3776L157.639 11.5079L156.863 16.0176L160.678 16.6742L160.494 17.7465L156.678 17.0898L155.093 26.2985C154.524 29.6098 154.292 31.7129 156.184 32.0385C157.697 32.299 158.615 30.9308 159.444 26.3003ZM159.823 33.9208L161.212 27.8045L161.867 27.9534C161.495 31.1831 162.427 33.7246 164.642 34.2278C166.109 34.5609 166.96 33.704 167.3 32.2062C167.789 30.053 166.541 28.3256 165.01 26.1075C163.551 24.0043 162.421 22.3365 162.903 20.2145C163.363 18.1862 165.177 16.9902 167.237 17.4579C169.234 17.9114 169.575 19.3014 170.074 19.4148C170.417 19.4927 170.488 19.1807 170.63 18.5566L171.285 18.7054L170.151 23.6983L169.496 23.5494C169.653 21.124 168.962 18.9653 167.089 18.5401C165.592 18.2 164.847 19.3107 164.663 20.122C164.273 21.8383 165.348 23.4608 166.725 25.3484C168.877 28.2983 169.578 29.8357 169.032 32.2385C168.437 34.8597 166.43 35.7494 164.495 35.31C162.311 34.814 161.752 33.3744 161.159 33.2398C160.784 33.1547 160.62 33.4455 160.478 34.0696L159.823 33.9208Z" fill="#FC4D0F"/>
<path d="M23.175 57.0877L25.1628 49.3386L17.4137 47.3508L15.4259 55.0999L23.175 57.0877ZM23.8259 57.2547L31.575 59.2425L33.5628 51.4934L25.8137 49.5056L23.8259 57.2547ZM25.3579 60.5549L29.1249 53.4972L29.0898 53.4785L29.0546 53.4602L25.3579 60.5549ZM46.57 71.8767L54.3191 73.8645L55.8804 67.7779L50.337 64.819L46.57 71.8767ZM46.3314 72.8066L46.2628 80.8063L52.5246 80.86L54.0805 74.7944L46.3314 72.8066ZM30.476 72.6706L30.5446 64.6708L-1.90888e-05 64.4088L26.4949 79.6096L30.476 72.6706ZM44.3277 80.6177L52.0768 82.6055L53.5896 76.7083L48.3088 73.6786L44.3277 80.6177ZM44.113 81.4546L44.0795 89.4545L50.3132 89.4807L51.8621 83.4424L44.113 81.4546ZM20.0226 81.3534L19.9427 89.353L19.9659 89.3533L19.989 89.3534L20.0226 81.3534ZM17.0832 83.5396L15.0954 91.2887L22.8445 93.2766L24.8323 85.5275L17.0832 83.5396ZM16.4323 83.3727L8.68319 81.3848L6.69536 89.1339L14.4445 91.1218L16.4323 83.3727ZM18.3247 75.9955L20.3125 68.2464L12.5634 66.2586L10.5756 74.0077L18.3247 75.9955ZM18.9756 76.1625L26.7247 78.1503L28.7125 70.4012L20.9634 68.4134L18.9756 76.1625ZM20.5633 79.2457L20.4183 87.2444L20.4663 87.2452L20.5143 87.2455L20.5633 79.2457ZM39.958 79.3646L39.909 87.3644L46.1551 87.4027L47.7071 81.3524L39.958 79.3646ZM39.9819 79.2716L47.731 81.2594L49.2509 75.3343L43.9313 72.3144L39.9819 79.2716ZM28.303 72.6417L32.2524 65.6846L30.4525 64.6628L28.3829 64.6421L28.303 72.6417ZM22.2728 72.5815L22.0978 80.5795L22.1454 80.5806L22.1929 80.5811L22.2728 72.5815ZM19.3414 74.7367L17.3536 82.4858L25.1027 84.4736L27.0905 76.7245L19.3414 74.7367ZM18.6905 74.5697L10.9414 72.5819L8.95353 80.3309L16.7026 82.3188L18.6905 74.5697ZM20.5829 67.1925L22.5707 59.4434L14.8216 57.4556L12.8338 65.2047L20.5829 67.1925ZM21.2338 67.3595L28.9829 69.3473L30.9707 61.5982L23.2216 59.6104L21.2338 67.3595ZM22.8215 70.4427L22.9159 62.4433L22.8773 62.4428L22.8386 62.4427L22.8215 70.4427ZM41.9905 70.6689L41.8961 78.6683L48.1784 78.7424L49.7396 72.6567L41.9905 70.6689ZM42.0143 70.5759L49.7634 72.5637L51.3298 66.4576L45.7594 63.5066L42.0143 70.5759ZM25.0876 61.6087L28.8326 54.5395L28.8217 54.5337L28.8108 54.5279L25.0876 61.6087ZM22.2039 63.5779L20.216 71.327L27.9651 73.3149L29.953 65.5658L22.2039 63.5779ZM21.5529 63.411L13.8038 61.4231L11.816 69.1722L19.5651 71.1601L21.5529 63.411ZM23.175 57.0877L21.1872 64.8368L21.8381 65.0038L23.8259 57.2547L25.8137 49.5056L25.1628 49.3386L23.175 57.0877ZM23.8259 57.2547L16.0768 55.2669C15.8378 56.1987 14.9961 59.2967 16.4859 62.5599C17.944 65.7533 20.7657 67.1829 21.6613 67.6496L25.3579 60.5549L29.0546 53.4602C28.7965 53.3257 28.9985 53.4056 29.3476 53.6881C29.7606 54.0222 30.5029 54.7368 31.0407 55.9147C31.5849 57.1066 31.6436 58.1671 31.6167 58.7622C31.5943 59.2562 31.508 59.5039 31.575 59.2425L23.8259 57.2547ZM25.3579 60.5549L21.591 67.6125L42.803 78.9343L46.57 71.8767L50.337 64.819L29.1249 53.4972L25.3579 60.5549ZM46.57 71.8767L38.8209 69.8888L38.5823 70.8187L46.3314 72.8066L54.0805 74.7944L54.3191 73.8645L46.57 71.8767ZM46.3314 72.8066L46.4001 64.8069L30.5446 64.6708L30.476 72.6706L30.4074 80.6703L46.2628 80.8063L46.3314 72.8066ZM30.476 72.6706L26.4949 79.6096L40.3466 87.5567L44.3277 80.6177L48.3088 73.6786L34.4571 65.7315L30.476 72.6706ZM44.3277 80.6177L36.5786 78.6298L36.3639 79.4667L44.113 81.4546L51.8621 83.4424L52.0768 82.6055L44.3277 80.6177ZM44.113 81.4546L44.1466 73.4546L20.0562 73.3535L20.0226 81.3534L19.989 89.3534L44.0795 89.4545L44.113 81.4546ZM20.0226 81.3534L20.1026 73.3538C19.0927 73.3438 15.9208 73.2716 13.1256 75.3999C10.2853 77.5627 9.55537 80.6893 9.33411 81.5518L17.0832 83.5396L24.8323 85.5275C24.9059 85.2404 24.8667 85.4835 24.6611 85.9101C24.4107 86.4295 23.8625 87.3348 22.8185 88.1297C21.7855 88.9163 20.7922 89.1944 20.2768 89.2925C19.8433 89.3751 19.6368 89.35 19.9427 89.353L20.0226 81.3534ZM17.0832 83.5396L19.071 75.7905L18.4201 75.6235L16.4323 83.3727L14.4445 91.1218L15.0954 91.2887L17.0832 83.5396ZM16.4323 83.3727L24.1814 85.3605L26.0738 77.9833L18.3247 75.9955L10.5756 74.0077L8.68319 81.3848L16.4323 83.3727ZM18.3247 75.9955L16.3369 83.7446L16.9878 83.9116L18.9756 76.1625L20.9634 68.4134L20.3125 68.2464L18.3247 75.9955ZM18.9756 76.1625L11.2265 74.1747C11.021 74.9757 10.7637 76.0594 10.6643 77.1655C10.5815 78.0867 10.4326 80.5666 11.9738 83.0337C13.7605 85.8938 16.4889 86.7374 17.7992 87.0033C18.946 87.2361 20.0976 87.2386 20.4183 87.2444L20.5633 79.2457L20.7083 71.247C20.059 71.2352 20.4327 71.2116 20.9818 71.3231C21.6946 71.4677 24.0057 72.0948 25.5436 74.5566C26.8359 76.6253 26.6066 78.5251 26.6001 78.5976C26.5769 78.8551 26.5525 78.8216 26.7247 78.1503L18.9756 76.1625ZM20.5633 79.2457L20.5143 87.2455L39.909 87.3644L39.958 79.3646L40.0071 71.3647L20.6124 71.2458L20.5633 79.2457ZM39.958 79.3646L47.7071 81.3524L47.731 81.2594L39.9819 79.2716L32.2328 77.2838L32.2089 77.3768L39.958 79.3646ZM39.9819 79.2716L43.9313 72.3144L32.2524 65.6846L28.303 72.6417L24.3536 79.5989L36.0325 86.2287L39.9819 79.2716ZM28.303 72.6417L28.3829 64.6421L22.3528 64.5819L22.2728 72.5815L22.1929 80.5811L28.2231 80.6413L28.303 72.6417ZM22.2728 72.5815L22.4478 64.5834C21.4382 64.5613 18.2768 64.456 15.4616 66.5532C12.5848 68.6963 11.8313 71.817 11.5923 72.7488L19.3414 74.7367L27.0905 76.7245C27.1575 76.4631 27.114 76.7218 26.8958 77.1655C26.6329 77.7001 26.071 78.6014 25.0202 79.3842C23.9819 80.1577 22.9872 80.4268 22.4644 80.5208C22.0224 80.6003 21.8069 80.5732 22.0978 80.5795L22.2728 72.5815ZM19.3414 74.7367L21.3292 66.9875L20.6783 66.8206L18.6905 74.5697L16.7026 82.3188L17.3536 82.4858L19.3414 74.7367ZM18.6905 74.5697L26.4396 76.5575L28.332 69.1804L20.5829 67.1925L12.8338 65.2047L10.9414 72.5819L18.6905 74.5697ZM20.5829 67.1925L18.595 74.9416L19.246 75.1086L21.2338 67.3595L23.2216 59.6104L22.5707 59.4434L20.5829 67.1925ZM21.2338 67.3595L13.4847 65.3717C13.2787 66.1746 13.0222 67.2559 12.922 68.3594C12.8391 69.2727 12.6862 71.7389 14.2031 74.2006C15.982 77.0875 18.7259 77.9507 20.0926 78.2211C21.2801 78.4561 22.4528 78.4419 22.8043 78.4427L22.8215 70.4427L22.8386 62.4427C22.2161 62.4414 22.6089 62.4089 23.1981 62.5254C23.9664 62.6774 26.2935 63.3222 27.8246 65.8069C29.0937 67.8665 28.8619 69.7467 28.8565 69.8065C28.8338 70.0564 28.8112 70.0168 28.9829 69.3473L21.2338 67.3595ZM22.8215 70.4427L22.7271 78.4422L41.8961 78.6683L41.9905 70.6689L42.0849 62.6694L22.9159 62.4433L22.8215 70.4427ZM41.9905 70.6689L49.7396 72.6567L49.7634 72.5637L42.0143 70.5759L34.2652 68.5881L34.2414 68.6811L41.9905 70.6689ZM42.0143 70.5759L45.7594 63.5066L28.8326 54.5395L25.0876 61.6087L21.3426 68.678L38.2693 77.6452L42.0143 70.5759ZM25.0876 61.6087L28.8108 54.5279C28.5051 54.3672 27.4778 53.8077 26.3227 53.4603C24.984 53.0577 22.1936 52.5476 19.2934 54.2174C16.8143 55.6447 15.7698 57.8524 15.3993 58.7013C14.9564 59.7163 14.6609 60.7866 14.4548 61.5901L22.2039 63.5779L29.953 65.5658C30.1245 64.8969 30.1636 64.8721 30.0639 65.1006C30.0366 65.1632 29.3438 66.8933 27.2765 68.0835C24.7881 69.5161 22.4697 69.0094 21.7147 68.7824C21.1433 68.6106 20.8113 68.3987 21.3644 68.6895L25.0876 61.6087ZM22.2039 63.5779L24.1917 55.8288L23.5408 55.6619L21.5529 63.411L19.5651 71.1601L20.216 71.327L22.2039 63.5779ZM21.5529 63.411L29.302 65.3988L30.9241 59.0755L23.175 57.0877L15.4259 55.0999L13.8038 61.4231L21.5529 63.411ZM28.8482 48.858L33.0368 42.0422L28.8482 48.858ZM50.2991 59.9745L54.4877 53.1587L47.6718 48.9701L43.4832 55.7859L50.2991 59.9745ZM50.8716 60.3264L57.6875 64.5149L61.876 57.6991L55.0602 53.5105L50.8716 60.3264ZM47.7553 65.3974L43.5667 72.2132L50.3826 76.4018L54.5712 69.5859L47.7553 65.3974ZM47.1828 65.0455L40.3669 60.8569L36.1784 67.6728L42.9942 71.8614L47.1828 65.0455ZM35.0125 57.0406L34.1449 64.9934L41.9623 65.8463L42.9492 58.0446L35.0125 57.0406ZM34.3437 56.9677L26.3999 56.0208L25.4436 64.0442L33.4761 64.9205L34.3437 56.9677ZM34.7775 53.328L32.9197 45.5467L27.4939 46.8421L26.8337 52.3812L34.7775 53.328ZM35.3057 53.2019L39.4943 46.3861L36.6711 44.6511L33.448 45.4206L35.3057 53.2019ZM29.3317 50.8828L22.5158 46.6943C24.3935 43.6388 28.44 42.6727 31.4954 44.5504L27.3068 51.3662L23.1183 58.1821C27.5914 60.931 33.3986 59.5445 36.1475 55.0714L29.3317 50.8828ZM27.3068 51.3662L31.4954 44.5504C34.4811 46.3852 35.5761 50.3783 33.6393 53.53L26.8234 49.3414L20.0076 45.1529C17.1995 49.7223 18.7694 55.5096 23.1183 58.1821L27.3068 51.3662ZM26.8234 49.3414L33.6393 53.53C31.7448 56.6127 27.7424 57.5683 24.6597 55.6739L28.8482 48.858L33.0368 42.0422C28.5909 39.31 22.7397 40.707 20.0076 45.1529L26.8234 49.3414ZM28.8482 48.858L24.6597 55.6739C21.508 53.737 20.681 49.68 22.5158 46.6943L29.3317 50.8828L36.1475 55.0714C38.8201 50.7225 37.6062 44.8502 33.0368 42.0422L28.8482 48.858ZM47.1653 60.4901L42.9767 67.3059C43.4333 67.5865 44.2345 68.0711 45.1523 68.4538C46.0812 68.8412 47.858 69.4429 50.0759 69.1423C52.4819 68.8163 54.1923 67.6077 55.2432 66.5755C56.1644 65.6707 56.7851 64.6998 57.1149 64.1631L50.2991 59.9745L43.4832 55.7859C43.3272 56.0399 43.5246 55.6586 44.0312 55.161C44.6675 54.536 45.9721 53.5522 47.9274 53.2873C49.6946 53.0478 50.9758 53.5468 51.3105 53.6864C51.6341 53.8213 51.7424 53.913 51.3539 53.6742L47.1653 60.4901ZM50.2991 59.9745L46.1105 66.7904L46.683 67.1422L50.8716 60.3264L55.0602 53.5105L54.4877 53.1587L50.2991 59.9745ZM50.8716 60.3264L44.0558 56.1378L40.9395 61.2088L47.7553 65.3974L54.5712 69.5859L57.6875 64.5149L50.8716 60.3264ZM47.7553 65.3974L51.9439 58.5815L51.3714 58.2297L47.1828 65.0455L42.9942 71.8614L43.5667 72.2132L47.7553 65.3974ZM47.1828 65.0455L53.9986 69.2341C54.3284 68.6974 54.9142 67.705 55.3053 66.4744C55.7515 65.0706 56.057 62.9986 55.261 60.7049C54.5272 58.5904 53.1877 57.2771 52.4226 56.6234C51.6664 55.9774 50.8722 55.4816 50.4156 55.201L46.2271 62.0168L42.0385 68.8327C42.427 69.0715 42.2963 69.0162 42.0297 68.7885C41.7541 68.553 40.7301 67.6354 40.1454 65.9505C39.4985 64.0865 39.7868 62.4781 40.0569 61.6281C40.272 60.9513 40.523 60.603 40.3669 60.8569L47.1828 65.0455ZM46.2271 62.0168L50.4156 55.201L41.3914 49.6553L37.2029 56.4711L33.0143 63.287L42.0385 68.8327L46.2271 62.0168ZM37.2029 56.4711L41.3914 49.6553C41.1438 49.5031 40.4746 49.0807 39.8945 48.7766C39.5709 48.6069 38.9812 48.3137 38.2347 48.0782C37.5122 47.8504 36.1647 47.5204 34.4943 47.7452C30.057 48.3424 28.2558 51.8238 27.7398 53.1782C27.2746 54.399 27.1296 55.6107 27.0757 56.0366L35.0125 57.0406L42.9492 58.0446C43.0122 57.547 42.9881 58.0959 42.6914 58.8745C42.5198 59.325 42.0768 60.3524 41.0785 61.3719C39.924 62.5509 38.3675 63.3682 36.6285 63.6022C35.1117 63.8064 33.9405 63.5008 33.4225 63.3374C32.8805 63.1665 32.5235 62.9777 32.4662 62.9477C32.4187 62.9228 32.4167 62.9198 33.0143 63.287L37.2029 56.4711ZM35.0125 57.0406L35.8801 49.0878L35.2113 49.0148L34.3437 56.9677L33.4761 64.9205L34.1449 64.9934L35.0125 57.0406ZM34.3437 56.9677L42.2875 57.9145L42.7213 54.2749L34.7775 53.328L26.8337 52.3812L26.3999 56.0208L34.3437 56.9677ZM34.7775 53.328L36.6353 61.1094L37.1635 60.9833L35.3057 53.2019L33.448 45.4206L32.9197 45.5467L34.7775 53.328ZM35.3057 53.2019L31.1171 60.0178L42.9767 67.3059L47.1653 60.4901L51.3539 53.6742L39.4943 46.3861L35.3057 53.2019ZM51.1445 55.1565L46.1689 61.4209L51.1445 55.1565ZM54.3175 55.0205L59.2932 48.7561L53.0288 43.7804L48.0531 50.0448L54.3175 55.0205ZM54.8437 55.4384L61.1081 60.4141L66.0838 54.1497L59.8194 49.174L54.8437 55.4384ZM51.1418 60.0992L46.1662 66.3636L52.4306 71.3392L57.4062 65.0748L51.1418 60.0992ZM50.6156 59.6812L44.3512 54.7055L39.3756 60.9699L45.64 65.9456L50.6156 59.6812ZM32.5521 44.7616L30.5854 52.5161L38.4799 54.5184L40.3405 46.5893L32.5521 44.7616ZM31.8718 44.5891L24.1142 42.6348L22.163 50.38L29.9051 52.3436L31.8718 44.5891ZM32.764 41.0477L31.5084 33.1468L26.2958 33.9752L25.0064 39.0934L32.764 41.0477ZM33.2785 40.9659L38.2541 34.7015L35.4984 32.5127L32.0228 33.0651L33.2785 40.9659ZM51.1445 55.1565L46.1689 61.4209C46.5885 61.7543 47.3258 62.3314 48.1911 62.8214C49.0668 63.3174 50.7587 64.1278 52.9966 64.0954C55.4243 64.0602 57.2673 63.0655 58.4344 62.1667C59.4574 61.3789 60.1902 60.4894 60.5819 59.9962L54.3175 55.0205L48.0531 50.0448C47.8677 50.2782 48.1094 49.9234 48.6721 49.4901C49.3787 48.9459 50.7919 48.1257 52.7648 48.0971C54.5481 48.0713 55.7602 48.7204 56.0757 48.899C56.3808 49.0718 56.4773 49.1758 56.1202 48.8921L51.1445 55.1565ZM54.3175 55.0205L49.3419 61.2849L49.8681 61.7028L54.8437 55.4384L59.8194 49.174L59.2932 48.7561L54.3175 55.0205ZM54.8437 55.4384L48.5793 50.4628L44.8774 55.1235L51.1418 60.0992L57.4062 65.0748L61.1081 60.4141L54.8437 55.4384ZM51.1418 60.0992L56.1175 53.8348L55.5913 53.4168L50.6156 59.6812L45.64 65.9456L46.1662 66.3636L51.1418 60.0992ZM50.6156 59.6812L56.88 64.6569C57.2718 64.1636 57.9723 63.2486 58.5082 62.0738C59.1195 60.7336 59.6713 58.7133 59.1561 56.3406C58.6811 54.1534 57.5088 52.6889 56.8275 51.9482C56.1543 51.2162 55.4253 50.6287 55.0057 50.2954L50.03 56.5598L45.0543 62.8242C45.4114 63.1078 45.2883 63.0373 45.0509 62.7792C44.8055 62.5124 43.8989 61.4786 43.5205 59.7358C43.1018 57.8076 43.5808 56.2454 43.951 55.434C44.2457 54.7879 44.5366 54.4721 44.3512 54.7055L50.6156 59.6812ZM50.03 56.5598L55.0057 50.2954L39.7706 38.1945L34.795 44.4589L29.8193 50.7233L45.0543 62.8242L50.03 56.5598ZM34.795 44.4589L39.7706 38.1945C39.5349 38.0073 38.9203 37.5071 38.3817 37.1355C38.0823 36.929 37.5341 36.5674 36.8245 36.2438C36.1425 35.9326 34.8353 35.4331 33.1336 35.4562C28.5622 35.5183 26.3674 38.8801 25.7202 40.1615C25.1318 41.3268 24.8609 42.5195 24.7637 42.934L32.5521 44.7616L40.3405 46.5893C40.4575 46.091 40.3768 46.6327 40.0023 47.3742C39.7865 47.8015 39.2328 48.7938 38.1122 49.7143C36.8094 50.7847 35.1356 51.4305 33.3508 51.4547C31.804 51.4758 30.6697 51.0222 30.1845 50.8009C29.6719 50.5671 29.3444 50.339 29.2959 50.3055C29.2588 50.28 29.2657 50.2836 29.8193 50.7233L34.795 44.4589ZM32.5521 44.7616L34.5188 37.0072L33.8386 36.8346L31.8718 44.5891L29.9051 52.3436L30.5854 52.5161L32.5521 44.7616ZM31.8718 44.5891L39.6294 46.5434L40.5216 43.002L32.764 41.0477L25.0064 39.0934L24.1142 42.6348L31.8718 44.5891ZM32.764 41.0477L34.0196 48.9485L34.5341 48.8668L33.2785 40.9659L32.0228 33.0651L31.5084 33.1468L32.764 41.0477ZM33.2785 40.9659L28.3028 47.2303L46.1689 61.4209L51.1445 55.1565L56.1202 48.8921L38.2541 34.7015L33.2785 40.9659ZM64.1573 45.3566L67.3206 38.0085L60.0977 34.899L56.8647 42.0675L64.1573 45.3566ZM64.7752 45.6226L72.0654 48.9171L75.4195 41.4951L67.9386 38.2746L64.7752 45.6226ZM63.2712 48.9506L62.7636 56.9345L68.2836 57.2854L70.5614 52.2451L63.2712 48.9506ZM62.7744 48.919L56.77 54.2055L58.9598 56.6926L62.2668 56.9029L62.7744 48.919ZM60.977 46.8775L66.9815 41.591L61.695 35.5866L55.6905 40.8731L60.977 46.8775ZM60.881 46.9621L55.5945 40.9577L52.3066 43.8524L52.9745 48.1817L60.881 46.9621ZM59.8127 51.9956L54.5262 45.9912L59.8127 51.9956ZM48.3879 38.0507L43.1014 32.0463L48.3879 38.0507ZM52.4495 37.2887L50.5927 45.0702L54.6247 46.0323L57.736 43.2931L52.4495 37.2887ZM52.4975 37.2464L57.784 43.2508L63.7884 37.9643L58.5019 31.9599L52.4975 37.2464ZM47.6974 31.7944L41.693 37.0809L47.6974 31.7944ZM45.4152 31.672L42.2518 39.02L49.4747 42.1295L52.7078 34.961L45.4152 31.672ZM44.7972 31.4059L37.5071 28.1114L34.153 35.5334L41.6339 38.7539L44.7972 31.4059ZM46.3012 28.0779L46.8089 20.0941L41.2889 19.7431L39.0111 24.7834L46.3012 28.0779ZM46.798 28.1095L52.8024 22.823L50.6127 20.3359L47.3057 20.1256L46.798 28.1095ZM60.0889 45.8688L67.9799 44.5524L67.6037 42.2978L66.0933 40.5823L60.0889 45.8688ZM64.1573 45.3566L60.9939 52.7046L61.6119 52.9706L64.7752 45.6226L67.9386 38.2746L67.3206 38.0085L64.1573 45.3566ZM64.7752 45.6226L57.4851 42.3281L55.9811 45.6561L63.2712 48.9506L70.5614 52.2451L72.0654 48.9171L64.7752 45.6226ZM63.2712 48.9506L63.7789 40.9667L63.2821 40.9351L62.7744 48.919L62.2668 56.9029L62.7636 56.9345L63.2712 48.9506ZM62.7744 48.919L68.7789 43.6325L66.9815 41.591L60.977 46.8775L54.9726 52.164L56.77 54.2055L62.7744 48.919ZM60.977 46.8775L55.6905 40.8731L55.5945 40.9577L60.881 46.9621L66.1675 52.9665L66.2635 52.8819L60.977 46.8775ZM60.881 46.9621L52.9745 48.1817C53.0331 48.5618 53.0478 48.7633 53.0507 48.8433C53.0535 48.9222 53.0405 48.7796 53.0919 48.4939C53.1471 48.1867 53.2737 47.7324 53.5492 47.226C53.8302 46.7096 54.1816 46.2946 54.5262 45.9912L59.8127 51.9956L65.0992 58C69.7488 53.9063 69.1941 48.3788 68.7874 45.7424L60.881 46.9621ZM59.8127 51.9956L54.5262 45.9912C54.9809 45.5909 55.6613 45.2256 56.4743 45.0934C57.2368 44.9695 57.7714 45.1047 57.9549 45.1657C58.1205 45.2208 58.0364 45.2235 57.7247 44.9928C57.4233 44.7698 57.0023 44.3968 56.5004 43.8267L50.4959 49.1132L44.4915 54.3997C46.627 56.8252 49.4563 59.2012 52.9068 60.3485C56.7457 61.6249 61.3642 61.2885 65.0992 58L59.8127 51.9956ZM50.4959 49.1132L56.5004 43.8267C55.9563 43.2088 55.5365 42.6237 55.2436 42.1219C54.9416 41.6047 54.8468 41.3005 54.8295 41.2306C54.8122 41.1606 54.9225 41.5396 54.7668 42.199C54.5881 42.9558 54.1632 43.6248 53.6744 44.0552L48.3879 38.0507L43.1014 32.0463C38.7313 35.8939 38.3225 41.1273 39.2969 45.0697C40.2004 48.7252 42.3398 51.9558 44.4915 54.3997L50.4959 49.1132ZM48.3879 38.0507L53.6744 44.0552C52.8949 44.7414 52.0529 45.0077 51.4915 45.0868C50.9886 45.1578 50.6791 45.0909 50.5927 45.0702L52.4495 37.2887L54.3062 29.5072C51.8134 28.9123 47.0692 28.5529 43.1014 32.0463L48.3879 38.0507ZM52.4495 37.2887L57.736 43.2931L57.784 43.2508L52.4975 37.2464L47.211 31.242L47.163 31.2843L52.4495 37.2887ZM52.4975 37.2464L58.5019 31.9599L53.7018 26.5079L47.6974 31.7944L41.693 37.0809L46.4931 42.5329L52.4975 37.2464ZM47.6974 31.7944L53.7018 26.5079C53.5025 26.2816 52.9865 25.6813 52.5221 25.2204C52.2635 24.9637 51.7904 24.5135 51.1539 24.0716C50.5398 23.6453 49.3618 22.9341 47.7142 22.6476C43.297 21.8795 40.5246 24.6594 39.6068 25.8325C38.795 26.87 38.2973 27.9954 38.1225 28.3829L45.4152 31.672L52.7078 34.961C52.9157 34.4999 52.7281 35.0272 52.2079 35.6921C51.9059 36.0781 51.1692 36.9388 49.8965 37.6197C48.425 38.407 46.69 38.7096 44.9732 38.4111C43.4798 38.1514 42.4648 37.5171 42.0294 37.2148C41.5715 36.8969 41.2927 36.6179 41.2506 36.5761C41.2195 36.5452 41.2261 36.5507 41.693 37.0809L47.6974 31.7944ZM45.4152 31.672L48.5785 24.324L47.9606 24.0579L44.7972 31.4059L41.6339 38.7539L42.2518 39.02L45.4152 31.672ZM44.7972 31.4059L52.0874 34.7005L53.5914 31.3725L46.3012 28.0779L39.0111 24.7834L37.5071 28.1114L44.7972 31.4059ZM46.3012 28.0779L45.7935 36.0618L46.2903 36.0934L46.798 28.1095L47.3057 20.1256L46.8089 20.0941L46.3012 28.0779ZM46.798 28.1095L40.7936 33.396L55.8707 50.5206L61.8751 45.2341L67.8795 39.9476L52.8024 22.823L46.798 28.1095ZM61.8751 45.2341L55.8707 50.5206C56.0699 50.7469 56.586 51.3472 57.0503 51.8081C57.309 52.0649 57.782 52.515 58.4186 52.9569C59.0326 53.3832 60.2106 54.0944 61.8582 54.3809C66.2754 55.149 69.0478 52.3691 69.9657 51.196C70.7774 50.1585 71.2751 49.0331 71.4499 48.6456L64.1573 45.3566L56.8647 42.0675C56.6567 42.5286 56.8443 42.0013 57.3645 41.3364C57.6666 40.9504 58.4033 40.0898 59.6759 39.4088C61.1474 38.6215 62.8824 38.3189 64.5992 38.6174C66.0926 38.8771 67.1076 39.5114 67.543 39.8137C68.001 40.1316 68.2798 40.4106 68.3218 40.4524C68.353 40.4833 68.3463 40.4778 67.8795 39.9476L61.8751 45.2341ZM60.0889 45.8688L66.0933 40.5823L61.7584 35.6586L55.754 40.9451L49.7496 46.2316L54.0845 51.1552L60.0889 45.8688ZM55.754 40.9451L61.7584 35.6586C60.0001 33.6615 57.6538 31.6963 54.7441 30.7113C51.5772 29.6393 47.3854 29.7242 43.9885 32.7149L49.275 38.7193L54.5615 44.7237C53.7787 45.4129 52.7833 45.8748 51.7351 46.0259C50.7473 46.1683 49.9994 45.9971 49.6139 45.8666C48.9514 45.6423 49.0761 45.4667 49.7496 46.2316L55.754 40.9451ZM49.275 38.7193L43.9885 32.7149C39.3637 36.7867 39.9663 42.2628 41.0335 45.3198C42.0615 48.2645 43.9668 50.8014 45.4943 52.5363L51.4987 47.2498L57.5031 41.9633C57.0777 41.4801 56.7281 41.0237 56.472 40.6317C56.2021 40.2185 56.1306 40.0209 56.1395 40.0463C56.1484 40.0719 56.197 40.2156 56.2315 40.4638C56.2663 40.7148 56.2923 41.1153 56.2211 41.6222C56.1479 42.1438 55.9776 42.7316 55.6637 43.3196C55.3486 43.9099 54.954 44.3781 54.5615 44.7237L49.275 38.7193ZM51.4987 47.2498L45.4943 52.5363C47.2677 54.5506 49.5999 56.7281 52.3893 58.0209C55.3781 59.4061 60.3259 60.2414 64.5108 56.5569L59.2243 50.5525L53.9378 44.548C54.8494 43.7455 56.0555 43.2621 57.2729 43.2066C58.336 43.1582 59.0001 43.4499 59.1172 43.5042C59.2498 43.5656 59.1353 43.5331 58.7861 43.2429C58.4546 42.9675 58.0193 42.5496 57.5031 41.9633L51.4987 47.2498ZM59.2243 50.5525L64.5108 56.5569C69.7975 51.9022 68.094 45.2365 67.9799 44.5524L60.0889 45.8688L52.198 47.1851C52.2759 47.6527 52.3043 47.8352 52.3193 47.976C52.3322 48.0968 52.3066 47.9536 52.3326 47.6586C52.3609 47.3379 52.4538 46.7923 52.7476 46.158C53.0538 45.497 53.4817 44.9495 53.9378 44.548L59.2243 50.5525ZM74.7413 13.0913L81.6798 9.109L78.0759 2.82981L71.4692 5.79103L74.7413 13.0913ZM75.0615 13.6491L68.1231 17.6314L68.1422 17.6646L68.1615 17.6976L75.0615 13.6491ZM77.5866 17.9527L81.5361 24.9099L88.5934 20.9035L84.4866 13.9042L77.5866 17.9527ZM76.9996 18.286L70.095 22.3267L74.0829 29.141L80.9491 25.2431L76.9996 18.286ZM72.4999 15.2882L69.2278 7.988L72.4999 15.2882ZM65.6961 18.3378L62.424 11.0376L55.1237 14.3097L58.3958 21.6099L65.6961 18.3378ZM70.0022 27.9449L62.7019 31.217L65.974 38.5173L73.2743 35.2452L70.0022 27.9449ZM75.1548 21.6027L71.8827 14.3024L64.5825 17.5745L67.8546 24.8748L75.1548 21.6027ZM75.7972 21.3147L83.0974 18.0426L79.8253 10.7424L72.5251 14.0145L75.7972 21.3147ZM79.2526 29.0238L82.5247 36.324L89.8249 33.0519L86.5528 25.7516L79.2526 29.0238ZM78.6101 29.3117L71.3099 32.5838L74.582 39.884L81.8823 36.6119L78.6101 29.3117ZM74.9441 26.9221L78.2162 34.2224L74.9441 26.9221ZM70.4472 28.9378L67.1751 21.6375L59.8748 24.9096L63.1469 32.2099L70.4472 28.9378ZM82.3726 36.5324L79.1005 29.2322L82.3726 36.5324ZM83.7423 29.8869L82.6016 21.9686L74.697 23.1073L75.8221 31.0139L83.7423 29.8869ZM84.4341 29.7872L92.3635 28.7268L91.2923 20.7167L83.2934 21.869L84.4341 29.7872ZM85.2393 35.8086L77.3099 36.869L77.3192 36.9383L77.3297 37.0074L85.2393 35.8086ZM85.3289 36.3996L88.601 43.6999L94.1498 41.2128L93.2386 35.2008L85.3289 36.3996ZM70.8745 42.8784L63.5742 46.1505L66.8463 53.4507L74.1466 50.1786L70.8745 42.8784ZM70.5996 42.2652L67.3275 34.965L60.0273 38.2371L63.2994 45.5373L70.5996 42.2652ZM60.6786 20.1309L53.3783 23.403L56.6504 30.7032L63.9507 27.4311L60.6786 20.1309ZM60.4037 19.5177L57.1316 12.2175L49.8314 15.4896L53.1035 22.7898L60.4037 19.5177ZM74.7413 13.0913L67.8029 17.0735L68.1231 17.6314L75.0615 13.6491L81.9999 9.66684L81.6798 9.109L74.7413 13.0913ZM75.0615 13.6491L68.1615 17.6976L70.6867 22.0012L77.5866 17.9527L84.4866 13.9042L81.9615 9.6006L75.0615 13.6491ZM77.5866 17.9527L73.6372 10.9956L73.0501 11.3289L76.9996 18.286L80.9491 25.2431L81.5361 24.9099L77.5866 17.9527ZM76.9996 18.286L83.9042 14.2453C83.3414 13.2836 82.7302 12.2899 82.0776 11.414C81.4696 10.598 80.4365 9.3411 78.8804 8.36559C77.0109 7.1936 74.9004 6.73853 72.8125 6.96081C71.1322 7.13972 69.7819 7.73965 69.2278 7.988L72.4999 15.2882L75.772 22.5885C76.1085 22.4376 75.5038 22.7647 74.5065 22.8709C73.914 22.934 73.1822 22.9245 72.3785 22.7416C71.5742 22.5586 70.9029 22.2486 70.3821 21.9221C69.4661 21.3478 69.0928 20.7661 69.2469 20.9729C69.3563 21.1198 69.6092 21.4965 70.095 22.3267L76.9996 18.286ZM72.4999 15.2882L69.2278 7.988L62.424 11.0376L65.6961 18.3378L68.9682 25.6381L75.772 22.5885L72.4999 15.2882ZM65.6961 18.3378L58.3958 21.6099L62.7019 31.217L70.0022 27.9449L77.3024 24.6728L72.9963 15.0657L65.6961 18.3378ZM70.0022 27.9449L73.2743 35.2452L77.7712 33.2295L74.4991 25.9293L71.227 18.6291L66.73 20.6447L70.0022 27.9449ZM74.4991 25.9293L77.7712 33.2295C78.2113 33.0323 79.4015 32.5075 80.5237 31.6162C81.9403 30.4911 83.3783 28.695 83.8706 26.1416C84.2829 24.0027 83.8463 22.184 83.5669 21.2281C83.2645 20.1932 82.8347 19.1777 82.455 18.3306L75.1548 21.6027L67.8546 24.8748C68.1686 25.5753 68.2263 25.7746 68.2094 25.7164C68.1936 25.6627 68.1198 25.4041 68.0752 25.0015C68.0295 24.5883 68.0033 23.9248 68.1598 23.113C68.3244 22.2592 68.6592 21.4098 69.1665 20.6367C69.6543 19.8934 70.1883 19.3925 70.5726 19.0872C71.188 18.5984 71.6775 18.4271 71.227 18.6291L74.4991 25.9293ZM75.1548 21.6027L78.4269 28.9029L79.0693 28.6149L75.7972 21.3147L72.5251 14.0145L71.8827 14.3024L75.1548 21.6027ZM75.7972 21.3147L68.497 24.5868L71.9523 32.2959L79.2526 29.0238L86.5528 25.7516L83.0974 18.0426L75.7972 21.3147ZM79.2526 29.0238L75.9805 21.7235L75.338 22.0115L78.6101 29.3117L81.8823 36.6119L82.5247 36.324L79.2526 29.0238ZM78.6101 29.3117L85.9104 26.0396C85.5307 25.1925 85.0585 24.1959 84.4873 23.2816C83.9597 22.4369 82.8925 20.9008 81.0215 19.7853C78.7879 18.4537 76.4904 18.332 74.7078 18.6408C73.2958 18.8854 72.1121 19.4247 71.672 19.6219L74.9441 26.9221L78.2162 34.2224C78.6667 34.0204 78.2132 34.2719 77.4388 34.406C76.9552 34.4898 76.2259 34.555 75.3465 34.4245C74.4318 34.2888 73.575 33.9736 72.8281 33.5282C72.118 33.1049 71.6402 32.6439 71.3622 32.3347C71.0913 32.0336 70.9474 31.8064 70.9177 31.7589C70.8856 31.7075 70.9959 31.8833 71.3099 32.5838L78.6101 29.3117ZM74.9441 26.9221L71.672 19.6219L67.1751 21.6375L70.4472 28.9378L73.7193 36.238L78.2162 34.2224L74.9441 26.9221ZM70.4472 28.9378L63.1469 32.2099L67.2305 41.3206L74.5308 38.0484L81.831 34.7763L77.7474 25.6657L70.4472 28.9378ZM74.5308 38.0484L67.2305 41.3206C67.4406 41.7891 67.8097 42.5775 68.3566 43.3776C68.9121 44.1903 69.991 45.5257 71.8272 46.4402C75.8096 48.4236 79.4578 46.6057 79.9214 46.398L76.6492 39.0977L73.3771 31.7975C73.3788 31.7968 73.4871 31.7476 73.6702 31.6851C73.8502 31.6236 74.1925 31.5178 74.6547 31.4435C75.6805 31.2786 77.2796 31.2812 78.96 32.1181C80.4859 32.8781 81.2871 33.9412 81.5657 34.3488C81.8357 34.7437 81.9285 34.994 81.831 34.7763L74.5308 38.0484ZM76.6492 39.0977L79.9214 46.398L85.6447 43.8326L82.3726 36.5324L79.1005 29.2322L73.3771 31.7975L76.6492 39.0977ZM82.3726 36.5324L85.6447 43.8326C86.3553 43.5141 87.7718 42.8398 89.0793 41.5399C90.5703 40.0576 91.408 38.2978 91.7995 36.5575C92.3897 33.9339 91.9741 30.9493 91.6625 28.7599L83.7423 29.8869L75.8221 31.0139C75.9925 32.211 76.0689 32.9367 76.094 33.3856C76.122 33.8899 76.0568 33.6361 76.1897 33.0457C76.2673 32.7006 76.4169 32.2161 76.7043 31.672C76.9999 31.1125 77.3762 30.6132 77.7988 30.1931C78.5703 29.426 79.2806 29.1515 79.1005 29.2322L82.3726 36.5324ZM83.7423 29.8869L84.883 37.8051L85.5747 37.7055L84.4341 29.7872L83.2934 21.869L82.6016 21.9686L83.7423 29.8869ZM84.4341 29.7872L76.5047 30.8476L77.3099 36.869L85.2393 35.8086L93.1687 34.7481L92.3635 28.7268L84.4341 29.7872ZM85.2393 35.8086L77.3297 37.0074L77.4192 37.5985L85.3289 36.3996L93.2386 35.2008L93.149 34.6097L85.2393 35.8086ZM85.3289 36.3996L82.0568 29.0994L67.6023 35.5782L70.8745 42.8784L74.1466 50.1786L88.601 43.6999L85.3289 36.3996ZM70.8745 42.8784L78.1747 39.6063L77.8998 38.9931L70.5996 42.2652L63.2994 45.5373L63.5742 46.1505L70.8745 42.8784ZM70.5996 42.2652L73.8717 49.5654C74.667 49.209 75.6633 48.7348 76.5934 48.1266C77.4846 47.544 79.0358 46.3845 80.0814 44.3661C81.2697 42.072 81.2231 39.8406 80.9089 38.2723C80.6501 36.9799 80.1518 35.8807 79.9551 35.4418L72.6549 38.7139L65.3546 41.986C65.5571 42.4378 65.352 42.0708 65.2206 41.4148C65.034 40.4831 64.9492 38.7926 65.8744 37.0066C66.6567 35.4963 67.7197 34.8121 67.8379 34.7348C67.9951 34.632 67.9339 34.6932 67.3275 34.965L70.5996 42.2652ZM72.6549 38.7139L79.9551 35.4418L71.9973 17.6877L64.6971 20.9598L57.3969 24.2319L65.3546 41.986L72.6549 38.7139ZM64.6971 20.9598L71.9973 17.6877C71.8006 17.2488 71.3116 16.1454 70.5191 15.0922C69.5575 13.8142 67.9228 12.2945 65.4196 11.6551C63.2172 11.0925 61.3194 11.4789 60.2916 11.7564C59.2186 12.0461 58.2017 12.4742 57.4065 12.8307L60.6786 20.1309L63.9507 27.4311C64.557 27.1593 64.6435 27.1543 64.4621 27.2033C64.3257 27.2401 63.1077 27.5783 61.4597 27.1573C59.5109 26.6595 58.3054 25.4713 57.734 24.712C57.3318 24.1775 57.1944 23.7801 57.3969 24.2319L64.6971 20.9598ZM60.6786 20.1309L67.9788 16.8588L67.7039 16.2456L60.4037 19.5177L53.1035 22.7898L53.3783 23.403L60.6786 20.1309ZM60.4037 19.5177L63.6758 26.8179L78.0135 20.3915L74.7413 13.0913L71.4692 5.79103L57.1316 12.2175L60.4037 19.5177ZM92.8166 33.3071L100.484 31.0255L98.2028 23.3577L90.535 25.6393L92.8166 33.3071ZM93.0082 33.9511L95.2898 41.6189L102.958 39.3373L100.676 31.6696L93.0082 33.9511ZM87.3034 35.6486L79.6357 37.9302L81.9172 45.5979L89.585 43.3164L87.3034 35.6486ZM87.1118 35.0045L84.8302 27.3368L77.1625 29.6183L79.444 37.2861L87.1118 35.0045ZM82.8722 13.463L75.2044 15.7446L82.8722 13.463ZM80.8608 12.4256L74.8046 17.6528L80.1262 23.8183L86.1955 18.3872L80.8608 12.4256ZM80.4022 11.8943L75.1653 5.84653L69.1272 11.075L74.3461 17.1215L80.4022 11.8943ZM83.163 9.50362L86.6625 2.3096L81.9162 0.000837741L77.9262 3.45586L83.163 9.50362ZM83.6315 9.73149L91.2992 7.44993L90.2956 4.07688L87.1309 2.53747L83.6315 9.73149ZM90.1385 31.5999L82.4707 33.8815C82.6236 34.3952 82.897 35.2907 83.3252 36.1882C83.7585 37.0965 84.6804 38.7303 86.5329 39.9864C88.5424 41.349 90.6228 41.5902 92.0943 41.5226C93.3842 41.4634 94.4944 41.1545 95.0981 40.9748L92.8166 33.3071L90.535 25.6393C90.2493 25.7243 90.6508 25.572 91.3601 25.5395C92.2511 25.4985 93.8793 25.6364 95.5124 26.7437C96.9884 27.7446 97.6097 28.9713 97.7658 29.2985C97.9168 29.615 97.9363 29.7555 97.8063 29.3184L90.1385 31.5999ZM92.8166 33.3071L85.1488 35.5886L85.3405 36.2327L93.0082 33.9511L100.676 31.6696L100.484 31.0255L92.8166 33.3071ZM93.0082 33.9511L90.7267 26.2834L85.0219 27.9809L87.3034 35.6486L89.585 43.3164L95.2898 41.6189L93.0082 33.9511ZM87.3034 35.6486L94.9712 33.3671L94.7795 32.723L87.1118 35.0045L79.444 37.2861L79.6357 37.9302L87.3034 35.6486ZM87.1118 35.0045L89.3933 42.6723C89.9971 42.4926 91.0956 42.1443 92.208 41.4888C93.4771 40.7409 95.0872 39.4016 96.0249 37.1621C96.8893 35.0975 96.768 33.2255 96.6343 32.228C96.5022 31.2424 96.2415 30.3431 96.0887 29.8294L88.4209 32.111L80.7532 34.3926C80.8832 34.8297 80.8227 34.7013 80.7762 34.3538C80.728 33.9945 80.5776 32.6277 81.2663 30.9827C82.0284 29.1627 83.3163 28.1571 84.0847 27.7043C84.6965 27.3437 85.1159 27.2518 84.8302 27.3368L87.1118 35.0045ZM88.4209 32.111L96.0887 29.8294L90.5399 11.1815L82.8722 13.463L75.2044 15.7446L80.7532 34.3926L88.4209 32.111ZM82.8722 13.463L90.5399 11.1815C90.4541 10.8929 90.2371 10.1308 90.0087 9.5176C89.8818 9.17678 89.6397 8.5662 89.2438 7.89435C88.8632 7.24847 88.0784 6.08991 86.6706 5.1335C82.8891 2.5643 79.1637 4.06117 77.899 4.74032C76.7488 5.35793 75.8433 6.18007 75.526 6.46397L80.8608 12.4256L86.1955 18.3872C86.5769 18.0458 86.2003 18.4435 85.4685 18.8365C85.0467 19.063 84.0242 19.5587 82.5784 19.6709C80.8972 19.8013 79.1556 19.3711 77.6791 18.368C76.3996 17.4987 75.73 16.4769 75.4592 16.0175C75.1732 15.532 75.0356 15.1575 75.015 15.1022C74.9993 15.06 75.0028 15.067 75.2044 15.7446L82.8722 13.463ZM80.8608 12.4256L86.9169 7.1984L86.4583 6.66711L80.4022 11.8943L74.3461 17.1215L74.8046 17.6528L80.8608 12.4256ZM80.4022 11.8943L85.639 17.942L88.3999 15.5514L83.163 9.50362L77.9262 3.45586L75.1653 5.84653L80.4022 11.8943ZM83.163 9.50362L79.6636 16.6976L80.132 16.9255L83.6315 9.73149L87.1309 2.53747L86.6625 2.3096L83.163 9.50362ZM83.6315 9.73149L75.9637 12.013L82.4707 33.8815L90.1385 31.5999L97.8063 29.3184L91.2992 7.44993L83.6315 9.73149ZM101.884 25.1261L100.222 17.3005L93.7039 18.6845L93.8866 25.3454L101.884 25.1261ZM102.541 24.9865L110.495 24.1269L109.543 15.3215L100.879 17.161L102.541 24.9865ZM99.1125 33.3367L97.4509 25.5111L99.1125 33.3367ZM95.6524 15.6537L93.9909 7.82814L95.6524 15.6537ZM101.947 22.4956L103.608 30.3212L111.434 28.6596L109.772 20.8341L101.947 22.4956ZM93.8081 24.2236L92.1465 16.3981L84.321 18.0596L85.9825 25.8852L93.8081 24.2236ZM93.9543 24.9123L86.1287 26.5738L93.9543 24.9123ZM95.7845 16.7379L97.446 24.5635L95.7845 16.7379ZM93.6447 23.1461L85.7017 24.0994L86.7448 32.7894L95.3062 30.9716L93.6447 23.1461ZM99.8739 21.8235L101.535 29.649L109.361 27.9875L107.699 20.1619L99.8739 21.8235ZM101.884 25.1261L103.545 32.9516L104.202 32.8121L102.541 24.9865L100.879 17.161L100.222 17.3005L101.884 25.1261ZM102.541 24.9865L94.5873 25.8461C94.6725 26.635 94.657 27.1682 94.6235 27.4803C94.5893 27.7978 94.5459 27.8022 94.6347 27.6022C94.7294 27.3891 94.9798 26.9381 95.5123 26.4762C96.0654 25.9964 96.7464 25.6607 97.4509 25.5111L99.1125 33.3367L100.774 41.1622C104.883 40.2898 107.765 37.4566 109.257 34.0977C110.645 30.9732 110.855 27.4657 110.495 24.1269L102.541 24.9865ZM99.1125 33.3367L97.4509 25.5111C98.1231 25.3684 98.9456 25.409 99.7241 25.7149C100.439 25.996 100.792 26.3706 100.86 26.4488C100.921 26.5179 100.798 26.395 100.599 25.9393C100.406 25.4972 100.19 24.8526 100.006 23.9872L92.1806 25.6487L84.355 27.3103C85.0603 30.6323 86.3835 34.1883 88.795 36.9571C91.4463 40.0013 95.6885 42.242 100.774 41.1622L99.1125 33.3367ZM92.1806 25.6487L100.006 23.9872C99.8592 23.2954 99.8065 22.6987 99.8111 22.2344C99.8133 22.0059 99.8293 21.8287 99.8475 21.7022C99.866 21.5746 99.884 21.5174 99.8828 21.5211C99.8818 21.5243 99.8545 21.6111 99.774 21.7557C99.6924 21.9021 99.5507 22.1176 99.3231 22.3568C98.8153 22.8906 98.0971 23.313 97.3139 23.4793L95.6524 15.6537L93.9909 7.82814C88.6369 8.96491 85.7718 13.068 84.6236 16.7092C83.5215 20.204 83.6506 23.9923 84.355 27.3103L92.1806 25.6487ZM95.6524 15.6537L97.3139 23.4793C96.5522 23.641 95.6779 23.5882 94.869 23.279C94.1169 22.9916 93.7088 22.5957 93.5775 22.45C93.453 22.3119 93.5155 22.3355 93.6604 22.6571C93.8 22.967 93.973 23.4597 94.1211 24.1572L101.947 22.4956L109.772 20.8341C109.106 17.6942 107.814 14.3471 105.462 11.7377C102.903 8.89855 98.8271 6.8013 93.9909 7.82814L95.6524 15.6537ZM101.947 22.4956L100.285 14.6701L92.1465 16.3981L93.8081 24.2236L95.4696 32.0492L103.608 30.3212L101.947 22.4956ZM93.8081 24.2236L85.9825 25.8852L86.1287 26.5738L93.9543 24.9123L101.78 23.2507L101.634 22.5621L93.8081 24.2236ZM93.9543 24.9123L86.1287 26.5738C86.7119 29.3202 87.802 32.2996 89.6044 34.7362C91.2283 36.9313 95.1171 40.6949 100.873 39.4728L99.2117 31.6472L97.5502 23.8216C99.0983 23.493 100.476 23.8602 101.378 24.3544C101.786 24.5781 102.061 24.8046 102.218 24.9512C102.376 25.0987 102.453 25.2014 102.467 25.2207C102.485 25.2449 102.374 25.0941 102.214 24.7034C102.061 24.3292 101.904 23.8366 101.78 23.2507L93.9543 24.9123ZM99.2117 31.6472L100.873 39.4728C104.463 38.7107 107.017 36.2625 108.397 33.35C109.643 30.7211 109.959 27.754 109.881 24.9067L101.884 25.1261L93.8866 25.3454C93.9298 26.9214 93.6761 27.052 93.9394 26.4965C94.099 26.1598 94.4501 25.578 95.1232 25.0081C95.8191 24.4187 96.6637 24.0099 97.5502 23.8216L99.2117 31.6472ZM95.7845 16.7379L94.1229 8.91236C89.0837 9.9823 86.8985 14.0395 86.1343 16.6841C85.3845 19.2786 85.4465 21.9731 85.7017 24.0994L93.6447 23.1461L101.588 22.1927C101.46 21.129 101.59 20.832 101.505 21.1263C101.45 21.3173 101.233 21.9811 100.577 22.7323C99.8377 23.5786 98.7478 24.2871 97.446 24.5635L95.7845 16.7379ZM93.6447 23.1461L95.3062 30.9716L101.535 29.649L99.8739 21.8235L98.2123 13.9979L91.9832 15.3205L93.6447 23.1461ZM99.8739 21.8235L107.699 20.1619C107.292 18.2417 106.509 15.6751 104.953 13.4535C103.352 11.168 99.6441 7.74009 94.1229 8.91236L95.7845 16.7379L97.446 24.5635C96.0649 24.8567 94.63 24.6194 93.4646 23.9963C92.4568 23.4575 91.972 22.8097 91.848 22.6326C91.6533 22.3545 91.8512 22.5568 92.0483 23.485L99.8739 21.8235ZM123.322 27.0311L115.348 27.6695L123.322 27.0311ZM125.619 29.2549L133.594 28.6166L132.955 20.6421L124.981 21.2804L125.619 29.2549ZM125.673 29.9248L126.311 37.8993L134.286 37.2609L133.647 29.2864L125.673 29.9248ZM119.803 30.3946L111.829 31.033L112.467 39.0075L120.442 38.3691L119.803 30.3946ZM119.75 29.7248L119.111 21.7503L111.137 22.3886L111.775 30.3631L119.75 29.7248ZM120.766 17.1556L112.792 17.794L120.766 17.1556ZM118.699 14.5924L118.061 6.61787L118.699 14.5924ZM115.07 17.3868L108.494 12.8311L106.868 15.1786L107.096 18.0252L115.07 17.3868ZM118.091 29.8575L126.066 29.2192L125.427 21.2447L117.453 21.8831L118.091 29.8575ZM118.145 30.5274L118.783 38.5019L126.758 37.8635L126.119 29.889L118.145 30.5274ZM112.339 30.9921L104.365 31.6305L105.003 39.605L112.978 38.9666L112.339 30.9921ZM112.286 30.3223L111.647 22.3478L103.673 22.9861L104.311 30.9606L112.286 30.3223ZM113.334 17.7505L105.359 18.3889L113.334 17.7505ZM111.235 15.1899L110.596 7.21538L111.235 15.1899ZM107.609 18.0162L100.971 13.5515L99.4114 15.8697L99.6343 18.6546L107.609 18.0162ZM110.627 30.4551L118.601 29.8167L117.963 21.8422L109.989 22.4806L110.627 30.4551ZM110.681 31.1249L111.319 39.0994L119.293 38.461L118.655 30.4865L110.681 31.1249ZM104.811 31.5947L96.8369 32.2331L97.4753 40.2076L105.45 39.5692L104.811 31.5947ZM104.758 30.9249L104.119 22.9504L96.1449 23.5888L96.7833 31.5632L104.758 30.9249ZM104.043 16.3756L97.1089 20.3662L101.032 27.1818L107.914 23.3766L104.043 16.3756ZM103.707 15.7925L99.7855 8.81948L92.7427 12.7801L96.7733 19.7832L103.707 15.7925ZM106.902 13.9958L112.089 7.90562L107.843 4.28849L102.98 7.02282L106.902 13.9958ZM107.315 14.348L115.29 13.7096L115.025 10.4065L112.503 8.25776L107.315 14.348ZM107.522 16.9317L99.5475 17.5701L100.186 25.5445L108.16 24.9062L107.522 16.9317ZM107.618 16.924L108.256 24.8985L112.48 24.5604L114.573 20.8767L107.618 16.924ZM111.623 13.6179L110.984 5.64342L111.623 13.6179ZM114.89 16.3418L107.082 18.0824L108.595 24.8714L115.529 24.3163L114.89 16.3418ZM114.986 16.3342L115.624 24.3087L119.719 23.9809L121.839 20.462L114.986 16.3342ZM123.322 27.0311L115.348 27.6695C115.39 28.2016 115.472 29.1411 115.708 30.1153C115.947 31.1063 116.52 32.9082 118.094 34.5239C119.791 36.2657 121.781 36.916 123.216 37.1473C124.481 37.3511 125.625 37.28 126.257 37.2294L125.619 29.2549L124.981 21.2804C124.672 21.3052 125.079 21.241 125.761 21.351C126.614 21.4884 128.176 21.9442 129.554 23.3584C130.809 24.6465 131.171 25.9878 131.259 26.3529C131.343 26.7012 131.333 26.8494 131.297 26.3927L123.322 27.0311ZM125.619 29.2549L117.645 29.8933L117.698 30.5631L125.673 29.9248L133.647 29.2864L133.594 28.6166L125.619 29.2549ZM125.673 29.9248L125.034 21.9503L119.165 22.4201L119.803 30.3946L120.442 38.3691L126.311 37.8993L125.673 29.9248ZM119.803 30.3946L127.778 29.7563L127.724 29.0864L119.75 29.7248L111.775 30.3631L111.829 31.033L119.803 30.3946ZM119.75 29.7248L120.388 37.6993C120.905 37.6579 125.381 37.5344 128.026 33.6009C129.255 31.7738 129.509 29.946 129.58 28.9682C129.652 27.992 129.585 27.0715 129.542 26.5332L121.568 27.1715L113.593 27.8099C113.629 28.2604 113.599 28.1356 113.623 27.8012C113.648 27.4653 113.772 26.1253 114.75 24.6714C115.848 23.0382 117.313 22.286 118.211 21.9776C118.919 21.7342 119.384 21.7284 119.111 21.7503L119.75 29.7248ZM121.568 27.1715L129.542 26.5332L128.741 16.5172L120.766 17.1556L112.792 17.794L113.593 27.8099L121.568 27.1715ZM120.766 17.1556L128.741 16.5172C128.626 15.0856 128.256 12.4248 126.374 10.098C123.983 7.14266 120.64 6.41136 118.061 6.61787L118.699 14.5924L119.337 22.5669C118.811 22.6089 117.885 22.5986 116.79 22.198C115.623 21.7711 114.644 21.0376 113.935 20.1619C112.73 18.6717 112.756 17.3436 112.792 17.794L120.766 17.1556ZM118.699 14.5924L118.061 6.61787C112.646 7.05131 109.571 11.2765 108.494 12.8311L115.07 17.3868L121.647 21.9425C121.958 21.4932 122.033 21.4806 121.843 21.6378C121.627 21.8164 120.768 22.4524 119.337 22.5669L118.699 14.5924ZM115.07 17.3868L107.096 18.0252L107.116 18.2804L115.091 17.642L123.065 17.0036L123.045 16.7485L115.07 17.3868ZM115.091 17.642L107.116 18.2804L107.916 28.2644L115.89 27.6261L123.865 26.9877L123.065 17.0036L115.091 17.642ZM115.89 27.6261L107.916 28.2644C107.959 28.8028 108.04 29.7221 108.265 30.6745C108.491 31.6284 109.033 33.3926 110.537 35.0009C113.774 38.4635 118.213 37.8734 118.729 37.832L118.091 29.8575L117.453 21.8831C117.18 21.9049 117.64 21.8366 118.378 21.9642C119.314 22.1258 120.879 22.6355 122.224 24.0732C123.42 25.353 123.756 26.6561 123.834 26.9838C123.911 27.3101 123.901 27.4382 123.865 26.9877L115.89 27.6261ZM118.091 29.8575L110.117 30.4959L110.17 31.1658L118.145 30.5274L126.119 29.889L126.066 29.2192L118.091 29.8575ZM118.145 30.5274L117.506 22.5529L111.701 23.0176L112.339 30.9921L112.978 38.9666L118.783 38.5019L118.145 30.5274ZM112.339 30.9921L120.314 30.3538L120.26 29.6839L112.286 30.3223L104.311 30.9606L104.365 31.6305L112.339 30.9921ZM112.286 30.3223L112.924 38.2968C113.548 38.2468 114.701 38.1339 115.934 37.7158C117.347 37.2363 119.193 36.2434 120.559 34.242C121.811 32.4083 122.073 30.566 122.147 29.5755C122.22 28.5916 122.153 27.6644 122.11 27.1281L114.136 27.7665L106.161 28.4049C106.197 28.8574 106.166 28.726 106.191 28.3839C106.217 28.0353 106.348 26.6811 107.345 25.2209C108.456 23.593 109.923 22.8591 110.795 22.5635C111.485 22.3292 111.932 22.325 111.647 22.3478L112.286 30.3223ZM114.136 27.7665L122.11 27.1281L121.308 17.1122L113.334 17.7505L105.359 18.3889L106.161 28.4049L114.136 27.7665ZM113.334 17.7505L121.308 17.1122C121.188 15.6148 120.79 12.9413 118.864 10.619C116.466 7.72831 113.16 7.01013 110.596 7.21538L111.235 15.1899L111.873 23.1644C111.345 23.2066 110.438 23.1941 109.367 22.8083C108.23 22.3984 107.261 21.6922 106.549 20.8334C105.315 19.3464 105.329 18.0043 105.359 18.3889L113.334 17.7505ZM111.235 15.1899L110.596 7.21538C107.719 7.44571 105.548 8.7879 104.173 9.93018C102.78 11.0872 101.727 12.4264 100.971 13.5515L107.609 18.0162L114.247 22.4809C114.494 22.1132 114.569 22.0941 114.395 22.2386C114.239 22.3684 113.379 23.0438 111.873 23.1644L111.235 15.1899ZM107.609 18.0162L99.6343 18.6546L100.451 28.8619L108.426 28.2236L116.4 27.5852L115.583 17.3779L107.609 18.0162ZM108.426 28.2236L100.451 28.8619C100.492 29.3741 100.569 30.2806 100.783 31.2125C100.995 32.1403 101.517 33.9251 103.022 35.5584C104.687 37.3634 106.69 38.0743 108.186 38.3308C109.481 38.5527 110.646 38.4791 111.265 38.4295L110.627 30.4551L109.989 22.4806C109.698 22.5038 110.154 22.4348 110.89 22.561C111.828 22.7218 113.424 23.2365 114.786 24.7127C115.988 26.0171 116.31 27.3404 116.379 27.6416C116.449 27.9469 116.439 28.0618 116.4 27.5852L108.426 28.2236ZM110.627 30.4551L102.652 31.0934L102.706 31.7633L110.681 31.1249L118.655 30.4865L118.601 29.8167L110.627 30.4551ZM110.681 31.1249L110.042 23.1504L104.173 23.6203L104.811 31.5947L105.45 39.5692L111.319 39.0994L110.681 31.1249ZM104.811 31.5947L112.786 30.9564L112.732 30.2865L104.758 30.9249L96.7833 31.5632L96.8369 32.2331L104.811 31.5947ZM104.758 30.9249L105.396 38.8994C106.024 38.8491 107.171 38.7367 108.395 38.3266C109.792 37.8588 111.645 36.8833 113.028 34.8875C114.303 33.0476 114.573 31.1913 114.649 30.1878C114.725 29.1962 114.657 28.2624 114.614 27.7282L106.64 28.3666L98.6651 29.0049C98.7015 29.4595 98.669 29.3214 98.6957 28.9718C98.7232 28.6103 98.8601 27.2421 99.8757 25.7761C100.999 24.1542 102.468 23.4382 103.314 23.155C103.987 22.9294 104.417 22.9266 104.119 22.9504L104.758 30.9249ZM106.64 28.3666L114.614 27.7282L113.769 17.17L105.794 17.8083L97.8199 18.4467L98.6651 29.0049L106.64 28.3666ZM105.794 17.8083L113.769 17.17C113.746 16.8803 113.692 16.0907 113.595 15.4429C113.542 15.0815 113.431 14.4324 113.18 13.6907C112.938 12.9729 112.41 11.6901 111.243 10.4739C108.143 7.24309 104.269 7.84227 102.871 8.22455C101.611 8.56914 100.547 9.16677 100.171 9.3745L104.043 16.3756L107.914 23.3766C108.353 23.1339 107.895 23.4382 107.091 23.658C106.626 23.7851 105.535 24.0335 104.123 23.8288C102.49 23.592 100.912 22.8172 99.6974 21.5511C98.6378 20.4467 98.1937 19.3207 98.02 18.8061C97.8383 18.2676 97.7802 17.868 97.7706 17.804C97.7627 17.751 97.764 17.7475 97.8199 18.4467L105.794 17.8083ZM104.043 16.3756L110.976 12.3849L110.64 11.8018L103.707 15.7925L96.7733 19.7832L97.1089 20.3662L104.043 16.3756ZM103.707 15.7925L107.628 22.7655L110.823 20.9688L106.902 13.9958L102.98 7.02282L99.7855 8.81948L103.707 15.7925ZM106.902 13.9958L101.714 20.086L102.128 20.4382L107.315 14.348L112.503 8.25776L112.089 7.90562L106.902 13.9958ZM107.315 14.348L99.3407 14.9863L99.5475 17.5701L107.522 16.9317L115.496 16.2933L115.29 13.7096L107.315 14.348ZM107.522 16.9317L108.16 24.9062L108.256 24.8985L107.618 16.924L106.979 8.94954L106.884 8.9572L107.522 16.9317ZM107.618 16.924L114.573 20.8767C114.872 20.3507 114.931 20.3893 114.676 20.6179C114.519 20.7576 114.228 20.9836 113.792 21.1881C113.339 21.4001 112.815 21.548 112.261 21.5924L111.623 13.6179L110.984 5.64342C104.938 6.12741 101.869 10.8476 100.662 12.9714L107.618 16.924ZM111.623 13.6179L112.261 21.5924C111.456 21.6568 109.88 21.4643 108.481 20.2142C107.886 19.6822 107.534 19.1364 107.34 18.7533C107.152 18.383 107.092 18.1287 107.082 18.0824L114.89 16.3418L122.699 14.6013C122.298 12.8036 121.385 10.2876 119.143 8.28422C116.681 6.08393 113.671 5.42835 110.984 5.64342L111.623 13.6179ZM114.89 16.3418L115.529 24.3163L115.624 24.3087L114.986 16.3342L114.348 8.3597L114.252 8.36735L114.89 16.3418ZM114.986 16.3342L121.839 20.462C122.158 19.9325 122.245 19.9246 122.035 20.1065C121.904 20.2199 121.64 20.4215 121.235 20.6084C120.814 20.8025 120.309 20.9481 119.757 20.9923L119.119 13.0179L118.48 5.04336C112.554 5.51776 109.406 10.0928 108.133 12.2063L114.986 16.3342ZM119.119 13.0179L119.757 20.9923C119.332 21.0263 118.513 21.0084 117.536 20.6047C116.518 20.1843 115.741 19.5146 115.227 18.8352C114.758 18.215 114.591 17.7038 114.548 17.5559C114.503 17.402 114.527 17.4185 114.549 17.6854L122.523 17.047L130.498 16.4087C130.354 14.6194 129.906 11.7164 127.984 9.17792C125.585 6.00923 121.982 4.76304 118.48 5.04336L119.119 13.0179ZM122.523 17.047L114.549 17.6854L115.348 27.6695L123.322 27.0311L131.297 26.3927L130.498 16.4087L122.523 17.047ZM135.96 23.5069L136.206 15.5107L129.546 15.3058L128.14 21.8193L135.96 23.5069ZM136.632 23.5276L144.562 24.5831L145.73 15.8038L136.878 15.5314L136.632 23.5276ZM132.159 12.825L132.405 4.82876L132.159 12.825ZM136.646 20.9669L136.4 28.9631L144.397 29.2092L144.643 21.2129L136.646 20.9669ZM128.33 20.7109L128.576 12.7147L120.58 12.4687L120.334 20.4649L128.33 20.7109ZM132.029 13.9095L132.275 5.91329L132.029 13.9095ZM128.428 19.6254L120.486 18.6636L119.433 27.3524L128.182 27.6216L128.428 19.6254ZM134.793 19.8213L134.547 27.8175L142.543 28.0636L142.789 20.0674L134.793 19.8213ZM135.96 23.5069L135.714 31.5032L136.386 31.5238L136.632 23.5276L136.878 15.5314L136.206 15.5107L135.96 23.5069ZM136.632 23.5276L128.702 22.4721C128.597 23.2587 128.455 23.773 128.348 24.0681C128.24 24.3684 128.196 24.3623 128.33 24.1892C128.473 24.0047 128.823 23.6261 129.45 23.304C130.102 22.9694 130.843 22.8052 131.563 22.8274L131.317 30.8236L131.071 38.8198C135.269 38.949 138.742 36.882 140.989 33.974C143.08 31.2689 144.119 27.912 144.562 24.5831L136.632 23.5276ZM131.317 30.8236L131.563 22.8274C132.25 22.8485 133.039 23.0834 133.722 23.5657C134.35 24.0086 134.604 24.4565 134.652 24.5486C134.694 24.63 134.603 24.4814 134.518 23.9915C134.436 23.5161 134.38 22.8387 134.407 21.9544L126.411 21.7084L118.415 21.4623C118.31 24.8567 118.75 28.6253 120.434 31.888C122.286 35.4751 125.874 38.6599 131.071 38.8198L131.317 30.8236ZM126.411 21.7084L134.407 21.9544C134.429 21.2476 134.519 20.6555 134.634 20.2055C134.691 19.9841 134.748 19.8158 134.796 19.6972C134.844 19.5777 134.875 19.5265 134.873 19.5298C134.872 19.5326 134.824 19.6104 134.712 19.7317C134.598 19.8546 134.409 20.0301 134.131 20.2084C133.511 20.6063 132.713 20.8458 131.913 20.8212L132.159 12.825L132.405 4.82876C126.934 4.6604 123.176 7.96491 121.195 11.2289C119.294 14.3615 118.519 18.072 118.415 21.4623L126.411 21.7084ZM132.159 12.825L131.913 20.8212C131.134 20.7972 130.298 20.5381 129.585 20.0456C128.923 19.5877 128.621 19.1061 128.528 18.9334C128.44 18.7696 128.495 18.8073 128.559 19.1542C128.621 19.4884 128.672 20.0081 128.65 20.7208L136.646 20.9669L144.643 21.2129C144.741 18.0046 144.282 14.4464 142.618 11.3528C140.807 7.98678 137.347 4.98083 132.405 4.82876L132.159 12.825ZM136.646 20.9669L136.892 12.9706L128.576 12.7147L128.33 20.7109L128.084 28.7072L136.4 28.9631L136.646 20.9669ZM128.33 20.7109L120.334 20.4649L120.312 21.1685L128.309 21.4146L136.305 21.6607L136.327 20.957L128.33 20.7109ZM128.309 21.4146L120.312 21.1685C120.226 23.9748 120.577 27.128 121.748 29.9231C122.804 32.4413 125.687 37.0214 131.569 37.2024L131.815 29.2061L132.061 21.2099C133.643 21.2586 134.894 21.9428 135.652 22.6373C135.995 22.9515 136.208 23.2368 136.326 23.4165C136.444 23.5973 136.495 23.7155 136.504 23.7376C136.516 23.7653 136.444 23.5925 136.381 23.1749C136.321 22.775 136.286 22.2593 136.305 21.6607L128.309 21.4146ZM131.815 29.2061L131.569 37.2024C135.236 37.3152 138.299 35.5442 140.332 33.0433C142.168 30.786 143.179 27.9789 143.78 25.1946L135.96 23.5069L128.14 21.8193C127.807 23.3603 127.53 23.4269 127.918 22.9499C128.153 22.6608 128.632 22.1792 129.421 21.7855C130.237 21.3784 131.155 21.1821 132.061 21.2099L131.815 29.2061ZM132.029 13.9095L132.275 5.91329C127.126 5.75483 124.039 9.17638 122.668 11.5636C121.323 13.9055 120.743 16.5375 120.486 18.6636L128.428 19.6254L136.37 20.5873C136.499 19.5237 136.696 19.2662 136.543 19.5319C136.444 19.7043 136.075 20.2974 135.259 20.8712C134.34 21.5175 133.113 21.9467 131.783 21.9057L132.029 13.9095ZM128.428 19.6254L128.182 27.6216L134.547 27.8175L134.793 19.8213L135.039 11.8251L128.674 11.6292L128.428 19.6254ZM134.793 19.8213L142.789 20.0674C142.849 18.1052 142.699 15.4263 141.716 12.8984C140.704 10.298 137.917 6.0869 132.275 5.91329L132.029 13.9095L131.783 21.9057C130.372 21.8623 129.035 21.2907 128.051 20.4085C127.2 19.6456 126.883 18.9011 126.805 18.6996C126.681 18.3833 126.826 18.6267 126.797 19.5752L134.793 19.8213ZM142.904 13.9415L150.86 14.7783L151.207 11.4827L149.121 8.90736L142.904 13.9415ZM142.633 16.5193L134.677 15.6826L133.84 23.6387L141.796 24.4754L142.633 16.5193ZM142.728 16.5293L141.891 24.4855L146.105 24.9286L148.839 21.6919L142.728 16.5293ZM147.304 14.0182L148.141 6.06203L147.304 14.0182ZM150.776 31.1794L158.732 32.0162L159.569 24.0601L151.613 23.2233L150.776 31.1794ZM150.706 31.8478L149.869 39.8039L157.825 40.6406L158.662 32.6845L150.706 31.8478ZM144.818 31.2286L136.862 30.3918L136.025 38.3479L143.982 39.1847L144.818 31.2286ZM144.889 30.5602L145.725 22.6041L137.769 21.7674L136.932 29.7235L144.889 30.5602ZM148.224 18.4266L140.268 17.5898L148.224 18.4266ZM146.612 15.3934L147.449 7.43724L146.612 15.3934ZM142.519 17.6013L136.813 11.9936L134.855 13.9861L134.563 16.7646L142.519 17.6013ZM143.202 30.3829L151.158 31.2196L151.995 23.2635L144.039 22.4267L143.202 30.3829ZM143.132 31.0512L142.295 39.0073L150.251 39.844L151.088 31.8879L143.132 31.0512ZM137.276 30.4353L129.32 29.5986L128.483 37.5547L136.439 38.3915L137.276 30.4353ZM137.346 29.767L138.183 21.8109L130.227 20.9742L129.39 28.9303L137.346 29.767ZM139.315 15.3337L131.766 17.9834L134.371 25.4034L141.834 22.9266L139.315 15.3337ZM139.092 14.6989L136.517 7.12447L128.867 9.7246L131.543 17.3487L139.092 14.6989ZM142.562 13.5195L148.78 8.4853L145.269 4.14991L139.988 5.94498L142.562 13.5195ZM142.904 13.9415L134.948 13.1048L134.677 15.6826L142.633 16.5193L150.589 17.356L150.86 14.7783L142.904 13.9415ZM142.633 16.5193L141.796 24.4754L141.891 24.4855L142.728 16.5293L143.565 8.57322L143.469 8.56317L142.633 16.5193ZM142.728 16.5293L148.839 21.6919C149.177 21.292 149.233 21.3302 148.96 21.493C148.606 21.7033 147.705 22.1044 146.467 21.9743L147.304 14.0182L148.141 6.06203C142.208 5.43809 138.275 9.40384 136.617 11.3668L142.728 16.5293ZM147.304 14.0182L146.467 21.9743C146.041 21.9295 145.264 21.7634 144.406 21.2128C143.515 20.6412 142.882 19.8757 142.497 19.1321C141.849 17.8822 142.089 17.1036 142.018 17.7739L149.974 18.6106L157.93 19.4474C158.128 17.5717 158.178 14.6173 156.701 11.7679C154.896 8.28556 151.612 6.42706 148.141 6.06203L147.304 14.0182ZM149.974 18.6106L142.018 17.7739L140.971 27.735L148.927 28.5717L156.883 29.4084L157.93 19.4474L149.974 18.6106ZM148.927 28.5717L140.971 27.735C140.915 28.2659 140.822 29.2044 140.875 30.2052C140.929 31.2234 141.161 33.0999 142.412 34.9771C143.76 37.0009 145.596 38.0054 146.965 38.4963C148.17 38.9289 149.309 39.0692 149.939 39.1356L150.776 31.1794L151.613 23.2233C151.305 23.1909 151.716 23.2026 152.367 23.436C153.18 23.7277 154.632 24.4626 155.727 26.1058C156.724 27.6024 156.833 28.9873 156.853 29.3624C156.872 29.7202 156.835 29.8641 156.883 29.4084L148.927 28.5717ZM150.776 31.1794L142.82 30.3427L142.75 31.011L150.706 31.8478L158.662 32.6845L158.732 32.0162L150.776 31.1794ZM150.706 31.8478L151.543 23.8916L145.655 23.2724L144.818 31.2286L143.982 39.1847L149.869 39.8039L150.706 31.8478ZM144.818 31.2286L152.774 32.0653L152.845 31.397L144.889 30.5602L136.932 29.7235L136.862 30.3918L144.818 31.2286ZM144.889 30.5602L144.052 38.5164C144.674 38.5818 145.828 38.6825 147.117 38.4979C148.594 38.2861 150.591 37.649 152.301 35.9325C153.869 34.3598 154.465 32.5969 154.719 31.6368C154.972 30.6832 155.076 29.7594 155.132 29.2244L147.176 28.3876L139.22 27.5509C139.173 28.0024 139.166 27.8673 139.254 27.5358C139.343 27.1979 139.72 25.8907 140.968 24.6383C142.36 23.2422 143.936 22.7901 144.847 22.6596C145.569 22.5562 146.01 22.634 145.725 22.6041L144.889 30.5602ZM147.176 28.3876L155.132 29.2244L156.18 19.2633L148.224 18.4266L140.268 17.5898L139.22 27.5509L147.176 28.3876ZM148.224 18.4266L156.18 19.2633C156.34 17.7394 156.417 15.1286 155.073 12.554C153.389 9.3299 150.359 7.74331 147.449 7.43724L146.612 15.3934L145.776 23.3495C145.131 23.2817 144.172 23.0591 143.164 22.4209C142.117 21.7586 141.363 20.8651 140.89 19.9606C140.075 18.3989 140.305 17.236 140.268 17.5898L148.224 18.4266ZM146.612 15.3934L147.449 7.43724C144.407 7.11733 141.946 8.19615 140.462 9.07095C138.931 9.97399 137.694 11.0973 136.813 11.9936L142.519 17.6013L148.225 23.209C148.605 22.8223 148.731 22.7696 148.589 22.8534C148.494 22.9091 147.449 23.5255 145.776 23.3495L146.612 15.3934ZM142.519 17.6013L134.563 16.7646L133.492 26.9484L141.448 27.7852L149.404 28.6219L150.475 18.4381L142.519 17.6013ZM141.448 27.7852L133.492 26.9484C133.435 27.4855 133.346 28.4041 133.393 29.3818C133.44 30.361 133.648 32.1945 134.831 34.0517C137.378 38.0499 141.85 38.2848 142.365 38.339L143.202 30.3829L144.039 22.4267C143.766 22.3981 144.231 22.4155 144.933 22.6764C145.823 23.0071 147.269 23.7955 148.326 25.4556C149.267 26.9334 149.358 28.276 149.375 28.6124C149.391 28.9474 149.357 29.0714 149.404 28.6219L141.448 27.7852ZM143.202 30.3829L135.246 29.5461L135.175 30.2144L143.132 31.0512L151.088 31.8879L151.158 31.2196L143.202 30.3829ZM143.132 31.0512L143.968 23.0951L138.113 22.4792L137.276 30.4353L136.439 38.3915L142.295 39.0073L143.132 31.0512ZM137.276 30.4353L145.232 31.2721L145.302 30.6038L137.346 29.767L129.39 28.9303L129.32 29.5986L137.276 30.4353ZM137.346 29.767L136.509 37.7231C137.136 37.789 138.284 37.8891 139.563 37.7108C141.022 37.5074 143.023 36.8888 144.748 35.1808C146.339 33.6063 146.945 31.8311 147.205 30.8588C147.461 29.8979 147.566 28.9675 147.622 28.4345L139.666 27.5977L131.71 26.761C131.662 27.2146 131.655 27.0728 131.746 26.734C131.839 26.3837 132.225 25.064 133.492 23.8094C134.895 22.4213 136.47 21.9872 137.353 21.8641C138.057 21.766 138.479 21.8421 138.183 21.8109L137.346 29.767ZM139.666 27.5977L147.622 28.4345L148.73 17.9006L140.774 17.0638L132.817 16.2271L131.71 26.761L139.666 27.5977ZM140.774 17.0638L148.73 17.9006C148.76 17.6116 148.852 16.8256 148.876 16.171C148.89 15.8058 148.9 15.1474 148.79 14.3723C148.684 13.6223 148.4 12.2643 147.476 10.8545C145.022 7.10945 141.104 6.98717 139.66 7.10625C138.358 7.21359 137.202 7.6057 136.795 7.74091L139.315 15.3337L141.834 22.9266C142.31 22.7686 141.805 22.9837 140.974 23.0522C140.494 23.0918 139.376 23.1356 138.025 22.6751C136.464 22.1425 135.055 21.0911 134.093 19.6234C133.254 18.3432 133.024 17.1548 132.948 16.6171C132.868 16.0544 132.885 15.6509 132.887 15.5862C132.889 15.5327 132.891 15.5295 132.817 16.2271L140.774 17.0638ZM139.315 15.3337L146.863 12.684L146.64 12.0492L139.092 14.6989L131.543 17.3487L131.766 17.9834L139.315 15.3337ZM139.092 14.6989L141.666 22.2734L145.136 21.0939L142.562 13.5195L139.988 5.94498L136.517 7.12447L139.092 14.6989ZM142.562 13.5195L136.345 18.5536L136.686 18.9757L142.904 13.9415L149.121 8.90736L148.78 8.4853L142.562 13.5195ZM159.444 26.3003L160.801 18.4162L152.97 17.0687L151.569 24.89L159.444 26.3003ZM160.106 26.4143L167.982 27.8215L169.398 19.8956L161.463 18.5302L160.106 26.4143ZM154.944 16.7914L162.828 18.1481L164.184 10.264L156.3 8.90724L154.944 16.7914ZM152.326 16.3409L144.442 14.9842L143.085 22.8683L150.969 24.225L152.326 16.3409ZM152.51 15.2687L153.775 7.36933L145.967 6.119L144.626 13.912L152.51 15.2687ZM156.882 11.3776L158.238 3.49352L150.576 2.17501L149.04 9.79631L156.882 11.3776ZM157.639 11.5079L165.523 12.8646L166.879 4.98048L158.995 3.62376L157.639 11.5079ZM156.863 16.0176L148.978 14.6609L147.622 22.545L155.506 23.9017L156.863 16.0176ZM160.678 16.6742L168.563 18.031L169.919 10.1468L162.035 8.79013L160.678 16.6742ZM160.494 17.7465L159.137 25.6306L167.021 26.9873L168.378 19.1032L160.494 17.7465ZM156.678 17.0898L158.035 9.20572L150.151 7.849L148.794 15.7331L156.678 17.0898ZM159.444 26.3003L158.087 34.1845L158.75 34.2984L160.106 26.4143L161.463 18.5302L160.801 18.4162L159.444 26.3003ZM160.106 26.4143L152.231 25.0071C152.032 26.1197 151.858 26.9088 151.699 27.4676C151.53 28.0644 151.459 28.1087 151.591 27.8844C151.741 27.6282 152.32 26.7502 153.579 26.1006C154.93 25.4034 156.19 25.4158 156.881 25.5346L155.524 33.4187L154.167 41.3028C156.198 41.6522 158.591 41.5187 160.916 40.3192C163.148 39.1674 164.54 37.431 165.391 35.9803C166.904 33.402 167.557 30.2002 167.982 27.8215L160.106 26.4143ZM155.524 33.4187L156.881 25.5346C157.264 25.6005 158.044 25.8055 158.888 26.4265C159.783 27.0841 160.354 27.9183 160.659 28.6525C160.929 29.304 160.923 29.7124 160.921 29.628C160.919 29.5533 160.923 29.2156 161.042 28.5236L153.158 27.1669L145.274 25.8101C144.84 28.334 144.582 31.6512 145.878 34.7784C147.522 38.7452 150.889 40.7386 154.167 41.3028L155.524 33.4187ZM153.158 27.1669L161.042 28.5236L162.828 18.1481L154.944 16.7914L147.059 15.4346L145.274 25.8101L153.158 27.1669ZM154.944 16.7914L156.3 8.90724L153.683 8.45681L152.326 16.3409L150.969 24.225L153.587 24.6755L154.944 16.7914ZM152.326 16.3409L160.21 17.6976L160.395 16.6254L152.51 15.2687L144.626 13.912L144.442 14.9842L152.326 16.3409ZM152.51 15.2687L151.246 23.1681C153.521 23.5325 157.525 23.6926 160.877 20.6146C163.607 18.1073 164.377 14.6812 164.724 12.959L156.882 11.3776L149.04 9.79631C148.922 10.3786 148.858 10.5005 148.907 10.3814C148.962 10.2473 149.265 9.55516 150.055 8.82943C150.94 8.01727 151.968 7.58859 152.835 7.43311C153.557 7.30386 153.962 7.3992 153.775 7.36933L152.51 15.2687ZM156.882 11.3776L155.525 19.2618L156.282 19.392L157.639 11.5079L158.995 3.62376L158.238 3.49352L156.882 11.3776ZM157.639 11.5079L149.754 10.1512L148.978 14.6609L156.863 16.0176L164.747 17.3743L165.523 12.8646L157.639 11.5079ZM156.863 16.0176L155.506 23.9017L159.322 24.5584L160.678 16.6742L162.035 8.79013L158.219 8.13348L156.863 16.0176ZM160.678 16.6742L152.794 15.3175L152.61 16.3898L160.494 17.7465L168.378 19.1032L168.563 18.031L160.678 16.6742ZM160.494 17.7465L161.851 9.86237L158.035 9.20572L156.678 17.0898L155.321 24.974L159.137 25.6306L160.494 17.7465ZM156.678 17.0898L148.794 15.7331L147.209 24.9418L155.093 26.2985L162.977 27.6552L164.562 18.4466L156.678 17.0898ZM155.093 26.2985L147.209 24.9418C146.977 26.2902 146.509 28.8374 146.763 31.1584C146.907 32.4769 147.351 34.5435 148.885 36.4633C150.563 38.5639 152.803 39.5743 154.827 39.9227L156.184 32.0385L157.54 24.1544C158.619 24.34 160.178 24.9654 161.385 26.4766C162.448 27.807 162.631 29.0798 162.668 29.4179C162.706 29.7683 162.663 29.8457 162.711 29.4077C162.754 29.0097 162.837 28.4715 162.977 27.6552L155.093 26.2985ZM156.184 32.0385L154.827 39.9227C156.569 40.2224 158.764 40.1274 160.939 38.9835C162.987 37.9063 164.232 36.3076 164.967 35.0579C166.28 32.8253 166.898 30.0603 167.319 27.7107L159.444 26.3003L151.569 24.89C151.391 25.8883 151.236 26.5406 151.118 26.9459C150.988 27.3917 150.97 27.2956 151.174 26.9492C151.386 26.5878 152.067 25.5717 153.491 24.8225C155.043 24.0065 156.556 23.985 157.54 24.1544L156.184 32.0385ZM159.823 33.9208L152.021 32.1491L150.25 39.9505L158.051 41.7222L159.823 33.9208ZM161.212 27.8045L162.983 20.0032L155.182 18.2315L153.41 26.0329L161.212 27.8045ZM161.867 27.9534L169.814 28.87L170.637 21.7412L163.639 20.152L161.867 27.9534ZM167.3 32.2062L159.499 30.4345L167.3 32.2062ZM165.01 26.1075L171.594 21.5635L171.589 21.5562L171.584 21.5488L165.01 26.1075ZM170.074 19.4148L168.302 27.2161L170.074 19.4148ZM170.63 18.5566L172.401 10.7552L164.6 8.98355L162.828 16.7849L170.63 18.5566ZM171.285 18.7054L179.086 20.4771L180.858 12.6757L173.057 10.904L171.285 18.7054ZM170.151 23.6983L168.379 31.4996L176.181 33.2713L177.952 25.4699L170.151 23.6983ZM169.496 23.5494L161.513 23.0326L161.072 29.8401L167.724 31.3508L169.496 23.5494ZM167.089 18.5401L165.318 26.3415L167.089 18.5401ZM166.725 25.3484L160.26 30.0612L160.262 30.0635L166.725 25.3484ZM169.032 32.2385L161.231 30.4668L169.032 32.2385ZM160.478 34.0696L158.706 41.871L166.508 43.6426L168.279 35.8413L160.478 34.0696ZM159.823 33.9208L167.624 35.6925L169.013 29.5762L161.212 27.8045L153.41 26.0329L152.021 32.1491L159.823 33.9208ZM161.212 27.8045L159.44 35.6059L160.095 35.7547L161.867 27.9534L163.639 20.152L162.983 20.0032L161.212 27.8045ZM161.867 27.9534L153.92 27.0368C153.634 29.5144 153.746 32.4475 154.91 35.2144C156.167 38.2033 158.768 41.0975 162.871 42.0291L164.642 34.2278L166.414 26.4264C167.216 26.6085 167.991 27.0103 168.62 27.5854C169.219 28.1325 169.521 28.6837 169.659 29.0116C169.895 29.5745 169.728 29.622 169.814 28.87L161.867 27.9534ZM164.642 34.2278L162.871 42.0291C165.544 42.6361 168.776 42.2973 171.468 40.0885C173.819 38.1596 174.727 35.6293 175.102 33.9778L167.3 32.2062L159.499 30.4345C159.534 30.2809 159.846 28.928 161.32 27.7187C162.109 27.0708 163.067 26.6121 164.095 26.4114C165.085 26.2181 165.898 26.3093 166.414 26.4264L164.642 34.2278ZM167.3 32.2062L175.102 33.9778C175.832 30.7608 175.151 27.9839 174.202 25.8851C173.394 24.0991 172.197 22.4373 171.594 21.5635L165.01 26.1075L158.426 30.6516C158.631 30.9491 158.795 31.1852 158.957 31.4227C159.114 31.6531 159.239 31.841 159.343 32.0046C159.563 32.3473 159.623 32.4779 159.623 32.4773C159.615 32.4588 159.506 32.2152 159.446 31.8015C159.382 31.3552 159.398 30.8777 159.499 30.4345L167.3 32.2062ZM165.01 26.1075L171.584 21.5488C171.205 21.0028 170.968 20.6552 170.78 20.3551C170.599 20.0659 170.565 19.9766 170.583 20.0186C170.609 20.0798 170.711 20.3367 170.762 20.7413C170.815 21.1701 170.791 21.6038 170.704 21.9862L162.903 20.2145L155.101 18.4429C153.709 24.5738 157.444 29.2365 158.436 30.6662L165.01 26.1075ZM162.903 20.2145L170.704 21.9862C170.499 22.8897 169.897 23.9219 168.796 24.6294C167.678 25.3487 166.434 25.4792 165.465 25.2593L167.237 17.4579L169.008 9.65654C162.504 8.17947 156.509 12.2432 155.101 18.4429L162.903 20.2145ZM167.237 17.4579L165.465 25.2593C165.126 25.1822 164.71 25.0275 164.282 24.7658C163.86 24.5084 163.57 24.2346 163.415 24.0723C163.349 24.002 163.315 23.9596 163.348 23.999C163.377 24.0343 163.379 24.0363 163.443 24.1137C163.487 24.1672 163.569 24.2653 163.664 24.3747C163.817 24.55 164.235 25.0279 164.835 25.5166C165.444 26.0138 166.611 26.8321 168.302 27.2161L170.074 19.4148L171.845 11.6134C173.412 11.9692 174.459 12.7192 174.946 13.1169C175.424 13.5061 175.718 13.8533 175.737 13.8752C175.766 13.9079 175.779 13.9238 175.751 13.8904C175.743 13.8809 175.669 13.7914 175.619 13.7318C175.493 13.5812 175.284 13.335 175.019 13.0555C174.467 12.4749 173.686 11.7614 172.623 11.1123C171.554 10.4589 170.346 9.9604 169.008 9.65654L167.237 17.4579ZM170.074 19.4148L168.302 27.2161C169.566 27.5032 171.628 27.6541 173.811 26.5827C175.914 25.5504 176.994 23.9333 177.48 23.0258C177.945 22.1565 178.165 21.3758 178.243 21.0919C178.334 20.7623 178.408 20.4284 178.431 20.3282L170.63 18.5566L162.828 16.7849C162.78 16.9968 162.792 16.936 162.819 16.8379C162.834 16.7857 162.988 16.1952 163.375 15.4721C163.783 14.7109 164.772 13.1962 166.76 12.22C168.829 11.2046 170.753 11.3653 171.845 11.6134L170.074 19.4148ZM170.63 18.5566L168.858 26.3579L169.513 26.5068L171.285 18.7054L173.057 10.904L172.401 10.7552L170.63 18.5566ZM171.285 18.7054L163.484 16.9337L162.35 21.9266L170.151 23.6983L177.952 25.4699L179.086 20.4771L171.285 18.7054ZM170.151 23.6983L171.923 15.8969L171.267 15.7481L169.496 23.5494L167.724 31.3508L168.379 31.4996L170.151 23.6983ZM169.496 23.5494L177.479 24.0663C177.607 22.0841 177.452 19.5616 176.397 17.1213C175.254 14.4754 172.856 11.646 168.861 10.7388L167.089 18.5401L165.318 26.3415C164.401 26.1334 163.542 25.6766 162.856 25.0443C162.207 24.4464 161.871 23.841 161.71 23.4681C161.43 22.8198 161.541 22.5893 161.513 23.0326L169.496 23.5494ZM167.089 18.5401L168.861 10.7388C165.674 10.0151 162.535 10.8229 160.205 12.8011C158.205 14.4994 157.245 16.6606 156.861 18.3504L164.663 20.122L172.464 21.8937C172.265 22.7721 171.769 23.9723 170.562 24.9974C169.898 25.5609 169.032 26.0507 167.997 26.3027C166.959 26.5553 166.026 26.5023 165.318 26.3415L167.089 18.5401ZM164.663 20.122L156.861 18.3504C156.151 21.4776 156.914 24.16 157.758 26.0026C158.531 27.689 159.611 29.1709 160.26 30.0612L166.725 25.3484L173.189 20.6356C172.861 20.1854 172.642 19.8756 172.479 19.6232C172.316 19.3718 172.284 19.2935 172.305 19.3394C172.329 19.3917 172.453 19.6731 172.527 20.1363C172.606 20.6338 172.612 21.2446 172.464 21.8937L164.663 20.122ZM166.725 25.3484L160.262 30.0635C160.743 30.7224 161.035 31.1571 161.22 31.4639C161.4 31.7634 161.4 31.8137 161.356 31.6881C161.297 31.5227 161.226 31.2422 161.212 30.9052C161.198 30.588 161.243 30.4133 161.231 30.4668L169.032 32.2385L176.833 34.0102C177.4 31.5161 177.373 28.9667 176.424 26.3091C175.626 24.073 174.29 22.1443 173.187 20.6333L166.725 25.3484ZM169.032 32.2385L161.231 30.4668C161.338 29.9952 161.809 28.8735 163.123 28.0782C164.344 27.339 165.538 27.3432 166.267 27.5087L164.495 35.31L162.723 43.1114C165.387 43.7162 168.552 43.4953 171.409 41.7658C174.358 39.9802 176.131 37.1031 176.833 34.0102L169.032 32.2385ZM164.495 35.31L166.267 27.5087C166.485 27.5583 166.76 27.6568 167.048 27.8183C167.329 27.9757 167.516 28.134 167.585 28.196C167.61 28.2182 167.61 28.2197 167.543 28.1532C167.531 28.1414 167.309 27.9181 167.137 27.754C166.952 27.5779 166.53 27.1837 165.96 26.7855C165.386 26.3852 164.356 25.7621 162.93 25.4384L161.159 33.2398L159.387 41.0411C158.11 40.7511 157.227 40.2024 156.806 39.9085C156.388 39.6168 156.124 39.361 156.109 39.3466C156.107 39.3441 156.067 39.3057 156.255 39.4931C156.389 39.6259 156.607 39.8412 156.875 40.0827C157.431 40.5835 158.205 41.2031 159.223 41.7741C160.249 42.3492 161.413 42.8137 162.723 43.1114L164.495 35.31ZM161.159 33.2398L162.93 25.4384C161.747 25.1697 160.065 25.0554 158.228 25.7101C156.371 26.3723 155.115 27.5495 154.344 28.5717C153.102 30.2192 152.746 31.9951 152.677 32.298L160.478 34.0696L168.279 35.8413C168.278 35.8464 168.23 36.0673 168.113 36.3903C168.008 36.6799 167.726 37.3998 167.118 38.2058C166.453 39.0879 165.317 40.1694 163.6 40.7814C161.904 41.3861 160.383 41.2673 159.387 41.0411L161.159 33.2398ZM160.478 34.0696L162.25 26.2683L161.594 26.1194L159.823 33.9208L158.051 41.7222L158.706 41.871L160.478 34.0696Z" fill="#FFDF78" mask="url(#path-1-outside-1_520_108)"/>
</svg>
