<svg width="101" height="85" viewBox="0 0 101 85" fill="none" xmlns="http://www.w3.org/2000/svg">
<mask id="path-1-outside-1_520_110" maskUnits="userSpaceOnUse" x="-6.60154" y="-0.746263" width="115.877" height="91.5753" fill="black">
<rect fill="white" x="-6.60154" y="-0.746263" width="115.877" height="91.5753"/>
<path d="M9.94062 34.4887L10.1312 33.8443C13.0771 34.7156 13.4496 34.3586 14.0032 32.4868L19.5213 13.8297C20.0749 11.9578 19.9565 11.4556 17.0106 10.5843L17.2012 9.93994L25.5785 12.4176C32.4828 14.4597 35.9664 20.3954 33.6702 28.159C31.3741 35.9225 25.0074 38.9449 18.3179 36.9664L9.94062 34.4887ZM18.6265 35.9231C24.5489 37.6747 29.6085 34.3325 31.6143 27.5509C33.62 20.7693 31.1923 15.2126 25.2699 13.4609C23.9811 13.0798 22.8003 12.8974 21.8232 13.0422L15.5064 34.3997C16.2477 35.0527 17.3377 35.5419 18.6265 35.9231ZM43.0026 38.9408L43.6111 39.2261C41.0145 43.5575 38.0988 44.8763 35.8389 43.8166C32.7967 42.3901 32.6941 38.3128 34.9493 33.5034C37.0415 29.0415 40.5904 26.1463 43.7484 27.6272C46.4429 28.8907 46.6642 32.5642 44.64 36.8811L37.107 33.3488L36.8081 33.9862C35.0556 37.7237 34.7934 41.5239 36.9374 42.5292C38.357 43.1949 40.4306 42.5415 43.0026 38.9408ZM43.1996 28.5715C41.3453 27.702 39.2462 29.6159 37.6269 32.3909L43.3925 35.0945C44.6288 32.4579 45.1697 29.4954 43.1996 28.5715ZM47.8727 49.7533L53.2792 42.4086L53.8203 42.807C50.6781 47.1297 51.1209 51.5483 53.7237 53.4643C56.0173 55.1526 58.5282 54.6565 60.1976 52.3887C62.0377 49.8889 60.8969 46.1486 59.9119 41.9268C58.9308 37.4298 58.4891 35.2769 60.2913 32.8287C62.2642 30.1485 65.4057 30.0372 68.0859 32.0101C70.8949 34.0778 70.4582 36.7762 70.9994 37.1746C71.2313 37.3453 71.4482 37.2666 72.4157 35.9523L72.9827 36.3696L68.5816 42.3484L68.0147 41.9311C70.3791 38.665 70.1726 34.8971 67.5182 32.9432C65.173 31.2169 63.1003 32.0355 62.019 33.5044C60.3307 35.798 61.4929 39.0774 62.1411 42.1373C63.3233 47.6565 64.1068 50.1008 61.7735 53.2706C59.4781 56.3889 55.7589 56.3134 53.3107 54.5112C50.2182 52.2348 50.8216 49.5797 50.0743 49.0296C49.662 48.7261 49.2486 49.0178 48.4139 50.1517L47.8727 49.7533ZM63.6252 63.683C60.8507 60.8017 62.1116 56.3445 65.7075 52.8819C69.3264 49.397 73.828 48.3052 76.6026 51.1865C79.3549 54.0447 78.094 58.5019 74.475 61.9868C70.8792 65.4494 66.3775 66.5413 63.6252 63.683ZM64.8981 63.3902C66.9017 65.148 70.1382 63.9417 73.3533 60.2682C76.5684 56.5947 77.3112 53.214 75.3075 51.4562C73.2808 49.7206 70.0674 50.9047 66.8293 54.6004C63.6363 58.2969 62.8714 61.6546 64.8981 63.3902ZM89.4234 57.0567C88.9374 56.3813 89.0832 55.488 89.7586 55.0021C90.4079 54.5349 91.3272 54.662 91.8131 55.3373C92.2803 55.9867 92.1273 56.9247 91.4779 57.3919C90.8025 57.8778 89.8906 57.7061 89.4234 57.0567ZM73.6795 69.803C72.069 70.9617 71.8621 71.3865 72.9461 72.8931L72.4006 73.2855L68.9245 68.454L69.47 68.0616C70.5539 69.5682 71.0224 69.507 72.6329 68.3484L81.2309 62.1624C82.8414 61.0037 83.1645 60.8501 81.5506 59.9219L81.8759 59.3331L85.0664 61.1375L84.9789 61.6735L73.6795 69.803Z"/>
</mask>
<path d="M9.94062 34.4887L10.1312 33.8443C13.0771 34.7156 13.4496 34.3586 14.0032 32.4868L19.5213 13.8297C20.0749 11.9578 19.9565 11.4556 17.0106 10.5843L17.2012 9.93994L25.5785 12.4176C32.4828 14.4597 35.9664 20.3954 33.6702 28.159C31.3741 35.9225 25.0074 38.9449 18.3179 36.9664L9.94062 34.4887ZM18.6265 35.9231C24.5489 37.6747 29.6085 34.3325 31.6143 27.5509C33.62 20.7693 31.1923 15.2126 25.2699 13.4609C23.9811 13.0798 22.8003 12.8974 21.8232 13.0422L15.5064 34.3997C16.2477 35.0527 17.3377 35.5419 18.6265 35.9231ZM43.0026 38.9408L43.6111 39.2261C41.0145 43.5575 38.0988 44.8763 35.8389 43.8166C32.7967 42.3901 32.6941 38.3128 34.9493 33.5034C37.0415 29.0415 40.5904 26.1463 43.7484 27.6272C46.4429 28.8907 46.6642 32.5642 44.64 36.8811L37.107 33.3488L36.8081 33.9862C35.0556 37.7237 34.7934 41.5239 36.9374 42.5292C38.357 43.1949 40.4306 42.5415 43.0026 38.9408ZM43.1996 28.5715C41.3453 27.702 39.2462 29.6159 37.6269 32.3909L43.3925 35.0945C44.6288 32.4579 45.1697 29.4954 43.1996 28.5715ZM47.8727 49.7533L53.2792 42.4086L53.8203 42.807C50.6781 47.1297 51.1209 51.5483 53.7237 53.4643C56.0173 55.1526 58.5282 54.6565 60.1976 52.3887C62.0377 49.8889 60.8969 46.1486 59.9119 41.9268C58.9308 37.4298 58.4891 35.2769 60.2913 32.8287C62.2642 30.1485 65.4057 30.0372 68.0859 32.0101C70.8949 34.0778 70.4582 36.7762 70.9994 37.1746C71.2313 37.3453 71.4482 37.2666 72.4157 35.9523L72.9827 36.3696L68.5816 42.3484L68.0147 41.9311C70.3791 38.665 70.1726 34.8971 67.5182 32.9432C65.173 31.2169 63.1003 32.0355 62.019 33.5044C60.3307 35.798 61.4929 39.0774 62.1411 42.1373C63.3233 47.6565 64.1068 50.1008 61.7735 53.2706C59.4781 56.3889 55.7589 56.3134 53.3107 54.5112C50.2182 52.2348 50.8216 49.5797 50.0743 49.0296C49.662 48.7261 49.2486 49.0178 48.4139 50.1517L47.8727 49.7533ZM63.6252 63.683C60.8507 60.8017 62.1116 56.3445 65.7075 52.8819C69.3264 49.397 73.828 48.3052 76.6026 51.1865C79.3549 54.0447 78.094 58.5019 74.475 61.9868C70.8792 65.4494 66.3775 66.5413 63.6252 63.683ZM64.8981 63.3902C66.9017 65.148 70.1382 63.9417 73.3533 60.2682C76.5684 56.5947 77.3112 53.214 75.3075 51.4562C73.2808 49.7206 70.0674 50.9047 66.8293 54.6004C63.6363 58.2969 62.8714 61.6546 64.8981 63.3902ZM89.4234 57.0567C88.9374 56.3813 89.0832 55.488 89.7586 55.0021C90.4079 54.5349 91.3272 54.662 91.8131 55.3373C92.2803 55.9867 92.1273 56.9247 91.4779 57.3919C90.8025 57.8778 89.8906 57.7061 89.4234 57.0567ZM73.6795 69.803C72.069 70.9617 71.8621 71.3865 72.9461 72.8931L72.4006 73.2855L68.9245 68.454L69.47 68.0616C70.5539 69.5682 71.0224 69.507 72.6329 68.3484L81.2309 62.1624C82.8414 61.0037 83.1645 60.8501 81.5506 59.9219L81.8759 59.3331L85.0664 61.1375L84.9789 61.6735L73.6795 69.803Z" fill="#A31E1D"/>
<path d="M9.94061 34.4887L2.26911 32.2198L0.000178066 39.8913L7.67168 42.1602L9.94061 34.4887ZM10.1312 33.8443L12.4001 26.1728L4.72864 23.9039L2.4597 31.5754L10.1312 33.8443ZM17.0106 10.5844L9.33913 8.31541L7.07019 15.9869L14.7417 18.2559L17.0106 10.5844ZM17.2012 9.93994L19.4702 2.26845L11.7987 -0.000493021L9.52972 7.67101L17.2012 9.93994ZM25.5785 12.4176L23.3096 20.0891L25.5785 12.4176ZM25.2699 13.4609L23.001 21.1324L25.2699 13.4609ZM21.8232 13.0422L20.6505 5.1286L15.5998 5.877L14.1517 10.7733L21.8232 13.0422ZM15.5064 34.3996L7.83493 32.1307L6.3868 37.027L10.2179 40.4023L15.5064 34.3996ZM9.94061 34.4887L17.6121 36.7577L17.8027 36.1133L10.1312 33.8443L2.4597 31.5754L2.26911 32.2198L9.94061 34.4887ZM10.1312 33.8443L7.86227 41.5158C8.69799 41.763 9.76293 42.0517 10.8649 42.1956C11.9206 42.3335 13.853 42.4633 15.9606 41.6119C18.3562 40.6443 19.7735 38.9201 20.556 37.5252C21.2009 36.3756 21.5383 35.2169 21.6747 34.7557L14.0032 32.4868L6.33173 30.2178C6.19132 30.6926 6.27455 30.2804 6.60185 29.697C7.06674 28.8683 8.10303 27.5299 9.96798 26.7765C11.5451 26.1395 12.7973 26.3121 12.9374 26.3304C13.1237 26.3547 13.0374 26.3613 12.4001 26.1728L10.1312 33.8443ZM14.0032 32.4868L21.6747 34.7557L27.1928 16.0986L19.5213 13.8297L11.8498 11.5607L6.33173 30.2178L14.0032 32.4868ZM19.5213 13.8297L27.1928 16.0986C27.3292 15.6374 27.6764 14.4816 27.7605 13.1661C27.8626 11.57 27.6111 9.35229 26.1273 7.23728C24.8219 5.37643 23.1298 4.43422 22.1689 3.9757C21.1659 3.49707 20.1153 3.16002 19.2796 2.91285L17.0106 10.5844L14.7417 18.2559C15.3789 18.4443 15.4478 18.4968 15.2782 18.4158C15.1507 18.355 14.006 17.8187 13.0292 16.4263C11.874 14.7797 11.7325 13.093 11.7931 12.1447C11.8358 11.4771 11.9902 11.086 11.8498 11.5607L19.5213 13.8297ZM17.0106 10.5844L24.6821 12.8533L24.8727 12.2089L17.2012 9.93994L9.52972 7.67101L9.33913 8.31541L17.0106 10.5844ZM17.2012 9.93994L14.9323 17.6114L23.3096 20.0891L25.5785 12.4176L27.8474 4.74612L19.4702 2.26845L17.2012 9.93994ZM25.5785 12.4176L23.3096 20.0891C25.0641 20.6081 25.7424 21.3956 26.0177 21.911C26.2921 22.4251 26.6707 23.6182 25.9987 25.89L33.6702 28.159L41.3417 30.4279C42.966 24.9362 42.7508 19.2797 40.1315 14.3744C37.5129 9.47056 32.9972 6.26923 27.8474 4.74612L25.5785 12.4176ZM33.6702 28.159L25.9987 25.89C25.3546 28.0678 24.3884 28.8782 23.815 29.1905C23.2154 29.5171 22.1846 29.7675 20.5868 29.2949L18.3179 36.9664L16.049 44.6379C21.1408 46.1439 26.638 45.8723 31.4682 43.2414C36.3245 40.5963 39.6897 36.0137 41.3417 30.4279L33.6702 28.159ZM18.3179 36.9664L20.5868 29.2949L12.2096 26.8172L9.94061 34.4887L7.67168 42.1602L16.049 44.6379L18.3179 36.9664ZM18.6265 35.9231L16.3575 43.5946C21.383 45.0809 26.5765 44.4827 30.9447 41.6473C35.1678 38.9062 37.8811 34.5691 39.2858 29.8198L31.6143 27.5509L23.9428 25.282C23.3417 27.3142 22.5224 28.0391 22.2335 28.2266C22.0922 28.3184 21.9768 28.3568 21.847 28.3735C21.709 28.3914 21.4053 28.4024 20.8954 28.2516L18.6265 35.9231ZM31.6143 27.5509L39.2858 29.8198C40.6905 25.0705 40.7727 19.9553 38.7201 15.3581C36.5969 10.6027 32.5643 7.27578 27.5389 5.78945L25.2699 13.4609L23.001 21.1324C23.5109 21.2833 23.7597 21.4577 23.8658 21.5477C23.9656 21.6324 24.0415 21.7274 24.1102 21.8813C24.2506 22.1957 24.5439 23.2497 23.9428 25.282L31.6143 27.5509ZM25.2699 13.4609L27.5389 5.78945C25.8337 5.28512 23.3305 4.73149 20.6505 5.1286L21.8232 13.0422L22.9958 20.9558C22.7712 20.9891 22.6049 20.9935 22.5125 20.9925C22.4198 20.9916 22.3792 20.9851 22.3991 20.9877C22.4183 20.9902 22.4789 20.9992 22.5855 21.0229C22.6914 21.0465 22.8291 21.0816 23.001 21.1324L25.2699 13.4609ZM21.8232 13.0422L14.1517 10.7733L7.83493 32.1307L15.5064 34.3996L23.1779 36.6686L29.4947 15.3111L21.8232 13.0422ZM15.5064 34.3996L10.2179 40.4023C12.2507 42.1933 14.6524 43.0903 16.3575 43.5946L18.6265 35.9231L20.8954 28.2516C20.7235 28.2008 20.5889 28.1553 20.4872 28.1175C20.3848 28.0795 20.3291 28.054 20.3116 28.0457C20.2935 28.037 20.3311 28.0537 20.4094 28.1033C20.4874 28.1528 20.6246 28.2469 20.7949 28.397L15.5064 34.3996ZM43.0026 38.9408L46.3991 31.6976L40.366 28.8686L36.4928 34.2908L43.0026 38.9408ZM43.6111 39.2261L50.4726 43.3394L55.0264 35.7431L47.0075 31.9829L43.6111 39.2261ZM44.64 36.8811L41.2435 44.1243L48.4867 47.5208L51.8832 40.2776L44.64 36.8811ZM37.107 33.3488L40.5035 26.1056L33.2603 22.7091L29.8638 29.9524L37.107 33.3488ZM43.1996 28.5715L46.596 21.3283L43.1996 28.5715ZM37.6269 32.3909L30.7173 28.3589L26.3061 35.9183L34.2304 39.6341L37.6269 32.3909ZM43.3925 35.0945L39.996 42.3377L47.2393 45.7341L50.6357 38.4909L43.3925 35.0945ZM43.0026 38.9408L39.6062 46.184L40.2146 46.4693L43.6111 39.2261L47.0075 31.9829L46.3991 31.6976L43.0026 38.9408ZM43.6111 39.2261L36.7495 35.1128C36.3415 35.7934 36.0074 36.2093 35.7924 36.4379C35.5736 36.6705 35.5363 36.6478 35.7278 36.5419C35.9319 36.4291 36.4037 36.2205 37.107 36.1734C37.8376 36.1245 38.5833 36.2677 39.2353 36.5734L35.8389 43.8166L32.4424 51.0599C36.2455 52.8432 40.2532 52.3226 43.4697 50.5441C46.4618 48.8898 48.7459 46.2197 50.4726 43.3394L43.6111 39.2261ZM35.8389 43.8166L39.2353 36.5734C39.8575 36.8652 40.489 37.3938 40.9252 38.1075C41.3259 38.7631 41.3815 39.2749 41.3886 39.3783C41.3949 39.4697 41.3709 39.2976 41.4872 38.8141C41.6 38.345 41.8169 37.7008 42.1925 36.8998L34.9493 33.5034L27.7061 30.1069C26.2643 33.1817 25.1739 36.8159 25.4265 40.4789C25.7042 44.5062 27.7353 48.8526 32.4424 51.0599L35.8389 43.8166ZM34.9493 33.5034L42.1925 36.8998C42.4928 36.2595 42.8106 35.7518 43.0945 35.3843C43.2341 35.2034 43.3537 35.0718 43.4447 34.9819C43.5364 34.8912 43.5852 34.8565 43.582 34.8588C43.5793 34.8607 43.5051 34.9134 43.3537 34.9801C43.2004 35.0477 42.9573 35.134 42.6315 35.1875C41.9045 35.3068 41.0769 35.2103 40.352 34.8704L43.7484 27.6272L47.1449 20.384C42.1893 18.0602 37.4289 19.6038 34.3163 21.8148C31.3289 23.9369 29.1461 27.0359 27.7061 30.1069L34.9493 33.5034ZM43.7484 27.6272L40.352 34.8704C39.6469 34.5398 38.9816 33.9702 38.523 33.2356C38.0966 32.5527 38.01 31.9907 37.9932 31.7953C37.9773 31.61 38.0129 31.6665 37.9344 32.0104C37.8587 32.3418 37.6995 32.8391 37.3968 33.4847L44.64 36.8811L51.8832 40.2776C53.246 37.3713 54.2356 33.9229 53.9343 30.4229C53.6064 26.6148 51.6213 22.483 47.1449 20.384L43.7484 27.6272ZM44.64 36.8811L48.0364 29.6379L40.5035 26.1056L37.107 33.3488L33.7106 40.592L41.2435 44.1243L44.64 36.8811ZM37.107 33.3488L29.8638 29.9524L29.5649 30.5898L36.8081 33.9862L44.0514 37.3827L44.3502 36.7453L37.107 33.3488ZM36.8081 33.9862L29.5649 30.5898C28.3729 33.1318 27.4447 36.1655 27.412 39.1961C27.3826 41.9264 28.2131 47.2741 33.5409 49.7724L36.9374 42.5292L40.3338 35.286C41.7667 35.9579 42.6438 37.082 43.065 38.0204C43.2555 38.445 43.3379 38.7913 43.3746 39.003C43.4115 39.2158 43.4113 39.3445 43.4111 39.3684C43.4108 39.3985 43.4132 39.2114 43.5212 38.8031C43.6247 38.4122 43.7971 37.9249 44.0514 37.3827L36.8081 33.9862ZM36.9374 42.5292L33.5409 49.7724C36.8631 51.3303 40.3771 50.9189 43.2353 49.4292C45.8152 48.0846 47.8568 45.9086 49.5124 43.5908L43.0026 38.9408L36.4928 34.2908C35.5765 35.5737 35.2953 35.5248 35.8404 35.2406C36.1709 35.0684 36.8019 34.8163 37.6825 34.7678C38.5931 34.7177 39.5133 34.9013 40.3338 35.286L36.9374 42.5292ZM43.1996 28.5715L46.596 21.3283C41.9318 19.1412 37.7413 21.0583 35.5362 22.7063C33.3728 24.3229 31.7967 26.5092 30.7173 28.3589L37.6269 32.3909L44.5365 36.4229C45.0764 35.4976 45.3595 35.3394 45.1141 35.5228C44.9548 35.6418 44.3811 36.0401 43.4047 36.2434C42.3047 36.4723 41.0081 36.3798 39.8032 35.8147L43.1996 28.5715ZM37.6269 32.3909L34.2304 39.6341L39.996 42.3377L43.3925 35.0945L46.7889 27.8513L41.0233 25.1477L37.6269 32.3909ZM43.3925 35.0945L50.6357 38.4909C51.4691 36.7136 52.3936 34.1947 52.4931 31.4841C52.5954 28.6956 51.7063 23.7246 46.596 21.3283L43.1996 28.5715L39.8032 35.8147C38.5248 35.2153 37.5237 34.1603 36.9702 32.9603C36.4916 31.9226 36.4959 31.1134 36.5038 30.8974C36.5163 30.5582 36.5522 30.8389 36.1493 31.698L43.3925 35.0945ZM47.8727 49.7533L41.43 45.0108L36.6875 51.4535L43.1302 56.196L47.8727 49.7533ZM53.2791 42.4086L58.0217 35.9659L51.579 31.2234L46.8364 37.6661L53.2791 42.4086ZM53.8203 42.807L60.2913 47.5108L64.9671 41.0785L58.5629 36.3643L53.8203 42.807ZM60.1976 52.3887L53.7549 47.6462L60.1976 52.3887ZM59.9119 41.9268L52.0958 43.6321L52.108 43.6884L52.1212 43.7446L59.9119 41.9268ZM70.9994 37.1746L75.7419 30.7319L70.9994 37.1746ZM72.4157 35.9523L77.1582 29.5095L70.7155 24.767L65.973 31.2097L72.4157 35.9523ZM72.9827 36.3696L79.4254 41.1121L84.1679 34.6694L77.7252 29.9269L72.9827 36.3696ZM68.5816 42.3484L63.8391 48.7911L70.2818 53.5337L75.0243 47.0909L68.5816 42.3484ZM68.0147 41.9311L61.5345 37.2399L56.8804 43.6688L63.2722 48.3738L68.0147 41.9311ZM67.5182 32.9432L62.7757 39.3859L67.5182 32.9432ZM62.019 33.5044L55.5763 28.7619L62.019 33.5044ZM62.1411 42.1373L54.3148 43.7952L54.3166 43.8041L54.3185 43.8129L62.1411 42.1373ZM48.4139 50.1517L43.6714 56.5944L50.1141 61.3369L54.8566 54.8942L48.4139 50.1517ZM47.8727 49.7533L54.3154 54.4958L59.7219 47.1511L53.2791 42.4086L46.8364 37.6661L41.43 45.0108L47.8727 49.7533ZM53.2791 42.4086L48.5366 48.8513L49.0778 49.2497L53.8203 42.807L58.5629 36.3643L58.0217 35.9659L53.2791 42.4086ZM53.8203 42.807L47.3493 38.1031C42.8505 44.2921 41.3586 54.296 48.9812 59.907L53.7237 53.4643L58.4663 47.0216C58.9311 47.3637 59.2413 47.781 59.4191 48.1536C59.5916 48.5152 59.6137 48.7745 59.6155 48.8545C59.6191 49.0104 59.5676 48.5064 60.2913 47.5108L53.8203 42.807ZM53.7237 53.4643L48.9812 59.907C51.6016 61.8358 54.9737 62.9201 58.5732 62.2904C62.1109 61.6715 64.838 59.5796 66.6403 57.1312L60.1976 52.3887L53.7549 47.6462C53.8878 47.4656 54.5248 46.7556 55.8162 46.5297C57.1696 46.293 58.1395 46.7811 58.4663 47.0216L53.7237 53.4643ZM60.1976 52.3887L66.6403 57.1312C69.2801 53.545 69.3337 49.5888 69.0741 47.004C68.8282 44.5551 68.0954 41.7921 67.7026 40.1091L59.9119 41.9268L52.1212 43.7446C52.4102 44.9834 52.6114 45.7739 52.8183 46.7127C53.009 47.5779 53.1107 48.17 53.1542 48.603C53.2512 49.5688 52.9551 48.7326 53.7549 47.6462L60.1976 52.3887ZM59.9119 41.9268L67.7281 40.2216C67.475 39.0617 67.3027 38.2576 67.1863 37.5862C67.0714 36.923 67.0582 36.6425 67.0577 36.5651C67.0576 36.5399 67.0589 36.7575 66.9551 37.0827C66.8504 37.4107 66.7224 37.5869 66.734 37.5712L60.2913 32.8287L53.8486 28.0861C51.8898 30.7472 51.041 33.5894 51.058 36.6538C51.0715 39.0845 51.6676 41.6696 52.0958 43.6321L59.9119 41.9268ZM60.2913 32.8287L66.734 37.5712C66.6356 37.7048 66.3999 37.968 65.9824 38.2105C65.5592 38.4563 65.0775 38.6052 64.6012 38.6457C63.6532 38.7263 63.2253 38.3659 63.3433 38.4528L68.0859 32.0101L72.8284 25.5673C70.2663 23.6814 66.9275 22.3901 63.2455 22.7032C59.4021 23.03 56.0912 25.0395 53.8486 28.0861L60.2913 32.8287ZM68.0859 32.0101L63.3433 38.4528C63.0587 38.2432 62.8278 37.8286 62.7627 37.622C62.7601 37.6139 62.7689 37.6399 62.7921 37.739C62.8044 37.7913 62.8175 37.85 62.8381 37.9431C62.8548 38.0185 62.8859 38.1605 62.9172 38.2956C62.963 38.4933 63.1087 39.1339 63.3834 39.8365C63.6057 40.405 64.3476 42.2119 66.2569 43.6173L70.9994 37.1746L75.7419 30.7319C77.5159 32.0377 78.1531 33.6731 78.2847 34.0097C78.4688 34.4804 78.5378 34.8286 78.5045 34.6851C78.4963 34.6495 78.4873 34.6086 78.4611 34.4903C78.4389 34.3897 78.4066 34.2438 78.3686 34.0823C78.2915 33.7535 78.1808 33.3142 78.0234 32.8147C77.3391 30.6423 75.9221 27.8446 72.8284 25.5673L68.0859 32.0101ZM70.9994 37.1746L66.2569 43.6173C66.997 44.1621 68.9019 45.3846 71.6412 45.2273C74.1087 45.0856 75.7667 43.8951 76.4164 43.3775C77.5846 42.4469 78.4754 41.2151 78.8584 40.6948L72.4157 35.9523L65.973 31.2097C65.7787 31.4737 65.7023 31.5654 65.7059 31.5611C65.7117 31.5543 65.7692 31.4861 65.8705 31.382C65.9661 31.2838 66.1618 31.0903 66.447 30.8631C66.8927 30.5081 68.3924 29.3875 70.7238 29.2536C73.327 29.1041 75.1178 30.2725 75.7419 30.7319L70.9994 37.1746ZM72.4157 35.9523L67.6732 42.395L68.2402 42.8123L72.9827 36.3696L77.7252 29.9269L77.1582 29.5095L72.4157 35.9523ZM72.9827 36.3696L66.54 31.6271L62.1389 37.6059L68.5816 42.3484L75.0243 47.0909L79.4254 41.1121L72.9827 36.3696ZM68.5816 42.3484L73.3241 35.9057L72.7572 35.4884L68.0147 41.9311L63.2722 48.3738L63.8391 48.7911L68.5816 42.3484ZM68.0147 41.9311L74.4948 46.6223C78.514 41.0705 79.5979 31.9014 72.2607 26.5005L67.5182 32.9432L62.7757 39.3859C62.4712 39.1618 62.1756 38.8335 61.9615 38.4246C61.7519 38.0246 61.6755 37.6544 61.6606 37.3853C61.6319 36.8645 61.8189 36.8471 61.5345 37.2399L68.0147 41.9311ZM67.5182 32.9432L72.2607 26.5005C69.6178 24.555 66.3201 23.5248 62.8604 24.1552C59.5647 24.7558 57.1034 26.6874 55.5763 28.7619L62.019 33.5044L68.4617 38.2469C68.0159 38.8526 67.1316 39.6404 65.7289 39.896C64.1622 40.1815 63.0734 39.605 62.7757 39.3859L67.5182 32.9432ZM62.019 33.5044L55.5763 28.7619C53.0026 32.2583 52.999 36.0633 53.2499 38.391C53.4668 40.4025 54.1598 43.0635 54.3148 43.7952L62.1411 42.1373L69.9674 40.4793C69.8678 40.0094 69.7625 39.5545 69.6702 39.1598C69.5723 38.7414 69.4933 38.4084 69.4167 38.067C69.2626 37.3809 69.1887 36.9635 69.1577 36.6759C69.0876 36.0257 69.347 37.0442 68.4617 38.2469L62.019 33.5044ZM62.1411 42.1373L54.3185 43.8129C54.6463 45.343 54.8723 46.3247 55.055 47.2732C55.2294 48.1779 55.2728 48.6134 55.2794 48.83C55.2838 48.9754 55.2654 48.8424 55.341 48.5989C55.4145 48.362 55.4847 48.3191 55.3308 48.5281L61.7735 53.2706L68.2162 58.0131C70.4514 54.9767 71.3783 51.8147 71.2719 48.34C71.1911 45.7039 70.4398 42.6845 69.9636 40.4616L62.1411 42.1373ZM61.7735 53.2706L55.3308 48.5281C55.3889 48.4492 55.5601 48.2567 55.8749 48.0778C56.1849 47.9017 56.5222 47.8026 56.8378 47.7724C57.4218 47.7166 57.8156 47.8936 58.0532 48.0685L53.3107 54.5112L48.5682 60.9539C53.882 64.8655 62.8194 65.3448 68.2162 58.0131L61.7735 53.2706ZM53.3107 54.5112L58.0532 48.0685C58.0013 48.0303 58.1027 48.0981 58.2358 48.2953C58.2949 48.3828 58.3417 48.4687 58.3762 48.5428C58.4099 48.6151 58.4247 48.6607 58.4245 48.6601C58.4223 48.6533 58.4086 48.6102 58.3734 48.4692C58.371 48.4594 58.2559 47.982 58.1884 47.7298C58.108 47.4293 57.912 46.7143 57.539 45.9219C57.1586 45.1141 56.3676 43.7284 54.8168 42.5869L50.0743 49.0296L45.3318 55.4723C43.9678 54.4682 43.3214 53.2859 43.0632 52.7374C42.9238 52.4413 42.8397 52.2052 42.7975 52.079C42.7546 51.9505 42.7327 51.8675 42.7324 51.8663C42.7322 51.8657 42.7385 51.8894 42.7611 51.9821C42.7775 52.0494 42.8148 52.2039 42.8492 52.3419C42.925 52.6458 43.0393 53.0842 43.2016 53.586C43.536 54.6193 44.0669 55.903 44.9751 57.2482C45.8882 58.6006 47.0738 59.8539 48.5682 60.9539L53.3107 54.5112ZM50.0743 49.0296L54.8168 42.5869C53.666 41.7398 51.8743 40.8696 49.5847 40.9193C47.4199 40.9663 45.8096 41.8187 44.8961 42.4415C43.3702 43.4818 42.3415 44.9061 41.9712 45.4092L48.4139 50.1517L54.8566 54.8942C54.9926 54.7094 55.008 54.7016 54.9346 54.7838C54.8934 54.83 54.5411 55.2306 53.9088 55.6616C53.2545 56.1077 51.877 56.8733 49.9319 56.9155C47.8618 56.9604 46.2764 56.1676 45.3318 55.4723L50.0743 49.0296ZM48.4139 50.1517L53.1564 43.709L52.6152 43.3106L47.8727 49.7533L43.1302 56.196L43.6714 56.5944L48.4139 50.1517ZM64.8981 63.3902L70.174 57.3765L70.138 57.3449L70.1017 57.3138L64.8981 63.3902ZM73.3533 60.2682L79.3732 65.537L79.3732 65.537L73.3533 60.2682ZM75.3075 51.4562L80.5834 45.4425L80.5474 45.411L80.5111 45.3799L75.3075 51.4562ZM66.8292 54.6004L60.8122 49.3283L60.7935 49.3496L60.775 49.371L66.8292 54.6004ZM63.6252 63.683L69.3878 58.1339C69.6558 58.4122 69.9166 58.8429 70.0428 59.3558C70.1603 59.8336 70.1056 60.1508 70.0921 60.2127C70.0812 60.2623 70.107 60.1144 70.3009 59.7972C70.4908 59.4865 70.7991 59.085 71.2566 58.6445L65.7075 52.8819L60.1584 47.1192C57.5515 49.6295 55.3054 52.9429 54.4628 56.7882C53.5642 60.8896 54.3433 65.5773 57.8626 69.2321L63.6252 63.683ZM65.7075 52.8819L71.2566 58.6445C71.7227 58.1956 72.1424 57.8974 72.465 57.7162C72.7943 57.5311 72.9458 57.51 72.8967 57.5189C72.8351 57.5301 72.5148 57.5735 72.0396 57.4376C71.5296 57.2918 71.108 57.0139 70.84 56.7356L76.6026 51.1865L82.3652 45.6374C78.8442 41.9809 74.1857 41.0255 70.0466 41.7748C66.1686 42.4768 62.7705 44.6039 60.1584 47.1192L65.7075 52.8819ZM76.6026 51.1865L70.84 56.7356C70.5581 56.4428 70.2926 55.9984 70.1661 55.4775C70.0485 54.993 70.1056 54.6745 70.1183 54.6172C70.1285 54.5716 70.1001 54.725 69.9013 55.049C69.7068 55.3663 69.392 55.7754 68.926 56.2242L74.475 61.9868L80.0241 67.7494C82.6367 65.2336 84.8857 61.9225 85.7378 58.0861C86.6456 53.9983 85.8916 49.2994 82.3652 45.6374L76.6026 51.1865ZM74.475 61.9868L68.926 56.2242C68.4686 56.6646 68.0547 56.9585 67.7353 57.1377C67.409 57.3208 67.2574 57.3425 67.3042 57.334C67.3627 57.3234 67.6819 57.279 68.1594 57.4145C68.6729 57.5601 69.106 57.8413 69.3878 58.1339L63.6252 63.683L57.8626 69.2321C61.3873 72.8924 66.0508 73.8234 70.1633 73.0765C74.0256 72.375 77.4168 70.2601 80.0241 67.7494L74.475 61.9868ZM64.8981 63.3902L59.6222 69.4039C63.3854 72.7054 68.0006 72.6449 71.4488 71.3684C74.6257 70.1923 77.2861 67.9217 79.3732 65.537L73.3533 60.2682L67.3333 54.9995C66.8157 55.5909 66.3917 55.9733 66.0954 56.2001C65.7872 56.436 65.713 56.4306 65.894 56.3635C66.0799 56.2947 66.6809 56.1107 67.5712 56.2182C68.5383 56.335 69.4646 56.7542 70.174 57.3765L64.8981 63.3902ZM73.3533 60.2682L79.3732 65.537C81.4725 63.1384 83.365 60.188 84.0986 56.8717C84.8925 53.2825 84.3235 48.7237 80.5834 45.4425L75.3075 51.4562L70.0316 57.47C69.3278 56.8525 68.799 56.0004 68.5579 55.0746C68.3355 54.2206 68.4334 53.6098 68.4762 53.416C68.5179 53.2275 68.5341 53.2979 68.3455 53.6291C68.1639 53.9478 67.846 54.4137 67.3333 54.9995L73.3533 60.2682ZM75.3075 51.4562L80.5111 45.3799C76.766 42.1727 72.2091 42.2069 68.7453 43.4892C65.5657 44.6662 62.9058 46.9389 60.8122 49.3283L66.8292 54.6004L72.8463 59.8725C73.3723 59.2721 73.8006 58.8859 74.0987 58.6577C74.4081 58.4208 74.4819 58.4267 74.3001 58.494C74.1114 58.5638 73.5185 58.7437 72.6435 58.6402C71.697 58.5283 70.7956 58.125 70.1039 57.5326L75.3075 51.4562ZM66.8292 54.6004L60.775 49.371C58.7148 51.7562 56.8291 54.6959 56.0964 57.9972C55.2978 61.595 55.8725 66.1935 59.6944 69.4666L64.8981 63.3902L70.1017 57.3138C70.8206 57.9294 71.3747 58.796 71.6289 59.7551C71.8625 60.6368 71.7597 61.2685 71.7163 61.4641C71.674 61.6544 71.6585 61.5806 71.8531 61.2378C72.04 60.9086 72.3644 60.4307 72.8835 59.8298L66.8292 54.6004ZM89.7586 55.0021L94.4307 61.496L89.7586 55.0021ZM91.4779 57.3919L96.15 63.8858L91.4779 57.3919ZM72.9461 72.8931L77.6182 79.387L84.1121 74.7148L79.44 68.2209L72.9461 72.8931ZM72.4006 73.2855L65.9067 77.9577L70.5788 84.4516L77.0727 79.7794L72.4006 73.2855ZM68.9245 68.454L64.2524 61.9601L57.7584 66.6323L62.4306 73.1262L68.9245 68.454ZM69.47 68.0616L75.9639 63.3894L71.2918 56.8955L64.7979 61.5677L69.47 68.0616ZM81.5506 59.9219L74.5482 56.0532L70.7454 62.9364L77.5622 66.8568L81.5506 59.9219ZM81.8759 59.3331L85.8142 52.3696L78.781 48.3919L74.8736 55.4643L81.8759 59.3331ZM85.0664 61.1375L92.962 62.4257L93.8602 56.9202L89.0047 54.174L85.0664 61.1375ZM84.9789 61.6735L89.6511 68.1674L92.3409 66.2321L92.8745 62.9617L84.9789 61.6735ZM89.4234 57.0567L95.9173 52.3845C98.0117 55.2957 97.3418 59.4016 94.4307 61.496L89.7586 55.0021L85.0864 48.5082C80.8245 51.5745 79.8632 57.467 82.9294 61.7288L89.4234 57.0567ZM89.7586 55.0021L94.4307 61.496C91.586 63.5427 87.4796 63.0123 85.3192 60.0095L91.8131 55.3373L98.307 50.6652C95.1748 46.3116 89.2299 45.5271 85.0864 48.5082L89.7586 55.0021ZM91.8131 55.3373L85.3192 60.0095C83.2061 57.0724 83.8687 53.0111 86.8058 50.898L91.4779 57.3919L96.15 63.8858C100.386 60.8382 101.355 54.9011 98.307 50.6652L91.8131 55.3373ZM91.4779 57.3919L86.8058 50.898C89.8086 48.7375 93.8706 49.5398 95.9173 52.3845L89.4234 57.0567L82.9294 61.7288C85.9105 65.8723 91.7965 67.0181 96.15 63.8858L91.4779 57.3919ZM73.6795 69.803L69.0074 63.3091C68.5723 63.6221 67.8162 64.1742 67.1089 64.8734C66.3932 65.5809 65.1526 66.9879 64.5741 69.1501C63.9467 71.4956 64.4018 73.5399 64.9487 74.9076C65.428 76.1066 66.0843 77.0539 66.4522 77.5652L72.9461 72.8931L79.44 68.2209C79.2659 67.9789 79.5415 68.3082 79.8052 68.9675C80.1363 69.7957 80.5405 71.3789 80.0306 73.285C79.5697 75.0078 78.615 75.9973 78.3572 76.2522C78.1078 76.4987 77.9814 76.5633 78.3517 76.2969L73.6795 69.803ZM72.9461 72.8931L68.2739 66.3991L67.7284 66.7916L72.4006 73.2855L77.0727 79.7794L77.6182 79.387L72.9461 72.8931ZM72.4006 73.2855L78.8945 68.6134L75.4184 63.7819L68.9245 68.454L62.4306 73.1262L65.9067 77.9577L72.4006 73.2855ZM68.9245 68.454L73.5967 74.948L74.1422 74.5555L69.47 68.0616L64.7979 61.5677L64.2524 61.9601L68.9245 68.454ZM69.47 68.0616L62.9761 72.7337C63.3439 73.245 64.0335 74.1683 65.018 75.0039C66.141 75.9572 67.9346 77.0385 70.3579 77.189C72.5918 77.3279 74.3202 76.5988 75.2185 76.145C76.1062 75.6967 76.87 75.1553 77.3051 74.8423L72.6329 68.3484L67.9608 61.8544C67.5906 62.1208 67.692 62.0215 68.005 61.8634C68.3286 61.7 69.5702 61.1092 71.3502 61.2198C73.3195 61.3422 74.6921 62.2287 75.3721 62.8059C75.9135 63.2654 76.138 63.6314 75.9639 63.3894L69.47 68.0616ZM72.6329 68.3484L77.3051 74.8423L85.903 68.6564L81.2309 62.1624L76.5587 55.6685L67.9608 61.8544L72.6329 68.3484ZM81.2309 62.1624L85.903 68.6564C86.1389 68.4866 86.7869 68.0322 87.2912 67.6144C87.5726 67.3812 88.0707 66.9504 88.5759 66.3525C89.0648 65.7739 89.8892 64.658 90.3263 63.0302C91.4873 58.706 88.9703 55.7011 87.9199 54.7025C86.973 53.8023 85.9111 53.2011 85.539 52.987L81.5506 59.9219L77.5622 66.8568C77.997 67.1069 77.5 66.8729 76.8961 66.2988C76.5466 65.9666 75.7697 65.1616 75.2143 63.8472C74.572 62.3273 74.4185 60.5759 74.8735 58.8813C75.2704 57.4032 76.0042 56.4405 76.3548 56.0257C76.7216 55.5916 77.0334 55.3351 77.0832 55.2938C77.1245 55.2596 77.1281 55.2589 76.5587 55.6685L81.2309 62.1624ZM81.5506 59.9219L88.5529 63.7907L88.8783 63.2018L81.8759 59.3331L74.8736 55.4643L74.5482 56.0532L81.5506 59.9219ZM81.8759 59.3331L77.9376 66.2965L81.1281 68.1009L85.0664 61.1375L89.0047 54.174L85.8142 52.3696L81.8759 59.3331ZM85.0664 61.1375L77.1708 59.8493L77.0833 60.3853L84.9789 61.6735L92.8745 62.9617L92.962 62.4257L85.0664 61.1375ZM84.9789 61.6735L80.3068 55.1795L69.0074 63.3091L73.6795 69.803L78.3517 76.2969L89.6511 68.1674L84.9789 61.6735Z" fill="#FF9A99" mask="url(#path-1-outside-1_520_110)"/>
</svg>
